<svg width="263" height="254" viewBox="0 0 263 254" fill="none" xmlns="http://www.w3.org/2000/svg">
<path fill-rule="evenodd" clip-rule="evenodd" d="M149.982 3.50104C177.371 -1.47891 211.729 -4.07959 230.392 16.604C249.361 37.6275 230.318 71.6417 236.429 99.3079C241.598 122.71 263.347 140.244 262.996 164.209C262.573 193.079 257.6 226.65 234.315 243.676C211.026 260.705 178.178 252.897 149.982 246.845C126.4 241.783 109.911 223.225 88.376 212.351C60.7366 198.395 20.6789 201.613 6.17226 174.23C-8.21393 147.074 4.93776 111.608 21.1913 85.53C35.6166 62.3853 65.3257 57.0785 88.3142 42.4368C109.333 29.0494 125.473 7.95736 149.982 3.50104Z" fill="#CCCEF5"/>
</svg>
