<svg width="256" height="24" viewBox="0 0 256 24" fill="none" xmlns="http://www.w3.org/2000/svg">
<mask id="mask0_43_1987" style="mask-type:alpha" maskUnits="userSpaceOnUse" x="0" y="4" width="16" height="16">
<rect y="4" width="16" height="16" fill="#D9D9D9"/>
</mask>
<g mask="url(#mask0_43_1987)">
<path d="M3.40033 14.7001C3.15588 14.2779 2.97255 13.8445 2.85033 13.4001C2.7281 12.9556 2.66699 12.5001 2.66699 12.0334C2.66699 10.5445 3.18366 9.27786 4.21699 8.23341C5.25033 7.18897 6.51144 6.66675 8.00033 6.66675H8.11699L7.05033 5.60008L7.98366 4.66675L10.6503 7.33341L7.98366 10.0001L7.05033 9.06675L8.11699 8.00008H8.00033C6.88921 8.00008 5.94477 8.39175 5.16699 9.17508C4.38921 9.95842 4.00033 10.9112 4.00033 12.0334C4.00033 12.3223 4.03366 12.6056 4.10033 12.8834C4.16699 13.1612 4.26699 13.4334 4.40033 13.7001L3.40033 14.7001ZM8.01699 19.3334L5.35033 16.6667L8.01699 14.0001L8.95033 14.9334L7.88366 16.0001H8.00033C9.11144 16.0001 10.0559 15.6084 10.8337 14.8251C11.6114 14.0417 12.0003 13.089 12.0003 11.9667C12.0003 11.6779 11.967 11.3945 11.9003 11.1167C11.8337 10.839 11.7337 10.5667 11.6003 10.3001L12.6003 9.30008C12.8448 9.7223 13.0281 10.1556 13.1503 10.6001C13.2725 11.0445 13.3337 11.5001 13.3337 11.9667C13.3337 13.4556 12.817 14.7223 11.7837 15.7667C10.7503 16.8112 9.48921 17.3334 8.00033 17.3334H7.88366L8.95033 18.4001L8.01699 19.3334Z" fill="white"/>
</g>
<mask id="mask1_43_1987" style="mask-type:alpha" maskUnits="userSpaceOnUse" x="36" y="4" width="17" height="16">
<rect x="36.917" y="4" width="16" height="16" fill="#D9D9D9"/>
</mask>
<g mask="url(#mask1_43_1987)">
<path d="M44.9507 17.3334C43.4618 17.3334 42.1951 16.8167 41.1507 15.7834C40.1062 14.7501 39.584 13.489 39.584 12.0001V11.8834L38.5173 12.9501L37.584 12.0167L40.2507 9.35008L42.9173 12.0167L41.984 12.9501L40.9173 11.8834V12.0001C40.9173 13.1112 41.309 14.0556 42.0923 14.8334C42.8757 15.6112 43.8284 16.0001 44.9507 16.0001C45.2395 16.0001 45.5229 15.9667 45.8007 15.9001C46.0784 15.8334 46.3507 15.7334 46.6173 15.6001L47.6173 16.6001C47.1951 16.8445 46.7618 17.0279 46.3173 17.1501C45.8729 17.2723 45.4173 17.3334 44.9507 17.3334ZM49.584 14.6501L46.9173 11.9834L47.8507 11.0501L48.9173 12.1167V12.0001C48.9173 10.889 48.5257 9.94453 47.7423 9.16675C46.959 8.38897 46.0062 8.00008 44.884 8.00008C44.5951 8.00008 44.3118 8.03341 44.034 8.10008C43.7562 8.16675 43.484 8.26675 43.2173 8.40008L42.2173 7.40008C42.6395 7.15564 43.0729 6.9723 43.5173 6.85008C43.9618 6.72786 44.4173 6.66675 44.884 6.66675C46.3729 6.66675 47.6395 7.18341 48.684 8.21675C49.7284 9.25008 50.2507 10.5112 50.2507 12.0001V12.1167L51.3173 11.0501L52.2507 11.9834L49.584 14.6501Z" fill="white"/>
</g>
<path d="M74.701 17.5L80.2632 7.86603V17.5H74.701Z" stroke="white"/>
<path d="M81.4029 6V18H88.3311L81.4029 6Z" fill="#D9D9D9"/>
<path d="M120.748 18.3823L111.114 12.8201L120.748 12.8201L120.748 18.3823Z" stroke="white"/>
<path d="M109.248 11.6802L121.248 11.6802L121.248 4.75195L109.248 11.6802Z" fill="#D9D9D9"/>
<mask id="mask2_43_1987" style="mask-type:alpha" maskUnits="userSpaceOnUse" x="142" y="0" width="25" height="24">
<rect x="142.165" width="24" height="24" fill="#D9D9D9"/>
</mask>
<g mask="url(#mask2_43_1987)">
<path d="M148.78 21C148.333 21 147.952 20.8426 147.637 20.5279C147.322 20.2131 147.165 19.8321 147.165 19.3846V10.6154C147.165 10.1679 147.322 9.78685 147.637 9.4721C147.952 9.15737 148.333 9 148.78 9H150.165V7C150.165 5.8859 150.553 4.94071 151.329 4.16443C152.106 3.38814 153.051 3 154.165 3C155.279 3 156.224 3.38814 157.001 4.16443C157.777 4.94071 158.165 5.8859 158.165 7V9H159.55C159.997 9 160.378 9.15737 160.693 9.4721C161.008 9.78685 161.165 10.1679 161.165 10.6154V19.3846C161.165 19.8321 161.008 20.2131 160.693 20.5279C160.378 20.8426 159.997 21 159.55 21H148.78ZM148.78 20H159.55C159.729 20 159.877 19.9423 159.992 19.8269C160.107 19.7115 160.165 19.5641 160.165 19.3846V10.6154C160.165 10.4359 160.107 10.2885 159.992 10.1731C159.877 10.0577 159.729 10 159.55 10H148.78C148.601 10 148.453 10.0577 148.338 10.1731C148.223 10.2885 148.165 10.4359 148.165 10.6154V19.3846C148.165 19.5641 148.223 19.7115 148.338 19.8269C148.453 19.9423 148.601 20 148.78 20ZM154.165 16.5C154.587 16.5 154.942 16.3554 155.231 16.0663C155.52 15.7773 155.665 15.4218 155.665 15C155.665 14.5782 155.52 14.2227 155.231 13.9337C154.942 13.6446 154.587 13.5 154.165 13.5C153.743 13.5 153.388 13.6446 153.099 13.9337C152.81 14.2227 152.665 14.5782 152.665 15C152.665 15.4218 152.81 15.7773 153.099 16.0663C153.388 16.3554 153.743 16.5 154.165 16.5ZM151.165 9H157.165V7C157.165 6.16667 156.873 5.45833 156.29 4.875C155.707 4.29167 154.998 4 154.165 4C153.332 4 152.623 4.29167 152.04 4.875C151.457 5.45833 151.165 6.16667 151.165 7V9Z" fill="white"/>
</g>
<mask id="mask3_43_1987" style="mask-type:alpha" maskUnits="userSpaceOnUse" x="187" y="0" width="25" height="24">
<rect x="187.083" width="24" height="24" fill="#D9D9D9"/>
</mask>
<g mask="url(#mask3_43_1987)">
<path d="M193.483 19L192.083 17.6L197.683 12L192.083 6.4L193.483 5L199.083 10.6L204.683 5L206.083 6.4L200.483 12L206.083 17.6L204.683 19L199.083 13.4L193.483 19Z" fill="white"/>
</g>
<mask id="mask4_43_1987" style="mask-type:alpha" maskUnits="userSpaceOnUse" x="232" y="0" width="24" height="24">
<rect x="232" width="24" height="24" fill="#D9D9D9"/>
</mask>
<g mask="url(#mask4_43_1987)">
<path d="M241.55 18.0001L235.85 12.3001L237.275 10.8751L241.55 15.1501L250.725 5.9751L252.15 7.4001L241.55 18.0001Z" fill="white"/>
</g>
</svg>
