<svg width="14" height="16" viewBox="0 0 14 16" fill="none" xmlns="http://www.w3.org/2000/svg">
<path d="M4.8 12.8C4.36 12.8 3.98333 12.6433 3.67 12.33C3.35667 12.0167 3.2 11.64 3.2 11.2V1.6C3.2 1.16 3.35667 0.783333 3.67 0.47C3.98333 0.156667 4.36 0 4.8 0H12C12.44 0 12.8167 0.156667 13.13 0.47C13.4433 0.783333 13.6 1.16 13.6 1.6V11.2C13.6 11.64 13.4433 12.0167 13.13 12.33C12.8167 12.6433 12.44 12.8 12 12.8H4.8ZM1.6 16C1.16 16 0.783333 15.8433 0.47 15.53C0.156667 15.2167 0 14.84 0 14.4V3.2H1.6V14.4H10.4V16H1.6Z" fill="white"/>
</svg>
