<svg width="24" height="24" viewBox="0 0 24 24" fill="none" xmlns="http://www.w3.org/2000/svg">
<path d="M23.9883 2.62298C23.9883 8.87238 23.9883 15.1159 23.9883 21.3653C23.9707 21.4005 23.9531 21.4298 23.9472 21.4709C23.7125 22.9027 22.5037 23.9707 21.0543 23.9883C19.5932 24.0059 18.132 23.9883 16.6709 23.9941C16.5242 23.9941 16.489 23.9472 16.489 23.8064C16.4949 21.1834 16.4949 18.5604 16.489 15.9374C16.489 15.7848 16.5301 15.7379 16.6826 15.7438C17.2929 15.7496 17.9032 15.7379 18.5076 15.7496C18.6836 15.7555 18.7658 15.6968 18.8303 15.5325C19.2352 14.4998 19.646 13.4729 20.0567 12.446C20.1154 12.3051 20.1682 12.1584 20.2328 11.9941C20.1154 11.9941 20.0333 11.9941 19.9452 11.9941C18.8655 11.9941 17.7917 11.9883 16.712 12C16.5242 12 16.4831 11.9472 16.4831 11.7653C16.4949 10.8734 16.4831 9.98729 16.489 9.09536C16.489 8.5203 16.6885 8.30318 17.2577 8.25624C17.3516 8.25037 17.4455 8.25037 17.5394 8.25037C18.1262 8.25037 18.713 8.2445 19.2939 8.25624C19.4523 8.25624 19.4875 8.20929 19.4875 8.05673C19.4817 6.94181 19.4817 5.82103 19.4875 4.70611C19.4875 4.54181 19.4465 4.49487 19.2822 4.50074C18.3785 4.5066 17.469 4.50074 16.5653 4.5066C13.9658 4.51247 11.9941 6.48998 11.9883 9.08949C11.9883 9.98729 11.9824 10.8851 11.9941 11.7829C11.9941 11.9589 11.9531 12.0059 11.777 12.0059C10.9262 11.9941 10.0753 12.0059 9.22445 12C9.04841 12 8.98973 12.0352 8.98973 12.2289C9.00147 13.332 9.00147 14.4293 8.98973 15.5325C8.98973 15.7262 9.05428 15.7614 9.23032 15.7555C10.0753 15.7496 10.9144 15.7614 11.7594 15.7496C11.9589 15.7496 12 15.8083 12 15.9961C11.9941 18.5897 11.9941 21.1834 12 23.7712C12 23.9589 11.9472 24 11.7653 24C8.86064 23.9941 5.95599 23.9941 3.05135 23.9941C2.81663 23.9941 2.58191 23.9765 2.35306 23.9179C0.933008 23.5775 0 22.4039 0 20.9311C0 14.9751 0 9.01321 0 3.05721C0 3.0044 0 2.94572 0 2.89291C0.0821516 1.73105 0.627873 0.874328 1.65477 0.322739C1.9599 0.158435 2.30025 0.0997555 2.62298 0C8.87237 0 15.1159 0 21.3653 0C21.4005 0.0176039 21.4298 0.0352078 21.4709 0.0410758C22.4861 0.222983 23.2254 0.78044 23.6949 1.70171C23.8416 1.99511 23.8944 2.31785 23.9883 2.62298Z" fill="#3474BA"/>
</svg>
