<svg width="10" height="13" viewBox="0 0 10 13" fill="none" xmlns="http://www.w3.org/2000/svg">
<mask id="mask0_49_947" style="mask-type:alpha" maskUnits="userSpaceOnUse" x="-3" y="-2" width="16" height="17">
<rect x="-3" y="-1.69238" width="16" height="16" fill="#D9D9D9"/>
</mask>
<g mask="url(#mask0_49_947)">
<path d="M4.16025 8.14098H5.83972L5.4628 6.03587C5.6722 5.94612 5.84079 5.80531 5.96857 5.61343C6.09634 5.42156 6.16023 5.20852 6.16023 4.97433C6.16023 4.65468 6.04677 4.38139 5.81985 4.15447C5.59293 3.92754 5.31964 3.81408 4.99998 3.81408C4.68033 3.81408 4.40704 3.92754 4.18012 4.15447C3.95319 4.38139 3.83973 4.65468 3.83973 4.97433C3.83973 5.20852 3.90362 5.42156 4.0314 5.61343C4.15918 5.80531 4.32777 5.94612 4.53717 6.03587L4.16025 8.14098ZM4.99998 12.6282C3.55811 12.235 2.36431 11.3863 1.41858 10.082C0.472861 8.77774 0 7.31962 0 5.70767V1.87178L4.99998 0L9.99997 1.87178V5.70767C9.99997 7.31962 9.5271 8.77774 8.58138 10.082C7.63566 11.3863 6.44186 12.235 4.99998 12.6282ZM4.99998 11.5743C6.15554 11.2077 7.11109 10.4743 7.86665 9.37433C8.62221 8.27433 8.99998 7.05211 8.99998 5.70767V2.55767L4.99998 1.06408L0.999983 2.55767V5.70767C0.999983 7.05211 1.37776 8.27433 2.13332 9.37433C2.88887 10.4743 3.84443 11.2077 4.99998 11.5743Z" fill="#1C1B1F"/>
</g>
</svg>
