<svg width="11" height="16" viewBox="0 0 11 16" fill="none" xmlns="http://www.w3.org/2000/svg">
<path d="M5.27682 0.510628C4.73511 0.510628 4.21559 0.72582 3.83255 1.10887C3.4495 1.49191 3.23431 2.01143 3.23431 2.55314V7.99983C3.23431 8.54154 3.4495 9.06106 3.83255 9.44411C4.21559 9.82715 4.73511 10.0423 5.27682 10.0423C5.81853 10.0423 6.33805 9.82715 6.72109 9.44411C7.10414 9.06106 7.31933 8.54154 7.31933 7.99983V2.55314C7.31933 2.01143 7.10414 1.49191 6.72109 1.10887C6.33805 0.72582 5.81853 0.510628 5.27682 0.510628Z" stroke="#4B4B4B" stroke-linecap="round" stroke-linejoin="round"/>
<path d="M10.0423 6.63816V7.99983C10.0423 9.26382 9.54023 10.476 8.64646 11.3698C7.75269 12.2636 6.54047 12.7657 5.27649 12.7657C4.0125 12.7657 2.80029 12.2636 1.90652 11.3698C1.01274 10.476 0.510628 9.26382 0.510628 7.99983V6.63816" stroke="#4B4B4B" stroke-linecap="round" stroke-linejoin="round"/>
<path d="M5.27682 12.7657V15.489" stroke="#4B4B4B" stroke-linecap="round" stroke-linejoin="round"/>
<path d="M2.55314 15.4894H7.99983" stroke="#4B4B4B" stroke-linecap="round" stroke-linejoin="round"/>
</svg>
