<svg width="13" height="13" viewBox="0 0 13 13" fill="none" xmlns="http://www.w3.org/2000/svg">
<mask id="mask0_49_861" style="mask-type:alpha" maskUnits="userSpaceOnUse" x="-3" y="-3" width="17" height="17">
<rect x="-2.38716" y="-2.38741" width="16.3714" height="16.3714" fill="#D9D9D9"/>
</mask>
<g mask="url(#mask0_49_861)">
<path d="M1.23311 11.5964C0.892912 11.5964 0.602348 11.4759 0.361416 11.235C0.120472 10.994 0 10.7035 0 10.3633V1.23311C0 0.892913 0.120472 0.602348 0.361416 0.361416C0.602348 0.120472 0.892912 0 1.23311 0H10.3633C10.7035 0 10.994 0.120472 11.235 0.361416C11.4759 0.602348 11.5964 0.892913 11.5964 1.23311V5.54762C11.4285 5.47592 11.2603 5.41514 11.092 5.3653C10.9236 5.31545 10.7507 5.27566 10.5732 5.24593V1.23311C10.5732 1.18063 10.5513 1.13252 10.5076 1.08878C10.4639 1.04506 10.4157 1.0232 10.3633 1.0232H1.23311C1.18063 1.0232 1.13252 1.04506 1.08878 1.08878C1.04506 1.13252 1.0232 1.18063 1.0232 1.23311V10.3633C1.0232 10.4158 1.04506 10.4639 1.08878 10.5076C1.13252 10.5513 1.18063 10.5732 1.23311 10.5732H5.22887C5.25423 10.7621 5.29183 10.9407 5.34168 11.109C5.39152 11.2774 5.4523 11.4398 5.52402 11.5964H1.23311ZM1.0232 10.5732V1.0232V5.24593V5.19477V10.5732ZM2.55803 8.95965H5.2984C5.32813 8.78212 5.37229 8.60918 5.43089 8.44083C5.48949 8.27248 5.55333 8.10436 5.62242 7.93645H2.55803V8.95965ZM2.55803 6.30978H6.88309C7.17693 6.06055 7.49044 5.85176 7.82362 5.6834C8.15681 5.51506 8.51362 5.39547 8.89404 5.32463V5.2866H2.55803V6.30978ZM2.55803 3.65993H9.03835V2.63674H2.55803V3.65993ZM9.89104 13C9.03925 13 8.3147 12.7014 7.71738 12.104C7.12007 11.5067 6.82142 10.7822 6.82142 9.9304C6.82142 9.0786 7.12007 8.35404 7.71738 7.75674C8.3147 7.15943 9.03925 6.86078 9.89104 6.86078C10.7428 6.86078 11.4674 7.15943 12.0647 7.75674C12.662 8.35404 12.9607 9.0786 12.9607 9.9304C12.9607 10.7822 12.662 11.5067 12.0647 12.104C11.4674 12.7014 10.7428 13 9.89104 13ZM9.58933 11.9375H10.1928V10.2321H11.8981V9.62869H10.1928V7.92333H9.58933V9.62869H7.88397V10.2321H9.58933V11.9375Z" fill="#4B4B4B"/>
</g>
</svg>
