<svg width="21" height="21" viewBox="0 0 21 21" fill="none" xmlns="http://www.w3.org/2000/svg">
<mask id="mask0_18_45" style="mask-type:alpha" maskUnits="userSpaceOnUse" x="-2" y="-2" width="25" height="25">
<rect x="-1.5" y="-1.5" width="24" height="24" fill="#D9D9D9"/>
</mask>
<g mask="url(#mask0_18_45)">
<path d="M10.5 13.5C11.3333 13.5 12.0417 13.2083 12.625 12.625C13.2083 12.0417 13.5 11.3333 13.5 10.5C13.5 9.66667 13.2083 8.95833 12.625 8.375C12.0417 7.79167 11.3333 7.5 10.5 7.5C9.66667 7.5 8.95833 7.79167 8.375 8.375C7.79167 8.95833 7.5 9.66667 7.5 10.5C7.5 11.3333 7.79167 12.0417 8.375 12.625C8.95833 13.2083 9.66667 13.5 10.5 13.5ZM10.5 14.5C9.3859 14.5 8.44071 14.1119 7.66442 13.3356C6.88814 12.5593 6.5 11.6141 6.5 10.5C6.5 9.3859 6.88814 8.44071 7.66442 7.66443C8.44071 6.88814 9.3859 6.5 10.5 6.5C11.6141 6.5 12.5593 6.88814 13.3356 7.66443C14.1119 8.44071 14.5 9.3859 14.5 10.5C14.5 11.6141 14.1119 12.5593 13.3356 13.3356C12.5593 14.1119 11.6141 14.5 10.5 14.5ZM0.5 11C0.358333 11 0.239583 10.952 0.14375 10.8561C0.0479167 10.7601 0 10.6412 0 10.4993C0 10.3575 0.0479167 10.2388 0.14375 10.1433C0.239583 10.0478 0.358333 10 0.5 10H3C3.14167 10 3.26042 10.048 3.35625 10.144C3.45208 10.2399 3.5 10.3588 3.5 10.5007C3.5 10.6425 3.45208 10.7612 3.35625 10.8567C3.26042 10.9522 3.14167 11 3 11H0.5ZM18 11C17.8583 11 17.7396 10.952 17.6438 10.8561C17.5479 10.7601 17.5 10.6412 17.5 10.4993C17.5 10.3575 17.5479 10.2388 17.6438 10.1433C17.7396 10.0478 17.8583 10 18 10H20.5C20.6417 10 20.7604 10.048 20.8563 10.144C20.9521 10.2399 21 10.3588 21 10.5007C21 10.6425 20.9521 10.7612 20.8563 10.8567C20.7604 10.9522 20.6417 11 20.5 11H18ZM10.4993 3.5C10.3575 3.5 10.2388 3.45208 10.1433 3.35625C10.0478 3.26042 10 3.14167 10 3V0.5C10 0.358333 10.048 0.239583 10.144 0.14375C10.2399 0.0479167 10.3588 0 10.5007 0C10.6425 0 10.7612 0.0479167 10.8567 0.14375C10.9522 0.239583 11 0.358333 11 0.5V3C11 3.14167 10.952 3.26042 10.8561 3.35625C10.7601 3.45208 10.6412 3.5 10.4993 3.5ZM10.4993 21C10.3575 21 10.2388 20.9521 10.1433 20.8563C10.0478 20.7604 10 20.6417 10 20.5V18C10 17.8583 10.048 17.7396 10.144 17.6438C10.2399 17.5479 10.3588 17.5 10.5007 17.5C10.6425 17.5 10.7612 17.5479 10.8567 17.6438C10.9522 17.7396 11 17.8583 11 18V20.5C11 20.6417 10.952 20.7604 10.8561 20.8563C10.7601 20.9521 10.6412 21 10.4993 21ZM4.86153 5.53078L3.42115 4.13463C3.32372 4.04103 3.27596 3.92627 3.27788 3.79037C3.27981 3.65447 3.32952 3.5314 3.427 3.42115C3.53335 3.3109 3.65128 3.25578 3.78078 3.25578C3.91026 3.25578 4.02821 3.3109 4.13462 3.42115L5.55 4.8423C5.65642 4.95257 5.70963 5.07052 5.70963 5.19615C5.70963 5.3218 5.65963 5.43975 5.55963 5.55C5.45963 5.66025 5.34584 5.71121 5.21827 5.70287C5.09071 5.69454 4.97179 5.63718 4.86153 5.53078ZM16.8654 17.5788L15.45 16.1577C15.3436 16.0474 15.2904 15.9285 15.2904 15.801C15.2904 15.6734 15.3436 15.5564 15.45 15.45C15.5372 15.3398 15.6462 15.2888 15.7769 15.2971C15.9077 15.3055 16.0282 15.3628 16.1385 15.4692L17.5788 16.8654C17.6763 16.959 17.724 17.0737 17.7221 17.2096C17.7202 17.3455 17.6705 17.4686 17.573 17.5788C17.4667 17.6891 17.3487 17.7442 17.2192 17.7442C17.0897 17.7442 16.9718 17.6891 16.8654 17.5788ZM15.45 5.55963C15.3398 5.45963 15.2888 5.34584 15.2971 5.21828C15.3055 5.09071 15.3628 4.97179 15.4692 4.86153L16.8654 3.42115C16.959 3.32372 17.0737 3.27596 17.2096 3.27787C17.3455 3.27981 17.4686 3.32952 17.5788 3.427C17.6891 3.53335 17.7442 3.65128 17.7442 3.78078C17.7442 3.91026 17.6891 4.02821 17.5788 4.13463L16.1577 5.55C16.0474 5.65642 15.9295 5.70963 15.8039 5.70963C15.6782 5.70963 15.5602 5.65963 15.45 5.55963ZM3.42115 17.583C3.3109 17.47 3.25578 17.3487 3.25578 17.2192C3.25578 17.0897 3.3109 16.9718 3.42115 16.8654L4.8423 15.45C4.95257 15.3436 5.07148 15.2904 5.19903 15.2904C5.32659 15.2904 5.44358 15.3436 5.55 15.45C5.64743 15.5372 5.69198 15.6462 5.68365 15.7769C5.67532 15.9077 5.62436 16.0282 5.53077 16.1385L4.13462 17.5788C4.02821 17.6891 3.91026 17.7433 3.78078 17.7414C3.65128 17.7394 3.5314 17.6867 3.42115 17.583Z" fill="#C8C437"/>
</g>
</svg>
