<svg width="11" height="11" viewBox="0 0 11 11" fill="none" xmlns="http://www.w3.org/2000/svg">
<mask id="mask0_43_1756" style="mask-type:alpha" maskUnits="userSpaceOnUse" x="-3" y="-3" width="17" height="17">
<rect x="-2.75025" y="-2.75" width="16.4995" height="16.4995" fill="#D9D9D9"/>
</mask>
<g mask="url(#mask0_43_1756)">
<path d="M5.49983 8.24975L2.06244 4.81235L3.02491 3.81551L4.81235 5.60295V0H6.18731V5.60295L7.97476 3.81551L8.93723 4.81235L5.49983 8.24975ZM1.37496 10.9997C0.996845 10.9997 0.673157 10.865 0.403894 10.5958C0.134631 10.3265 0 10.0028 0 9.62471V7.56227H1.37496V9.62471H9.62471V7.56227H10.9997V9.62471C10.9997 10.0028 10.865 10.3265 10.5958 10.5958C10.3265 10.865 10.0028 10.9997 9.62471 10.9997H1.37496Z" fill="#4B4B4B"/>
</g>
</svg>
