<svg width="14" height="17" viewBox="0 0 14 17" fill="none" xmlns="http://www.w3.org/2000/svg">
<mask id="mask0_18_55" style="mask-type:alpha" maskUnits="userSpaceOnUse" x="-5" y="-4" width="24" height="25">
<rect x="-5" y="-3.38452" width="24" height="24" fill="#D9D9D9"/>
</mask>
<g mask="url(#mask0_18_55)">
<path d="M7 16.6154C5.05257 16.6154 3.39904 15.9513 2.03942 14.6231C0.679808 13.2949 0 11.659 0 9.7154C0 8.78592 0.185892 7.90803 0.557675 7.08175C0.929475 6.25547 1.42435 5.51412 2.0423 4.8577L7 0L11.9577 4.8577C12.5757 5.51412 13.0705 6.25547 13.4423 7.08175C13.8141 7.90803 14 8.78592 14 9.7154C14 11.659 13.3202 13.2949 11.9606 14.6231C10.601 15.9513 8.94743 16.6154 7 16.6154ZM1.06922 10.6154H12.9192C13.1192 9.4154 13.0035 8.38399 12.5721 7.52118C12.1407 6.65836 11.7 6.01028 11.25 5.57695L7 1.37695L2.75 5.57695C2.3 6.01028 1.86154 6.65836 1.43463 7.52118C1.00769 8.38399 0.885892 9.4154 1.06922 10.6154Z" fill="white"/>
</g>
</svg>
