<svg width="10" height="14" viewBox="0 0 10 14" fill="none" xmlns="http://www.w3.org/2000/svg">
<mask id="mask0_49_941" style="mask-type:alpha" maskUnits="userSpaceOnUse" x="-3" y="-2" width="16" height="17">
<rect x="-3" y="-1.66675" width="16" height="16" fill="#D9D9D9"/>
</mask>
<g mask="url(#mask0_49_941)">
<path d="M3.53332 7.32562L4.0846 5.51537L2.63462 4.39742H4.43845L4.99998 2.59487L5.56152 4.39742H7.36535L5.9051 5.51537L6.45638 7.32562L4.99998 6.19998L3.53332 7.32562ZM1.33333 13.1538V8.38202C0.911111 7.941 0.583333 7.43117 0.35 6.85255C0.116667 6.27392 0 5.6564 0 4.99998C0 3.60512 0.484616 2.42307 1.45385 1.45385C2.42307 0.484617 3.60512 0 4.99998 0C6.39485 0 7.57689 0.484617 8.54612 1.45385C9.51535 2.42307 9.99997 3.60512 9.99997 4.99998C9.99997 5.6564 9.8833 6.27392 9.64997 6.85255C9.41663 7.43117 9.08886 7.941 8.66663 8.38202V13.1538L4.99998 11.9872L1.33333 13.1538ZM4.99998 8.99998C6.11109 8.99998 7.05554 8.6111 7.83332 7.83332C8.61109 7.05554 8.99998 6.1111 8.99998 4.99998C8.99998 3.88887 8.61109 2.94443 7.83332 2.16665C7.05554 1.38887 6.11109 0.999984 4.99998 0.999984C3.88887 0.999984 2.94443 1.38887 2.16665 2.16665C1.38887 2.94443 0.999983 3.88887 0.999983 4.99998C0.999983 6.1111 1.38887 7.05554 2.16665 7.83332C2.94443 8.6111 3.88887 8.99998 4.99998 8.99998ZM2.33332 11.6897L4.99998 10.9743L7.66665 11.6897V9.21277C7.28631 9.46063 6.87007 9.6538 6.41793 9.79227C5.9658 9.93073 5.49315 9.99997 4.99998 9.99997C4.50682 9.99997 4.03417 9.93073 3.58203 9.79227C3.1299 9.6538 2.71366 9.46063 2.33332 9.21277V11.6897Z" fill="#1C1B1F"/>
</g>
</svg>
