<svg width="186" height="184" viewBox="0 0 186 184" fill="none" xmlns="http://www.w3.org/2000/svg">
<g clip-path="url(#clip0_34_3982)">
<path opacity="0.56" d="M91.8599 184.012C141.215 184.012 181.225 177.159 181.225 168.705C181.225 160.252 141.215 153.399 91.8599 153.399C42.5049 153.399 2.49487 160.252 2.49487 168.705C2.49487 177.159 42.5049 184.012 91.8599 184.012Z" fill="#D2EBFF"/>
<path d="M83.7544 159.612C52.4181 153.005 28.5309 129.8 14.6833 92.4839C4.83477 65.9097 3.48582 41.319 3.43807 40.2795L2.90088 29.645L86.691 0L170.481 29.645L169.944 40.2795C169.896 41.3071 168.547 65.9097 158.687 92.4839C144.839 129.788 120.964 153.005 89.6157 159.612L86.6791 160.234L83.7544 159.612Z" fill="#89CAF7"/>
<path d="M153.064 41.1159L86.691 17.6365L20.3179 41.1159C20.3179 41.1159 24.8184 130.099 86.691 143.135C148.576 130.099 153.064 41.1159 153.064 41.1159Z" fill="#D2EBFF"/>
<path d="M86.5356 134.09L116.965 129.74H143.717L167.628 134.424L126.491 155.179L86.5356 134.09Z" fill="#073A93"/>
<path d="M142.392 156.016C142.392 156.016 88.5532 126.395 82.1904 136.097C73.0104 150.125 87.0371 157.187 137.032 170.569L142.392 156.016Z" fill="#073A93"/>
<path d="M157.242 170.82C158.579 167.594 157.051 163.902 153.828 162.564L141.401 157.414L136.578 169.088L149.005 174.238C152.217 175.576 155.905 174.047 157.242 170.82Z" fill="#1858B5"/>
<path d="M140.601 159.302L150.008 163.197C152.193 164.105 153.231 166.602 152.336 168.789C151.429 170.976 148.922 172.015 146.737 171.107L137.33 167.212L140.601 159.302Z" fill="#489BFF"/>
<path opacity="0.45" d="M137.378 167.116L149.805 172.266C152.694 173.461 155.941 172.35 157.541 169.793C157.457 170.139 157.374 170.486 157.23 170.82C155.893 174.047 152.205 175.576 148.982 174.238L136.554 169.088L137.378 167.116Z" fill="#063272"/>
<path d="M141.485 167.319L143.466 162.516C143.562 162.277 143.848 162.157 144.087 162.253C144.326 162.349 144.445 162.635 144.35 162.874L142.356 167.678C142.261 167.917 141.974 168.036 141.735 167.941C141.509 167.833 141.389 167.558 141.485 167.319Z" fill="#E6E6E6"/>
<path d="M144.421 168.526L146.415 163.723C146.51 163.484 146.797 163.364 147.036 163.46C147.274 163.556 147.394 163.842 147.298 164.081L145.305 168.885C145.209 169.124 144.923 169.243 144.684 169.148C144.433 169.052 144.314 168.765 144.421 168.526Z" fill="#E6E6E6"/>
<path d="M147.632 169.864L149.614 165.061C149.71 164.822 149.996 164.703 150.235 164.798C150.474 164.894 150.593 165.181 150.498 165.419L148.504 170.223C148.408 170.462 148.122 170.581 147.883 170.486C147.656 170.378 147.537 170.103 147.632 169.864Z" fill="#E6E6E6"/>
<path d="M161.898 115.975C161.074 113.131 156.944 108.304 153.291 98.4224C149.483 88.1464 133.248 87.0352 133.248 87.0352L126.945 90.4047L120.642 87.0352C120.642 87.0352 104.406 88.1464 100.598 98.4224C96.9335 108.304 92.815 113.131 91.9913 115.975C91.1676 118.819 95.6323 137.244 108.465 139.861H126.443H127.422H145.4C158.257 137.256 162.734 118.831 161.898 115.975Z" fill="#489BFF"/>
<path d="M133.952 87.1069V92.1613C133.952 92.1613 132.782 97.8011 127.291 98.7451C121.561 97.4666 120.677 92.1613 120.677 92.1613V87.1069H133.952Z" fill="#F49290"/>
<path d="M114.709 77.1774C114.709 77.1774 112.834 65.372 117.323 63.9381C118.541 63.5438 117.657 59.6485 124.486 59.6007C133.809 59.5409 141.162 58.2744 139.945 77.3447L114.709 77.1774Z" fill="#073A93"/>
<path d="M120.618 78.4798C120.618 76.6995 119.173 75.2537 117.395 75.2537C115.616 75.2537 114.171 76.6995 114.171 78.4798C114.171 80.2602 115.616 81.706 117.395 81.706C119.173 81.706 120.618 80.2602 120.618 78.4798Z" fill="#FFB5B1"/>
<path d="M140.243 78.4798C140.243 76.6995 138.799 75.2537 137.02 75.2537C135.241 75.2537 133.797 76.6995 133.797 78.4798C133.797 80.2602 135.241 81.706 137.02 81.706C138.811 81.706 140.243 80.2602 140.243 78.4798Z" fill="#FFB5B1"/>
<path d="M138.047 73.0191L138.035 73.0072C138.035 73.0072 138.035 73.0072 138.023 73.0072C137.891 72.9713 135.325 72.111 134.823 68.7295L133.415 69.1238C129.511 70.2111 125.357 70.1753 121.477 69.0043L120.355 68.7175C119.866 72.099 117.168 72.9594 117.024 72.9952H117.001L116.917 78.2288C116.917 81.2758 118.194 84.9679 120.26 87.8118C121.931 90.1298 124.641 91.4681 127.482 91.4681C130.335 91.4681 133.045 90.1298 134.716 87.8118C136.769 84.9679 138.059 81.2638 138.059 78.2288V73.0191H138.047Z" fill="#FFB5B1"/>
<path d="M144.254 116.298H110.304C108.417 116.298 106.877 117.827 106.877 119.727V140.1C106.877 141.988 108.405 143.529 110.304 143.529H144.266C146.152 143.529 147.692 142 147.692 140.1V119.727C147.68 117.827 146.152 116.298 144.254 116.298Z" fill="#D2EBFF"/>
<path d="M127.159 133.875C129.5 133.875 131.397 131.975 131.397 129.633C131.397 127.29 129.5 125.391 127.159 125.391C124.819 125.391 122.922 127.29 122.922 129.633C122.922 131.975 124.819 133.875 127.159 133.875Z" fill="#89CAF7"/>
<path d="M110.447 156.016C110.447 156.016 164.285 126.395 170.648 136.097C179.828 150.125 165.802 157.187 115.807 170.569L110.447 156.016Z" fill="#073A93"/>
<path d="M95.5963 170.82C94.2593 167.594 95.7873 163.902 99.0105 162.564L111.438 157.414L116.26 169.088L103.833 174.238C100.622 175.576 96.9333 174.047 95.5963 170.82Z" fill="#1858B5"/>
<path d="M115.508 167.212L106.101 171.107C103.917 172.015 101.41 170.964 100.503 168.789C99.5954 166.602 100.646 164.105 102.831 163.197L112.237 159.302L115.508 167.212Z" fill="#489BFF"/>
<path opacity="0.45" d="M115.46 167.116L103.033 172.266C100.145 173.461 96.8975 172.35 95.2979 169.793C95.3814 170.139 95.465 170.486 95.6082 170.82C96.9452 174.047 100.634 175.576 103.857 174.238L116.284 169.088L115.46 167.116Z" fill="#063272"/>
<path d="M111.354 167.319L109.372 162.516C109.277 162.277 108.99 162.157 108.752 162.253C108.513 162.349 108.394 162.635 108.489 162.874L110.471 167.678C110.566 167.917 110.853 168.036 111.091 167.941C111.33 167.833 111.45 167.558 111.354 167.319Z" fill="#E6E6E6"/>
<path d="M108.417 168.526L106.436 163.723C106.34 163.484 106.054 163.364 105.815 163.46C105.576 163.556 105.457 163.842 105.552 164.081L107.534 168.885C107.629 169.124 107.916 169.243 108.155 169.148C108.405 169.052 108.525 168.765 108.417 168.526Z" fill="#E6E6E6"/>
<path d="M105.206 169.864L103.224 165.061C103.129 164.822 102.842 164.703 102.604 164.798C102.365 164.894 102.246 165.181 102.341 165.419L104.323 170.223C104.418 170.462 104.705 170.581 104.943 170.486C105.182 170.378 105.302 170.103 105.206 169.864Z" fill="#E6E6E6"/>
<path d="M28.2922 134.472C28.2922 134.472 14.0268 111.674 18.4437 108.376C22.8606 105.078 27.182 118.497 29.4502 116.334C31.7064 114.183 21.5833 95.0171 26.3583 90.8948C31.1453 86.7724 30.7872 100.765 34.846 103.369C38.9048 105.974 32.6495 84.299 37.5081 80.9056C42.3667 77.5241 44.7065 88.3019 44.7065 88.3019C44.7065 88.3019 50.0903 66.8418 57.3365 71.0478C64.5826 75.2538 46.2225 96.8692 50.532 96.1284C54.8415 95.3875 59.2704 88.0988 63.0068 93.0097C66.7433 97.9207 42.2593 110.443 46.1867 110.12C50.1142 109.798 57.0619 104.923 58.2676 109.272C59.4733 113.61 38.4034 121.448 40.588 122.953C42.7726 124.459 53.791 115.94 55.5219 122.213C57.2648 128.462 32.6614 138.451 28.2922 134.472Z" fill="#073A93"/>
<path d="M26.5613 143.374C29.2234 138.929 31.4438 134.114 33.1628 129.047C34.07 126.383 34.834 123.635 35.5861 120.97C35.9204 119.763 36.2666 118.544 36.6128 117.338C40.5402 103.859 46.1032 90.847 53.1225 78.6831L53.397 78.8384C46.3777 90.9785 40.8387 103.955 36.9112 117.421C36.565 118.628 36.2188 119.835 35.8846 121.054C35.1325 123.718 34.3685 126.478 33.4612 129.143C31.7303 134.233 29.5099 139.072 26.8358 143.541L26.5613 143.374Z" fill="#D2EBFF"/>
<path d="M42.1159 101.195C42.0921 101.171 42.0682 101.147 42.0563 101.111C40.4566 96.212 39.3703 91.1218 38.8331 85.9838C38.8212 85.9001 38.8928 85.8165 38.9763 85.8045C39.0599 85.7926 39.1435 85.8643 39.1554 85.9479C39.6926 91.062 40.767 96.1283 42.3666 101.003C42.3905 101.087 42.3428 101.183 42.2592 101.207C42.2114 101.23 42.1518 101.219 42.1159 101.195Z" fill="#D2EBFF"/>
<path d="M40.1104 107.109C40.0984 107.097 40.0865 107.085 40.0745 107.074C40.0268 107.002 40.0387 106.906 40.1104 106.846C44.5273 103.608 49.0994 100.275 54.0058 97.5981C54.9011 97.1082 55.868 96.6063 56.9305 96.3554C57.014 96.3315 57.1095 96.3913 57.1215 96.4749C57.1453 96.5585 57.0857 96.6422 57.0021 96.6661C55.9874 96.917 55.0443 97.4069 54.1609 97.8849C49.2785 100.549 44.7183 103.883 40.3014 107.109C40.2417 107.145 40.17 107.145 40.1104 107.109Z" fill="#D2EBFF"/>
<path d="M36.9233 116.824C36.9113 116.812 36.8874 116.8 36.8755 116.776C35.0132 113.968 32.6496 110.216 30.9545 106.153C29.7965 103.381 28.937 100.454 28.1014 97.6219C28.0775 97.5382 28.1252 97.4426 28.2088 97.4187C28.2924 97.3949 28.3879 97.4427 28.4117 97.5263C29.2474 100.346 30.1069 103.262 31.2529 106.022C32.948 110.061 35.2878 113.789 37.1501 116.585C37.1978 116.656 37.1739 116.764 37.1023 116.812C37.0426 116.859 36.971 116.859 36.9233 116.824Z" fill="#D2EBFF"/>
<path d="M36.8755 116.967C36.8158 116.931 36.7919 116.848 36.8158 116.776C36.8516 116.692 36.9352 116.645 37.0187 116.68C37.4724 116.848 37.9737 116.776 38.4632 116.692C39.7644 116.441 41.0417 115.963 42.2713 115.509C42.4981 115.426 42.7249 115.342 42.9637 115.259C46.6046 113.932 50.4127 112.917 54.0895 111.925C54.1731 111.901 54.2686 111.949 54.2805 112.044C54.3044 112.128 54.2566 112.224 54.1611 112.235C50.4844 113.215 46.6882 114.231 43.0592 115.557C42.8323 115.641 42.6055 115.725 42.3668 115.808C41.1253 116.274 39.836 116.752 38.5109 117.003C38.0095 117.099 37.4246 117.17 36.8994 116.979C36.8994 116.991 36.8874 116.979 36.8755 116.967Z" fill="#D2EBFF"/>
<path d="M32.9718 129.788C28.7101 126.849 23.8276 118.951 20.9387 113.072C20.9029 112.988 20.9268 112.893 21.0103 112.857C21.0939 112.821 21.1894 112.845 21.2252 112.928C24.1022 118.771 28.9489 126.622 33.1628 129.525C33.2345 129.573 33.2583 129.681 33.1987 129.752C33.139 129.812 33.0435 129.836 32.9718 129.788Z" fill="#D2EBFF"/>
<path d="M33.2464 129.908C33.2106 129.884 33.1748 129.848 33.139 129.824C33.0674 129.764 33.0554 129.669 33.1151 129.597C33.1748 129.525 33.2822 129.525 33.3419 129.573C33.9508 130.063 34.8461 129.908 35.7414 129.669L51.2961 125.403C51.3797 125.379 51.4752 125.427 51.4991 125.51C51.5229 125.594 51.4752 125.69 51.3916 125.714L35.813 129.979C34.8938 130.23 33.9508 130.397 33.2464 129.908Z" fill="#D2EBFF"/>
<path d="M26.3941 134.054C26.3941 134.054 1.70712 123.348 3.47389 118.114C5.24066 112.881 16.4262 121.496 17.0708 118.437C17.7155 115.378 -1.5041 105.317 0.107483 99.1992C1.71906 93.0814 9.35914 104.839 14.1819 104.672C19.0047 104.516 1.55193 90.1778 3.64102 84.6336C5.7301 79.0774 13.7761 86.641 13.7761 86.641C13.7761 86.641 6.05242 65.8739 14.4207 65.2287C22.789 64.5834 19.8881 92.8424 23.0277 89.7835C26.1673 86.7246 25.6779 78.1931 31.5512 80.1288C37.4245 82.0646 24.317 106.285 27.373 103.799C30.429 101.302 33.4015 93.3323 36.8634 96.2359C40.3253 99.1394 27.373 117.565 30.0231 117.565C32.6733 117.565 36.935 104.277 41.9249 108.471C46.9029 112.642 32.2674 134.854 26.3941 134.054Z" fill="#489BFF"/>
<path d="M30.0112 142.382C29.6889 137.208 28.7816 131.975 27.3253 126.813C26.5612 124.101 25.642 121.4 24.7467 118.771C24.3408 117.577 23.935 116.382 23.541 115.187C19.148 101.828 16.3546 87.9434 15.2444 73.9155L15.5667 73.8916C16.665 87.8837 19.4584 101.744 23.8395 115.079C24.2334 116.274 24.6393 117.469 25.0452 118.664C25.9405 121.293 26.8716 124.005 27.6356 126.717C29.092 131.903 29.9993 137.161 30.3216 142.358L30.0112 142.382Z" fill="#D2EBFF"/>
<path d="M18.9451 98.7332C18.9093 98.7332 18.8735 98.7212 18.8496 98.6973C14.7431 95.5667 10.9708 91.9821 7.61634 88.0509C7.55665 87.9792 7.56859 87.8836 7.64022 87.8239C7.71184 87.7642 7.80734 87.7761 7.86703 87.8478C11.1976 91.767 14.9699 95.3278 19.0526 98.4464C19.1242 98.5061 19.1361 98.6017 19.0884 98.6734C19.0406 98.7212 18.9929 98.7332 18.9451 98.7332Z" fill="#D2EBFF"/>
<path d="M20.6401 104.767C20.6282 104.767 20.6043 104.767 20.5924 104.755C20.5088 104.731 20.4611 104.636 20.4969 104.552C22.3114 99.3784 24.1856 94.0134 26.7164 89.0307C27.182 88.1107 27.6953 87.1548 28.4235 86.3422C28.4832 86.2705 28.5906 86.2705 28.6503 86.3303C28.7219 86.39 28.7219 86.4856 28.6622 86.5573C27.9698 87.334 27.4565 88.2779 27.0029 89.1741C24.4841 94.1448 22.6099 99.4859 20.7953 104.66C20.7715 104.72 20.7118 104.767 20.6401 104.767Z" fill="#D2EBFF"/>
<path d="M23.5171 114.589C23.4932 114.589 23.4812 114.589 23.4574 114.577C20.3297 113.323 16.259 111.566 12.5464 109.176C10.0156 107.551 7.65197 105.628 5.35994 103.764C5.28832 103.704 5.27638 103.608 5.33607 103.537C5.39576 103.465 5.49126 103.453 5.56288 103.513C7.84297 105.365 10.2066 107.288 12.7255 108.913C16.4142 111.291 20.461 113.036 23.5767 114.279C23.6603 114.314 23.6961 114.41 23.6603 114.494C23.6364 114.553 23.5767 114.589 23.5171 114.589Z" fill="#D2EBFF"/>
<path d="M23.5529 114.745C23.4812 114.745 23.4216 114.697 23.3977 114.625C23.3738 114.541 23.4216 114.446 23.5171 114.434C23.9826 114.314 24.3646 113.968 24.7108 113.621C25.642 112.677 26.4298 111.554 27.1819 110.479C27.3252 110.276 27.4684 110.073 27.6117 109.881C29.8679 106.715 32.4225 103.716 34.9055 100.812C34.9652 100.741 35.0607 100.741 35.1324 100.8C35.204 100.86 35.204 100.956 35.1443 101.027C32.6732 103.919 30.1186 106.918 27.8743 110.073C27.731 110.276 27.5878 110.467 27.4565 110.67C26.6925 111.757 25.9046 112.881 24.9496 113.848C24.5914 114.207 24.1498 114.601 23.6126 114.745C23.5887 114.733 23.5648 114.745 23.5529 114.745Z" fill="#D2EBFF"/>
<path d="M27.5999 127.53C22.419 127.53 13.9075 123.778 8.18934 120.576C8.11771 120.528 8.0819 120.432 8.12965 120.36C8.1774 120.277 8.2729 120.253 8.34453 120.301C14.0268 123.491 22.4787 127.219 27.5999 127.219C27.6835 127.219 27.7551 127.291 27.7551 127.374C27.7551 127.458 27.6835 127.53 27.5999 127.53Z" fill="#D2EBFF"/>
<path d="M27.8982 127.47C27.8504 127.47 27.8027 127.47 27.7549 127.458C27.6713 127.446 27.5997 127.375 27.6117 127.279C27.6236 127.195 27.7072 127.124 27.7907 127.136C28.5667 127.195 29.2232 126.562 29.8201 125.845L40.2297 113.514C40.2894 113.442 40.3849 113.442 40.4565 113.49C40.5282 113.55 40.5282 113.645 40.4804 113.717L30.0589 126.072C29.4381 126.801 28.7577 127.47 27.8982 127.47Z" fill="#D2EBFF"/>
<path d="M15.4712 137.865L19.4106 162.289C19.9717 165.754 22.9561 168.299 26.4657 168.299H38.475C41.9846 168.299 44.969 165.754 45.5301 162.289L49.4695 137.865H15.4712Z" fill="#D2EBFF"/>
<path d="M49.4695 137.865H42.7725H15.4712L16.0203 141.247H42.2353L38.8331 162.289C38.272 165.754 35.2876 168.299 31.778 168.299H38.475C41.9846 168.299 44.969 165.754 45.5301 162.289L48.9323 141.247L49.4695 137.865Z" fill="#ACCFE5"/>
<path d="M49.8395 130.84H15.0891C13.1314 130.84 11.5317 132.441 11.5317 134.4C11.5317 136.36 13.1314 137.961 15.0891 137.961H49.8515C51.8093 137.961 53.4089 136.36 53.4089 134.4C53.397 132.441 51.7973 130.84 49.8395 130.84Z" fill="#D2EBFF"/>
<path d="M182.395 28.9998H112.416C110.435 28.9998 108.811 30.6248 108.811 32.6083V49.253C108.811 51.2365 110.435 52.8616 112.416 52.8616H182.407C184.388 52.8616 186.012 51.2365 186.012 49.253V32.6083C186 30.6248 184.376 28.9998 182.395 28.9998Z" fill="#FFAA45"/>
<path d="M125.512 49.277H115.89C115.067 49.277 114.386 48.6079 114.386 47.7715V41.1877C114.386 40.3632 115.055 39.6821 115.89 39.6821H125.512C126.336 39.6821 127.016 40.3513 127.016 41.1877V47.7715C127.016 48.6079 126.348 49.277 125.512 49.277Z" fill="#073A93"/>
<path d="M125.07 38.6067H123.877V36.7187C123.877 34.9623 122.456 33.5404 120.701 33.5404C118.946 33.5404 117.526 34.9623 117.526 36.7187V38.6067H116.332V36.7187C116.332 34.3051 118.29 32.3574 120.701 32.3574C123.113 32.3574 125.058 34.317 125.058 36.7187V38.6067H125.07Z" fill="#073A93"/>
<path d="M122.038 43.2189C122.038 42.4781 121.441 41.8926 120.713 41.8926C119.985 41.8926 119.388 42.49 119.388 43.2189C119.388 43.7088 119.663 44.139 120.069 44.366L119.603 46.9947H121.835L121.37 44.366C121.764 44.139 122.038 43.7207 122.038 43.2189Z" fill="#FFAA45"/>
<path d="M140.995 43.8283C142.202 43.8283 143.18 42.8494 143.18 41.6417C143.18 40.4341 142.202 39.4551 140.995 39.4551C139.789 39.4551 138.811 40.4341 138.811 41.6417C138.811 42.8494 139.789 43.8283 140.995 43.8283Z" fill="#073A93"/>
<path d="M149.328 43.8283C150.534 43.8283 151.512 42.8494 151.512 41.6417C151.512 40.4341 150.534 39.4551 149.328 39.4551C148.121 39.4551 147.143 40.4341 147.143 41.6417C147.143 42.8494 148.121 43.8283 149.328 43.8283Z" fill="#073A93"/>
<path d="M159.833 41.6417C159.833 42.8485 158.854 43.8283 157.648 43.8283C156.443 43.8283 155.464 42.8485 155.464 41.6417C155.464 40.4349 156.443 39.4551 157.648 39.4551C158.854 39.467 159.833 40.4349 159.833 41.6417Z" fill="#073A93"/>
<path d="M168.165 41.6417C168.165 42.8485 167.186 43.8283 165.98 43.8283C164.775 43.8283 163.796 42.8485 163.796 41.6417C163.796 40.4349 164.775 39.4551 165.98 39.4551C167.186 39.467 168.165 40.4349 168.165 41.6417Z" fill="#073A93"/>
<path d="M176.498 41.6417C176.498 42.8485 175.519 43.8283 174.313 43.8283C173.107 43.8283 172.128 42.8485 172.128 41.6417C172.128 40.4349 173.107 39.4551 174.313 39.4551C175.519 39.4551 176.498 40.4349 176.498 41.6417Z" fill="#073A93"/>
</g>
<defs>
<clipPath id="clip0_34_3982">
<rect width="186" height="184" fill="white"/>
</clipPath>
</defs>
</svg>
