<svg width="21" height="21" viewBox="0 0 21 21" fill="none" xmlns="http://www.w3.org/2000/svg">
<mask id="mask0_44_768" style="mask-type:alpha" maskUnits="userSpaceOnUse" x="-2" y="-2" width="25" height="25">
<rect x="-1.5" y="-1.5" width="24" height="24" fill="#D9D9D9"/>
</mask>
<g mask="url(#mask0_44_768)">
<path d="M16 21V17H5.61538C5.15513 17 4.77083 16.8458 4.4625 16.5375C4.15417 16.2292 4 15.8449 4 15.3846V5H0V4H4V0H5V15.3846C5 15.5385 5.0641 15.6795 5.1923 15.8077C5.32052 15.9359 5.46154 16 5.61538 16H21V17H17V21H16ZM16 15V5.61538C16 5.46154 15.9359 5.32052 15.8077 5.1923C15.6795 5.0641 15.5385 5 15.3846 5H6V4H15.3846C15.8449 4 16.2292 4.15417 16.5375 4.4625C16.8458 4.77083 17 5.15513 17 5.61538V15H16Z" fill="white"/>
</g>
</svg>
