<svg width="266" height="199" viewBox="0 0 266 199" fill="none" xmlns="http://www.w3.org/2000/svg">
<g clip-path="url(#clip0_34_3173)">
<path d="M266 174.881H0V175.015H266V174.881Z" fill="#EBEBEB"/>
<path d="M239.347 183.475H221.727V183.608H239.347V183.475Z" fill="#EBEBEB"/>
<path d="M176.209 184.927H171.586V185.061H176.209V184.927Z" fill="#EBEBEB"/>
<path d="M221.195 178.518H210.986V178.652H221.195V178.518Z" fill="#EBEBEB"/>
<path d="M50.8858 179.416H27.9087V179.549H50.8858V179.416Z" fill="#EBEBEB"/>
<path d="M58.9935 179.416H55.626V179.549H58.9935V179.416Z" fill="#EBEBEB"/>
<path d="M119.78 181.669H69.942V181.803H119.78V181.669Z" fill="#EBEBEB"/>
<path d="M126.089 151.062H23.3655C21.6897 151.062 20.3278 149.695 20.3278 148.012V3.04954C20.3278 1.36722 21.6897 0 23.3655 0H126.095C127.77 0 129.132 1.36722 129.132 3.04954V148.012C129.127 149.695 127.765 151.062 126.089 151.062ZM23.3655 0.133518C21.7642 0.133518 20.4608 1.44199 20.4608 3.04954V148.012C20.4608 149.62 21.7642 150.928 23.3655 150.928H126.095C127.696 150.928 128.999 149.62 128.999 148.012V3.04954C128.999 1.44199 127.696 0.133518 126.095 0.133518H23.3655Z" fill="#EBEBEB"/>
<path d="M241.161 151.062H138.432C136.756 151.062 135.394 149.695 135.394 148.012V3.04954C135.394 1.36722 136.756 0 138.432 0H241.161C242.837 0 244.199 1.36722 244.199 3.04954V148.012C244.199 149.695 242.837 151.062 241.161 151.062ZM138.432 0.133518C136.83 0.133518 135.527 1.44199 135.527 3.04954V148.012C135.527 149.62 136.83 150.928 138.432 150.928H241.161C242.762 150.928 244.066 149.62 244.066 148.012V3.04954C244.066 1.44199 242.762 0.133518 241.161 0.133518H138.432Z" fill="#EBEBEB"/>
<path d="M196.883 128.796V139.237L201.277 142.442H180.763L187.317 140.007V129.523L196.883 128.796Z" fill="#E0E0E0"/>
<path d="M138.437 142.143V175.036H239.341V142.143H138.437ZM140.086 144.274H221.099V155.025H140.086V144.274Z" fill="#E0E0E0"/>
<path d="M138.437 142.143V175.036H223.302V142.143H138.437ZM140.086 144.274H221.099V155.025H140.086V144.274Z" fill="#EBEBEB"/>
<path d="M140.089 155.024H154.857V144.279H140.089V155.024Z" fill="#E0E0E0"/>
<path d="M199.711 155.026H221.097V149.653H199.711V155.026Z" fill="#E0E0E0"/>
<path d="M184.603 155.023H198.36V151.83H184.603V155.023Z" fill="#E0E0E0"/>
<path d="M165.205 155.025H181.426V148.493H165.205V155.025Z" fill="#E0E0E0"/>
<path d="M204.99 157.364L205.384 158.651H210.645L211.039 157.364H221.099V171.634H194.935V157.364H204.99Z" fill="#E0E0E0"/>
<path d="M177.603 157.364L177.997 158.651H183.258L183.646 157.364H193.706V171.634H167.543V157.364H177.603Z" fill="#E0E0E0"/>
<path d="M150.216 157.364L150.609 158.651H155.865L156.259 157.364H166.319V171.634H140.155V157.364H150.216Z" fill="#E0E0E0"/>
<path d="M153.615 135.034H223.142C224.179 135.034 225.02 134.191 225.02 133.149V92.4636C225.02 91.4222 224.179 90.5784 223.142 90.5784H153.615C152.577 90.5784 151.737 91.4222 151.737 92.4636V133.149C151.737 134.191 152.577 135.034 153.615 135.034Z" fill="#E0E0E0"/>
<path d="M151.891 135.034H221.418C222.456 135.034 223.296 134.191 223.296 133.149V92.4636C223.296 91.4222 222.456 90.5784 221.418 90.5784H151.891C150.854 90.5784 150.013 91.4222 150.013 92.4636V133.149C150.013 134.191 150.854 135.034 151.891 135.034Z" fill="#E6E6E6"/>
<path d="M221.144 132.868V92.7375L152.165 92.7375V132.868H221.144Z" fill="#F0F0F0"/>
<path d="M232.266 15.2637H172.352V81.8195H232.266V15.2637Z" fill="#E9E9E9"/>
<path d="M229.781 17.9021H174.985V79.3202H229.781V17.9021Z" fill="#F4F4F4"/>
<path d="M190.472 17.9021L174.985 76.1265V44.6056L182.072 17.9021H190.472Z" fill="white"/>
<path d="M197.393 17.9021L181.061 79.3202H177.981L194.313 17.9021H197.393Z" fill="white"/>
<path d="M229.781 34.6504V66.1766L226.313 79.3201H217.912L229.781 34.6504Z" fill="white"/>
<path d="M203.368 15.2637H201.24V81.8195H203.368V15.2637Z" fill="#E9E9E9"/>
<path d="M231.111 28.7703H173.389V30.9065H231.111V28.7703Z" fill="#E9E9E9"/>
<path d="M37.9674 72.5207V89.0769H61.3062V72.5207H37.9674Z" fill="#E0E0E0"/>
<path d="M39.0686 73.5995V87.998H60.2156V73.5995H39.0686Z" fill="#EBEBEB"/>
<path d="M46.0615 51.7209V68.2771H69.4004V51.7209H46.0615Z" fill="#E0E0E0"/>
<path d="M47.1627 52.7997V67.1982H68.3097V52.7997H47.1627Z" fill="#EBEBEB"/>
<path d="M80.5927 72.5215H65.7393V93.6173H80.5927V72.5215Z" fill="#E0E0E0"/>
<path d="M79.6245 73.5149H66.7075V92.6293H79.6245V73.5149Z" fill="#EBEBEB"/>
<path d="M89.0356 44.8459H72.5436V68.2756H89.0356V44.8459Z" fill="#E0E0E0"/>
<path d="M87.9609 45.946H73.6182V67.1753H87.9609V45.946Z" fill="#EBEBEB"/>
<path d="M103.907 85.488V72.5208H85.633V85.488H103.907Z" fill="#E0E0E0"/>
<path d="M103.045 84.6387V73.3645H86.4896V84.6387H103.045Z" fill="#EBEBEB"/>
<path d="M34.0214 109.783H91.7221C94.3183 109.783 96.4197 111.893 96.4197 114.499L102.809 155.334H35.7132L29.3239 114.499C29.3239 111.898 31.4253 109.783 34.0214 109.783Z" fill="#EBEBEB"/>
<path d="M102.639 125.576L102.564 125.362H124.908V175.031H97.2443V131.317C97.2496 128.225 99.5904 125.709 102.639 125.576Z" fill="#E0E0E0"/>
<path d="M125.148 125.565C128.313 125.565 130.883 128.145 130.883 131.322V175.036H119.413V131.322C119.413 128.139 121.982 125.565 125.148 125.565Z" fill="#F0F0F0"/>
<path d="M38.2668 125.576L38.1923 125.362H60.5363V175.031H32.8723V131.317C32.8776 128.225 35.2184 125.709 38.2668 125.576Z" fill="#E0E0E0"/>
<path d="M66.508 175.031H115.67V140.049H66.508V175.031Z" fill="#E0E0E0"/>
<path d="M57.1687 148.6H112.47C115.806 148.6 118.514 145.887 118.514 142.533C118.514 139.184 115.811 136.466 112.47 136.466H57.1687V148.6Z" fill="#F5F5F5"/>
<path d="M60.7757 125.565C63.9411 125.565 66.5107 128.145 66.5107 131.322V175.036H55.0408V131.322C55.0408 128.139 57.6103 125.565 60.7757 125.565Z" fill="#F0F0F0"/>
<path d="M45.1083 155.943H35.7132L29.3239 114.505C29.3239 111.899 31.4253 109.789 34.0214 109.789C36.6176 109.789 38.719 111.899 38.719 114.505L45.1083 155.943Z" fill="#E0E0E0"/>
<path d="M31.5636 10.9591V26.7463C31.5636 27.6328 32.2818 28.2256 33.1649 28.2256H86.2692C86.2692 28.2256 92.4084 25.3523 91.9722 21.3361C91.6264 18.1317 91.2646 15.5201 90.9667 13.5334C90.605 11.114 88.5408 9.35693 86.1042 9.35693H33.1596C32.2765 9.35693 31.5636 10.0726 31.5636 10.9591Z" fill="#F5F5F5"/>
<path d="M31.5636 10.9591V26.7463C31.5636 27.6328 32.2818 28.2256 33.1649 28.2256H37.8465C37.8465 28.2256 43.9911 25.3523 43.5496 21.3361C43.2038 18.1317 42.842 15.5201 42.5441 13.5334C42.1823 11.114 40.1182 9.35693 37.6816 9.35693H33.1649C32.2765 9.35693 31.5636 10.0726 31.5636 10.9591Z" fill="#E6E6E6"/>
<path d="M90.7487 22.6018H44.3582C44.3582 22.6018 42.8261 26.0145 40.2246 27.4191H85.5457C85.5457 27.4191 90.3497 25.2134 90.7487 22.6018Z" fill="#E0E0E0"/>
<path d="M87.546 25.8169H42.7622L43.4272 27.4191H87.546V25.8169Z" fill="#EBEBEB"/>
<path d="M89.1472 23.8088H44.3582L45.0232 25.411H89.1472V23.8088Z" fill="#EBEBEB"/>
<path d="M45.9579 21.8665H47.0911V21.3965H45.9579V21.8665Z" fill="#E0E0E0"/>
<path d="M47.5578 21.8665H48.6909V21.3965H47.5578V21.8665Z" fill="#E0E0E0"/>
<path d="M133 199C189.968 199 236.149 196.293 236.149 192.954C236.149 189.615 189.968 186.909 133 186.909C76.0321 186.909 29.8505 189.615 29.8505 192.954C29.8505 196.293 76.0321 199 133 199Z" fill="#F5F5F5"/>
<path d="M48.2524 154.427C48.3641 155.212 46.2415 155.73 44.5125 156.018C44.6561 157.444 45.5977 158.886 46.9011 160.232C48.545 159.303 50.8858 158.074 51.3167 158.379C51.7902 158.704 49.3909 160.264 47.8907 161.177C48.944 162.117 50.1357 162.993 51.2901 163.762C52.0243 163.073 52.8861 162.464 53.4022 162.795C53.9342 163.137 53.7905 164.205 53.5299 165.156C55.3174 166.203 56.6527 166.838 56.6527 166.838C56.6527 166.838 57.4028 164.558 57.8444 161.749C57.7539 161.572 57.6635 161.391 57.5837 161.199C57.2964 160.531 57.5784 160.248 58.0519 160.152C58.1742 158.923 58.2115 157.658 58.0838 156.483C56.0622 156.055 53.6043 155.27 54.5247 154.053C55.078 153.321 56.0941 153.236 57.1528 153.417C57.0038 153.171 56.8389 152.942 56.6527 152.734C52.9766 148.664 50.407 152.734 50.407 152.734C48.2684 150.944 45.2679 151.43 44.6189 154.224C45.8159 153.919 48.1141 153.46 48.2524 154.427Z" fill="#407BFF"/>
<path opacity="0.3" d="M48.2524 154.427C48.3641 155.212 46.2415 155.73 44.5125 156.018C44.6561 157.444 45.5977 158.886 46.9011 160.232C48.545 159.303 50.8858 158.074 51.3167 158.379C51.7902 158.704 49.3909 160.264 47.8907 161.177C48.944 162.117 50.1357 162.993 51.2901 163.762C52.0243 163.073 52.8861 162.464 53.4022 162.795C53.9342 163.137 53.7905 164.205 53.5299 165.156C55.3174 166.203 56.6527 166.838 56.6527 166.838C56.6527 166.838 57.4028 164.558 57.8444 161.749C57.7539 161.572 57.6635 161.391 57.5837 161.199C57.2964 160.531 57.5784 160.248 58.0519 160.152C58.1742 158.923 58.2115 157.658 58.0838 156.483C56.0622 156.055 53.6043 155.27 54.5247 154.053C55.078 153.321 56.0941 153.236 57.1528 153.417C57.0038 153.171 56.8389 152.942 56.6527 152.734C52.9766 148.664 50.407 152.734 50.407 152.734C48.2684 150.944 45.2679 151.43 44.6189 154.224C45.8159 153.919 48.1141 153.46 48.2524 154.427Z" fill="white"/>
<path d="M52.8435 184.329L52.3115 184.286C52.3328 184.014 54.4874 156.766 48.4013 154.202C47.747 153.924 47.1405 153.94 46.5553 154.25C44.3528 155.398 43.2995 160.168 43.2888 160.216L42.7675 160.103C42.81 159.895 43.8847 155.041 46.3053 153.775C47.0341 153.396 47.8055 153.374 48.6035 153.711C55.046 156.424 52.934 183.191 52.8435 184.329Z" fill="#407BFF"/>
<path d="M53.6097 183.736C53.5033 182.513 51.0135 153.684 55.6632 150.624C56.7804 149.892 57.7699 149.732 58.6158 150.165C60.8129 151.275 61.1002 155.991 61.1109 156.189L60.5789 156.221C60.5789 156.173 60.2969 151.612 58.3764 150.64C57.7167 150.309 56.9027 150.448 55.9558 151.072C51.5721 153.962 54.1151 183.394 54.1417 183.688L53.6097 183.736Z" fill="#407BFF"/>
<path d="M54.3065 186.07C54.2693 185.13 53.5085 163.068 57.7379 161.134C58.5732 160.755 59.4244 160.745 60.2543 161.113C63.159 162.395 64.9518 167.832 65.0263 168.061L64.5209 168.227C64.505 168.174 62.7281 162.79 60.0415 161.604C59.3446 161.295 58.6636 161.3 57.956 161.62C54.7108 163.1 54.6044 179.757 54.8332 186.049L54.3065 186.07Z" fill="#407BFF"/>
<path d="M53.2319 185.061L52.7052 185.002C53.45 178.433 54.8758 160.937 52.5456 158.849C52.1998 158.539 51.8859 158.443 51.5933 158.555C50.0346 159.158 49.0823 164.846 48.8482 166.988L48.3215 166.929C48.412 166.107 49.2632 158.881 51.4071 158.053C51.8966 157.866 52.402 157.994 52.9074 158.448C55.9079 161.145 53.3436 184.083 53.2319 185.061Z" fill="#407BFF"/>
<path d="M44.3528 172.612H63.4675L61.8715 194.103H45.9488L44.3528 172.612Z" fill="#263238"/>
<path opacity="0.2" d="M50.1569 172.612L50.6889 194.103H61.8715L63.4675 172.612H50.1569Z" fill="white"/>
<path d="M46.9543 164.723C46.7575 165.247 45.2732 164.835 44.1028 164.419C43.7038 165.348 43.7942 166.56 44.14 167.837C45.47 167.832 47.332 167.88 47.497 168.211C47.6778 168.574 45.6616 168.707 44.4273 168.756C44.7572 169.701 45.1881 170.646 45.6403 171.522C46.3319 171.351 47.066 171.271 47.2735 171.65C47.4863 172.045 47.0341 172.654 46.5447 173.151C47.2895 174.411 47.896 175.26 47.896 175.26C47.896 175.26 49.1355 174.112 50.3698 172.531C50.3751 172.393 50.3804 172.248 50.3964 172.104C50.4496 171.591 50.7156 171.517 51.0401 171.618C51.5348 170.902 51.987 170.133 52.3116 169.364C51.2103 168.408 49.9654 167.073 50.9496 166.641C51.5402 166.379 52.1998 166.678 52.785 167.153C52.7797 166.95 52.7531 166.753 52.7106 166.56C51.8328 162.785 48.8589 164.414 48.8589 164.414C48.1513 162.576 46.135 161.839 44.7784 163.34C45.6296 163.57 47.2044 164.077 46.9543 164.723Z" fill="#407BFF"/>
<path opacity="0.3" d="M46.9543 164.723C46.7575 165.247 45.2732 164.835 44.1028 164.419C43.7038 165.348 43.7942 166.56 44.14 167.837C45.47 167.832 47.332 167.88 47.497 168.211C47.6778 168.574 45.6616 168.707 44.4273 168.756C44.7572 169.701 45.1881 170.646 45.6403 171.522C46.3319 171.351 47.066 171.271 47.2735 171.65C47.4863 172.045 47.0341 172.654 46.5447 173.151C47.2895 174.411 47.896 175.26 47.896 175.26C47.896 175.26 49.1355 174.112 50.3698 172.531C50.3751 172.393 50.3804 172.248 50.3964 172.104C50.4496 171.591 50.7156 171.517 51.0401 171.618C51.5348 170.902 51.987 170.133 52.3116 169.364C51.2103 168.408 49.9654 167.073 50.9496 166.641C51.5402 166.379 52.1998 166.678 52.785 167.153C52.7797 166.95 52.7531 166.753 52.7106 166.56C51.8328 162.785 48.8589 164.414 48.8589 164.414C48.1513 162.576 46.135 161.839 44.7784 163.34C45.6296 163.57 47.2044 164.077 46.9543 164.723Z" fill="white"/>
<path d="M61.1481 167.276C60.5469 167.319 59.967 167.458 59.4031 167.645C59.2541 167.239 59.1584 166.817 59.1477 166.374C59.0254 162.502 61.7865 164.136 63.2441 162.998C63.973 162.432 64.8614 162.069 65.686 162.229C65.5637 162.443 65.4519 162.662 65.3562 162.891C65.2019 163.26 65.4466 163.65 65.8243 163.719C66.1808 163.789 66.5798 163.757 66.9043 163.591C67.0054 163.538 67.0905 163.463 67.1809 163.399C67.3831 163.746 67.564 164.168 67.7129 164.691C67.8619 165.231 67.9364 165.786 67.963 166.347C67.7449 166.395 67.5321 166.454 67.3193 166.528C66.9894 166.646 66.8085 167.18 67.0799 167.447C67.3139 167.682 67.5853 167.869 67.8779 168.008C67.7821 168.643 67.6065 169.252 67.3937 169.824C67.3299 169.834 67.2607 169.84 67.1969 169.856C67.0586 169.882 66.9203 169.92 66.7819 169.957C66.7021 169.979 66.6277 170.005 66.5532 170.043C66.3617 170.133 66.2233 170.299 66.1914 170.513C66.1595 170.726 66.2499 170.94 66.4202 171.073C66.5106 171.143 66.6064 171.196 66.7075 171.25C66.2659 171.949 65.7499 172.499 65.1806 172.798C65.1806 172.798 64.4784 172.489 63.558 171.939C63.6751 171.784 63.7868 171.629 63.8932 171.469C64.0209 171.282 64.0741 171.084 64.0581 170.86C64.0421 170.641 63.9091 170.449 63.7442 170.315C63.5899 170.181 63.3399 170.123 63.1377 170.149C62.9409 170.176 62.7068 170.294 62.5951 170.465C62.4674 170.657 62.3238 170.838 62.1855 171.02C61.4832 170.486 60.781 169.845 60.2277 169.113C60.249 169.108 60.2703 169.103 60.2862 169.097C60.6427 169.007 61.0044 168.942 61.3715 168.916C61.829 168.884 62.1163 168.419 62.0791 167.992C62.0259 167.522 61.5737 167.244 61.1481 167.276Z" fill="#407BFF"/>
<path opacity="0.5" d="M61.1481 167.276C60.5469 167.319 59.967 167.458 59.4031 167.645C59.2541 167.239 59.1584 166.817 59.1477 166.374C59.0254 162.502 61.7865 164.136 63.2441 162.998C63.973 162.432 64.8614 162.069 65.686 162.229C65.5637 162.443 65.4519 162.662 65.3562 162.891C65.2019 163.26 65.4466 163.65 65.8243 163.719C66.1808 163.789 66.5798 163.757 66.9043 163.591C67.0054 163.538 67.0905 163.463 67.1809 163.399C67.3831 163.746 67.564 164.168 67.7129 164.691C67.8619 165.231 67.9364 165.786 67.963 166.347C67.7449 166.395 67.5321 166.454 67.3193 166.528C66.9894 166.646 66.8085 167.18 67.0799 167.447C67.3139 167.682 67.5853 167.869 67.8779 168.008C67.7821 168.643 67.6065 169.252 67.3937 169.824C67.3299 169.834 67.2607 169.84 67.1969 169.856C67.0586 169.882 66.9203 169.92 66.7819 169.957C66.7021 169.979 66.6277 170.005 66.5532 170.043C66.3617 170.133 66.2233 170.299 66.1914 170.513C66.1595 170.726 66.2499 170.94 66.4202 171.073C66.5106 171.143 66.6064 171.196 66.7075 171.25C66.2659 171.949 65.7499 172.499 65.1806 172.798C65.1806 172.798 64.4784 172.489 63.558 171.939C63.6751 171.784 63.7868 171.629 63.8932 171.469C64.0209 171.282 64.0741 171.084 64.0581 170.86C64.0421 170.641 63.9091 170.449 63.7442 170.315C63.5899 170.181 63.3399 170.123 63.1377 170.149C62.9409 170.176 62.7068 170.294 62.5951 170.465C62.4674 170.657 62.3238 170.838 62.1855 171.02C61.4832 170.486 60.781 169.845 60.2277 169.113C60.249 169.108 60.2703 169.103 60.2862 169.097C60.6427 169.007 61.0044 168.942 61.3715 168.916C61.829 168.884 62.1163 168.419 62.0791 167.992C62.0259 167.522 61.5737 167.244 61.1481 167.276Z" fill="white"/>
<path d="M62.2493 153.93C62.5844 153.69 62.9515 153.508 63.3292 153.353C63.2281 153.075 63.0951 152.808 62.9089 152.573C61.281 150.485 60.5469 152.557 59.2807 152.605C58.6529 152.627 58.0252 152.83 57.6634 153.278C57.823 153.337 57.9773 153.401 58.1263 153.481C58.371 153.609 58.4082 153.919 58.2433 154.122C58.0837 154.314 57.8602 154.475 57.6209 154.533C57.5464 154.549 57.4666 154.549 57.3921 154.555C57.4346 154.827 57.5251 155.126 57.6794 155.468C57.839 155.815 58.0411 156.141 58.2699 156.445C58.4029 156.376 58.5412 156.312 58.6902 156.258C58.9136 156.173 59.2435 156.376 59.2169 156.638C59.1956 156.867 59.1371 157.081 59.0466 157.284C59.3765 157.578 59.7329 157.818 60.0947 158.021C60.1319 157.999 60.1691 157.973 60.2117 157.951C60.2968 157.903 60.3873 157.861 60.4777 157.823C60.5309 157.802 60.5841 157.78 60.6373 157.764C60.7756 157.727 60.9246 157.754 61.031 157.85C61.1374 157.946 61.1906 158.101 61.1587 158.245C61.1427 158.32 61.1108 158.395 61.0842 158.464C61.6215 158.635 62.1375 158.699 62.5631 158.603C62.5631 158.603 62.7972 158.133 63.0419 157.433C62.9143 157.401 62.7866 157.375 62.6589 157.337C62.5099 157.294 62.3982 157.214 62.3078 157.092C62.2227 156.969 62.2067 156.808 62.2333 156.67C62.2599 156.531 62.361 156.392 62.478 156.317C62.5897 156.242 62.7706 156.205 62.8983 156.242C63.0473 156.285 63.2015 156.317 63.3558 156.355C63.4941 155.762 63.5792 155.115 63.5473 154.491C63.5314 154.496 63.5207 154.501 63.5101 154.507C63.2813 154.613 63.0632 154.742 62.8611 154.891C62.6057 155.073 62.2546 154.955 62.0843 154.72C61.8981 154.453 62.0099 154.101 62.2493 153.93Z" fill="#407BFF"/>
<path opacity="0.3" d="M62.2493 153.93C62.5844 153.69 62.9515 153.508 63.3292 153.353C63.2281 153.075 63.0951 152.808 62.9089 152.573C61.281 150.485 60.5469 152.557 59.2807 152.605C58.6529 152.627 58.0252 152.83 57.6634 153.278C57.823 153.337 57.9773 153.401 58.1263 153.481C58.371 153.609 58.4082 153.919 58.2433 154.122C58.0837 154.314 57.8602 154.475 57.6209 154.533C57.5464 154.549 57.4666 154.549 57.3921 154.555C57.4346 154.827 57.5251 155.126 57.6794 155.468C57.839 155.815 58.0411 156.141 58.2699 156.445C58.4029 156.376 58.5412 156.312 58.6902 156.258C58.9136 156.173 59.2435 156.376 59.2169 156.638C59.1956 156.867 59.1371 157.081 59.0466 157.284C59.3765 157.578 59.7329 157.818 60.0947 158.021C60.1319 157.999 60.1691 157.973 60.2117 157.951C60.2968 157.903 60.3873 157.861 60.4777 157.823C60.5309 157.802 60.5841 157.78 60.6373 157.764C60.7756 157.727 60.9246 157.754 61.031 157.85C61.1374 157.946 61.1906 158.101 61.1587 158.245C61.1427 158.32 61.1108 158.395 61.0842 158.464C61.6215 158.635 62.1375 158.699 62.5631 158.603C62.5631 158.603 62.7972 158.133 63.0419 157.433C62.9143 157.401 62.7866 157.375 62.6589 157.337C62.5099 157.294 62.3982 157.214 62.3078 157.092C62.2227 156.969 62.2067 156.808 62.2333 156.67C62.2599 156.531 62.361 156.392 62.478 156.317C62.5897 156.242 62.7706 156.205 62.8983 156.242C63.0473 156.285 63.2015 156.317 63.3558 156.355C63.4941 155.762 63.5792 155.115 63.5473 154.491C63.5314 154.496 63.5207 154.501 63.5101 154.507C63.2813 154.613 63.0632 154.742 62.8611 154.891C62.6057 155.073 62.2546 154.955 62.0843 154.72C61.8981 154.453 62.0099 154.101 62.2493 153.93Z" fill="white"/>
<path d="M46.6777 157.807C46.5659 158.592 48.6886 159.11 50.4176 159.399C50.274 160.825 49.3323 162.267 48.0289 163.612C46.3851 162.683 44.0443 161.455 43.6133 161.759C43.1399 162.085 45.5392 163.645 47.0394 164.558C45.9861 165.498 44.7944 166.374 43.6399 167.143C42.9058 166.454 42.0439 165.845 41.5279 166.176C40.9959 166.518 41.1395 167.586 41.4002 168.537C39.6127 169.583 38.2774 170.219 38.2774 170.219C38.2774 170.219 37.5273 167.938 37.0857 165.129C37.1761 164.953 37.2666 164.771 37.3464 164.579C37.6337 163.912 37.3517 163.629 36.8782 163.532C36.7559 162.304 36.7186 161.038 36.8463 159.863C38.8679 159.436 41.3257 158.651 40.4054 157.433C39.8521 156.702 38.836 156.616 37.7773 156.798C37.9263 156.552 38.0912 156.322 38.2774 156.114C41.9535 152.045 44.5231 156.114 44.5231 156.114C46.6617 154.325 49.6622 154.811 50.3112 157.604C49.1142 157.294 46.816 156.835 46.6777 157.807Z" fill="#407BFF"/>
<path opacity="0.5" d="M46.6777 157.807C46.5659 158.592 48.6886 159.11 50.4176 159.399C50.274 160.825 49.3323 162.267 48.0289 163.612C46.3851 162.683 44.0443 161.455 43.6133 161.759C43.1399 162.085 45.5392 163.645 47.0394 164.558C45.9861 165.498 44.7944 166.374 43.6399 167.143C42.9058 166.454 42.0439 165.845 41.5279 166.176C40.9959 166.518 41.1395 167.586 41.4002 168.537C39.6127 169.583 38.2774 170.219 38.2774 170.219C38.2774 170.219 37.5273 167.938 37.0857 165.129C37.1761 164.953 37.2666 164.771 37.3464 164.579C37.6337 163.912 37.3517 163.629 36.8782 163.532C36.7559 162.304 36.7186 161.038 36.8463 159.863C38.8679 159.436 41.3257 158.651 40.4054 157.433C39.8521 156.702 38.836 156.616 37.7773 156.798C37.9263 156.552 38.0912 156.322 38.2774 156.114C41.9535 152.045 44.5231 156.114 44.5231 156.114C46.6617 154.325 49.6622 154.811 50.3112 157.604C49.1142 157.294 46.816 156.835 46.6777 157.807Z" fill="white"/>
<path d="M205.059 194.103L215.247 126.142V194.103H217.982V125.715L228.18 194.103H231.111L218.343 108.502L217.982 108.555V105.773H215.247V108.545L214.87 108.502L202.07 194.103H205.059Z" fill="#407BFF"/>
<path opacity="0.3" d="M205.059 194.103L215.247 126.142V194.103H217.982V125.715L228.18 194.103H231.111L218.343 108.502L217.982 108.555V105.773H215.247V108.545L214.87 108.502L202.07 194.103H205.059Z" fill="white"/>
<path d="M230.633 117.998H202.447L204.73 94.3542H228.35L230.633 117.998Z" fill="#407BFF"/>
<g opacity="0.5">
<path d="M230.633 117.998H202.447L204.73 94.3542H228.35L230.633 117.998Z" fill="white"/>
</g>
<path d="M159.573 87.2992H150.327C149.918 87.2992 149.582 86.9627 149.582 86.5515V64.5157C149.79 64.4142 149.939 64.206 149.939 63.9549C149.939 63.6078 149.662 63.3301 149.316 63.3301C148.971 63.3301 148.694 63.6078 148.694 63.9549C148.694 64.206 148.843 64.4142 149.05 64.5157V86.5515C149.05 87.2564 149.625 87.8332 150.327 87.8332H159.573C159.983 87.8332 160.318 88.1697 160.318 88.5809V101.19H160.85V88.5809C160.85 87.876 160.281 87.2992 159.573 87.2992Z" fill="#407BFF"/>
<path opacity="0.4" d="M159.573 87.2992H150.327C149.918 87.2992 149.582 86.9627 149.582 86.5515V64.5157C149.79 64.4142 149.939 64.206 149.939 63.9549C149.939 63.6078 149.662 63.3301 149.316 63.3301C148.971 63.3301 148.694 63.6078 148.694 63.9549C148.694 64.206 148.843 64.4142 149.05 64.5157V86.5515C149.05 87.2564 149.625 87.8332 150.327 87.8332H159.573C159.983 87.8332 160.318 88.1697 160.318 88.5809V101.19H160.85V88.5809C160.85 87.876 160.281 87.2992 159.573 87.2992Z" fill="white"/>
<path d="M170.687 124.94H150.481C149.694 124.94 149.05 124.3 149.05 123.504V102.088C149.05 101.297 149.689 100.651 150.481 100.651H170.687C171.474 100.651 172.118 101.292 172.118 102.088V123.504C172.118 124.3 171.48 124.94 170.687 124.94Z" fill="#407BFF"/>
<path opacity="0.4" d="M170.687 124.94H150.481C149.694 124.94 149.05 124.3 149.05 123.504V102.088C149.05 101.297 149.689 100.651 150.481 100.651H170.687C171.474 100.651 172.118 101.292 172.118 102.088V123.504C172.118 124.3 171.48 124.94 170.687 124.94Z" fill="white"/>
<path opacity="0.2" d="M162.138 114.622H159.036V117.736H162.138V114.622Z" fill="white"/>
<path opacity="0.2" d="M165.505 104.475H162.404V107.588H165.505V104.475Z" fill="white"/>
<path opacity="0.2" d="M158.77 118.003H155.668V121.117H158.77V118.003Z" fill="white"/>
<path opacity="0.2" d="M165.505 107.861H162.404V110.974H165.505V107.861Z" fill="white"/>
<path opacity="0.2" d="M165.505 111.241H162.404V114.355H165.505V111.241Z" fill="white"/>
<path opacity="0.2" d="M162.138 107.861H159.036V110.974H162.138V107.861Z" fill="white"/>
<path opacity="0.2" d="M162.138 100.923H159.036V104.213H162.138V100.923Z" fill="white"/>
<path opacity="0.2" d="M158.77 114.622H155.668V117.736H158.77V114.622Z" fill="white"/>
<path opacity="0.2" d="M162.138 104.475H159.036V107.588H162.138V104.475Z" fill="white"/>
<path opacity="0.2" d="M162.138 118.003H159.036V121.117H162.138V118.003Z" fill="white"/>
<path opacity="0.2" d="M165.505 118.003H162.404V121.117H165.505V118.003Z" fill="white"/>
<path opacity="0.2" d="M162.138 111.241H159.036V114.355H162.138V111.241Z" fill="white"/>
<path opacity="0.2" d="M165.505 100.923H162.404V104.213H165.505V100.923Z" fill="white"/>
<path opacity="0.2" d="M152.035 114.622H149.322V117.736H152.035V114.622Z" fill="white"/>
<path opacity="0.2" d="M152.035 104.475H149.322V107.588H152.035V104.475Z" fill="white"/>
<path opacity="0.2" d="M152.035 111.241H149.322V114.355H152.035V111.241Z" fill="white"/>
<path opacity="0.2" d="M152.035 107.861H149.322V110.974H152.035V107.861Z" fill="white"/>
<path opacity="0.2" d="M165.505 114.622H162.404V117.736H165.505V114.622Z" fill="white"/>
<path opacity="0.2" d="M169.139 104.208H171.852V102.088C171.852 101.441 171.331 100.918 170.687 100.918H169.139V104.208Z" fill="white"/>
<path opacity="0.2" d="M168.873 104.475H165.771V107.588H168.873V104.475Z" fill="white"/>
<path opacity="0.2" d="M152.035 118.003H149.322V121.117H152.035V118.003Z" fill="white"/>
<path opacity="0.2" d="M168.873 107.861H165.771V110.974H168.873V107.861Z" fill="white"/>
<path opacity="0.2" d="M168.873 111.241H165.771V114.355H168.873V111.241Z" fill="white"/>
<path opacity="0.2" d="M168.873 114.622H165.771V117.736H168.873V114.622Z" fill="white"/>
<path opacity="0.2" d="M168.873 118.003H165.771V121.117H168.873V118.003Z" fill="white"/>
<path opacity="0.2" d="M171.852 118.003H169.139V121.117H171.852V118.003Z" fill="white"/>
<path opacity="0.2" d="M168.873 100.923H165.771V104.213H168.873V100.923Z" fill="white"/>
<path opacity="0.2" d="M162.138 121.384H159.036V124.673H162.138V121.384Z" fill="white"/>
<path opacity="0.2" d="M165.505 121.384H162.404V124.673H165.505V121.384Z" fill="white"/>
<path opacity="0.2" d="M171.852 111.241H169.139V114.355H171.852V111.241Z" fill="white"/>
<path opacity="0.2" d="M168.873 121.384H165.771V124.673H168.873V121.384Z" fill="white"/>
<path opacity="0.2" d="M171.852 114.622H169.139V117.736H171.852V114.622Z" fill="white"/>
<path opacity="0.2" d="M152.03 121.384H149.316V123.504C149.316 124.15 149.838 124.673 150.481 124.673H152.03V121.384Z" fill="white"/>
<path opacity="0.2" d="M169.139 121.384V124.673H170.687C171.331 124.673 171.852 124.15 171.852 123.504V121.384H169.139Z" fill="white"/>
<path opacity="0.2" d="M152.03 104.208V100.918H150.481C149.838 100.918 149.316 101.441 149.316 102.088V104.208H152.03Z" fill="white"/>
<path opacity="0.2" d="M171.852 107.861H169.139V110.974H171.852V107.861Z" fill="white"/>
<path opacity="0.2" d="M171.852 104.475H169.139V107.588H171.852V104.475Z" fill="white"/>
<path opacity="0.2" d="M155.397 111.241H152.296V114.355H155.397V111.241Z" fill="white"/>
<path opacity="0.2" d="M155.397 118.003H152.296V121.117H155.397V118.003Z" fill="white"/>
<path opacity="0.2" d="M158.77 100.923H155.668V104.213H158.77V100.923Z" fill="white"/>
<path opacity="0.2" d="M155.397 114.622H152.296V117.736H155.397V114.622Z" fill="white"/>
<path opacity="0.2" d="M158.77 107.861H155.668V110.974H158.77V107.861Z" fill="white"/>
<path opacity="0.2" d="M158.77 104.475H155.668V107.588H158.77V104.475Z" fill="white"/>
<path opacity="0.2" d="M158.77 121.384H155.668V124.673H158.77V121.384Z" fill="white"/>
<path opacity="0.2" d="M155.397 121.384H152.296V124.673H155.397V121.384Z" fill="white"/>
<path opacity="0.2" d="M155.397 100.923H152.296V104.213H155.397V100.923Z" fill="white"/>
<path opacity="0.2" d="M158.77 111.241H155.668V114.355H158.77V111.241Z" fill="white"/>
<path opacity="0.2" d="M155.397 107.861H152.296V110.974H155.397V107.861Z" fill="white"/>
<path opacity="0.2" d="M155.397 104.475H152.296V107.588H155.397V104.475Z" fill="white"/>
<path d="M166.096 109.212C166.048 108.966 165.984 108.726 165.899 108.496C165.127 106.296 163.037 104.715 160.584 104.715C158.813 104.715 157.227 105.543 156.195 106.835C155.903 107.204 155.647 107.61 155.456 108.048C155.136 108.758 154.956 109.543 154.956 110.371V115.22C154.956 115.696 155.014 116.155 155.126 116.593C155.126 116.593 155.126 116.593 155.126 116.598C155.211 116.945 155.328 117.276 155.482 117.592V117.597C155.615 117.896 155.78 118.179 155.961 118.446C155.961 118.446 155.961 118.446 155.961 118.451C156.105 118.644 156.248 118.825 156.403 119.001C156.594 119.215 156.802 119.413 157.014 119.589C157.195 119.733 157.376 119.872 157.573 119.995C157.903 120.208 158.259 120.385 158.632 120.529H158.637C158.818 120.593 158.999 120.652 159.185 120.7C159.419 120.759 159.653 120.801 159.893 120.833C160.073 120.855 160.254 120.871 160.44 120.871C160.488 120.876 160.536 120.876 160.584 120.876C160.877 120.876 161.169 120.855 161.451 120.812C161.632 120.78 161.813 120.743 161.983 120.7H161.989C162.654 120.524 163.271 120.235 163.813 119.851C164.016 119.712 164.202 119.557 164.383 119.391C164.867 118.948 165.276 118.414 165.585 117.821C165.745 117.522 165.872 117.202 165.973 116.871C166.117 116.401 166.202 115.909 166.213 115.391C166.213 115.391 166.218 115.391 166.213 115.386C166.218 115.332 166.218 115.274 166.218 115.22V110.371C166.218 109.976 166.175 109.586 166.096 109.212ZM164.835 118.051C164.532 118.51 164.159 118.916 163.728 119.252C163.569 119.381 163.404 119.493 163.233 119.594C162.781 119.872 162.292 120.08 161.76 120.208H161.755C161.584 120.246 161.409 120.278 161.228 120.299C161.015 120.326 160.802 120.342 160.584 120.342C160.504 120.342 160.425 120.342 160.345 120.337C160.159 120.326 159.983 120.31 159.802 120.283C159.579 120.246 159.355 120.198 159.142 120.134C158.956 120.08 158.775 120.011 158.6 119.941C158.222 119.776 157.871 119.573 157.546 119.333C157.371 119.199 157.201 119.055 157.041 118.895C156.849 118.713 156.674 118.51 156.514 118.296C156.36 118.094 156.222 117.875 156.099 117.65V117.645C155.918 117.314 155.775 116.961 155.674 116.593C155.551 116.155 155.488 115.696 155.488 115.22V110.371C155.488 109.201 155.876 108.122 156.536 107.263C156.993 106.664 157.578 106.168 158.249 105.821C158.951 105.452 159.744 105.249 160.584 105.249C163.015 105.249 165.042 106.953 165.564 109.244C165.564 109.249 165.564 109.249 165.564 109.255C165.643 109.613 165.686 109.986 165.686 110.371V115.263C165.681 115.583 165.649 115.899 165.59 116.203V116.208C165.505 116.63 165.372 117.031 165.191 117.41C165.09 117.634 164.968 117.848 164.835 118.051Z" fill="white"/>
<path d="M161.228 113.373C160.659 115.183 159.919 117.565 160.345 120.337C160.371 120.513 160.403 120.689 160.44 120.871C160.254 120.871 160.073 120.855 159.893 120.834C159.855 120.647 159.823 120.465 159.802 120.283C159.398 117.453 160.148 115.044 160.717 113.212C161.324 111.268 161.574 110.318 160.659 109.928C160.371 109.805 160.084 109.842 159.781 110.045C158.328 111.012 157.03 115.183 156.514 118.297C156.472 118.542 156.435 118.777 156.403 119.002C156.248 118.825 156.105 118.644 155.961 118.452C155.961 118.446 155.961 118.446 155.961 118.446C155.998 118.19 156.046 117.923 156.099 117.65V117.645C156.685 114.558 157.935 110.633 159.488 109.602C159.94 109.303 160.419 109.244 160.866 109.436C162.265 110.035 161.808 111.509 161.228 113.373Z" fill="white"/>
<path d="M160.302 113.239C159.77 114.953 158.988 117.463 159.142 120.134C159.153 120.321 159.164 120.508 159.185 120.7C158.999 120.652 158.818 120.593 158.637 120.529H158.632C158.616 120.331 158.605 120.139 158.6 119.942C158.493 117.266 159.265 114.782 159.797 113.079C160.01 112.4 160.249 111.637 160.244 111.343C159.6 111.92 157.605 116.62 157.546 119.333C157.536 119.573 157.546 119.792 157.573 119.995C157.376 119.872 157.195 119.733 157.014 119.589C157.014 119.37 157.02 119.135 157.041 118.895C157.264 116.064 158.962 111.797 159.887 110.953C160.132 110.729 160.334 110.74 160.456 110.788C161.004 111.001 160.754 111.797 160.302 113.239Z" fill="white"/>
<path d="M161.76 120.209C161.829 120.39 161.909 120.556 161.983 120.7C161.813 120.743 161.632 120.78 161.451 120.812C161.372 120.657 161.297 120.486 161.228 120.299C160.792 119.156 160.563 117.421 161.356 115.049C162.904 110.424 162.632 109.324 161.483 108.715C160.824 108.363 160.169 108.342 159.536 108.651C157.945 109.442 156.562 112.299 155.674 116.593C155.605 116.919 155.541 117.25 155.482 117.592C155.328 117.277 155.211 116.945 155.126 116.598C155.126 116.593 155.126 116.593 155.126 116.593C155.238 116.043 155.36 115.514 155.488 115.012C156.413 111.338 157.738 108.95 159.302 108.176C160.095 107.781 160.914 107.802 161.733 108.24C163.335 109.095 163.367 110.723 161.861 115.215C161.09 117.522 161.34 119.167 161.76 120.209Z" fill="white"/>
<path d="M164.383 119.391C164.202 119.557 164.016 119.712 163.813 119.851C163.739 119.829 163.67 119.808 163.595 119.781C163.468 119.733 163.345 119.674 163.233 119.594C162.68 119.263 162.276 118.67 162.058 117.869C161.781 116.871 162.233 115.429 162.717 113.906C163.202 112.374 163.702 110.793 163.462 109.645C163.271 108.715 162.787 108.032 162.063 107.663C161.132 107.199 159.893 107.279 158.578 107.893C157.195 108.544 156.137 110.472 155.488 111.994C155.259 112.534 155.078 113.02 154.956 113.378V111.877C155.11 111.514 155.285 111.119 155.488 110.723C156.174 109.372 157.137 107.978 158.35 107.412C159.818 106.723 161.223 106.643 162.302 107.188C163.175 107.631 163.76 108.443 163.984 109.538C164.25 110.82 163.728 112.47 163.223 114.067C162.765 115.514 162.334 116.876 162.568 117.725C162.787 118.494 163.18 119.023 163.728 119.252C163.744 119.263 163.765 119.274 163.787 119.279C163.973 119.354 164.175 119.391 164.383 119.391Z" fill="white"/>
<path d="M165.973 116.871C165.872 117.202 165.745 117.522 165.585 117.821C165.319 117.955 165.069 118.03 164.835 118.051C164.782 118.056 164.734 118.056 164.686 118.056C164.643 118.056 164.595 118.051 164.553 118.046C163.962 117.992 163.51 117.602 163.329 117.004C163.095 116.208 163.478 114.713 163.883 113.132C164.175 111.989 164.478 110.804 164.478 110.061C164.478 108.416 164.053 106.654 160.909 106.093C159.307 105.805 157.014 106.83 155.668 109.02C155.408 109.447 155.748 107.807 155.456 108.048C155.647 107.61 155.945 107.631 156.238 107.263C156.828 106.878 158.472 105.249 160.999 105.564C164.627 106.018 165.01 108.438 165.01 110.061C165.01 110.873 164.712 112.037 164.393 113.266C164.042 114.638 163.648 116.198 163.84 116.855C163.957 117.239 164.234 117.485 164.601 117.517C164.771 117.533 164.973 117.501 165.191 117.41C165.436 117.314 165.707 117.138 165.973 116.871Z" fill="white"/>
<path d="M166.218 113.965V115.22C166.218 115.274 166.218 115.333 166.213 115.386C166.218 115.391 166.213 115.391 166.213 115.391C166.026 115.755 165.824 116.032 165.59 116.203V116.208C165.404 116.342 165.197 116.411 164.957 116.411C164.909 116.411 164.856 116.411 164.803 116.406C164.638 116.385 164.505 116.289 164.425 116.134C164.186 115.69 164.484 114.799 164.681 114.296C165.409 112.449 165.67 111.06 165.564 109.255C165.564 109.25 165.564 109.25 165.564 109.244C165.585 108.94 165.596 108.753 165.596 108.742C165.606 108.598 165.734 108.486 165.878 108.491C165.883 108.491 165.894 108.491 165.899 108.496C165.984 108.726 166.048 108.966 166.096 109.212C166.069 109.607 166.032 110.003 165.995 110.398C165.92 111.156 165.83 111.915 165.686 112.668C165.649 112.871 165.819 112.79 165.776 112.993C165.707 113.292 165.431 113.885 165.308 114.168C165.181 114.462 165.037 114.75 164.936 115.055C164.872 115.236 164.638 116.091 165.117 115.904C165.298 115.835 165.441 115.648 165.548 115.493C165.596 115.418 165.643 115.343 165.686 115.263C165.846 114.98 165.968 114.665 166.08 114.361C166.128 114.232 166.175 114.099 166.218 113.965Z" fill="white"/>
<path d="M126.994 23.3816V37.0004C126.994 37.4116 126.659 37.7481 126.249 37.7481H112.454C112.353 37.5398 112.146 37.3903 111.896 37.3903C111.55 37.3903 111.273 37.668 111.273 38.0151C111.273 38.3623 111.55 38.64 111.896 38.64C112.146 38.64 112.353 38.4904 112.454 38.2822H126.249C126.951 38.2822 127.526 37.7054 127.526 37.0004V23.3816H126.994Z" fill="#407BFF"/>
<path opacity="0.4" d="M126.994 23.3816V37.0004C126.994 37.4116 126.659 37.7481 126.249 37.7481H112.454C112.353 37.5398 112.146 37.3903 111.896 37.3903C111.55 37.3903 111.273 37.668 111.273 38.0151C111.273 38.3623 111.55 38.64 111.896 38.64C112.146 38.64 112.353 38.4904 112.454 38.2822H126.249C126.951 38.2822 127.526 37.7054 127.526 37.0004V23.3816H126.994Z" fill="white"/>
<path d="M115.162 26.1855V5.90149C115.162 5.11107 115.8 4.46484 116.593 4.46484H137.926C138.714 4.46484 139.357 5.10573 139.357 5.90149V26.1855C139.357 26.9759 138.719 27.6221 137.926 27.6221H116.593C115.8 27.6221 115.162 26.9759 115.162 26.1855Z" fill="#407BFF"/>
<path opacity="0.4" d="M115.162 26.1855V5.90149C115.162 5.11107 115.8 4.46484 116.593 4.46484H137.926C138.714 4.46484 139.357 5.10573 139.357 5.90149V26.1855C139.357 26.9759 138.719 27.6221 137.926 27.6221H116.593C115.8 27.6221 115.162 26.9759 115.162 26.1855Z" fill="white"/>
<path opacity="0.2" d="M125.44 14.4841H122.339V17.5978H125.44V14.4841Z" fill="white"/>
<path opacity="0.2" d="M135.543 17.8701H132.441V20.9837H135.543V17.8701Z" fill="white"/>
<path opacity="0.2" d="M122.073 11.1035H118.971V14.2171H122.073V11.1035Z" fill="white"/>
<path opacity="0.2" d="M132.175 17.8701H129.074V20.9837H132.175V17.8701Z" fill="white"/>
<path opacity="0.2" d="M128.808 17.8701H125.706V20.9837H128.808V17.8701Z" fill="white"/>
<path opacity="0.2" d="M132.175 14.4841H129.074V17.5978H132.175V14.4841Z" fill="white"/>
<path opacity="0.2" d="M139.091 14.4841H135.814V17.5978H139.091V14.4841Z" fill="white"/>
<path opacity="0.2" d="M125.44 11.1035H122.339V14.2171H125.44V11.1035Z" fill="white"/>
<path opacity="0.2" d="M135.543 14.4841H132.441V17.5978H135.543V14.4841Z" fill="white"/>
<path opacity="0.2" d="M122.073 14.4841H118.971V17.5978H122.073V14.4841Z" fill="white"/>
<path opacity="0.2" d="M122.073 17.8701H118.971V20.9837H122.073V17.8701Z" fill="white"/>
<path opacity="0.2" d="M128.808 14.4841H125.706V17.5978H128.808V14.4841Z" fill="white"/>
<path opacity="0.2" d="M139.091 17.8701H135.814V20.9837H139.091V17.8701Z" fill="white"/>
<path opacity="0.2" d="M125.44 4.73193H122.339V7.45569H125.44V4.73193Z" fill="white"/>
<path opacity="0.2" d="M135.543 4.73193H132.441V7.45569H135.543V4.73193Z" fill="white"/>
<path opacity="0.2" d="M128.808 4.73193H125.706V7.45569H128.808V4.73193Z" fill="white"/>
<path opacity="0.2" d="M132.175 4.73193H129.074V7.45569H132.175V4.73193Z" fill="white"/>
<path opacity="0.2" d="M125.44 17.8701H122.339V20.9837H125.44V17.8701Z" fill="white"/>
<path opacity="0.2" d="M135.814 24.6313V27.3551H137.926C138.57 27.3551 139.091 26.8317 139.091 26.1855V24.6313H135.814Z" fill="white"/>
<path opacity="0.2" d="M135.543 21.2507H132.441V24.3644H135.543V21.2507Z" fill="white"/>
<path opacity="0.2" d="M122.073 4.73193H118.971V7.45569H122.073V4.73193Z" fill="white"/>
<path opacity="0.2" d="M132.175 21.2507H129.074V24.3644H132.175V21.2507Z" fill="white"/>
<path opacity="0.2" d="M128.808 21.2507H125.706V24.3644H128.808V21.2507Z" fill="white"/>
<path opacity="0.2" d="M125.44 21.2507H122.339V24.3644H125.44V21.2507Z" fill="white"/>
<path opacity="0.2" d="M122.073 21.2507H118.971V24.3644H122.073V21.2507Z" fill="white"/>
<path opacity="0.2" d="M122.073 24.6313H118.971V27.3551H122.073V24.6313Z" fill="white"/>
<path opacity="0.2" d="M139.091 21.2507H135.814V24.3644H139.091V21.2507Z" fill="white"/>
<path opacity="0.2" d="M118.705 14.4841H115.428V17.5978H118.705V14.4841Z" fill="white"/>
<path opacity="0.2" d="M118.705 17.8701H115.428V20.9837H118.705V17.8701Z" fill="white"/>
<path opacity="0.2" d="M128.808 24.6313H125.706V27.3551H128.808V24.6313Z" fill="white"/>
<path opacity="0.2" d="M118.705 21.2507H115.428V24.3644H118.705V21.2507Z" fill="white"/>
<path opacity="0.2" d="M125.44 24.6313H122.339V27.3551H125.44V24.6313Z" fill="white"/>
<path opacity="0.2" d="M118.705 7.45569V4.73193H116.593C115.949 4.73193 115.428 5.25532 115.428 5.90155V7.45569H118.705Z" fill="white"/>
<path opacity="0.2" d="M118.705 24.6313H115.428V26.1855C115.428 26.8317 115.949 27.3551 116.593 27.3551H118.705V24.6313Z" fill="white"/>
<path opacity="0.2" d="M135.814 7.45569H139.091V5.90155C139.091 5.25532 138.57 4.73193 137.926 4.73193H135.814V7.45569Z" fill="white"/>
<path opacity="0.2" d="M132.175 24.6313H129.074V27.3551H132.175V24.6313Z" fill="white"/>
<path opacity="0.2" d="M135.543 24.6313H132.441V27.3551H135.543V24.6313Z" fill="white"/>
<path opacity="0.2" d="M128.808 7.72266H125.706V10.8363H128.808V7.72266Z" fill="white"/>
<path opacity="0.2" d="M122.073 7.72266H118.971V10.8363H122.073V7.72266Z" fill="white"/>
<path opacity="0.2" d="M139.091 11.1035H135.814V14.2171H139.091V11.1035Z" fill="white"/>
<path opacity="0.2" d="M125.44 7.72266H122.339V10.8363H125.44V7.72266Z" fill="white"/>
<path opacity="0.2" d="M132.175 11.1035H129.074V14.2171H132.175V11.1035Z" fill="white"/>
<path opacity="0.2" d="M135.543 11.1035H132.441V14.2171H135.543V11.1035Z" fill="white"/>
<path opacity="0.2" d="M118.705 11.1035H115.428V14.2171H118.705V11.1035Z" fill="white"/>
<path opacity="0.2" d="M118.705 7.72266H115.428V10.8363H118.705V7.72266Z" fill="white"/>
<path opacity="0.2" d="M139.091 7.72266H135.814V10.8363H139.091V7.72266Z" fill="white"/>
<path opacity="0.2" d="M128.808 11.1035H125.706V14.2171H128.808V11.1035Z" fill="white"/>
<path opacity="0.2" d="M132.175 7.72266H129.074V10.8363H132.175V7.72266Z" fill="white"/>
<path opacity="0.2" d="M135.543 7.72266H132.441V10.8363H135.543V7.72266Z" fill="white"/>
<path d="M120.243 15.9472C120.243 15.9472 123.381 19.691 127.26 19.691C131.133 19.691 134.277 15.9472 134.277 15.9472C134.277 15.9472 131.138 12.2034 127.26 12.2034C123.381 12.198 120.243 15.9472 120.243 15.9472Z" stroke="white" stroke-miterlimit="10" stroke-linecap="round" stroke-linejoin="round"/>
<path d="M129.702 15.4133C129.702 16.7698 128.606 17.8647 127.26 17.8647C125.908 17.8647 124.818 16.7645 124.818 15.4133C124.818 14.0568 125.914 12.9619 127.26 12.9619C128.606 12.9619 129.702 14.0568 129.702 15.4133Z" stroke="white" stroke-miterlimit="10"/>
<path d="M127.531 14.3343C127.531 13.8964 127.887 13.5386 128.324 13.5386C128.76 13.5386 129.116 13.8964 129.116 14.3343C129.116 14.7723 128.76 15.1301 128.324 15.1301C127.882 15.1248 127.531 14.7723 127.531 14.3343Z" stroke="white" stroke-miterlimit="10"/>
<path d="M127.26 12.1982V9.69336" stroke="white" stroke-miterlimit="10" stroke-linecap="round" stroke-linejoin="round"/>
<path d="M129.436 12.3798L130.329 10.345" stroke="white" stroke-miterlimit="10" stroke-linecap="round" stroke-linejoin="round"/>
<path d="M131.526 13.3145L132.776 11.8245" stroke="white" stroke-miterlimit="10" stroke-linecap="round" stroke-linejoin="round"/>
<path d="M133.202 14.4627L134.41 13.6509" stroke="white" stroke-miterlimit="10" stroke-linecap="round" stroke-linejoin="round"/>
<path d="M125.078 12.3798L124.185 10.345" stroke="white" stroke-miterlimit="10" stroke-linecap="round" stroke-linejoin="round"/>
<path d="M122.988 13.3145L121.738 11.8245" stroke="white" stroke-miterlimit="10" stroke-linecap="round" stroke-linejoin="round"/>
<path d="M121.312 14.4627L120.104 13.6509" stroke="white" stroke-miterlimit="10" stroke-linecap="round" stroke-linejoin="round"/>
<path d="M91.0997 38.592C90.855 38.592 90.6528 38.7362 90.5464 38.9392H76.4165C75.7143 38.9392 75.1397 39.516 75.1397 40.221V54.7904C75.1397 55.2016 74.8045 55.5381 74.3949 55.5381H68.7131V56.0722H74.3949C75.0971 56.0722 75.6717 55.4954 75.6717 54.7904V40.221C75.6717 39.8097 76.0069 39.4733 76.4165 39.4733H90.5305C90.6262 39.6922 90.8443 39.8418 91.0944 39.8418C91.4402 39.8418 91.7168 39.564 91.7168 39.2169C91.7221 38.8698 91.4455 38.592 91.0997 38.592Z" fill="#407BFF"/>
<path opacity="0.4" d="M91.0997 38.592C90.855 38.592 90.6528 38.7362 90.5464 38.9392H76.4165C75.7143 38.9392 75.1397 39.516 75.1397 40.221V54.7904C75.1397 55.2016 74.8045 55.5381 74.3949 55.5381H68.7131V56.0722H74.3949C75.0971 56.0722 75.6717 55.4954 75.6717 54.7904V40.221C75.6717 39.8097 76.0069 39.4733 76.4165 39.4733H90.5305C90.6262 39.6922 90.8443 39.8418 91.0944 39.8418C91.4402 39.8418 91.7168 39.564 91.7168 39.2169C91.7221 38.8698 91.4455 38.592 91.0997 38.592Z" fill="white"/>
<path d="M67.2873 67.9499H47.082C46.2946 67.9499 45.6509 67.309 45.6509 66.5133V45.0971C45.6509 44.3066 46.2893 43.6604 47.082 43.6604H67.2873C68.0747 43.6604 68.7184 44.3013 68.7184 45.0971V66.5133C68.7184 67.309 68.0747 67.9499 67.2873 67.9499Z" fill="#407BFF"/>
<path opacity="0.4" d="M67.2873 67.9499H47.082C46.2946 67.9499 45.6509 67.309 45.6509 66.5133V45.0971C45.6509 44.3066 46.2893 43.6604 47.082 43.6604H67.2873C68.0747 43.6604 68.7184 44.3013 68.7184 45.0971V66.5133C68.7184 67.309 68.0747 67.9499 67.2873 67.9499Z" fill="white"/>
<path opacity="0.2" d="M58.738 57.6318H55.6365V60.7455H58.738V57.6318Z" fill="white"/>
<path opacity="0.2" d="M62.1056 47.4897H59.004V50.6034H62.1056V47.4897Z" fill="white"/>
<path opacity="0.2" d="M55.3652 61.0125H52.2637V64.1261H55.3652V61.0125Z" fill="white"/>
<path opacity="0.2" d="M62.1056 50.8704H59.004V53.984H62.1056V50.8704Z" fill="white"/>
<path opacity="0.2" d="M62.1056 54.2512H59.004V57.3649H62.1056V54.2512Z" fill="white"/>
<path opacity="0.2" d="M58.738 50.8704H55.6365V53.984H58.738V50.8704Z" fill="white"/>
<path opacity="0.2" d="M58.738 43.9329H55.6365V47.2227H58.738V43.9329Z" fill="white"/>
<path opacity="0.2" d="M55.3652 57.6318H52.2637V60.7455H55.3652V57.6318Z" fill="white"/>
<path opacity="0.2" d="M58.738 47.4897H55.6365V50.6034H58.738V47.4897Z" fill="white"/>
<path opacity="0.2" d="M58.738 61.0125H55.6365V64.1261H58.738V61.0125Z" fill="white"/>
<path opacity="0.2" d="M62.1056 61.0125H59.004V64.1261H62.1056V61.0125Z" fill="white"/>
<path opacity="0.2" d="M58.738 54.2512H55.6365V57.3649H58.738V54.2512Z" fill="white"/>
<path opacity="0.2" d="M62.1056 43.9329H59.004V47.2227H62.1056V43.9329Z" fill="white"/>
<path opacity="0.2" d="M48.6354 57.6318H45.9222V60.7455H48.6354V57.6318Z" fill="white"/>
<path opacity="0.2" d="M48.6354 47.4897H45.9222V50.6034H48.6354V47.4897Z" fill="white"/>
<path opacity="0.2" d="M48.6354 54.2512H45.9222V57.3649H48.6354V54.2512Z" fill="white"/>
<path opacity="0.2" d="M48.6354 50.8704H45.9222V53.984H48.6354V50.8704Z" fill="white"/>
<path opacity="0.2" d="M62.1056 57.6318H59.004V60.7455H62.1056V57.6318Z" fill="white"/>
<path opacity="0.2" d="M65.7391 47.2227H68.4523V45.1025C68.4523 44.4562 67.931 43.9329 67.2873 43.9329H65.7391V47.2227Z" fill="white"/>
<path opacity="0.2" d="M65.4731 47.4897H62.3716V50.6034H65.4731V47.4897Z" fill="white"/>
<path opacity="0.2" d="M48.6354 61.0125H45.9222V64.1261H48.6354V61.0125Z" fill="white"/>
<path opacity="0.2" d="M65.4731 50.8704H62.3716V53.984H65.4731V50.8704Z" fill="white"/>
<path opacity="0.2" d="M65.4731 54.2512H62.3716V57.3649H65.4731V54.2512Z" fill="white"/>
<path opacity="0.2" d="M65.4731 57.6318H62.3716V60.7455H65.4731V57.6318Z" fill="white"/>
<path opacity="0.2" d="M65.4731 61.0125H62.3716V64.1261H65.4731V61.0125Z" fill="white"/>
<path opacity="0.2" d="M68.4523 61.0125H65.7391V64.1261H68.4523V61.0125Z" fill="white"/>
<path opacity="0.2" d="M65.4731 43.9329H62.3716V47.2227H65.4731V43.9329Z" fill="white"/>
<path opacity="0.2" d="M58.738 64.3931H55.6365V67.6829H58.738V64.3931Z" fill="white"/>
<path opacity="0.2" d="M62.1056 64.3931H59.004V67.6829H62.1056V64.3931Z" fill="white"/>
<path opacity="0.2" d="M68.4523 54.2512H65.7391V57.3649H68.4523V54.2512Z" fill="white"/>
<path opacity="0.2" d="M65.4731 64.3931H62.3716V67.6829H65.4731V64.3931Z" fill="white"/>
<path opacity="0.2" d="M68.4523 57.6318H65.7391V60.7455H68.4523V57.6318Z" fill="white"/>
<path opacity="0.2" d="M48.6301 64.3931H45.9169V66.5133C45.9169 67.1596 46.4382 67.6829 47.082 67.6829H48.6301V64.3931Z" fill="white"/>
<path opacity="0.2" d="M65.7391 64.3931V67.6829H67.2873C67.931 67.6829 68.4523 67.1596 68.4523 66.5133V64.3931H65.7391Z" fill="white"/>
<path opacity="0.2" d="M48.6301 47.2227V43.9329H47.082C46.4382 43.9329 45.9169 44.4562 45.9169 45.1025V47.2227H48.6301Z" fill="white"/>
<path opacity="0.2" d="M68.4523 50.8704H65.7391V53.984H68.4523V50.8704Z" fill="white"/>
<path opacity="0.2" d="M68.4523 47.4897H65.7391V50.6034H68.4523V47.4897Z" fill="white"/>
<path opacity="0.2" d="M51.9977 54.2512H48.8961V57.3649H51.9977V54.2512Z" fill="white"/>
<path opacity="0.2" d="M51.9977 61.0125H48.8961V64.1261H51.9977V61.0125Z" fill="white"/>
<path opacity="0.2" d="M55.3652 43.9329H52.2637V47.2227H55.3652V43.9329Z" fill="white"/>
<path opacity="0.2" d="M51.9977 57.6318H48.8961V60.7455H51.9977V57.6318Z" fill="white"/>
<path opacity="0.2" d="M55.3652 50.8704H52.2637V53.984H55.3652V50.8704Z" fill="white"/>
<path opacity="0.2" d="M55.3652 47.4897H52.2637V50.6034H55.3652V47.4897Z" fill="white"/>
<path opacity="0.2" d="M55.3652 64.3931H52.2637V67.6829H55.3652V64.3931Z" fill="white"/>
<path opacity="0.2" d="M51.9977 64.3931H48.8961V67.6829H51.9977V64.3931Z" fill="white"/>
<path opacity="0.2" d="M51.9977 43.9329H48.8961V47.2227H51.9977V43.9329Z" fill="white"/>
<path opacity="0.2" d="M55.3652 54.2512H52.2637V57.3649H55.3652V54.2512Z" fill="white"/>
<path opacity="0.2" d="M51.9977 50.8704H48.8961V53.984H51.9977V50.8704Z" fill="white"/>
<path opacity="0.2" d="M51.9977 47.4897H48.8961V50.6034H51.9977V47.4897Z" fill="white"/>
<path d="M57.1847 63.8909C54.0778 63.8909 51.5508 61.3541 51.5508 58.2351V53.3804C51.5508 50.2614 54.0778 47.7246 57.1847 47.7246C60.2915 47.7246 62.8185 50.2614 62.8185 53.3804V58.2351C62.8185 61.3541 60.2915 63.8909 57.1847 63.8909ZM57.1847 48.2587C54.3704 48.2587 52.0828 50.5552 52.0828 53.3804V58.2351C52.0828 61.0603 54.3704 63.3569 57.1847 63.3569C59.9989 63.3569 62.2865 61.0603 62.2865 58.2351V53.3804C62.2865 50.5605 59.9989 48.2587 57.1847 48.2587Z" fill="white"/>
<path d="M59.7277 55.1429C60.0567 55.1429 60.3235 54.7794 60.3235 54.3311C60.3235 53.8827 60.0567 53.5193 59.7277 53.5193C59.3986 53.5193 59.1318 53.8827 59.1318 54.3311C59.1318 54.7794 59.3986 55.1429 59.7277 55.1429Z" fill="white"/>
<path d="M55.2376 54.3311C55.2376 54.7797 54.9716 55.1429 54.6417 55.1429C54.3119 55.1429 54.0459 54.7797 54.0459 54.3311C54.0459 53.8825 54.3119 53.5193 54.6417 53.5193C54.9716 53.5246 55.2376 53.8878 55.2376 54.3311Z" fill="white"/>
<path d="M57.2166 55.1428L56.0941 58.0321H57.2166V55.1428Z" fill="white"/>
<path d="M56.9825 60.0349C55.9983 60.0349 55.5248 59.8106 55.4929 59.7999L55.7217 59.3192L55.6046 59.5595L55.7164 59.3192C55.727 59.3246 56.6686 59.7411 58.7062 59.2979L58.8179 59.8212C58.0784 59.9815 57.4666 60.0349 56.9825 60.0349Z" fill="white"/>
<path d="M211.725 71.8592H153.759C152.253 71.8592 151.03 70.6308 151.03 69.1194V10.9324C151.03 9.42099 152.253 8.19263 153.759 8.19263H211.72C213.226 8.19263 214.449 9.42099 214.449 10.9324V69.1194C214.449 70.6308 213.231 71.8592 211.725 71.8592Z" fill="#407BFF"/>
<path opacity="0.5" d="M205.161 60.6171H160.318C158.956 60.6171 157.855 59.5116 157.855 58.1444V49.9037C157.855 48.5364 158.956 47.4309 160.318 47.4309H205.161C206.522 47.4309 207.624 48.5364 207.624 49.9037V58.139C207.624 59.5062 206.522 60.6171 205.161 60.6171Z" fill="white"/>
<path d="M166.755 54.032L168.208 54.8224L167.553 55.9173L166.09 55.0468L166.117 56.665H164.867L164.883 55.0307L163.42 55.9119L162.781 54.8171L164.234 54.0267L162.781 53.2256L163.42 52.1307L164.883 53.0119L164.867 51.3777H166.117L166.09 53.0119L167.553 52.1307L168.208 53.2256L166.755 54.032Z" fill="white"/>
<path d="M175.379 54.032L176.831 54.8224L176.177 55.9173L174.714 55.0468L174.741 56.665H173.49L173.506 55.0307L172.043 55.9119L171.405 54.8171L172.857 54.0267L171.405 53.2256L172.043 52.1307L173.506 53.0119L173.49 51.3777H174.741L174.714 53.0119L176.177 52.1307L176.831 53.2256L175.379 54.032Z" fill="white"/>
<path d="M184.008 54.032L185.461 54.8224L184.806 55.9173L183.343 55.0468L183.37 56.665H182.12L182.136 55.0307L180.673 55.9119L180.034 54.8171L181.487 54.0267L180.034 53.2256L180.673 52.1307L182.136 53.0119L182.12 51.3777H183.37L183.343 53.0119L184.806 52.1307L185.461 53.2256L184.008 54.032Z" fill="white"/>
<path d="M192.637 54.032L194.09 54.8224L193.435 55.9173L191.972 55.0468L191.999 56.665H190.749L190.765 55.0307L189.302 55.9119L188.663 54.8171L190.116 54.0267L188.663 53.2256L189.302 52.1307L190.765 53.0119L190.749 51.3777H191.999L191.972 53.0119L193.435 52.1307L194.09 53.2256L192.637 54.032Z" fill="white"/>
<path d="M201.261 54.032L202.713 54.8224L202.059 55.9173L200.596 55.0468L200.622 56.665H199.372L199.388 55.0307L197.925 55.9119L197.287 54.8171L198.739 54.0267L197.287 53.2256L197.925 52.1307L199.388 53.0119L199.372 51.3777H200.622L200.596 53.0119L202.059 52.1307L202.713 53.2256L201.261 54.032Z" fill="white"/>
<path opacity="0.5" d="M192.797 37.9896C198.35 32.4147 198.35 23.3759 192.797 17.8009C187.244 12.2259 178.24 12.226 172.686 17.8009C167.133 23.3759 167.133 32.4147 172.686 37.9896C178.24 43.5646 187.244 43.5646 192.797 37.9896Z" fill="white"/>
<path d="M188.302 27.0935H177.177C176.337 27.0935 175.656 27.7771 175.656 28.6209V35.425C175.656 36.2688 176.337 36.9524 177.177 36.9524H188.302C189.142 36.9524 189.823 36.2688 189.823 35.425V28.6209C189.828 27.7771 189.147 27.0935 188.302 27.0935ZM183.764 34.6613H181.715L182.146 31.8841C181.699 31.6651 181.386 31.2058 181.386 30.6718C181.386 29.9241 181.992 29.3152 182.737 29.3152C183.482 29.3152 184.088 29.9241 184.088 30.6718C184.088 31.2058 183.78 31.6651 183.327 31.8841L183.764 34.6613Z" fill="#407BFF"/>
<path d="M179.539 26.0039L179.332 24.9571C178.96 23.0986 180.162 21.2827 182.013 20.9089C183.865 20.535 185.673 21.742 186.046 23.6006L186.253 24.6474L188.216 24.2522L188.009 23.2054C187.418 20.2626 184.556 18.3453 181.62 18.9382C178.688 19.531 176.778 22.4043 177.369 25.3523L177.576 26.3991L179.539 26.0039Z" fill="#407BFF"/>
<path opacity="0.2" d="M190.669 65.3648H174.815C174.427 65.3648 174.113 65.0497 174.113 64.6598C174.113 64.2699 174.427 63.9548 174.815 63.9548H190.669C191.057 63.9548 191.371 64.2699 191.371 64.6598C191.371 65.0497 191.057 65.3648 190.669 65.3648Z" fill="black"/>
<path d="M138.155 65.0712L143.603 60.4248C143.603 60.4248 148.242 55.49 149.221 55.3831C150.205 55.2763 152.306 55.6982 152.87 56.4032C153.429 57.1082 149.242 61.6905 148.258 62.5343C147.274 63.3782 145.31 63.2393 145.31 63.2393L140.118 68.2756L138.155 65.0712Z" fill="#EBB376"/>
<path d="M96.127 189.146H90.8602C90.6847 189.146 90.5304 189.269 90.4932 189.446L89.6366 193.323C89.5622 193.67 89.7856 194.012 90.1314 194.087C90.1793 194.097 90.2272 194.103 90.2697 194.103C91.9721 194.076 93.217 193.969 95.3556 193.969C96.675 193.969 100.649 194.108 102.468 194.108C104.288 194.108 104.527 192.303 103.783 192.137C100.442 191.406 97.9252 190.391 96.8559 189.429C96.659 189.243 96.3984 189.141 96.127 189.146Z" fill="#263238"/>
<path d="M118.46 189.008H113.194C113.018 189.008 112.864 189.13 112.827 189.307L111.97 193.184C111.896 193.531 112.119 193.873 112.465 193.948C112.513 193.958 112.561 193.964 112.603 193.964C114.305 193.937 115.55 193.83 117.689 193.83C119.008 193.83 122.982 193.969 124.802 193.969C126.621 193.969 126.861 192.164 126.116 191.998C122.775 191.267 120.259 190.252 119.189 189.291C118.992 189.104 118.732 189.002 118.46 189.008Z" fill="#263238"/>
<path d="M93.334 91.1445H116.343C118.53 103.14 124.786 151.671 119.875 189.483L112.193 190.327C112.193 190.327 113.396 132.22 106.522 113.661C105.73 123.595 104.793 134.159 103.974 139.782C101.974 153.62 97.4623 189.691 97.4623 189.691L89.6738 189.905C89.6738 189.905 91.3815 154.918 92.1317 141.315C92.9509 126.553 93.3021 94.1781 93.334 91.1445Z" fill="#263238"/>
<path opacity="0.2" d="M93.334 91.1445H116.343C118.53 103.14 124.786 151.671 119.875 189.483L112.193 190.327C112.193 190.327 113.396 132.22 106.522 113.661C105.73 123.595 104.793 134.159 103.974 139.782C101.974 153.62 97.4623 189.691 97.4623 189.691L89.6738 189.905C89.6738 189.905 91.3815 154.918 92.1317 141.315C92.9509 126.553 93.3021 94.1781 93.334 91.1445Z" fill="white"/>
<path opacity="0.2" d="M106.522 113.666C107.538 116.401 108.379 119.819 109.092 123.659C109.735 114.82 107.161 105.447 107.161 105.447L106.522 113.666Z" fill="black"/>
<path d="M114.242 51.1799C117.876 51.6232 125.031 68.2061 127.765 69.6855C130.5 71.1648 141.342 61.8667 141.342 61.8667L144.077 65.2473C144.077 65.2473 131.766 78.4549 126.925 76.9755C122.084 75.4962 115.242 63.031 113.141 59.1216C111.034 55.2175 114.242 51.1799 114.242 51.1799Z" fill="#407BFF"/>
<path opacity="0.5" d="M144.076 65.2527C144.076 65.2527 131.766 78.4549 126.924 76.9755C124.812 76.3293 122.317 73.5895 120.003 70.3851C117.013 66.2461 114.327 61.3273 113.14 59.1269C112.007 57.028 112.411 54.8864 113.023 53.3589C113.555 52.0451 114.242 51.1799 114.242 51.1799C117.875 51.6232 125.031 68.2114 127.765 69.6908C130.505 71.1649 141.342 61.872 141.342 61.872L144.076 65.2527Z" fill="white"/>
<path opacity="0.2" d="M120.003 70.385C117.013 66.246 114.327 61.3272 113.14 59.1268C112.007 57.0279 112.411 54.8863 113.023 53.3589C115.093 55.9171 119.301 62.0589 120.003 70.385Z" fill="black"/>
<path d="M114.242 51.1798C114.242 51.1798 99.6063 50.4855 88.7003 53.252C88.7003 53.252 92.7914 85.0346 92.6052 98.8723L118.7 97.4624C118.705 97.4677 118.045 65.4662 114.242 51.1798Z" fill="#407BFF"/>
<path opacity="0.6" d="M92.6109 98.8781C92.6961 92.4426 91.8555 82.1297 90.9351 72.933V72.9277C90.584 69.4188 90.2223 66.0702 89.8924 63.1649C89.2274 57.3168 88.7061 53.2525 88.7061 53.2525C99.6067 50.4914 114.242 51.1857 114.242 51.1857C118.046 65.4667 118.706 97.4682 118.706 97.4682L92.6109 98.8781Z" fill="white"/>
<path opacity="0.2" d="M90.9347 72.9271C90.5836 69.4182 90.2218 66.0696 89.892 63.1643L91.5678 61.8718C91.5678 61.8718 93.0254 67.6612 90.9347 72.9271Z" fill="black"/>
<path opacity="0.2" d="M114.05 85.4886L112.619 85.558L108.735 85.7396L106.352 85.8517L101.389 86.0867C101.389 86.0867 101.378 85.841 101.362 85.3924V85.3871C101.319 84.4204 101.234 82.5084 101.091 80.0998V80.0944C100.99 78.3 100.851 76.2278 100.681 74.0594C100.559 72.564 100.426 71.0259 100.271 69.5038C100.043 67.2447 99.7766 65.0123 99.4627 63.0042C99.2978 61.9254 99.1169 60.916 98.9254 59.9974L111.273 59.1909C111.273 59.1909 111.433 59.976 111.672 61.3486C111.832 62.2351 112.023 63.3673 112.231 64.6918C113.034 69.8456 114.05 77.8834 114.05 85.4886Z" fill="black"/>
<path opacity="0.2" d="M108.736 85.7395L106.352 85.8517C108.049 81.5203 108.714 75.4159 107.576 73.5146C106.033 70.9404 104.139 75.8752 102.798 81.7927C102.431 83.4056 101.921 84.5592 101.362 85.387C101.319 84.4204 101.234 82.5084 101.091 80.0997V80.0944C101.676 79.1758 102.272 77.8726 102.798 76.0194C104.698 69.3275 106.384 68.1312 108.555 69.8883C110.544 71.5012 111.13 79.2986 108.736 85.7395Z" fill="black"/>
<path opacity="0.2" d="M112.619 85.558C113.103 79.8808 112.358 70.3156 110.699 67.3729C108.799 63.9975 104.607 63.9228 102.591 70.0272C101.99 71.8377 101.325 73.1302 100.681 74.0594C100.559 72.564 100.426 71.0259 100.271 69.5038C100.74 68.927 101.25 68.1847 101.788 67.234C104.086 63.1484 107.666 61.2471 111.151 63.6237C111.539 63.8907 111.901 64.2486 112.231 64.6918C113.034 69.8456 114.05 77.8834 114.05 85.4885L112.619 85.558Z" fill="black"/>
<path opacity="0.2" d="M111.672 61.3486C108.911 59.255 105.182 59.8211 102.798 61.8025C101.564 62.8279 100.394 63.0683 99.4627 63.0042C99.2978 61.9254 99.1169 60.916 98.9254 59.9974L111.273 59.1909C111.273 59.1909 111.433 59.976 111.672 61.3486Z" fill="black"/>
<path d="M97.2495 52.152C99.3509 54.0693 104.501 53.359 104.501 53.359C104.501 53.359 107.714 52.4778 107.038 51.4684C105.144 51.1533 104.229 50.2667 103.852 49.1345C103.634 48.4723 103.602 47.7299 103.66 46.9662C103.687 46.5656 103.745 46.1544 103.82 45.7538L97.457 41.022C98.2869 44.1409 99.3084 49.8875 97.2495 52.152Z" fill="#EBB376"/>
<path opacity="0.2" d="M98.9253 44.0234C99.1753 47.8581 102.314 48.9155 103.852 49.1292C103.633 48.4669 103.602 47.7245 103.66 46.9608L98.9253 44.0234Z" fill="black"/>
<path d="M108.225 31.0828C108.225 31.0828 110.001 36.8507 107.219 39.5905C104.437 42.3303 102.798 31.3445 102.798 31.3445L108.225 31.0828Z" fill="#263238"/>
<path d="M98.8615 45.6415C100.702 47.5962 103.256 47.7992 105.299 46.7951C106.613 46.1543 107.709 45.006 108.278 43.5106C108.352 43.313 108.416 43.1101 108.475 42.9018C109.47 39.0618 109.017 32.6797 104.862 30.8905C101.91 29.5927 98.4625 30.9439 97.1698 33.908C96.7974 34.7518 96.6325 35.6704 96.6857 36.5944C96.8506 40.883 96.7442 43.4091 98.8615 45.6415Z" fill="#EBB376"/>
<path d="M103.144 37.9244C103.112 38.2716 103.314 38.56 103.543 38.5653C103.772 38.5706 103.958 38.2876 103.969 37.9404C103.979 37.5933 103.793 37.3049 103.57 37.2996C103.346 37.2996 103.155 37.5719 103.144 37.9244Z" fill="#263238"/>
<path d="M107.076 38.0045C107.044 38.3517 107.251 38.64 107.475 38.6454C107.698 38.6507 107.889 38.3677 107.9 38.0205C107.911 37.6734 107.725 37.385 107.501 37.3796C107.278 37.3796 107.086 37.6734 107.076 38.0045Z" fill="#263238"/>
<path d="M105.825 38.1541C106.219 39.2329 106.756 40.2476 107.427 41.1769C106.937 41.5134 106.32 41.6148 105.751 41.4546L105.825 38.1541Z" fill="#D58745"/>
<path d="M101.947 36.6213C102.022 36.6319 102.096 36.6052 102.149 36.5465C102.463 36.1299 102.953 35.8842 103.469 35.8842C103.58 35.8949 103.681 35.8148 103.692 35.7027C103.703 35.5905 103.623 35.489 103.506 35.4783C102.852 35.457 102.224 35.7614 101.83 36.2901C101.756 36.3756 101.772 36.5038 101.857 36.5785C101.857 36.5785 101.857 36.5785 101.862 36.5839C101.889 36.5999 101.915 36.6159 101.947 36.6213Z" fill="#263238"/>
<path d="M108.794 36.68C108.831 36.696 108.874 36.7013 108.916 36.6907C109.017 36.6426 109.065 36.5251 109.017 36.4236V36.4183C108.757 35.8095 108.214 35.3715 107.57 35.238C107.459 35.222 107.358 35.2967 107.342 35.4089C107.331 35.5211 107.405 35.6225 107.512 35.6386C108.017 35.7614 108.438 36.1139 108.645 36.5945C108.677 36.6426 108.73 36.6746 108.794 36.68Z" fill="#263238"/>
<path d="M99.9255 31.3125L100.207 33.1978C99.601 33.5449 99.2445 34.2552 99.5531 34.9922C100.202 36.5678 99.3722 39.0565 98.1858 40.0713C98.1858 40.0713 98.1273 39.3823 97.5528 39.5639C96.9782 39.7455 97.2389 43.3237 98.4146 45.0061C98.4146 45.0061 96.3717 43.1689 95.3077 39.4304C94.3182 35.9749 94.4193 33.4114 95.1002 32.0442L99.9255 31.3125Z" fill="#263238"/>
<path d="M106.065 42.5014C105.847 43.0355 105.645 44.0235 105.645 44.0235C105.554 44.0235 105.458 44.0182 105.368 44.0128C104.112 43.9541 103.548 43.5108 103.304 43.0355C103.171 42.7738 103.139 42.5014 103.139 42.2824C103.139 42.0261 103.197 41.8445 103.197 41.8445C103.846 42.2717 105.011 42.4213 105.634 42.4693C105.9 42.5014 106.065 42.5014 106.065 42.5014Z" fill="#263238"/>
<path d="M105.634 42.4747L105.501 42.918C104.32 42.8592 103.495 42.6616 103.139 42.2824C103.139 42.0261 103.197 41.8445 103.197 41.8445C103.846 42.2824 105.011 42.4266 105.634 42.4747Z" fill="white"/>
<path d="M105.368 44.0128C104.112 43.954 103.548 43.5107 103.304 43.0354C103.729 43.0728 104.24 43.1636 104.687 43.3772C105.027 43.5428 105.235 43.7778 105.368 44.0128Z" fill="#DE5753"/>
<path d="M102.74 32.4821C102.74 32.4821 103.075 31.9 103.969 32.167C104.868 32.4287 105.66 33.3366 106.586 34.4902C107.512 35.6438 109.342 35.6545 109.762 34.9656C110.182 34.2766 109.342 33.326 109.342 33.326C109.342 33.326 110.129 28.9412 105.368 27.9372C100.606 26.9331 98.106 29.0481 98.106 29.0481C98.106 29.0481 94.148 29.1762 93.8766 32.8506C93.6958 35.2326 94.1373 37.2994 94.1373 37.2994C94.1373 37.2994 93.084 38.6453 95.079 38.5652C97.3506 38.4744 100.074 37.2354 100.213 35.0136C100.346 32.7972 102.74 32.4821 102.74 32.4821Z" fill="#263238"/>
<path d="M94.7491 40.0766C95.2013 41.054 96.0259 41.8177 97.0367 42.1862C98.3773 42.6669 99.1487 41.4866 98.8667 40.1621C98.6007 38.9871 97.5953 37.2781 96.2014 37.3796C94.8129 37.481 94.2064 38.8643 94.7491 40.0766Z" fill="#EBB376"/>
<path d="M88.7056 53.2522C84.8965 54.3631 79.5605 80.4204 80.2628 83.801C80.965 87.1817 94.3608 101.409 94.3608 101.409L98.1007 98.5788C98.1007 98.5788 86.7159 82.3964 86.5723 79.0158C86.434 75.6351 91.621 63.1005 91.621 63.1005C91.621 63.1005 91.4827 58.876 90.9187 56.761C90.3655 54.6461 88.7056 53.2522 88.7056 53.2522Z" fill="#407BFF"/>
<path opacity="0.5" d="M88.7056 53.2522C84.8965 54.3631 79.5605 80.4204 80.2628 83.801C80.965 87.1817 94.3608 101.409 94.3608 101.409L98.1007 98.5788C98.1007 98.5788 86.7159 82.3964 86.5723 79.0158C86.434 75.6351 91.621 63.1005 91.621 63.1005C91.621 63.1005 91.4827 58.876 90.9187 56.761C90.3655 54.6461 88.7056 53.2522 88.7056 53.2522Z" fill="white"/>
</g>
<defs>
<clipPath id="clip0_34_3173">
<rect width="266" height="199" fill="white"/>
</clipPath>
</defs>
</svg>
