<svg width="256" height="226" viewBox="0 0 256 226" fill="none" xmlns="http://www.w3.org/2000/svg">
<path d="M230.465 158.062H196.319C182.559 158.062 171.295 152.942 171.295 146.676C171.295 140.411 182.552 135.29 196.319 135.29H230.465C244.231 135.29 255.488 130.169 255.488 123.904C255.488 117.645 248.547 112.518 240.069 112.518C235.058 112.518 230.6 110.723 227.776 107.97C229.763 106.336 230.908 104.464 230.908 102.476C230.908 96.2167 235.225 91.0896 240.493 91.0896C245.768 91.0896 250.078 85.9691 250.078 79.7034C250.078 73.4378 241.265 68.3172 230.49 68.3172C219.715 68.3172 210.902 63.1967 210.902 56.931C210.902 50.6718 219.715 45.5448 230.49 45.5448C241.265 45.5448 250.078 40.4242 250.078 34.1586C250.078 27.8994 244.45 22.7724 237.573 22.7724C230.696 22.7724 225.067 17.6518 225.067 11.3862C225.067 5.12701 213.81 0 200.043 0H50.035C36.275 0 25.0111 5.12701 25.0111 11.3862C25.0111 17.6454 19.3823 22.7724 12.5055 22.7724C5.62877 22.7724 0 27.893 0 34.1586C0 40.4178 11.2575 45.5448 25.0239 45.5448H59.1697C72.9296 45.5448 84.1936 50.6654 84.1936 56.931C84.1936 63.1967 72.936 68.3172 59.1697 68.3172H25.0304C11.2704 68.3172 0.00643303 73.4442 0.00643303 79.7034C0.00643303 85.9626 6.94751 91.0896 15.4261 91.0896C20.4373 91.0896 24.8953 92.8844 27.7193 95.6377C25.7315 97.2716 24.5865 99.1436 24.5865 101.131C24.5865 107.391 20.27 112.518 15.0015 112.518C9.72652 112.518 5.41649 117.645 5.41649 123.904C5.41649 130.169 14.2295 135.29 25.0046 135.29C35.7797 135.29 44.5928 140.411 44.5928 146.676C44.5928 152.942 35.7797 158.062 25.0046 158.062C14.2295 158.062 5.41649 163.183 5.41649 169.449C5.41649 175.714 11.0453 180.835 17.922 180.835C24.7988 180.835 30.4275 185.955 30.4275 192.221C30.4275 198.487 41.6851 203.607 55.4515 203.607H205.466C219.226 203.607 230.49 198.48 230.49 192.221C230.49 185.962 236.119 180.835 242.996 180.835C249.873 180.835 255.501 175.714 255.501 169.449C255.501 163.183 244.231 158.062 230.465 158.062Z" fill="#CCCDF5"/>
<path d="M97.0593 115.161V116.004H10.5692V115.161C10.5692 90.3885 27.3654 87.0305 27.3654 87.0305H113.856C113.856 87.0305 97.0593 90.3885 97.0593 115.161Z" fill="#C3DBEA"/>
<path d="M130.626 185.396C130.626 165.602 130.626 139.928 130.626 115.155C130.626 90.3821 113.83 87.0241 113.83 87.0241H27.3397C27.3397 87.0241 44.136 90.3821 44.136 115.155C44.136 134.949 44.136 160.623 44.136 185.396C44.136 210.169 60.9322 213.527 60.9322 213.527H147.422C147.416 213.527 130.626 210.169 130.626 185.396Z" fill="#EDEDED"/>
<path d="M77.5227 187.795H164.013C162.971 210.387 147.274 213.527 147.274 213.527H60.7908C60.7908 213.527 76.4806 210.387 77.5227 187.795Z" fill="#C3DBEA"/>
<path d="M123.872 109.43H54.7374V120.398H123.872V109.43Z" fill="#AABFCC"/>
<path d="M123.872 125.107H54.7374V130.588H123.872V125.107Z" fill="#AABFCC"/>
<path d="M123.872 135.245H54.7374V140.726H123.872V135.245Z" fill="#AABFCC"/>
<path d="M123.872 145.383H54.7374V150.864H123.872V145.383Z" fill="#AABFCC"/>
<path d="M123.872 155.515H54.7374V161.002H123.872V155.515Z" fill="#AABFCC"/>
<path d="M123.872 165.653H54.7374V171.134H123.872V165.653Z" fill="#AABFCC"/>
<path d="M83.2865 175.792H54.7374V181.272H83.2865V175.792Z" fill="#AABFCC"/>
<path d="M152.273 36.0948L95.9207 43.2868C89.9639 43.2868 85.1328 48.1179 85.1328 54.0747V75.6571C85.1328 81.6139 89.9639 86.445 95.9207 86.445H99.8963L98.5711 97.04L113.663 86.445H152.266C158.223 86.445 163.054 81.6139 163.054 75.6571V46.8828C163.061 40.9259 158.23 36.0948 152.273 36.0948Z" fill="url(#paint0_linear_41_380)"/>
<path d="M182.855 224.077C182.855 225.138 187.068 226 192.26 226C197.457 226 201.664 225.138 201.664 224.077C201.664 223.015 197.451 222.153 192.26 222.153C187.068 222.16 182.855 223.015 182.855 224.077Z" fill="#7AB8C5"/>
<path d="M119.369 218.448C123.216 218.448 126.335 217.811 126.335 217.026C126.335 216.241 123.216 215.605 119.369 215.605C115.521 215.605 112.402 216.241 112.402 217.026C112.402 217.811 115.521 218.448 119.369 218.448Z" fill="#7AB8C5"/>
<path d="M189.924 138.738C189.468 139.053 188.097 140.488 187.789 140.797C187.338 141.247 186.759 142.295 186.759 142.295C186.759 142.295 180.745 150.182 178.712 150.401C178.712 150.401 171.829 140.938 169.796 140.385C169.777 140.417 167.409 143.383 165.769 144.193C170.143 147.924 176.878 153.328 179.059 152.594C183.781 151.012 187.789 143.164 187.789 143.164C187.789 143.164 188.612 142.913 189.236 142.733C189.654 142.611 189.796 141.594 189.796 141.594C189.796 141.594 190.658 140.475 190.806 139.896C190.947 139.317 190.375 138.423 189.924 138.738Z" fill="#EBAB7B"/>
<path d="M186.759 142.302C186.759 142.302 180.725 149.635 178.686 149.848C178.686 149.848 171.822 140.938 169.79 140.385C169.77 140.417 167.403 143.383 165.763 144.193C170.137 147.924 176.891 154.151 179.072 153.418C183.794 151.835 187.789 143.164 187.789 143.164L186.759 142.302Z" fill="#062B43"/>
<path d="M187.268 222.977C187.184 223.613 187.885 224.064 187.885 224.064L194.794 224.649L197.412 224.475C197.412 224.475 197.65 223.163 196.898 222.893C196.145 222.616 193.52 222.031 192.562 221.484C191.603 220.937 190.78 220.159 190.78 220.159L187.917 219.857C187.904 219.85 187.345 222.34 187.268 222.977Z" fill="#06283F"/>
<path d="M189.088 221.594C190.555 221.947 193.282 222.604 194.106 222.797C194.936 222.989 196.016 222.629 195.367 222.449C194.344 222.166 193.07 221.69 192.485 221.356C191.526 220.809 190.767 220.153 190.767 220.153L187.904 219.85C187.904 219.85 187.621 221.24 189.088 221.594Z" fill="#E6AE86"/>
<path d="M127.268 184.456C126.773 184.045 126.02 184.386 126.02 184.386L121.787 189.879L120.52 192.176C120.52 192.176 121.498 193.083 122.135 192.601C122.771 192.118 124.688 190.227 125.666 189.712C126.644 189.204 127.751 188.927 127.751 188.927L129.552 186.682C129.545 186.689 127.757 184.868 127.268 184.456Z" fill="#093B59"/>
<path d="M127.442 186.74C126.348 187.782 124.328 189.719 123.717 190.31C123.106 190.902 122.823 192.009 123.331 191.558C124.122 190.851 125.068 190.027 125.666 189.719C126.644 189.21 127.751 188.934 127.751 188.934L129.552 186.689C129.545 186.689 128.529 185.692 127.442 186.74Z" fill="#F9BB8D"/>
<path d="M151.481 204.997C149.114 203.401 127.744 188.934 127.744 188.934L128.368 187.802L129.545 186.689C138.249 192.446 148.516 194.447 156.789 201.838C156.795 201.838 153.855 206.592 151.481 204.997Z" fill="#F9BB8D"/>
<path d="M191.738 187.995C191.68 189.95 190.767 220.153 190.767 220.153H189.448L187.904 219.85C188.039 209.416 184.714 201.002 186.457 190.04L165.537 182.302L176.016 176.428C176.016 176.428 189.082 183.447 190.799 184.527C191.906 185.209 191.796 186.033 191.738 187.995Z" fill="#E6AE86"/>
<path d="M167.512 152.595C167.512 152.595 165.492 146.644 165.672 143.55C165.852 140.385 169.879 137.754 170.999 142.16C172.08 146.419 171.854 150.305 171.854 150.305L167.512 152.595Z" fill="#D0D0D0"/>
<path d="M152.118 198.294C154.891 192.041 155.573 176.821 163.807 170.098C166.329 172.202 170.761 183.221 170.761 183.221L156.795 201.838L152.118 198.294Z" fill="#F9BB8D"/>
<path d="M153.07 194.646C152.44 192.852 155.277 186.348 157.039 179.162C158.802 171.983 161.099 169.031 161.099 169.031L171.809 166.245L173.816 171.411C173.816 171.411 189.564 183.659 190.812 184.521C192.06 185.383 170.066 205.955 153.07 194.646Z" fill="#093B59"/>
<path d="M172.356 165.107C172.356 165.107 172.498 155.978 173.765 151.211C173.765 151.211 174.678 150.169 174.678 149.552C174.678 147.963 173.308 146.567 172.691 145.145C171.14 141.581 169.474 139.278 169.474 139.278L165.389 138.738C165.389 138.738 162.868 139.471 161.993 146.811C161.51 150.851 162.462 162.102 162.462 162.102L158.255 174.679L168.779 174.987L171.578 167.442L173.16 175.116L174.672 175.161L172.356 165.107Z" fill="#093B59"/>
<path d="M172.691 145.145C171.14 141.581 169.474 139.278 169.474 139.278L167.062 138.957C167.062 138.957 168.065 141.607 172.691 145.145Z" fill="#0097DC"/>
<path d="M169.481 139.278L165.396 138.738L165.55 137.329C165.55 137.329 163.401 136.885 162.687 135.013C161.909 132.981 161.677 129.05 161.536 126.676C161.362 123.698 163.299 121.125 163.299 121.125L171.835 122.071C171.835 122.071 172.89 123.319 172.838 125.872C172.787 128.426 172.195 126.998 172.26 128.896C172.33 130.794 173.598 131.694 173.662 132.234C173.726 132.775 172.793 133.051 172.793 133.051C172.793 133.051 172.407 136.023 171.899 136.988C171.391 137.947 169.487 137.934 169.487 137.934V139.278H169.481Z" fill="#F9BB8D"/>
<path d="M156.506 168.477C156.57 167.931 156.403 165.949 156.377 165.512C156.338 164.875 155.933 163.749 155.933 163.749C155.933 163.749 153.913 154.235 155.103 152.569C156.782 150.208 162.121 147.197 165.074 145.145C168.812 142.553 166.65 140.822 163.627 141.762C160.668 142.682 154.035 147.796 152.665 151.038C150.729 155.624 154.601 163.942 154.601 163.942C154.601 163.942 154.248 164.727 153.971 165.312C153.784 165.705 154.454 166.483 154.454 166.483C154.454 166.483 154.724 167.873 155.065 168.362C155.406 168.863 156.448 169.024 156.506 168.477Z" fill="#F9BB8D"/>
<path d="M163.048 118.449C156.872 116.59 155.225 127.667 159.175 131.044C159.085 137.67 164.72 137.033 164.72 137.033C164.72 137.033 167.969 133.431 166.47 133.65C164.971 133.862 164.141 130.665 165.66 130.202C167.165 129.745 166.669 131.72 167.686 132.222C168.271 127.146 170.163 125.744 172.761 125.409C175.148 125.107 175.669 119.825 172.742 120.546C170.684 118.616 166.676 116.59 163.048 118.449Z" fill="#042237"/>
<path d="M161.877 148.722C161.877 148.722 161.793 147.036 162.154 144.553C162.514 142.077 163.588 142.63 163.588 142.63L164.74 141.807C164.74 141.807 166.959 142.881 167.184 144C166.11 147.68 161.877 148.722 161.877 148.722Z" fill="#062B43"/>
<path d="M155.933 163.749C155.933 163.749 154.428 154.37 155.618 152.704C157.297 150.343 162.713 147.551 165.672 145.499C169.41 142.907 166.695 140.462 163.672 141.401C160.713 142.321 153.694 147.854 152.324 151.096C150.388 155.682 154.601 163.949 154.601 163.949L155.933 163.749Z" fill="#093B59"/>
<path d="M73.0327 88.9991C75.5544 88.9991 75.7603 81.0867 75.7603 81.0867C75.7603 81.0867 63.9688 81.0867 61.1769 81.0867C61.119 84.2195 62.2512 88.9991 64.6185 88.9991C66.9858 88.9991 70.5175 88.9991 73.0327 88.9991Z" fill="#0D0E22"/>
<path d="M70.6974 52.7369C69.6102 52.8205 67.3265 52.9813 67.3265 52.9813C67.3265 52.9813 62.2832 51.5918 62.2832 44.3999C62.2832 39.4079 64.3867 36.1014 69.0248 36.1014C73.5986 36.1014 75.1747 39.6974 75.1747 44.3999C75.1811 51.148 71.4372 52.679 70.6974 52.7369Z" fill="#0D0E22"/>
<path d="M63.692 116.326H61.6077L60.9001 103.563L63.6791 102.444L63.692 116.326Z" fill="#F9BB8D"/>
<path d="M58.7838 119.504C58.4365 119.928 59.3049 120.43 59.3049 120.43L60.9646 120.424C60.9646 120.424 61.2669 120.321 61.788 119.883C62.6114 119.188 63.8079 118.468 64.0395 117.812C64.2646 117.181 63.6857 116.326 63.6857 116.326H61.6014C61.6079 116.326 59.3821 118.764 58.7838 119.504Z" fill="#1D2342"/>
<path d="M64.2774 86.1621C64.2774 89.3657 64.1423 114.525 64.1423 114.525L60.4562 114.55C60.5849 108.748 58.5778 92.6014 58.269 86.4323C57.9603 80.2696 64.2774 79.5169 64.2774 86.1621Z" fill="#1D2342"/>
<path d="M71.7396 116.326H73.8238L74.525 103.563L71.7525 102.444L71.7396 116.326Z" fill="#F9BB8D"/>
<path d="M76.648 119.504C76.9954 119.928 76.127 120.43 76.127 120.43L74.4673 120.424C74.4673 120.424 74.1649 120.321 73.6439 119.883C72.8204 119.188 71.6239 118.468 71.3923 117.812C71.1672 117.181 71.7397 116.326 71.7397 116.326H73.824C73.824 116.326 76.0433 118.764 76.648 119.504Z" fill="#1D2342"/>
<path d="M71.1542 86.1621C71.1542 89.3657 71.2893 114.525 71.2893 114.525L74.9754 114.55C74.8467 108.748 76.8602 92.6014 77.1625 86.4323C77.4649 80.2696 71.1542 79.5169 71.1542 86.1621Z" fill="#1D2342"/>
<path d="M61.2668 81.0865H75.7601C75.7601 81.0865 75.149 63.8914 74.5443 59.9352C73.8431 55.3164 70.8261 54.0877 70.8261 54.0877H67.3523C67.3523 54.0877 63.84 55.0719 62.7142 61.2925C62.0966 64.6891 61.2668 81.0865 61.2668 81.0865Z" fill="#FFDE00"/>
<path d="M70.8261 54.0877C70.8261 54.0877 71.1541 55.2907 69.0634 55.2907C66.9728 55.2907 67.3523 54.0877 67.3523 54.0877L67.3201 52.9813C67.3201 52.9813 65.8856 52.2479 64.9335 50.8327C63.9043 49.2952 63.9107 45.7572 63.7949 43.1518C63.6727 40.5465 65.7505 39.3178 65.7505 39.3178H72.2927C72.2927 39.3178 73.4442 40.0576 73.6822 43.0425C73.7015 43.2934 74.1583 48.6841 72.9618 50.8391C72.1577 52.2801 70.691 52.7433 70.691 52.7433L70.8261 54.0877Z" fill="#F9BB8D"/>
<path d="M74.1326 61.6142C74.1326 61.6142 76.9437 70.7103 76.6285 72.6337C76.3133 74.5571 71.1734 80.8292 71.1734 80.8292C71.1734 80.8292 70.498 81.3374 70.1184 81.7233C69.8611 81.9871 68.8254 83.0099 68.5617 83.3959C68.2979 83.7819 69.2436 84.8304 69.7389 84.7018C70.2278 84.5731 71.4758 83.5567 71.4758 83.5567C71.4758 83.5567 72.4471 83.0935 72.5436 82.7397C72.6916 82.2122 72.6015 81.5947 72.6015 81.5947C72.6015 81.5947 79.459 75.3677 79.7806 72.9167C80.1023 70.4594 77.1882 60.8808 77.1882 60.8808L74.1326 61.6142Z" fill="#F9BB8D"/>
<path d="M75.4385 70.0863L71.4372 54.4351C71.4372 54.4351 75.773 54.7438 76.7379 57.2591C78.0695 60.7457 79.3433 68.6903 79.3433 68.6903L75.4385 70.0863Z" fill="#FFDE00"/>
<path d="M63.8979 61.6142C63.8979 61.6142 61.0868 70.7103 61.402 72.6337C61.7172 74.5571 66.8571 80.8292 66.8571 80.8292C66.8571 80.8292 67.5325 81.3374 67.912 81.7233C68.1694 81.9871 69.2051 83.0099 69.4688 83.3959C69.7326 83.7819 68.7869 84.8304 68.2916 84.7018C67.8027 84.5731 66.5547 83.5567 66.5547 83.5567C66.5547 83.5567 65.5833 83.0935 65.4868 82.7397C65.3389 82.2122 65.4289 81.5947 65.4289 81.5947C65.4289 81.5947 58.5715 75.3677 58.2499 72.9167C57.9282 70.4594 60.8423 60.8808 60.8423 60.8808L63.8979 61.6142Z" fill="#F9BB8D"/>
<path d="M62.5921 70.0863L66.6641 54.4351C66.6641 54.4351 62.264 54.7438 61.2991 57.2591C59.9674 60.7457 58.6937 68.6903 58.6937 68.6903L62.5921 70.0863Z" fill="#FFDE00"/>
<path d="M74.9047 46.2655C74.9047 47.1211 74.5252 47.8158 74.0491 47.8158C73.5795 47.8158 73.1936 47.1211 73.1936 46.2655C73.1936 45.4099 73.5731 44.7152 74.0491 44.7152C74.5252 44.7152 74.9047 45.4099 74.9047 46.2655Z" fill="#F9BB8D"/>
<path d="M64.3869 46.2655C64.3869 47.1211 64.0074 47.8158 63.5313 47.8158C63.0617 47.8158 62.6758 47.1211 62.6758 46.2655C62.6758 45.4099 63.0553 44.7152 63.5313 44.7152C64.0009 44.7152 64.3869 45.4099 64.3869 46.2655Z" fill="#F9BB8D"/>
<path d="M73.3092 45.9246C73.5922 45.9825 73.9139 45.0047 73.9139 44.4579C74.6601 40.3344 72.3893 38.2051 68.9541 38.2051C65.4675 38.2051 62.4312 40.2765 63.795 44.4193C63.795 44.9661 63.9815 45.9503 64.2646 45.9246C64.5476 45.9053 63.8657 42.5473 65.2295 42.0648C66.5933 41.5824 65.7956 42.7274 68.7611 42.7274C71.7267 42.7274 71.1542 41.0935 72.4665 42.0648C73.7788 43.0298 73.0261 45.8602 73.3092 45.9246Z" fill="#0D0E22"/>
<defs>
<linearGradient id="paint0_linear_41_380" x1="85.1328" y1="66.5674" x2="163.054" y2="66.5674" gradientUnits="userSpaceOnUse">
<stop stop-color="#373BC8"/>
<stop offset="1" stop-color="#6134C0"/>
</linearGradient>
</defs>
</svg>
