<svg width="12" height="12" viewBox="0 0 12 12" fill="none" xmlns="http://www.w3.org/2000/svg">
<mask id="mask0_44_501" style="mask-type:alpha" maskUnits="userSpaceOnUse" x="-7" y="-7" width="24" height="24">
<rect x="-7" y="-7" width="24" height="24" fill="#D9D9D9"/>
</mask>
<g mask="url(#mask0_44_501)">
<path d="M5.7874 12C5.58543 12 5.41683 11.9371 5.28159 11.8113C5.14637 11.6855 5.07876 11.5286 5.07876 11.3407V6.56044L0.107621 0.712093C-0.0163932 0.558236 -0.0332291 0.401093 0.0571137 0.240665C0.147472 0.0802218 0.291861 0 0.49028 0H11.5097C11.7081 0 11.8525 0.0802218 11.9429 0.240665C12.0332 0.401093 12.0164 0.558236 11.8924 0.712093L6.92124 6.56044V11.3407C6.92124 11.5286 6.85363 11.6855 6.7184 11.8113C6.58317 11.9371 6.41456 12 6.2126 12H5.7874ZM6 6.25714L10.5601 0.857143H1.43987L6 6.25714Z" fill="white"/>
</g>
</svg>
