<svg width="314" height="242" viewBox="0 0 314 242" fill="none" xmlns="http://www.w3.org/2000/svg">
<g clip-path="url(#clip0_34_4956)">
<path d="M157 242C224.248 242 278.763 238.805 278.763 234.863C278.763 230.922 224.248 227.727 157 227.727C89.7522 227.727 35.2371 230.922 35.2371 234.863C35.2371 238.805 89.7522 242 157 242Z" fill="#F5F5F5"/>
<path d="M149.715 178.288H28.4546C26.4764 178.282 24.875 176.674 24.875 174.688V3.56828C24.8938 1.59501 26.489 0.00630438 28.4546 0H149.715C151.693 0 153.301 1.61392 153.301 3.5998V174.688C153.295 176.674 151.693 178.288 149.715 178.288ZM28.4546 0.126088C26.5643 0.132392 25.032 1.67066 25.032 3.56828V174.688C25.032 176.586 26.5643 178.124 28.4546 178.13H149.715C151.605 178.124 153.138 176.586 153.144 174.688V3.56828C153.138 1.67066 151.605 0.132392 149.715 0.126088H28.4546Z" fill="#E6E6E6"/>
<path d="M285.551 178.288H164.285C162.306 178.282 160.705 176.674 160.699 174.688V3.56828C160.718 1.59501 162.319 0.00630438 164.285 0H285.551C287.517 0.00630438 289.106 1.59501 289.125 3.56828V174.688C289.125 176.674 287.53 178.282 285.551 178.288ZM164.291 0.126088C162.401 0.132392 160.868 1.67066 160.862 3.56828V174.688C160.868 176.586 162.401 178.124 164.291 178.13H285.558C287.448 178.124 288.98 176.586 288.987 174.688V3.56828C288.98 1.67066 287.448 0.132392 285.558 0.126088H164.291Z" fill="#E6E6E6"/>
<path d="M53.9702 210.239H28.0903V210.396H53.9702V210.239Z" fill="#E0E0E0"/>
<path d="M106.722 208.978H80.7671V209.135H106.722V208.978Z" fill="#E0E0E0"/>
<path d="M140.496 208.978H134.216V209.135H140.496V208.978Z" fill="#E0E0E0"/>
<path d="M77.7274 214.362H48.6824V214.519H77.7274V214.362Z" fill="#E0E0E0"/>
<path d="M178.189 210.156H164.624V210.314H178.189V210.156Z" fill="#E0E0E0"/>
<path d="M201.318 210.156H183.778V210.314H201.318V210.156Z" fill="#E0E0E0"/>
<path d="M285.909 212.823H246.697V212.981H285.909V212.823Z" fill="#E0E0E0"/>
<path d="M314 204.054H0V204.212H314V204.054Z" fill="#EBEBEB"/>
<path opacity="0.8" d="M210.273 13.0816L208.71 34.6867C208.659 35.4369 208.333 36.1241 207.837 36.6348C207.265 37.2463 206.449 37.6309 205.57 37.6309H188.306C187.665 37.6309 187.094 37.4291 186.635 37.0761C185.926 36.5465 185.505 35.6702 185.574 34.6867L187.144 13.0816C187.257 11.4551 188.664 10.1375 190.284 10.1375H207.548C209.168 10.1375 210.393 11.4551 210.273 13.0816Z" fill="#E0E0E0"/>
<path d="M202.652 23.8265C203.307 20.6843 201.782 17.7053 199.247 17.1726C196.711 16.6399 194.124 18.7553 193.469 21.8975C192.814 25.0397 194.339 28.0187 196.875 28.5514C199.411 29.0841 201.998 26.9686 202.652 23.8265Z" fill="white"/>
<path d="M204.967 36.1493H189.166C188.168 36.1493 187.471 35.6702 187.446 34.9893C187.408 34.0121 192.532 29.7567 197.393 30.1223C197.412 30.1223 197.431 30.1223 197.443 30.1223C197.462 30.1223 197.481 30.1223 197.5 30.1223C200.477 30.1349 203.284 31.4021 205.639 33.2682C207.987 35.128 205.771 36.1493 204.967 36.1493Z" fill="white"/>
<path d="M121.217 36.8491C117.857 36.8932 114.893 34.176 114.616 30.8032C114.34 27.424 116.846 24.6438 120.212 24.5997C123.572 24.5555 126.536 27.2727 126.812 30.6456C127.088 34.0247 124.576 36.8049 121.217 36.8491ZM120.482 27.8527C118.906 27.8716 117.731 29.1766 117.863 30.759C117.995 32.3414 119.383 33.6149 120.953 33.596C122.529 33.5771 123.703 32.2721 123.572 30.6897C123.44 29.1073 122.052 27.8338 120.482 27.8527Z" fill="#E0E0E0"/>
<path d="M121.518 27.3798L119.207 27.4113L117.976 12.4573L120.293 12.4321L121.518 27.3798Z" fill="#E0E0E0"/>
<path d="M122.485 13.1005L118.139 13.1572L117.951 10.8309L122.29 10.7742L122.485 13.1005Z" fill="#E0E0E0"/>
<path d="M122.73 16.0888L118.648 16.1392L118.46 13.8129L122.542 13.7625L122.73 16.0888Z" fill="#E0E0E0"/>
<path d="M123.088 20.3L119.521 20.3441L119.333 18.0241L122.893 17.98L123.088 20.3Z" fill="#E0E0E0"/>
<path d="M49.8066 163.939C49.8192 164.128 49.8443 164.318 49.8757 164.5C50.0829 165.717 50.7172 166.814 51.5901 167.634C52.5949 168.579 53.9389 169.166 55.377 169.166H108.437C111.125 169.166 113.191 167.123 113.285 164.5C113.291 164.318 113.291 164.128 113.279 163.939C113.178 162.502 112.506 161.191 111.495 160.251C110.49 159.306 109.146 158.719 107.708 158.719H54.6485C51.7723 158.719 49.6057 161.058 49.8066 163.939Z" fill="#F0F0F0"/>
<path d="M113.285 164.5C113.285 164.671 113.266 164.841 113.241 165.005C113.103 163.643 112.437 162.407 111.476 161.512C110.472 160.566 109.128 159.98 107.689 159.98L51.2637 160.068C52.124 159.23 53.3172 158.719 54.6549 158.719H107.715C109.153 158.719 110.49 159.306 111.501 160.251C112.506 161.191 113.191 162.502 113.291 163.939C113.291 164.128 113.291 164.318 113.285 164.5Z" fill="#E0E0E0"/>
<path d="M104.204 161.235L104.38 163.782L106.76 162.899L107.3 164.16L104.87 164.967L106.565 167.104L105.466 167.911L103.815 165.692L102.496 167.911L101.321 167.104L102.697 164.967L100.178 164.16L100.543 162.912L103.067 163.763L102.891 161.241H104.204V161.235Z" fill="white"/>
<path d="M89.691 161.235L89.8668 163.782L92.247 162.899L92.787 164.16L90.3567 164.967L92.0523 167.104L90.9533 167.911L89.3016 165.692L87.9828 167.911L86.8085 167.104L88.1838 164.967L85.6655 164.16L86.0298 162.912L88.5543 163.763L88.3785 161.241H89.691V161.235Z" fill="white"/>
<path d="M75.1842 161.235L75.36 163.782L77.7401 162.899L78.2802 164.16L75.8499 164.967L77.5455 167.104L76.4465 167.911L74.7948 165.692L73.476 167.911L72.3017 167.104L73.677 164.967L71.1587 164.16L71.5229 162.912L74.0475 163.763L73.8717 161.241H75.1842V161.235Z" fill="white"/>
<path d="M60.6711 161.235L60.8469 163.782L63.227 162.899L63.7671 164.16L61.3367 164.967L63.0323 167.104L61.9333 167.911L60.288 165.686L58.9692 167.905L57.7948 167.098L59.1701 164.961L56.6519 164.154L57.0161 162.905L59.5407 163.756L59.3648 161.235H60.6711Z" fill="white"/>
<path d="M95.9143 156.878H93.4463L93.4526 156.248H95.9269L95.9143 156.878Z" fill="#E0E0E0"/>
<path d="M106.553 156.878H98.4829L98.4955 156.248H106.565L106.553 156.878Z" fill="#E0E0E0"/>
<g opacity="0.8">
<path d="M169.171 153.701L179.175 169.165L212.182 136.03C212.471 135.74 212.076 135.286 211.749 135.538L180.293 160.289L174.358 150.675L169.171 153.701Z" fill="#E0E0E0"/>
</g>
<path opacity="0.1" d="M163.192 43.6389L139.491 132.632H147.461L170.898 43.6389H163.192Z" fill="white"/>
<path opacity="0.1" d="M175.495 43.6389L151.794 132.632H167.607L191.044 43.6389H175.495Z" fill="white"/>
<path d="M260.815 123.932L265.814 52.5029C265.977 50.1451 264.2 48.2286 261.832 48.2349L137.658 48.3421C135.296 48.3421 133.249 50.2586 133.08 52.6164L128.081 124.045C127.917 126.403 129.695 128.319 132.062 128.313L256.237 128.206C258.598 128.212 260.652 126.296 260.815 123.932Z" fill="#263238"/>
<path d="M259.22 122.374L264.218 50.9458C264.382 48.588 262.605 46.6714 260.237 46.6777L136.063 46.7849C133.701 46.7849 131.654 48.7015 131.484 51.0593L126.486 122.488C126.322 124.846 128.099 126.762 130.467 126.756L254.641 126.649C257.009 126.649 259.056 124.739 259.22 122.374Z" fill="#407BFF"/>
<path opacity="0.6" d="M255.929 123.434C255.753 123.598 255.445 123.799 254.993 123.799L130.819 123.906C129.983 123.906 129.299 123.175 129.362 122.343L134.361 50.9144C134.392 50.4667 134.612 50.1767 134.788 50.0065C134.963 49.8426 135.271 49.6409 135.723 49.6409L259.898 49.5337C260.733 49.5337 261.411 50.265 261.355 51.0972L256.356 122.526C256.324 122.973 256.105 123.263 255.929 123.434Z" fill="white"/>
<path d="M214.625 84.1636H171.036C170.257 84.1636 169.56 84.794 169.478 85.5694L168.813 91.9684C168.731 92.7438 169.296 93.3743 170.075 93.3743H213.665C214.443 93.3743 215.14 92.7438 215.222 91.9684L215.888 85.5694C215.969 84.794 215.404 84.1636 214.625 84.1636Z" fill="white"/>
<path d="M176.223 110.295H169.422C168.643 110.295 167.946 110.926 167.864 111.701L167.199 118.1C167.117 118.876 167.682 119.506 168.461 119.506H175.262C176.041 119.506 176.738 118.876 176.82 118.1L177.485 111.701C177.567 110.926 177.002 110.295 176.223 110.295Z" fill="white"/>
<path d="M187.967 110.295H181.166C180.387 110.295 179.69 110.926 179.608 111.701L178.942 118.1C178.861 118.876 179.426 119.506 180.205 119.506H187.006C187.785 119.506 188.482 118.876 188.563 118.1L189.229 111.701C189.311 110.926 188.745 110.295 187.967 110.295Z" fill="white"/>
<path d="M199.71 110.295H192.909C192.13 110.295 191.433 110.926 191.352 111.701L190.686 118.1C190.604 118.876 191.17 119.506 191.948 119.506H198.75C199.528 119.506 200.225 118.876 200.307 118.1L200.973 111.701C201.054 110.926 200.489 110.295 199.71 110.295Z" fill="white"/>
<path d="M211.454 110.295H204.653C203.874 110.295 203.177 110.926 203.095 111.701L202.429 118.1C202.348 118.876 202.913 119.506 203.692 119.506H210.493C211.272 119.506 211.969 118.876 212.05 118.1L212.716 111.701C212.798 110.926 212.233 110.295 211.454 110.295Z" fill="white"/>
<path d="M176.506 105.939H203.773C205.099 105.939 206.285 104.867 206.424 103.543L206.75 100.404C206.888 99.0798 205.927 98.0081 204.602 98.0081H177.335C176.01 98.0081 174.823 99.0798 174.684 100.404L174.358 103.543C174.22 104.867 175.181 105.939 176.506 105.939Z" stroke="#407BFF" stroke-miterlimit="10" stroke-linecap="round" stroke-linejoin="round"/>
<path d="M216.195 70.8362H172.606C171.827 70.8362 171.13 71.4666 171.049 72.2421L170.383 78.641C170.301 79.4164 170.866 80.0469 171.645 80.0469H215.235C216.013 80.0469 216.71 79.4164 216.792 78.641L217.458 72.2421C217.539 71.4666 216.974 70.8362 216.195 70.8362Z" fill="white"/>
<path d="M176.336 88.772C176.424 87.9083 175.802 87.2148 174.936 87.2148C174.075 87.2148 173.303 87.9146 173.215 88.772C173.127 89.6357 173.749 90.3292 174.615 90.3292C175.482 90.3292 176.248 89.6294 176.336 88.772Z" fill="#263238"/>
<path d="M181.134 88.772C181.222 87.9083 180.6 87.2148 179.734 87.2148C178.873 87.2148 178.101 87.9146 178.013 88.772C177.925 89.6357 178.547 90.3292 179.413 90.3292C180.274 90.3292 181.04 89.6294 181.134 88.772Z" fill="#263238"/>
<path d="M185.926 88.772C186.014 87.9083 185.392 87.2148 184.525 87.2148C183.665 87.2148 182.893 87.9146 182.805 88.772C182.717 89.6357 183.338 90.3292 184.205 90.3292C185.065 90.3292 185.838 89.6294 185.926 88.772Z" fill="#263238"/>
<path d="M190.717 88.772C190.805 87.9083 190.184 87.2148 189.317 87.2148C188.45 87.2148 187.684 87.9146 187.596 88.772C187.508 89.6357 188.13 90.3292 188.997 90.3292C189.857 90.3292 190.629 89.6294 190.717 88.772Z" fill="#263238"/>
<path d="M195.609 88.772C195.697 87.9083 195.076 87.2148 194.209 87.2148C193.349 87.2148 192.576 87.9146 192.488 88.772C192.4 89.6357 193.022 90.3292 193.889 90.3292C194.749 90.3292 195.515 89.6294 195.609 88.772Z" fill="#263238"/>
<path d="M177.906 75.4446C177.994 74.5809 177.372 73.8875 176.506 73.8875C175.645 73.8875 174.873 74.5872 174.785 75.4446C174.697 76.3083 175.319 77.0018 176.185 77.0018C177.046 77.0018 177.818 76.3083 177.906 75.4446Z" fill="#263238"/>
<path d="M182.704 75.4446C182.792 74.5809 182.17 73.8875 181.304 73.8875C180.443 73.8875 179.671 74.5872 179.583 75.4446C179.495 76.3083 180.117 77.0018 180.983 77.0018C181.844 77.0018 182.61 76.3083 182.704 75.4446Z" fill="#263238"/>
<path d="M187.496 75.4446C187.584 74.5809 186.962 73.8875 186.095 73.8875C185.235 73.8875 184.462 74.5872 184.374 75.4446C184.287 76.3083 184.908 77.0018 185.775 77.0018C186.635 77.0018 187.408 76.3083 187.496 75.4446Z" fill="#263238"/>
<path d="M192.287 75.4446C192.375 74.5809 191.754 73.8875 190.887 73.8875C190.027 73.8875 189.254 74.5872 189.166 75.4446C189.078 76.3083 189.7 77.0018 190.567 77.0018C191.433 77.0018 192.199 76.3083 192.287 75.4446Z" fill="#263238"/>
<path d="M197.085 75.4446C197.173 74.5809 196.551 73.8875 195.685 73.8875C194.824 73.8875 194.052 74.5872 193.964 75.4446C193.876 76.3083 194.498 77.0018 195.365 77.0018C196.225 77.0018 196.997 76.3083 197.085 75.4446Z" fill="#263238"/>
<path d="M201.877 75.4446C201.965 74.5809 201.343 73.8875 200.477 73.8875C199.616 73.8875 198.844 74.5872 198.756 75.4446C198.668 76.3083 199.29 77.0018 200.156 77.0018C201.017 77.0018 201.789 76.3083 201.877 75.4446Z" fill="#263238"/>
<path d="M197.808 56.7268L197.468 59.961C197.437 60.251 197.18 60.4905 196.884 60.4905C196.596 60.4905 196.382 60.2573 196.413 59.961L196.753 56.7268C196.859 55.6803 196.099 54.8355 195.057 54.8355H193.901C192.859 54.8355 191.917 55.6866 191.81 56.7268L191.515 59.7277H190.46L190.755 56.7268C190.925 55.1003 192.388 53.7764 194.014 53.7764H195.17C196.79 53.7827 197.977 55.1003 197.808 56.7268Z" fill="#407BFF"/>
<path d="M197.826 59.8413L197.167 66.1393C197.123 66.5365 196.771 66.858 196.369 66.858H190.064C189.669 66.858 189.38 66.5365 189.417 66.1393L190.077 59.8413C190.102 59.5828 190.265 59.3558 190.479 59.2297C190.598 59.1604 190.73 59.1226 190.874 59.1226H197.179C197.318 59.1226 197.437 59.1604 197.544 59.2234C197.738 59.3495 197.858 59.5765 197.826 59.8413Z" fill="#407BFF"/>
<path d="M246.999 46.2617L231.65 46.35" stroke="#263238" stroke-miterlimit="10" stroke-linecap="round" stroke-linejoin="round"/>
<path d="M255.364 46.2175L249.938 46.2427" stroke="#263238" stroke-miterlimit="10" stroke-linecap="round" stroke-linejoin="round"/>
<g opacity="0.3">
<path d="M147.643 49.6218H165.214L147.354 123.9H133.211C133.199 123.9 133.186 123.9 133.174 123.9C131.421 123.894 130.191 122.21 130.599 120.502L147.643 49.6218Z" fill="white"/>
<path d="M173.014 49.6218H180.468L162.608 123.906H155.154L173.014 49.6218Z" fill="white"/>
</g>
<path d="M54.4159 26.4343H57.983C54.3971 26.4343 51.6904 29.3533 51.9416 32.9531L59.509 141.578C59.7602 145.177 62.8688 148.096 66.461 148.096H62.8939C59.308 148.096 56.1932 145.177 55.942 141.578L48.3746 32.9594C48.1234 29.3533 50.83 26.4343 54.4159 26.4343Z" fill="#407BFF"/>
<path d="M54.416 26.4343H57.983C54.3971 26.4343 51.6905 29.3533 51.9417 32.9531L59.5091 141.578C59.7603 145.177 62.8689 148.096 66.461 148.096H62.894C59.3081 148.096 55.6908 145.177 55.4396 141.578L47.8722 32.9594C47.621 29.3533 50.8301 26.4343 54.416 26.4343Z" fill="#263238"/>
<path d="M63.9552 148.103H107.601C111.187 148.103 113.894 145.184 113.643 141.584L106.075 32.9594C105.824 29.3596 102.715 26.4407 99.1232 26.4407H55.4772C51.8913 26.4407 49.1846 29.3596 49.4358 32.9594L57.0032 141.584C57.2544 145.184 60.3693 148.103 63.9552 148.103Z" fill="#407BFF"/>
<g opacity="0.6">
<path d="M99.0103 28.5273C101.503 28.5273 103.67 30.5637 103.846 33.0665L111.413 141.691C111.495 142.857 111.124 143.942 110.371 144.755C109.617 145.562 108.568 146.01 107.413 146.01H63.7669C61.2737 146.01 59.1071 143.973 58.9313 141.47L51.3639 32.8458C51.2823 31.6795 51.6528 30.5952 52.4064 29.7819C53.16 28.975 54.2087 28.5273 55.3643 28.5273H99.0103Z" fill="white"/>
</g>
<g opacity="0.3">
<path d="M86.6826 146.01H69.2744L83.6305 28.5273H97.6412C98.916 28.5273 100.059 29.0632 100.869 29.9206L86.6826 146.01Z" fill="white"/>
<path d="M66.1533 146.01H62.2346L76.5907 28.5273H80.5094L66.1533 146.01Z" fill="white"/>
</g>
<path d="M64.7969 79.8577H96.4104" stroke="white" stroke-miterlimit="10" stroke-linecap="round" stroke-linejoin="round"/>
<path d="M68.8726 84.5544H93.6346" stroke="white" stroke-miterlimit="10" stroke-linecap="round" stroke-linejoin="round"/>
<path d="M65.7388 58.221L65.7827 59.4693H64.9726L64.9287 58.2147L63.4968 55.9514H64.3572L65.3494 57.5149L66.2286 55.9514H67.0262L65.7388 58.221Z" fill="#407BFF"/>
<path d="M67.0513 57.704C67.0137 56.6575 67.7987 55.8821 68.904 55.8821C70.003 55.8821 70.8445 56.6512 70.8822 57.704C70.9198 58.7569 70.1286 59.526 69.0296 59.526C67.9243 59.526 67.089 58.7506 67.0513 57.704ZM70.0658 57.704C70.0406 57.0358 69.5571 56.5756 68.9291 56.5756C68.3011 56.5756 67.8489 57.0358 67.874 57.704C67.8992 58.3723 68.3827 58.8325 69.0107 58.8325C69.6324 58.8325 70.0846 58.3723 70.0658 57.704Z" fill="#407BFF"/>
<path d="M71.4724 57.9183L71.4033 55.9451H72.2197L72.2888 57.8868C72.3139 58.5551 72.6091 58.8325 73.1052 58.8325C73.6013 58.8325 73.8776 58.5551 73.8525 57.8868L73.7834 55.9451H74.581L74.6501 57.9183C74.6878 58.9523 74.1163 59.526 73.124 59.526C72.1192 59.526 71.5101 58.9523 71.4724 57.9183Z" fill="#407BFF"/>
<path d="M77.7337 59.4693L77.024 58.4858H76.9863H76.283L76.3144 59.4693H75.5043L75.3787 55.9514H76.8921C77.8279 55.9514 78.4307 56.4369 78.4559 57.2312C78.4747 57.7608 78.2235 58.1453 77.7713 58.3408L78.594 59.4693H77.7337ZM76.8733 56.6134H76.2139L76.2579 57.8427H76.9173C77.4134 57.8427 77.652 57.6095 77.6395 57.2312C77.6269 56.834 77.3694 56.6134 76.8733 56.6134Z" fill="#407BFF"/>
<path d="M80.3209 57.704C80.2832 56.6449 81.0682 55.8821 82.1546 55.8821C82.7575 55.8821 83.2725 56.1027 83.6179 56.5062L83.1155 56.9917C82.8706 56.7206 82.5691 56.5819 82.2237 56.5819C81.5706 56.5819 81.1184 57.0421 81.1436 57.7104C81.1687 58.3723 81.646 58.8388 82.3054 58.8388C82.657 58.8388 82.9459 58.7001 83.172 58.4227L83.7121 58.9082C83.3981 59.318 82.902 59.5386 82.2865 59.5386C81.1938 59.526 80.3523 58.7695 80.3209 57.704Z" fill="#407BFF"/>
<path d="M83.9132 57.704C83.8755 56.6575 84.6605 55.8821 85.7658 55.8821C86.8648 55.8821 87.7063 56.6512 87.744 57.704C87.7816 58.7569 86.9904 59.526 85.8914 59.526C84.7861 59.526 83.9508 58.7506 83.9132 57.704ZM86.9213 57.704C86.8962 57.0358 86.4126 56.5756 85.7846 56.5756C85.1566 56.5756 84.7044 57.0358 84.7296 57.704C84.7547 58.3723 85.2382 58.8325 85.8662 58.8325C86.4942 58.8325 86.9464 58.3723 86.9213 57.704Z" fill="#407BFF"/>
<path d="M88.2966 55.9451H89.8855C91.0284 55.9451 91.8385 56.6386 91.8762 57.704C91.9139 58.7694 91.154 59.4629 90.0048 59.4629H88.4159L88.2966 55.9451ZM89.9483 58.7947C90.6453 58.7947 91.0849 58.3786 91.0598 57.704C91.0347 57.0294 90.5637 56.6133 89.8729 56.6133H89.1319L89.2072 58.7947H89.9483Z" fill="#407BFF"/>
<path d="M95.2422 58.8136L95.2673 59.4693H92.5543L92.4287 55.9514H95.0726L95.0977 56.6071H93.2577L93.2828 57.3699H94.9093L94.9344 58.0066H93.3079L93.333 58.8199H95.2422V58.8136Z" fill="#407BFF"/>
<path d="M71.8304 72.5506L71.8555 73.9627H65.2427L65.2238 72.8469L68.7281 69.4551C69.5821 68.6166 69.7266 68.0934 69.7203 67.589C69.7077 66.7631 69.1363 66.2903 68.031 66.2903C67.1581 66.2903 66.4359 66.5866 65.946 67.2297L64.7654 66.3281C65.4436 65.3888 66.6745 64.834 68.1503 64.834C70.0971 64.834 71.3719 65.8238 71.3971 67.4188C71.4096 68.2951 71.1835 69.0894 69.9589 70.2621L67.6039 72.5506H71.8304Z" fill="#263238"/>
<path d="M79.1341 71.2647C79.1592 72.784 78.0414 74.0953 75.6361 74.0953C74.3676 74.0953 73.0927 73.7108 72.2512 73.0551L72.9483 71.7564C73.5951 72.2986 74.5748 72.6453 75.5922 72.6453C76.7854 72.6453 77.4762 72.1158 77.4636 71.2836C77.4511 70.4703 76.8482 69.9471 75.4917 69.9471H74.669L74.6502 68.806L76.6409 66.3725H72.5652L72.5401 64.9729H78.6505L78.6694 66.0888L76.5342 68.6862C78.2361 68.8942 79.109 69.9092 79.1341 71.2647Z" fill="#263238"/>
<path d="M87.5053 71.3781C87.5367 73.0488 86.1049 74.089 83.8755 74.089C81.6461 74.089 80.2079 73.0488 80.1765 71.3781C80.1577 70.3883 80.6601 69.657 81.5707 69.2283C80.8485 68.8312 80.4403 68.1881 80.4215 67.337C80.3963 65.7924 81.7214 64.8279 83.7059 64.8279C85.7029 64.8279 87.0783 65.7924 87.1097 67.337C87.1222 68.1881 86.7266 68.8312 86.0044 69.2283C86.9464 69.657 87.4865 70.3883 87.5053 71.3781ZM85.8223 71.3277C85.8034 70.4388 85.031 69.884 83.8001 69.884C82.5692 69.884 81.8345 70.4388 81.8533 71.3277C81.8721 72.2418 82.6195 72.7777 83.8503 72.7777C85.0812 72.7777 85.8411 72.2418 85.8223 71.3277ZM82.0668 67.419C82.0794 68.1881 82.7262 68.6799 83.7813 68.6799C84.8426 68.6799 85.4894 68.1881 85.4769 67.419C85.4643 66.6057 84.7609 66.1455 83.7373 66.1455C82.7074 66.1455 82.0543 66.6057 82.0668 67.419Z" fill="#263238"/>
<path d="M95.8576 71.3781C95.889 73.0488 94.4572 74.089 92.2278 74.089C89.9984 74.089 88.5602 73.0488 88.5288 71.3781C88.51 70.3883 89.0124 69.657 89.923 69.2283C89.2008 68.8312 88.7926 68.1881 88.7738 67.337C88.7486 65.7924 90.0737 64.8279 92.0582 64.8279C94.0552 64.8279 95.4306 65.7924 95.4557 67.337C95.4682 68.1881 95.0726 68.8312 94.3504 69.2283C95.2987 69.657 95.8388 70.3883 95.8576 71.3781ZM94.1746 71.3277C94.1557 70.4388 93.3833 69.884 92.1524 69.884C90.9215 69.884 90.1868 70.4388 90.2056 71.3277C90.2244 72.2418 90.9718 72.7777 92.2026 72.7777C93.4335 72.7777 94.1934 72.2418 94.1746 71.3277ZM90.4191 67.419C90.4317 68.1881 91.0785 68.6799 92.1336 68.6799C93.1949 68.6799 93.8417 68.1881 93.8292 67.419C93.8166 66.6057 93.1132 66.1455 92.0896 66.1455C91.0597 66.1455 90.4065 66.6057 90.4191 67.419Z" fill="#263238"/>
<path d="M48.1802 42.1826L49.2917 57.4203" stroke="#407BFF" stroke-miterlimit="10" stroke-linecap="round" stroke-linejoin="round"/>
<path d="M47.6714 35.2415L47.9665 39.2573" stroke="#407BFF" stroke-miterlimit="10" stroke-linecap="round" stroke-linejoin="round"/>
<path d="M77.4761 20.0858V10.812" stroke="#407BFF" stroke-miterlimit="10" stroke-linecap="round" stroke-linejoin="round"/>
<path d="M70.16 22.0528L65.5442 14.021" stroke="#407BFF" stroke-miterlimit="10" stroke-linecap="round" stroke-linejoin="round"/>
<path d="M89.4083 14.021L84.7925 22.0528" stroke="#407BFF" stroke-miterlimit="10" stroke-linecap="round" stroke-linejoin="round"/>
<path d="M108.336 227.254C108.568 227.172 108.725 226.983 108.801 226.699C108.857 226.485 108.776 226.346 108.7 226.264C108.217 225.76 106.251 226.119 106.031 226.157C105.981 226.17 105.937 226.208 105.931 226.258C105.918 226.308 105.937 226.359 105.981 226.39C106.308 226.624 106.785 226.926 107.256 227.122C107.645 227.279 108.035 227.361 108.336 227.254ZM108.512 226.441C108.543 226.472 108.575 226.529 108.55 226.636C108.499 226.832 108.399 226.958 108.248 227.008C107.89 227.134 107.212 226.895 106.396 226.359C107.181 226.239 108.254 226.17 108.512 226.441Z" fill="#407BFF"/>
<path d="M106.069 226.416C106.672 226.34 108.054 225.627 108.173 225.01C108.198 224.89 108.192 224.669 107.903 224.512C107.721 224.411 107.526 224.392 107.325 224.461C106.565 224.72 105.956 226.17 105.931 226.233C105.912 226.277 105.918 226.321 105.95 226.359C105.962 226.378 105.981 226.39 106.006 226.397C106.025 226.416 106.05 226.416 106.069 226.416ZM107.777 224.739C107.922 224.821 107.928 224.902 107.915 224.966C107.84 225.344 106.923 225.924 106.276 226.113C106.502 225.64 106.961 224.871 107.413 224.713C107.52 224.676 107.627 224.676 107.727 224.72C107.746 224.72 107.758 224.726 107.777 224.739Z" fill="#407BFF"/>
<path d="M100.109 223.875L105.221 225.949L109.68 214.091L104.568 212.016L100.109 223.875Z" fill="#FFB573"/>
<path d="M105.868 225.527L100.122 223.194C99.9147 223.112 99.6823 223.181 99.5693 223.371L97.051 227.595C96.7872 228.03 97.0133 228.635 97.4969 228.824C99.5128 229.599 100.524 229.877 103.055 230.904C104.606 231.535 106.81 232.613 108.958 233.489C111.055 234.34 112.092 232.31 111.275 231.755C107.62 229.278 107.476 227.847 106.597 226.182C106.433 225.886 106.176 225.653 105.868 225.527Z" fill="#263238"/>
<path d="M109.617 219.909L100.737 216.303L101.554 213.038L111.08 216.537L109.617 219.909Z" fill="#407BFF"/>
<path d="M118.51 82.6504C116.707 87.883 111.376 100.214 107.268 95.0826C106.534 94.1685 105.912 93.1724 105.472 92.0817C103.727 87.7632 103.299 80.7654 103.08 79.2334L101.679 74.4358C101.654 74.3538 101.642 74.2656 101.642 74.1836L101.616 71.4475C101.616 70.3379 102.508 69.676 103.714 69.7768C103.714 69.7768 105.661 69.5499 105.661 70.7162L106.038 74.8267H106.025C106.22 76.2578 105.654 78.2499 105.987 79.5676C107.237 84.5039 108.97 84.7245 110.057 89.8185C111.57 86.143 114.277 79.7819 114.277 79.7819C116.104 80.0089 119.1 80.9293 118.51 82.6504Z" fill="#FFB573"/>
<path d="M112.066 96.9614C110.842 98.859 108.079 98.9725 106.747 97.1442C105.931 96.0284 105.29 94.799 105.008 93.866C103.375 88.4946 102.364 85.1596 102.226 79.5487C103.362 78.3635 105.215 77.9159 106.766 78.4707L109.441 87.5679C109.441 87.5679 114.892 73.9819 117.09 73.4965C119.69 72.9228 120.77 75.2491 121.863 78.1113C122.648 80.1665 115.615 91.4703 112.066 96.9614Z" fill="#407BFF"/>
<path d="M134.065 59.8979C133.45 63.0501 132.068 69.9282 134.266 72.0339C134.266 72.0339 133.406 75.2302 127.572 75.2302C121.154 75.2302 124.507 72.0339 124.507 72.0339C128.011 71.1954 127.917 68.5854 127.308 66.133L134.065 59.8979Z" fill="#FFB573"/>
<path d="M124.25 52.4651C124.287 52.4651 124.325 52.4588 124.363 52.4398C124.488 52.3768 124.538 52.2255 124.476 52.0994C123.854 50.8574 122.705 50.7124 122.654 50.7061C122.516 50.6872 122.391 50.7881 122.378 50.9268C122.366 51.0655 122.46 51.1916 122.598 51.2042C122.636 51.2105 123.527 51.3303 124.023 52.3264C124.067 52.4146 124.155 52.4651 124.25 52.4651Z" fill="#263238"/>
<path d="M122.334 55.2202C122.334 55.2202 121.392 56.9602 120.488 57.7483C120.984 58.3409 121.964 58.2211 121.964 58.2211L122.334 55.2202Z" fill="#ED893E"/>
<path d="M122.837 54.2996C122.924 54.7156 122.78 55.1065 122.504 55.1633C122.234 55.22 121.938 54.93 121.844 54.5139C121.756 54.0978 121.901 53.7069 122.177 53.6502C122.453 53.5872 122.749 53.8772 122.837 54.2996Z" fill="#263238"/>
<path d="M122.309 53.6441L121.241 53.5748C121.241 53.5684 121.926 54.243 122.309 53.6441Z" fill="#263238"/>
<path d="M100.467 69.55V69.5627C100.467 69.5564 100.461 69.5564 100.461 69.55H100.467Z" fill="#FFB573"/>
<path opacity="0.2" d="M118.284 79.9648C119.395 78.9435 120.149 79.2461 120.657 80.0593C121.166 82.4172 118.164 87.3598 116.958 89.2322L118.284 79.9648Z" fill="black"/>
<path d="M144 83.0729C143.856 85.6703 143.611 88.9423 143.215 93.0591C142.801 97.4028 142.21 102.68 141.4 109.091C132.866 109.091 123.929 108.959 119.778 108.959C120.124 100.441 120.255 91.8171 116.45 74.8646C116.249 73.9757 116.833 73.0931 117.725 72.9292C119.445 72.6203 122.303 72.179 125.21 72.0403C128.828 71.8637 131.792 71.7503 134.976 72.0403C139.165 72.4248 143.925 73.402 143.925 73.402C143.925 73.402 144.452 74.9655 144 83.0729Z" fill="#407BFF"/>
<path opacity="0.2" d="M144 83.0728C143.856 85.6703 143.611 88.9422 143.215 93.059C140.917 90.3859 138.744 81.1815 139.435 78.0356C141.13 79.1957 142.7 80.9798 143.9 82.5748C143.937 82.7261 143.975 82.89 144 83.0728Z" fill="black"/>
<path d="M166.162 94.61L170.533 92.1387L171.35 96.6337C171.35 96.6337 167.644 98.0585 165.679 97.0624L166.162 94.61Z" fill="#FFB573"/>
<path d="M173.466 92.6492L173.767 94.1181C173.862 94.5784 173.673 95.0512 173.284 95.316L171.35 96.6336L170.533 92.1386L172.047 91.7603C172.687 91.5964 173.334 92.0062 173.466 92.6492Z" fill="#FFB573"/>
<path d="M139.792 78.6094C141.193 81.4716 146.336 92.2836 148.597 94.7801L149.037 95.2467L149.256 95.4799C149.332 95.5556 149.395 95.6249 149.514 95.7321C149.941 96.1356 150.387 96.4697 150.845 96.7408C151.762 97.2956 152.692 97.6171 153.583 97.8504C155.373 98.298 157.069 98.3736 158.72 98.3421C162.024 98.2097 165.113 97.6549 168.203 96.7282L167.644 94.0993C166.2 94.2254 164.674 94.3136 163.204 94.3388C161.729 94.3767 160.259 94.3388 158.84 94.2001C157.427 94.0804 156.051 93.8282 154.883 93.4247C154.306 93.2167 153.803 92.9582 153.426 92.6871C153.238 92.5484 153.081 92.4097 152.962 92.271C152.937 92.2521 152.874 92.1701 152.817 92.1071L152.654 91.9116L152.327 91.5208C150.594 89.3395 146.016 78.8238 144.641 76.1948L139.792 78.6094Z" fill="#FFB573"/>
<path d="M166.093 99.0796C162.526 101.009 158.187 101.431 154.318 100.227C150.638 99.0796 147.366 96.4002 145.47 93.0337C143.203 89.6861 137.168 80.2169 137.921 77.7645C138.819 74.8392 140.728 73.0236 143.919 73.8116C146.16 74.3601 150.443 85.2856 152.51 89.6545C153.326 90.8713 154.877 92.8004 156.617 93.3993C159.688 94.4648 161.948 94.0046 165.17 93.5443C165.76 93.8974 165.716 94.4459 166.012 95.0637C166.621 96.312 166.721 97.8502 166.093 99.0796Z" fill="#407BFF"/>
<path d="M137.23 54.8419C136.269 60.0241 135.968 62.2432 133.01 64.5947C128.558 68.1378 122.428 65.8178 121.825 60.4465C121.285 55.611 122.95 47.9449 128.306 46.5012C133.575 45.0827 138.197 49.6597 137.23 54.8419Z" fill="#FFB573"/>
<path d="M155.555 83.5394C154.569 84.6679 154.255 85.3235 152.893 85.935C151.524 86.5466 148.534 86.017 147.586 84.8507C147.894 85.7585 149.69 87.3914 150.632 87.5174C148.547 88.7405 145.614 88.2235 144.063 86.3574C144.214 87.4607 145.25 88.4505 146.299 88.8225C134.266 89.1377 139.334 83.4511 131.798 75.3626C123.452 66.4041 125.267 59.009 125.267 59.009C125.261 57.7292 124.978 55.6047 123.628 53.8773C122.422 52.3264 122.774 50.2333 123.157 49.0607C123.716 47.3396 125.418 46.7344 127.05 46.6335C127.339 44.9376 130.793 45.2466 131.239 45.5303C131.616 45.7761 131.716 45.7509 132.093 45.5113C132.941 44.9629 135.076 44.3955 137.362 46.249C138.756 47.3837 140.251 49.4138 140.301 53.7386C140.351 58.2336 138.216 63.5734 145.62 70.401C149.985 74.4232 147.894 83.0665 155.555 83.5394Z" fill="#263238"/>
<path d="M124.275 55.239C123.64 56.1216 123.458 57.2185 123.596 58.1012C123.81 59.4314 125.097 59.5196 126.033 58.6685C126.875 57.8994 127.779 56.2855 127.088 55.1822C126.416 54.0916 125.003 54.2303 124.275 55.239Z" fill="#FFB573"/>
<path d="M135.93 109.085C135.93 109.085 133.368 145.278 130.473 169.147C129.606 176.302 127.434 183.231 124.061 189.617L109.875 216.448L102.615 213.58C102.615 213.58 107.614 188.079 117.423 174.171C117.423 174.171 110.101 132.606 119.684 108.952L135.93 109.085Z" fill="#263238"/>
<path opacity="0.2" d="M126.058 117.848C126.058 117.848 128.218 134.265 129.405 143.992C124.947 138.135 121.537 129.952 126.058 117.848Z" fill="black"/>
<path d="M154.262 230.652C154.431 230.469 154.482 230.23 154.412 229.946C154.362 229.732 154.224 229.644 154.117 229.612C153.452 229.385 151.882 230.614 151.706 230.753C151.668 230.785 151.649 230.841 151.662 230.886C151.674 230.936 151.718 230.974 151.769 230.98C152.164 231.031 152.729 231.081 153.238 231.037C153.665 230.993 154.048 230.886 154.262 230.652ZM154.029 229.858C154.073 229.871 154.13 229.902 154.155 230.009C154.205 230.205 154.174 230.362 154.067 230.482C153.816 230.76 153.094 230.86 152.12 230.766C152.761 230.287 153.678 229.732 154.029 229.858Z" fill="#407BFF"/>
<path d="M151.863 230.961C152.359 230.614 153.244 229.347 153.056 228.748C153.018 228.635 152.912 228.439 152.579 228.433C152.371 228.427 152.189 228.502 152.045 228.66C151.499 229.24 151.649 230.803 151.656 230.873C151.662 230.917 151.687 230.961 151.731 230.98C151.75 230.993 151.775 230.993 151.8 230.993C151.825 230.98 151.844 230.974 151.863 230.961ZM152.579 228.685C152.748 228.691 152.792 228.761 152.811 228.818C152.924 229.183 152.384 230.123 151.907 230.589C151.888 230.066 151.919 229.177 152.246 228.83C152.327 228.748 152.415 228.698 152.522 228.691C152.541 228.685 152.56 228.685 152.579 228.685Z" fill="#407BFF"/>
<path d="M145.394 231.472L150.889 230.942L149.212 218.396L143.711 218.932L145.394 231.472Z" fill="#FFB573"/>
<path d="M151.266 230.268L145.087 230.867C144.861 230.886 144.697 231.062 144.685 231.283L144.459 236.181C144.434 236.692 144.917 237.121 145.438 237.064C147.586 236.818 148.616 236.591 151.335 236.333C153.006 236.169 155.468 236.106 157.779 235.885C160.039 235.664 159.989 233.395 159.003 233.281C154.601 232.783 153.797 231.585 152.227 230.52C151.932 230.324 151.593 230.236 151.266 230.268Z" fill="#263238"/>
<path d="M141.369 109.079C141.369 109.079 148.402 152.27 149.759 177.853L150.01 223.68L144.314 224.795C144.314 224.795 136.062 195.556 135.114 178.66C132.596 133.817 118.045 133.741 126.799 108.997L141.369 109.079Z" fill="#263238"/>
<path d="M151.907 223.875L142.48 225.167L141.52 221.536L151.599 220.219L151.907 223.875Z" fill="#407BFF"/>
<path d="M100.479 69.5932H100.461L100.467 69.5625C100.467 69.5748 100.473 69.5809 100.479 69.5932Z" fill="#FFB573"/>
<path d="M101.083 62.7412H101.441C101.077 62.7412 100.8 63.0375 100.819 63.4032L101.391 74.3791C101.409 74.7448 101.717 75.0411 102.081 75.0411H101.723C101.359 75.0411 101.051 74.7448 101.033 74.3791L100.461 63.4032C100.442 63.0375 100.719 62.7412 101.083 62.7412Z" fill="#407BFF"/>
<path opacity="0.1" d="M101.083 62.7412H101.441C101.077 62.7412 100.8 63.0375 100.819 63.4032L101.391 74.3791C101.409 74.7448 101.717 75.0411 102.081 75.0411H101.723C101.359 75.0411 101.051 74.7448 101.033 74.3791L100.461 63.4032C100.442 63.0375 100.719 62.7412 101.083 62.7412Z" fill="white"/>
<path d="M101.83 75.0411H106.239C106.603 75.0411 106.879 74.7448 106.86 74.3791L106.289 63.4032C106.27 63.0375 105.962 62.7412 105.598 62.7412H101.19C100.825 62.7412 100.549 63.0375 100.568 63.4032L101.139 74.3791C101.158 74.7448 101.472 75.0411 101.83 75.0411Z" fill="#407BFF"/>
<path opacity="0.4" d="M101.83 75.0411H106.239C106.603 75.0411 106.879 74.7448 106.86 74.3791L106.289 63.4032C106.27 63.0375 105.962 62.7412 105.598 62.7412H101.19C100.825 62.7412 100.549 63.0375 100.568 63.4032L101.139 74.3791C101.158 74.7448 101.472 75.0411 101.83 75.0411Z" fill="white"/>
<path d="M106.59 74.1521C106.597 74.2656 106.559 74.3728 106.484 74.4547C106.408 74.5304 106.301 74.5745 106.188 74.5745H101.912C101.667 74.5745 101.46 74.3728 101.447 74.1269L100.888 63.4788C100.882 63.3653 100.92 63.2581 100.995 63.1825C101.07 63.1005 101.177 63.0564 101.29 63.0564H105.567C105.812 63.0564 106.019 63.2581 106.031 63.504L106.069 64.2668L106.59 74.1521Z" fill="#263238"/>
<g opacity="0.1">
<path d="M106.069 64.2668L104.65 74.5745H102.948L104.556 63.0564H105.567C105.812 63.0564 106.019 63.2581 106.031 63.504L106.069 64.2668Z" fill="white"/>
<path d="M102.333 74.5745H101.949L103.557 63.0564H103.94L102.333 74.5745Z" fill="white"/>
</g>
<path d="M118.39 110.308C115.194 116.6 113.454 123.635 113.348 130.702C124.036 139.018 133.965 129.278 146.186 130.923C145.759 125.382 143.887 115.131 141.658 110.043C133.582 110.383 126.021 109.576 118.39 110.308Z" fill="#407BFF"/>
<path d="M119.502 108.057C119.502 108.057 118.642 110.276 118.887 110.276H141.294C141.488 110.276 141.645 110.182 141.658 110.062L141.853 108.145C141.865 108.013 141.702 107.899 141.488 107.899H119.854C119.69 107.899 119.552 107.962 119.502 108.057Z" fill="white"/>
<path d="M122.661 110.465H122.083C121.97 110.465 121.882 110.409 121.889 110.333L122.159 107.836C122.165 107.761 122.265 107.704 122.385 107.704H122.962C123.075 107.704 123.163 107.761 123.157 107.836L122.887 110.333C122.874 110.409 122.774 110.465 122.661 110.465Z" fill="#407BFF"/>
<path d="M136.703 110.465H136.125C136.012 110.465 135.924 110.409 135.93 110.333L136.201 107.836C136.207 107.761 136.307 107.704 136.427 107.704H137.004C137.117 107.704 137.205 107.761 137.199 107.836L136.929 110.333C136.923 110.409 136.822 110.465 136.703 110.465Z" fill="#407BFF"/>
</g>
<defs>
<clipPath id="clip0_34_4956">
<rect width="314" height="242" fill="white"/>
</clipPath>
</defs>
</svg>
