<svg width="16" height="16" viewBox="0 0 16 16" fill="none" xmlns="http://www.w3.org/2000/svg">
<path d="M8 11.72C9.04 11.72 9.92 11.36 10.64 10.64C11.36 9.92 11.72 9.04 11.72 8C11.72 6.96 11.36 6.08 10.64 5.36C9.92 4.64 9.04 4.28 8 4.28C6.96 4.28 6.08 4.64 5.36 5.36C4.64 6.08 4.28 6.96 4.28 8C4.28 9.04 4.64 9.92 5.36 10.64C6.08 11.36 6.96 11.72 8 11.72ZM8 16C6.90667 16 5.87333 15.79 4.9 15.37C3.92667 14.95 3.07667 14.3767 2.35 13.65C1.62333 12.9233 1.05 12.0733 0.63 11.1C0.21 10.1267 0 9.09333 0 8C0 6.89333 0.21 5.85333 0.63 4.88C1.05 3.90667 1.62333 3.06 2.35 2.34C3.07667 1.62 3.92667 1.05 4.9 0.63C5.87333 0.21 6.90667 0 8 0C9.10667 0 10.1467 0.21 11.12 0.63C12.0933 1.05 12.94 1.62 13.66 2.34C14.38 3.06 14.95 3.90667 15.37 4.88C15.79 5.85333 16 6.89333 16 8C16 9.09333 15.79 10.1267 15.37 11.1C14.95 12.0733 14.38 12.9233 13.66 13.65C12.94 14.3767 12.0933 14.95 11.12 15.37C10.1467 15.79 9.10667 16 8 16ZM8 14.8C9.89333 14.8 11.5 14.1367 12.82 12.81C14.14 11.4833 14.8 9.88 14.8 8C14.8 6.10667 14.14 4.5 12.82 3.18C11.5 1.86 9.89333 1.2 8 1.2C6.12 1.2 4.51667 1.86 3.19 3.18C1.86333 4.5 1.2 6.10667 1.2 8C1.2 9.88 1.86333 11.4833 3.19 12.81C4.51667 14.1367 6.12 14.8 8 14.8Z" fill="#4B4B4B"/>
</svg>
