<svg width="250" height="22" viewBox="0 0 250 22" fill="none" xmlns="http://www.w3.org/2000/svg">
<g clip-path="url(#clip0_29_334)">
<circle cx="8" cy="11" r="8" fill="url(#paint0_linear_29_334)"/>
<mask id="mask0_29_334" style="mask-type:alpha" maskUnits="userSpaceOnUse" x="2" y="5" width="12" height="12">
<rect x="2" y="5" width="12" height="12" fill="#D9D9D9"/>
</mask>
<g mask="url(#mask0_29_334)">
<path d="M6.325 15.25L3.25 12.175C3.16667 12.0917 3.10417 12 3.0625 11.9C3.02083 11.8 3 11.6958 3 11.5875C3 11.4792 3.02083 11.375 3.0625 11.275C3.10417 11.175 3.16667 11.0833 3.25 11L6.125 8.1375L4.8 6.8125L5.575 6L10.575 11C10.6583 11.0833 10.7188 11.175 10.7562 11.275C10.7937 11.375 10.8125 11.4792 10.8125 11.5875C10.8125 11.6958 10.7937 11.8 10.7562 11.9C10.7188 12 10.6583 12.0917 10.575 12.175L7.5 15.25C7.41667 15.3333 7.325 15.3958 7.225 15.4375C7.125 15.4792 7.02083 15.5 6.9125 15.5C6.80417 15.5 6.7 15.4792 6.6 15.4375C6.5 15.3958 6.40833 15.3333 6.325 15.25ZM6.9125 8.925L4.2375 11.6H9.5875L6.9125 8.925ZM11.9 15.5C11.6 15.5 11.3458 15.3938 11.1375 15.1813C10.9292 14.9688 10.825 14.7083 10.825 14.4C10.825 14.175 10.8812 13.9625 10.9938 13.7625C11.1062 13.5625 11.2333 13.3667 11.375 13.175L11.9 12.5L12.45 13.175C12.5833 13.3667 12.7083 13.5625 12.825 13.7625C12.9417 13.9625 13 14.175 13 14.4C13 14.7083 12.8917 14.9688 12.675 15.1813C12.4583 15.3938 12.2 15.5 11.9 15.5Z" fill="white"/>
</g>
<circle cx="36" cy="11" r="8" fill="#D9D9D9"/>
<circle cx="64" cy="11" r="8" fill="#FA4141"/>
<circle cx="95" cy="11" r="8" fill="#117FE4"/>
<circle cx="95" cy="11" r="10.5" stroke="white"/>
<circle cx="126" cy="11" r="8" fill="#108305"/>
<circle cx="154" cy="11" r="8" fill="#F5DF20"/>
<circle cx="182" cy="11" r="8" fill="#F19408"/>
<circle cx="210" cy="11" r="8" fill="#7157BA"/>
<circle cx="238" cy="11" r="8" fill="#31F3D0"/>
</g>
<defs>
<linearGradient id="paint0_linear_29_334" x1="0" y1="11" x2="16" y2="11" gradientUnits="userSpaceOnUse">
<stop stop-color="#373BC8"/>
<stop offset="1" stop-color="#6134C0"/>
</linearGradient>
<clipPath id="clip0_29_334">
<rect width="250" height="22" fill="white"/>
</clipPath>
</defs>
</svg>
