<svg width="13" height="13" viewBox="0 0 13 13" fill="none" xmlns="http://www.w3.org/2000/svg">
<mask id="mask0_49_959" style="mask-type:alpha" maskUnits="userSpaceOnUse" x="-2" y="-2" width="17" height="17">
<rect x="-1.78201" y="-1.7106" width="16.4209" height="16.4209" fill="#D9D9D9"/>
</mask>
<g mask="url(#mask0_49_959)">
<path d="M4.84996 12.9999L4.58943 10.9157C4.4061 10.8543 4.21816 10.7683 4.02561 10.6578C3.83307 10.5473 3.66091 10.4288 3.50916 10.3025L1.57891 11.1183L0 8.38151L1.66972 7.11968C1.65393 7.01793 1.64274 6.91573 1.63616 6.8131C1.62958 6.71047 1.62629 6.60828 1.62629 6.50653C1.62629 6.40915 1.62958 6.31025 1.63616 6.2098C1.64274 6.10936 1.65393 5.9995 1.66972 5.8802L0 4.61837L1.57891 1.89474L3.50257 2.70395C3.66749 2.57324 3.84359 2.45372 4.03086 2.34539C4.21815 2.23705 4.40215 2.14998 4.58285 2.08419L4.84996 0H8.00778L8.26831 2.09078C8.47357 2.16534 8.65932 2.2524 8.82556 2.35196C8.99179 2.45152 9.15955 2.56885 9.32884 2.70395L11.2788 1.89474L12.8577 4.61837L11.1617 5.89993C11.1863 6.01046 11.1997 6.11375 11.2018 6.2098C11.204 6.30585 11.2051 6.40257 11.2051 6.49994C11.2051 6.59293 11.2029 6.68744 11.1986 6.78349C11.1942 6.87954 11.1784 6.98942 11.1512 7.11311L12.8341 8.38151L11.2551 11.1183L9.32884 10.2959C9.15955 10.431 8.98674 10.5506 8.81042 10.6545C8.6341 10.7584 8.4534 10.8433 8.26831 10.9091L8.00778 12.9999H4.84996ZM5.74466 11.9736H7.08938L7.33544 10.1407C7.68456 10.0495 8.00363 9.91987 8.29266 9.75189C8.5817 9.58392 8.86042 9.36791 9.12885 9.10388L10.8288 9.81834L11.5025 8.65519L10.0183 7.53677C10.0753 7.35958 10.1142 7.1859 10.1348 7.01573C10.1554 6.84556 10.1657 6.67363 10.1657 6.49994C10.1657 6.32188 10.1554 6.14995 10.1348 5.98415C10.1142 5.81837 10.0753 5.64907 10.0183 5.47627L11.5157 4.34469L10.842 3.18154L9.12226 3.90654C8.89333 3.6618 8.61899 3.44558 8.29925 3.25786C7.97951 3.07014 7.65604 2.93725 7.32886 2.85918L7.11308 1.02629H5.75518L5.52888 2.85259C5.17975 2.93505 4.85738 3.06137 4.56177 3.23154C4.26616 3.40171 3.98415 3.62101 3.71574 3.88944L2.01574 3.18154L1.34205 4.34469L2.81968 5.44601C2.76266 5.60828 2.72275 5.77713 2.69995 5.95258C2.67714 6.12802 2.66574 6.31267 2.66574 6.50653C2.66574 6.68459 2.67714 6.85915 2.69995 7.0302C2.72275 7.20125 2.76047 7.37011 2.8131 7.53677L1.34205 8.65519L2.01574 9.81834L3.70915 9.09993C3.96879 9.36659 4.24642 9.58502 4.54203 9.75519C4.83764 9.92536 5.1644 10.0561 5.5223 10.1473L5.74466 11.9736ZM6.43676 8.55254C7.00605 8.55254 7.49047 8.35277 7.89003 7.95321C8.28958 7.55365 8.48936 7.06922 8.48936 6.49994C8.48936 5.93066 8.28958 5.44624 7.89003 5.04667C7.49047 4.64712 7.00605 4.44734 6.43676 4.44734C5.86046 4.44734 5.37429 4.64712 4.97823 5.04667C4.58219 5.44624 4.38417 5.93066 4.38417 6.49994C4.38417 7.06922 4.58219 7.55365 4.97823 7.95321C5.37429 8.35277 5.86046 8.55254 6.43676 8.55254Z" fill="#1C1B1F"/>
</g>
</svg>
