<svg width="17" height="17" viewBox="0 0 17 17" fill="none" xmlns="http://www.w3.org/2000/svg">
<mask id="mask0_26_124" style="mask-type:alpha" maskUnits="userSpaceOnUse" x="-4" y="-4" width="25" height="26">
<rect x="-3.66492" y="-3.27511" width="24.3298" height="24.3298" fill="#D9D9D9"/>
</mask>
<g mask="url(#mask0_26_124)">
<path d="M1.6376 16.9997C1.18726 16.9997 0.801744 16.8393 0.481046 16.5186C0.160349 16.198 0 15.8125 0 15.3621V2.41737C0 1.96703 0.160349 1.58152 0.481046 1.26084C0.801744 0.940146 1.18726 0.779796 1.6376 0.779796H10.1374V1.79354H1.6376C1.45565 1.79354 1.30619 1.85202 1.18922 1.96899C1.07224 2.08596 1.01374 2.23542 1.01374 2.41737V15.3621C1.01374 15.5441 1.07224 15.6935 1.18922 15.8105C1.30619 15.9275 1.45565 15.9859 1.6376 15.9859H14.5823C14.7643 15.9859 14.9137 15.9275 15.0307 15.8105C15.1477 15.6935 15.2061 15.5441 15.2061 15.3621V6.86226H16.2199V15.3621C16.2199 15.8125 16.0596 16.198 15.7389 16.5186C15.4182 16.8393 15.0327 16.9997 14.5823 16.9997H1.6376ZM13.9585 5.06872V3.04123H11.931V2.02749H13.9585V0H14.9722V2.02749H16.9997V3.04123H14.9722V5.06872H13.9585ZM3.5481 13.4516H12.8278L9.962 9.63056L7.31066 12.9837L5.53661 10.8392L3.5481 13.4516Z" fill="#C8C437"/>
</g>
</svg>
