<svg width="18" height="18" viewBox="0 0 18 18" fill="none" xmlns="http://www.w3.org/2000/svg">
<mask id="mask0_44_773" style="mask-type:alpha" maskUnits="userSpaceOnUse" x="-3" y="-3" width="24" height="24">
<rect x="-3" y="-3" width="24" height="24" fill="#D9D9D9"/>
</mask>
<g mask="url(#mask0_44_773)">
<path d="M7 7.84615C7.23975 7.84615 7.44071 7.76506 7.60287 7.60287C7.76506 7.44071 7.84615 7.23975 7.84615 7C7.84615 6.76025 7.76506 6.55929 7.60287 6.39713C7.44071 6.23494 7.23975 6.15385 7 6.15385C6.76025 6.15385 6.55929 6.23494 6.39713 6.39713C6.23494 6.55929 6.15385 6.76025 6.15385 7C6.15385 7.23975 6.23494 7.44071 6.39713 7.60287C6.55929 7.76506 6.76025 7.84615 7 7.84615ZM7 11.8462C7.23975 11.8462 7.44071 11.7651 7.60287 11.6029C7.76506 11.4407 7.84615 11.2397 7.84615 11C7.84615 10.7603 7.76506 10.5593 7.60287 10.3971C7.44071 10.2349 7.23975 10.1538 7 10.1538C6.76025 10.1538 6.55929 10.2349 6.39713 10.3971C6.23494 10.5593 6.15385 10.7603 6.15385 11C6.15385 11.2397 6.23494 11.4407 6.39713 11.6029C6.55929 11.7651 6.76025 11.8462 7 11.8462ZM4 7.5C4.13333 7.5 4.25 7.45 4.35 7.35C4.45 7.25 4.5 7.13333 4.5 7C4.5 6.86667 4.45 6.75 4.35 6.65C4.25 6.55 4.13333 6.5 4 6.5C3.86667 6.5 3.75 6.55 3.65 6.65C3.55 6.75 3.5 6.86667 3.5 7C3.5 7.13333 3.55 7.25 3.65 7.35C3.75 7.45 3.86667 7.5 4 7.5ZM7 14.5C7.13333 14.5 7.25 14.45 7.35 14.35C7.45 14.25 7.5 14.1333 7.5 14C7.5 13.8667 7.45 13.75 7.35 13.65C7.25 13.55 7.13333 13.5 7 13.5C6.86667 13.5 6.75 13.55 6.65 13.65C6.55 13.75 6.5 13.8667 6.5 14C6.5 14.1333 6.55 14.25 6.65 14.35C6.75 14.45 6.86667 14.5 7 14.5ZM4 11.5C4.13333 11.5 4.25 11.45 4.35 11.35C4.45 11.25 4.5 11.1333 4.5 11C4.5 10.8667 4.45 10.75 4.35 10.65C4.25 10.55 4.13333 10.5 4 10.5C3.86667 10.5 3.75 10.55 3.65 10.65C3.55 10.75 3.5 10.8667 3.5 11C3.5 11.1333 3.55 11.25 3.65 11.35C3.75 11.45 3.86667 11.5 4 11.5ZM7 4.5C7.13333 4.5 7.25 4.45 7.35 4.35C7.45 4.25 7.5 4.13333 7.5 4C7.5 3.86667 7.45 3.75 7.35 3.65C7.25 3.55 7.13333 3.5 7 3.5C6.86667 3.5 6.75 3.55 6.65 3.65C6.55 3.75 6.5 3.86667 6.5 4C6.5 4.13333 6.55 4.25 6.65 4.35C6.75 4.45 6.86667 4.5 7 4.5ZM11 7.84615C11.2397 7.84615 11.4407 7.76506 11.6029 7.60287C11.7651 7.44071 11.8462 7.23975 11.8462 7C11.8462 6.76025 11.7651 6.55929 11.6029 6.39713C11.4407 6.23494 11.2397 6.15385 11 6.15385C10.7603 6.15385 10.5593 6.23494 10.3971 6.39713C10.2349 6.55929 10.1538 6.76025 10.1538 7C10.1538 7.23975 10.2349 7.44071 10.3971 7.60287C10.5593 7.76506 10.7603 7.84615 11 7.84615ZM11 4.5C11.1333 4.5 11.25 4.45 11.35 4.35C11.45 4.25 11.5 4.13333 11.5 4C11.5 3.86667 11.45 3.75 11.35 3.65C11.25 3.55 11.1333 3.5 11 3.5C10.8667 3.5 10.75 3.55 10.65 3.65C10.55 3.75 10.5 3.86667 10.5 4C10.5 4.13333 10.55 4.25 10.65 4.35C10.75 4.45 10.8667 4.5 11 4.5ZM14 11.5C14.1333 11.5 14.25 11.45 14.35 11.35C14.45 11.25 14.5 11.1333 14.5 11C14.5 10.8667 14.45 10.75 14.35 10.65C14.25 10.55 14.1333 10.5 14 10.5C13.8667 10.5 13.75 10.55 13.65 10.65C13.55 10.75 13.5 10.8667 13.5 11C13.5 11.1333 13.55 11.25 13.65 11.35C13.75 11.45 13.8667 11.5 14 11.5ZM14 7.5C14.1333 7.5 14.25 7.45 14.35 7.35C14.45 7.25 14.5 7.13333 14.5 7C14.5 6.86667 14.45 6.75 14.35 6.65C14.25 6.55 14.1333 6.5 14 6.5C13.8667 6.5 13.75 6.55 13.65 6.65C13.55 6.75 13.5 6.86667 13.5 7C13.5 7.13333 13.55 7.25 13.65 7.35C13.75 7.45 13.8667 7.5 14 7.5ZM9.00335 18C7.7588 18 6.58872 17.7638 5.4931 17.2915C4.39748 16.8192 3.44444 16.1782 2.63397 15.3685C1.82352 14.5588 1.18192 13.6066 0.70915 12.512C0.236383 11.4174 0 10.2479 0 9.00335C0 7.7588 0.236158 6.58872 0.708475 5.4931C1.18081 4.39748 1.82183 3.44444 2.63153 2.63398C3.44123 1.82353 4.39337 1.18192 5.48795 0.709151C6.58255 0.236384 7.75212 0 8.99665 0C10.2412 0 11.4113 0.236158 12.5069 0.708475C13.6025 1.18081 14.5556 1.82182 15.366 2.63152C16.1765 3.44122 16.8181 4.39337 17.2908 5.48795C17.7636 6.58255 18 7.75212 18 8.99665C18 10.2412 17.7638 11.4113 17.2915 12.5069C16.8192 13.6025 16.1782 14.5556 15.3685 15.366C14.5588 16.1765 13.6066 16.8181 12.512 17.2909C11.4174 17.7636 10.2479 18 9.00335 18ZM9 17C11.2333 17 13.125 16.225 14.675 14.675C16.225 13.125 17 11.2333 17 9C17 6.76667 16.225 4.875 14.675 3.325C13.125 1.775 11.2333 1 9 1C6.76667 1 4.875 1.775 3.325 3.325C1.775 4.875 1 6.76667 1 9C1 11.2333 1.775 13.125 3.325 14.675C4.875 16.225 6.76667 17 9 17ZM11 14.5C11.1333 14.5 11.25 14.45 11.35 14.35C11.45 14.25 11.5 14.1333 11.5 14C11.5 13.8667 11.45 13.75 11.35 13.65C11.25 13.55 11.1333 13.5 11 13.5C10.8667 13.5 10.75 13.55 10.65 13.65C10.55 13.75 10.5 13.8667 10.5 14C10.5 14.1333 10.55 14.25 10.65 14.35C10.75 14.45 10.8667 14.5 11 14.5ZM11 11.8462C11.2397 11.8462 11.4407 11.7651 11.6029 11.6029C11.7651 11.4407 11.8462 11.2397 11.8462 11C11.8462 10.7603 11.7651 10.5593 11.6029 10.3971C11.4407 10.2349 11.2397 10.1538 11 10.1538C10.7603 10.1538 10.5593 10.2349 10.3971 10.3971C10.2349 10.5593 10.1538 10.7603 10.1538 11C10.1538 11.2397 10.2349 11.4407 10.3971 11.6029C10.5593 11.7651 10.7603 11.8462 11 11.8462Z" fill="#C8C437"/>
</g>
</svg>
