<svg width="360" height="256" viewBox="0 0 360 256" fill="none" xmlns="http://www.w3.org/2000/svg">
<rect x="360" width="229" height="360" transform="rotate(90 360 0)" fill="url(#paint0_linear_34_3165)" fill-opacity="0.1"/>
<g clip-path="url(#clip0_34_3165)">
<path d="M299.141 238.983H279.401V239.132H299.141V238.983Z" fill="#EBEBEB"/>
<path d="M228.407 240.606H223.228V240.755H228.407V240.606Z" fill="#EBEBEB"/>
<path d="M278.805 233.446H267.368V233.595H278.805V233.446Z" fill="#EBEBEB"/>
<path d="M88.0076 234.448H62.2664V234.597H88.0076V234.448Z" fill="#EBEBEB"/>
<path d="M97.0907 234.448H93.318V234.597H97.0907V234.448Z" fill="#EBEBEB"/>
<path d="M165.19 236.966H109.356V237.115H165.19V236.966Z" fill="#EBEBEB"/>
<path d="M173.087 202.77H57.999C56.1216 202.77 54.5958 201.243 54.5958 199.363V37.407C54.5958 35.5275 56.1216 34 57.999 34H173.087C174.964 34 176.49 35.5275 176.49 37.407V199.363C176.49 201.243 174.964 202.77 173.087 202.77ZM57.999 34.1492C56.205 34.1492 54.7448 35.611 54.7448 37.407V199.363C54.7448 201.159 56.205 202.621 57.999 202.621H173.087C174.881 202.621 176.341 201.159 176.341 199.363V37.407C176.341 35.611 174.881 34.1492 173.087 34.1492H57.999Z" fill="#EBEBEB"/>
<path d="M302.001 202.77H186.914C185.036 202.77 183.511 201.243 183.511 199.363V37.407C183.511 35.5275 185.036 34 186.914 34H302.001C303.879 34 305.405 35.5275 305.405 37.407V199.363C305.405 201.243 303.879 202.77 302.001 202.77ZM186.914 34.1492C185.12 34.1492 183.66 35.611 183.66 37.407V199.363C183.66 201.159 185.12 202.621 186.914 202.621H302.001C303.795 202.621 305.256 201.159 305.256 199.363V37.407C305.256 35.611 303.795 34.1492 302.001 34.1492H186.914Z" fill="#EBEBEB"/>
<path d="M329 229.382H31.0002V229.531H329V229.382Z" fill="#EBEBEB"/>
<path d="M239.644 225.918H296.371V150.355H239.644V225.918Z" fill="#F5F5F5"/>
<path d="M228.819 225.918H239.642V150.355H228.819V225.918Z" fill="#E6E6E6"/>
<path d="M243.327 174.308H292.396V155.955H243.327V174.308Z" fill="#FAFAFA"/>
<path d="M274.258 155.955L274.043 158.401C273.972 159.207 273.298 159.827 272.488 159.827H263.226C262.415 159.827 261.742 159.207 261.67 158.401L261.456 155.955H274.258Z" fill="#EBEBEB"/>
<path d="M243.327 194.661H292.396V176.307H243.327V194.661Z" fill="#FAFAFA"/>
<path d="M274.258 176.313L274.043 178.76C273.972 179.565 273.298 180.186 272.488 180.186H263.226C262.415 180.186 261.742 179.565 261.67 178.76L261.456 176.313H274.258Z" fill="#EBEBEB"/>
<path d="M243.327 215.019H292.396V196.665H243.327V215.019Z" fill="#FAFAFA"/>
<path d="M274.258 196.666L274.043 199.113C273.972 199.918 273.298 200.539 272.488 200.539H263.226C262.415 200.539 261.742 199.918 261.67 199.113L261.456 196.666H274.258Z" fill="#EBEBEB"/>
<path d="M243.325 229.686H291.798L292.394 225.909H243.325V229.686Z" fill="#E6E6E6"/>
<path d="M233.193 229.686H243.325V225.909H232.597L233.193 229.686Z" fill="#E0E0E0"/>
<path d="M266.11 150.43H285.48L283.335 125.841H263.965L266.11 150.43Z" fill="#FAFAFA"/>
<path d="M266.11 150.43H265.187L263.035 125.841H263.965L266.11 150.43Z" fill="#EBEBEB"/>
<path d="M267.869 147.924H283.287L281.577 128.347H266.158L267.869 147.924Z" fill="#F0F0F0"/>
<path d="M268.995 146.313H281.875L280.45 129.958H267.565L268.995 146.313Z" fill="#E6E6E6"/>
<path d="M260.669 150.43L261.998 135.208H242.717L241.388 150.43H260.669Z" fill="#F0F0F0"/>
<path d="M260.669 150.43L261.998 135.208H263.035L261.706 150.43H260.669Z" fill="#E0E0E0"/>
<path d="M258.839 148.878L259.9 136.76H244.547L243.486 148.878H258.839Z" fill="#EBEBEB"/>
<path d="M257.659 147.882L258.547 137.756H245.721L244.839 147.882H257.659Z" fill="#F5F5F5"/>
<path d="M216.142 219.459C216.142 223.493 215.51 226.1 214.443 227.777C213.644 229.036 212.202 229.746 210.712 229.746H204.877C203.387 229.746 201.951 229.036 201.146 227.777C200.08 226.1 199.448 223.493 199.448 219.459C199.448 213.612 201.993 208.928 202.827 205.187C203.125 203.838 202.13 199.715 202.13 199.715H213.454C213.454 199.715 212.458 203.844 212.756 205.187C213.597 208.922 216.142 213.606 216.142 219.459Z" fill="#EBEBEB"/>
<path d="M235.428 195.777C235.428 190.7 227.472 192.806 225.469 184.924C224.712 181.94 231.179 175.18 231.179 175.18H211.004C211.004 175.18 217.477 181.94 216.714 184.924C214.711 192.806 206.755 190.694 206.755 195.777C206.755 201.374 217.977 213.021 218.514 226.136C218.562 227.306 216.404 229.74 216.404 229.74H225.773C225.773 229.74 223.616 227.312 223.663 226.136C224.206 213.027 235.428 201.374 235.428 195.777Z" fill="#F5F5F5"/>
<path d="M229.331 208.982C230.505 206.511 228.08 198.116 228.08 198.116H236.823C236.823 198.116 234.397 206.511 235.571 208.982C236.4 210.724 238.283 211.84 238.283 213.898V226.291C238.283 229.501 235.661 229.74 232.454 229.74C229.248 229.74 226.625 229.501 226.625 226.291V213.898C226.619 211.834 228.503 210.724 229.331 208.982Z" fill="#F0F0F0"/>
<path d="M129.43 135.781C124.405 133.604 121.545 129.009 123.041 125.536C124.542 122.064 129.847 121.014 134.871 123.191C139.895 125.369 142.762 129.964 141.26 133.436C139.758 136.903 134.454 137.953 129.43 135.781ZM133.429 126.533C131.075 125.513 128.589 126.008 127.886 127.631C127.183 129.26 128.524 131.408 130.878 132.428C133.232 133.448 135.717 132.953 136.421 131.33C137.124 129.707 135.783 127.553 133.429 126.533Z" fill="#E6E6E6"/>
<path d="M135.342 126.73L132.958 125.697L147.381 92.3193C147.667 91.657 148.43 91.3587 149.092 91.6391C149.753 91.9255 150.051 92.6893 149.771 93.3516L135.342 126.73Z" fill="#E6E6E6"/>
<path d="M150.868 96.5795L146.285 94.5747L147.322 92.188L151.899 94.1869L150.868 96.5795Z" fill="#E6E6E6"/>
<path d="M148.609 99.2526L145.331 97.8265L146.362 95.4338L149.64 96.8599L148.609 99.2526Z" fill="#E6E6E6"/>
<path d="M145.04 99.9981L144.008 102.385L147.683 103.979L148.716 101.592L145.04 99.9981Z" fill="#E6E6E6"/>
<path d="M136.266 123.167L134.955 122.601C134.299 122.32 134.001 121.556 134.281 120.906L134.287 120.888C134.567 120.232 135.33 119.933 135.98 120.214L137.291 120.781C137.946 121.061 138.244 121.825 137.964 122.475L137.958 122.493C137.678 123.15 136.921 123.448 136.266 123.167Z" fill="#E6E6E6"/>
<path d="M238.688 111.693C242.67 114.349 243.695 119.832 240.977 123.913C238.259 127.995 232.812 129.158 228.831 126.509C224.849 123.854 223.824 118.37 226.542 114.289C229.26 110.202 234.707 109.038 238.688 111.693ZM231.447 122.571C233.312 123.812 235.863 123.269 237.139 121.354C238.414 119.438 237.931 116.872 236.066 115.625C234.2 114.384 231.65 114.927 230.374 116.843C229.105 118.758 229.587 121.324 231.447 122.571Z" fill="#E6E6E6"/>
<path d="M230.487 121.509L232.955 123.156L215.307 150.197C214.854 150.877 213.931 151.062 213.251 150.609C212.572 150.155 212.387 149.236 212.84 148.55L230.487 121.509Z" fill="#E6E6E6"/>
<path d="M212.947 142.655L218.138 146.146L215.546 150.042L210.343 146.545C209.598 146.044 209.395 145.03 209.896 144.284L210.676 143.108C211.177 142.351 212.196 142.154 212.947 142.655Z" fill="#E6E6E6"/>
<path d="M166.614 60.0151L163.873 67.1215C163.628 67.76 162.907 68.0822 162.269 67.8316C161.632 67.587 161.31 66.865 161.56 66.2265L164.302 59.1201C165.184 56.8229 164.039 54.2393 161.751 53.3502L159.212 52.3717C156.917 51.4886 154.337 52.6342 153.449 54.9254L152.328 57.8253L150.01 56.9303L151.13 54.0304C152.507 50.4563 156.536 48.6723 160.1 50.0506L162.639 51.0291C166.209 52.4134 167.991 56.441 166.614 60.0151Z" fill="#F0F0F0"/>
<path d="M166.179 61.1368C165.994 60.9041 165.75 60.7071 165.452 60.5938L151.625 55.2475C151.315 55.1282 150.993 55.1043 150.689 55.164C150.135 55.2714 149.646 55.6533 149.432 56.2201L144.091 70.0631C143.752 70.9402 144.187 71.9187 145.063 72.2588L158.89 77.6051C159.766 77.9452 160.744 77.5096 161.083 76.6325L166.423 62.7896C166.644 62.2167 166.537 61.5902 166.179 61.1368ZM155.678 71.8352L151.291 70.1406L153.609 66.0892C153.317 65.4985 153.264 64.7944 153.52 64.1321C154.003 62.8791 155.409 62.2525 156.667 62.7359C157.919 63.2192 158.544 64.6333 158.062 65.8863C157.805 66.5486 157.293 67.0319 156.679 67.2706L155.678 71.8352Z" fill="#E6E6E6"/>
<path d="M72.2159 221.658H182.553V162.211H72.2159L72.2159 221.658Z" fill="#E6E6E6"/>
<path d="M173.709 229.371H180.647V224.127H173.709V229.371Z" fill="#E6E6E6"/>
<path d="M63.7895 229.371H70.7269L70.7269 157.788H63.7895L63.7895 229.371Z" fill="#E6E6E6"/>
<path d="M70.6461 157.787V229.37H74.3473V225.361H180.644V229.37H184.345V157.787H182.497H180.65H74.3473H72.4997H70.6461ZM74.3473 164.267H125.645V189.13H74.3473V164.267ZM180.644 218.881H129.346V164.267H180.644V218.881ZM74.3473 218.881V192.83H125.645V218.881H74.3473Z" fill="#F0F0F0"/>
<path d="M129.339 218.881H177.174V166.94H129.339V218.881Z" fill="#F5F5F5"/>
<path d="M131.51 191.356C131.51 192.585 132.505 193.582 133.733 193.582C134.96 193.582 135.956 192.585 135.956 191.356C135.956 190.127 134.96 189.13 133.733 189.13C132.505 189.13 131.51 190.127 131.51 191.356Z" fill="#FAFAFA"/>
<path d="M133.733 193.582C134.627 193.582 135.396 193.045 135.747 192.281C135.878 192.561 135.956 192.877 135.956 193.206C135.956 194.435 134.96 195.431 133.733 195.431C132.505 195.431 131.51 194.435 131.51 193.206C131.51 192.871 131.587 192.561 131.718 192.281C132.07 193.045 132.839 193.582 133.733 193.582Z" fill="#E0E0E0"/>
<path d="M158.628 218.881H147.214L141.761 166.94H153.174L158.628 218.881Z" fill="#FAFAFA"/>
<path d="M144.294 218.881H142.017L136.57 166.94H138.84L144.294 218.881Z" fill="#FAFAFA"/>
<path d="M114.088 189.108H118.606V166.893H114.088V189.108Z" fill="#FAFAFA"/>
<path d="M95.3421 189.108H99.8597V166.893H95.3421V189.108Z" fill="#F5F5F5"/>
<path d="M109.565 189.106H114.083V168.449H109.565V189.106Z" fill="#F5F5F5"/>
<path d="M99.865 189.106H104.383V168.449H99.865V189.106Z" fill="#FAFAFA"/>
<path d="M104.386 189.108H107.306V166.893H104.386V189.108Z" fill="#EBEBEB"/>
<path d="M107.302 189.106H109.561V168.449H107.302V189.106Z" fill="#FAFAFA"/>
<path d="M90.8251 189.108H95.3428V166.893H90.8251V189.108Z" fill="#EBEBEB"/>
<path d="M86.3021 189.106H90.8198V168.449H86.3021V189.106Z" fill="#E6E6E6"/>
<path d="M76.6018 189.106H81.1195V168.449H76.6018V189.106Z" fill="#E6E6E6"/>
<path d="M81.1229 189.108H84.0433V166.893H81.1229V189.108Z" fill="#FAFAFA"/>
<path d="M84.0454 189.106H86.3042V168.449H84.0454V189.106Z" fill="#EBEBEB"/>
<path d="M74.3391 189.103H76.5979V167.414H74.3391V189.103Z" fill="#EBEBEB"/>
<path d="M78.859 196.667H74.3413V218.881H78.859V196.667Z" fill="#EBEBEB"/>
<path d="M97.5973 196.667H93.0796V218.881H97.5973V196.667Z" fill="#FAFAFA"/>
<path d="M83.3767 198.224H78.859V218.881H83.3767V198.224Z" fill="#FAFAFA"/>
<path d="M93.0796 198.224H88.5619V218.881H93.0796V198.224Z" fill="#EBEBEB"/>
<path d="M88.5619 196.667H85.6415V218.881H88.5619V196.667Z" fill="#FAFAFA"/>
<path d="M85.6415 198.224H83.3827V218.881H85.6415V198.224Z" fill="#F5F5F5"/>
<path d="M102.121 196.667H97.6033V218.881H102.121V196.667Z" fill="#EBEBEB"/>
<path d="M106.639 198.224H102.121V218.881H106.639V198.224Z" fill="#F5F5F5"/>
<path d="M116.342 198.224H111.824V218.881H116.342V198.224Z" fill="#E6E6E6"/>
<path d="M111.824 196.667H108.903V218.881H111.824V196.667Z" fill="#FAFAFA"/>
<path d="M121.527 196.667H118.606V218.881H121.527V196.667Z" fill="#FAFAFA"/>
<path d="M108.903 198.224H106.645V218.881H108.903V198.224Z" fill="#EBEBEB"/>
<path d="M118.6 197.191H116.342V218.881H118.6V197.191Z" fill="#EBEBEB"/>
<path d="M79.3835 119.528C79.3835 119.528 78.6266 119.88 78.2809 120.584C77.9352 121.288 79.008 122.595 79.008 122.595C79.008 122.595 79.9139 123.227 80.8079 122.816C81.7079 122.41 81.7079 122.41 81.7079 122.41C81.7079 122.41 80.1762 119.743 79.4312 119.719L79.3835 119.528Z" fill="#E6E6E6"/>
<path d="M83.2277 119.504C83.335 120.769 82.5542 122.362 81.4278 122.463C80.3014 122.559 79.2524 121.127 79.1451 119.862C79.0378 118.597 79.9438 118.472 81.0762 118.376C82.1966 118.275 83.1145 118.239 83.2277 119.504Z" fill="#E6E6E6"/>
<path d="M79.9199 119.134C79.9199 119.134 80.7841 119.82 82.5602 119.42C82.5602 119.42 79.759 121.288 79.9199 119.134Z" fill="#E6E6E6"/>
<path d="M80.6827 118.883C80.6827 118.883 81.6781 118.71 81.69 119.128C81.69 119.128 82.5303 119.08 82.4171 118.728C82.3039 118.37 80.6827 118.883 80.6827 118.883Z" fill="#E6E6E6"/>
<g opacity="0.2">
<path d="M79.9199 119.134C79.9199 119.134 80.7841 119.82 82.5602 119.42C82.5602 119.42 79.759 121.288 79.9199 119.134Z" fill="#FAFAFA"/>
</g>
<g opacity="0.2">
<path d="M80.6827 118.883C80.6827 118.883 81.6781 118.71 81.69 119.128C81.69 119.128 82.5303 119.08 82.4171 118.728C82.3039 118.37 80.6827 118.883 80.6827 118.883Z" fill="#FAFAFA"/>
</g>
<path d="M79.5325 122.863C79.8901 123.448 80.6232 123.746 81.3026 123.663C81.982 123.579 82.59 123.155 82.9833 122.595C83.3767 122.034 83.5614 121.348 83.6032 120.667C83.6151 120.488 83.627 120.047 83.3946 119.981C83.18 119.922 83.0489 120.22 82.9535 120.357C82.6674 120.757 82.3694 121.133 82.0059 121.467C81.6542 121.789 81.2668 122.076 80.8496 122.308C80.7304 122.374 79.598 122.965 79.5325 122.863Z" fill="#E6E6E6"/>
<path d="M84.372 120.339C84.5866 120.852 84.5091 121.473 84.1753 121.92C83.9548 122.213 83.6449 122.422 83.335 122.607C83.1204 122.738 82.8403 122.863 82.6257 122.726C82.3933 122.577 82.4171 122.243 82.4708 121.968C82.5542 121.556 82.6436 121.145 82.7449 120.733C82.8284 120.399 82.882 119.838 83.0787 119.552C83.2634 119.283 83.5257 119.444 83.8058 119.635C84.0502 119.814 84.2528 120.053 84.372 120.339Z" fill="#E6E6E6"/>
<g opacity="0.2">
<path d="M79.8186 122.159C79.3835 122.141 78.9723 121.843 78.8113 121.437C78.6921 121.139 78.6981 120.375 79.0855 120.274C79.2583 120.96 79.4073 121.574 79.8186 122.159Z" fill="#FAFAFA"/>
</g>
<g opacity="0.2">
<path d="M82.7568 122.129C83.1681 122.01 83.5078 121.676 83.633 121.264C83.7045 121.037 83.6151 119.88 83.2694 120.369C83.1562 120.53 83.18 121.037 83.1204 121.24C83.037 121.551 82.9178 121.849 82.7568 122.129Z" fill="#FAFAFA"/>
</g>
<g opacity="0.2">
<path d="M81.1834 122.845C81.4993 123.114 82.0119 123.132 82.3397 122.875C82.298 123.096 81.5947 123.287 81.3742 123.352C80.808 123.519 80.51 123.269 79.9557 123.036C79.9616 123.036 80.8318 123.167 81.1834 122.845Z" fill="#FAFAFA"/>
</g>
<path d="M80.2 146.086L80.2536 128.872L81.1357 123.633L81.4694 123.692L80.5933 128.901L80.5277 146.414L80.2 146.086Z" fill="#E0E0E0"/>
<path d="M80.5575 128.782L80.2893 128.991C80.0211 128.639 79.7768 128.18 79.4966 127.649C79.0616 126.825 78.5669 125.894 77.8159 125.071L78.0662 124.844C78.847 125.703 79.3476 126.652 79.7946 127.493C80.0688 128.007 80.3012 128.454 80.5575 128.782Z" fill="#E0E0E0"/>
<path d="M80.7662 126.473C81.2251 126.354 81.6363 126.061 81.8986 125.668C82.1966 125.22 82.3038 124.677 82.3992 124.146C81.8032 124.325 81.1655 124.033 80.5516 124.104C80.0629 124.158 79.604 124.462 79.3536 124.886C79.0318 125.441 78.9007 126.067 79.1868 126.324C79.4192 126.533 80.1523 126.634 80.7662 126.473Z" fill="#E6E6E6"/>
<path d="M78.4776 125.286C77.9293 125.632 77.226 125.721 76.6061 125.518C75.9863 125.315 75.8075 124.391 75.5691 123.782C76.1293 123.669 77.5478 123.746 77.8697 123.782C78.1915 123.812 78.5193 123.961 78.6921 124.235C78.865 124.51 78.8352 124.922 78.5729 125.107C78.561 125.095 78.4776 125.286 78.4776 125.286Z" fill="#E6E6E6"/>
<path d="M75.6584 126.288C76.0339 125.829 76.9637 125.5 77.5478 125.608C78.1318 125.715 78.6265 126.115 78.8351 126.592C78.6802 126.962 78.2689 127.171 77.8696 127.201C77.4703 127.231 77.0769 127.112 76.6955 126.992C76.314 126.873 75.9207 126.759 75.5214 126.783L75.6584 126.288Z" fill="#E6E6E6"/>
<path d="M87.1315 123.329C87.1315 123.329 87.7514 123.884 87.8765 124.665C88.0017 125.441 86.5892 126.372 86.5892 126.372C86.5892 126.372 85.5402 126.706 84.8012 126.055C84.0621 125.399 84.0621 125.399 84.0621 125.399C84.0621 125.399 86.3091 123.305 87.0302 123.496L87.1315 123.329Z" fill="#E6E6E6"/>
<path d="M83.4601 122.177C82.9833 123.353 83.2634 125.107 84.3124 125.536C85.3614 125.96 86.7798 124.898 87.2566 123.722C87.7334 122.547 86.899 122.159 85.8501 121.736C84.8071 121.306 83.9369 121.002 83.4601 122.177Z" fill="#E6E6E6"/>
<path d="M86.7321 122.798C86.7321 122.798 85.707 123.203 84.1276 122.296C84.1216 122.29 86.2493 124.904 86.7321 122.798Z" fill="#E6E6E6"/>
<path d="M86.0766 122.332C86.0766 122.332 85.1766 121.873 85.0395 122.267C85.0395 122.267 84.2468 121.974 84.4614 121.67C84.6819 121.366 86.0766 122.332 86.0766 122.332Z" fill="#E6E6E6"/>
<g opacity="0.2">
<path d="M86.7321 122.798C86.7321 122.798 85.707 123.203 84.1276 122.296C84.1216 122.29 86.2493 124.904 86.7321 122.798Z" fill="#FAFAFA"/>
</g>
<g opacity="0.2">
<path d="M86.0766 122.332C86.0766 122.332 85.1766 121.873 85.0395 122.267C85.0395 122.267 84.2468 121.974 84.4614 121.67C84.6819 121.366 86.0766 122.332 86.0766 122.332Z" fill="#FAFAFA"/>
</g>
<path d="M86.005 126.473C85.4925 126.927 84.7057 126.992 84.0799 126.718C83.4541 126.443 82.9952 125.853 82.7866 125.202C82.578 124.552 82.6019 123.842 82.7568 123.174C82.7985 123.001 82.9118 122.577 83.1561 122.577C83.3767 122.583 83.4184 122.905 83.472 123.066C83.627 123.532 83.8058 123.979 84.0501 124.409C84.2885 124.82 84.5806 125.208 84.9084 125.554C85.0037 125.656 85.9156 126.557 86.005 126.473Z" fill="#E6E6E6"/>
<path d="M82.1251 122.637C81.7734 123.066 81.6602 123.681 81.8509 124.206C81.9761 124.552 82.2085 124.838 82.4529 125.113C82.6198 125.304 82.8522 125.501 83.0966 125.435C83.3588 125.363 83.4363 125.029 83.4661 124.761C83.5078 124.343 83.5436 123.919 83.5614 123.502C83.5793 123.156 83.6926 122.607 83.5912 122.273C83.4959 121.962 83.1979 122.034 82.876 122.141C82.584 122.231 82.3218 122.404 82.1251 122.637Z" fill="#E6E6E6"/>
<g opacity="0.2">
<path d="M85.9395 125.721C86.3626 125.829 86.8394 125.674 87.1136 125.328C87.3162 125.077 87.5367 124.343 87.1911 124.14C86.8275 124.737 86.5057 125.28 85.9395 125.721Z" fill="#FAFAFA"/>
</g>
<g opacity="0.2">
<path d="M83.1383 124.826C82.7807 124.594 82.5482 124.17 82.5542 123.74C82.5542 123.502 82.9773 122.428 83.1621 122.988C83.2217 123.173 83.0548 123.651 83.0489 123.866C83.0429 124.188 83.0727 124.516 83.1383 124.826Z" fill="#FAFAFA"/>
</g>
<g opacity="0.2">
<path d="M84.4316 125.972C84.0502 126.139 83.5555 126.002 83.3171 125.662C83.2932 125.888 83.9131 126.276 84.0978 126.402C84.5925 126.73 84.9501 126.575 85.5461 126.521C85.5461 126.515 84.676 126.384 84.4316 125.972Z" fill="#FAFAFA"/>
</g>
<path d="M79.7113 143.514L79.9259 142.81L80.2119 141.862L80.5457 140.752L83.2217 131.939L83.5555 129.409L83.8535 127.165L83.9131 126.7L84.08 126.718V126.724L84.2528 126.742L84.2469 126.783L84.1873 127.225L83.8714 129.624L83.6091 131.575L83.5555 132.004L83.5317 132.076L80.5457 141.921L80.206 143.025L80.051 143.538L79.8424 144.236L79.7113 143.514Z" fill="#E0E0E0"/>
<path d="M83.2874 131.831L83.484 132.106C83.8476 131.849 84.2112 131.479 84.6403 131.056C85.2959 130.399 86.0409 129.653 87.0004 129.087L86.8276 128.794C85.8323 129.385 85.0694 130.149 84.4019 130.817C83.9847 131.235 83.6271 131.593 83.2874 131.831Z" fill="#E0E0E0"/>
<path d="M83.7701 129.564C83.3708 129.313 83.0609 128.914 82.9238 128.46C82.7688 127.947 82.8284 127.392 82.888 126.861C83.4006 127.207 84.0979 127.118 84.6641 127.368C85.1171 127.565 85.4627 127.989 85.576 128.466C85.719 129.093 85.6594 129.731 85.3137 129.886C85.0336 130.018 84.3065 129.898 83.7701 129.564Z" fill="#E6E6E6"/>
<path d="M86.303 129.105C86.7262 129.6 87.3758 129.892 88.0195 129.88C88.6692 129.868 89.1162 129.033 89.5214 128.526C89.0208 128.251 87.6381 127.911 87.3222 127.846C87.0063 127.78 86.6487 127.822 86.4044 128.037C86.16 128.245 86.0706 128.651 86.2613 128.908C86.2792 128.896 86.303 129.105 86.303 129.105Z" fill="#E6E6E6"/>
<path d="M88.7049 130.894C88.4785 130.346 87.6858 129.755 87.1017 129.689C86.5117 129.618 85.9216 129.856 85.5819 130.25C85.6177 130.65 85.9514 130.972 86.3269 131.115C86.7024 131.258 87.1136 131.264 87.5129 131.264C87.9123 131.264 88.3235 131.27 88.699 131.414L88.7049 130.894Z" fill="#E6E6E6"/>
<path d="M75.0565 122.642C75.0565 122.642 74.3712 123.126 74.1566 123.877C73.942 124.635 75.2353 125.727 75.2353 125.727C75.2353 125.727 76.2366 126.187 77.0472 125.62C77.8577 125.059 77.8578 125.059 77.8578 125.059C77.8578 125.059 75.8671 122.714 75.134 122.821L75.0565 122.642Z" fill="#E6E6E6"/>
<path d="M78.8351 121.932C79.1689 123.156 78.6861 124.868 77.5955 125.166C76.5048 125.465 75.2174 124.242 74.8836 123.018C74.5499 121.795 75.4201 121.509 76.5167 121.21C77.6014 120.906 78.5014 120.709 78.8351 121.932Z" fill="#E6E6E6"/>
<path d="M75.5154 122.159C75.5154 122.159 76.4869 122.678 78.1616 121.968C78.1616 121.968 75.7478 124.307 75.5154 122.159Z" fill="#E6E6E6"/>
<path d="M76.2188 121.777C76.2188 121.777 77.1664 121.425 77.2558 121.837C77.2558 121.837 78.0783 121.64 77.8995 121.312C77.7207 120.978 76.2188 121.777 76.2188 121.777Z" fill="#E6E6E6"/>
<g opacity="0.2">
<path d="M75.5154 122.159C75.5154 122.159 76.4869 122.678 78.1616 121.968C78.1616 121.968 75.7478 124.307 75.5154 122.159Z" fill="#FAFAFA"/>
</g>
<g opacity="0.2">
<path d="M76.2188 121.777C76.2188 121.777 77.1664 121.425 77.2558 121.837C77.2558 121.837 78.0783 121.64 77.8995 121.312C77.7207 120.978 76.2188 121.777 76.2188 121.777Z" fill="#FAFAFA"/>
</g>
<path d="M75.8015 125.9C76.2604 126.407 77.0352 126.574 77.6849 126.372C78.3405 126.169 78.865 125.644 79.1451 125.023C79.4312 124.403 79.4908 123.692 79.4073 123.012C79.3894 122.839 79.3179 122.398 79.0795 122.374C78.859 122.35 78.7815 122.666 78.71 122.821C78.5014 123.269 78.2749 123.692 77.9769 124.086C77.6908 124.468 77.3571 124.814 76.9935 125.125C76.8982 125.202 75.885 125.99 75.8015 125.9Z" fill="#E6E6E6"/>
<path d="M80.1106 122.541C80.4146 123.006 80.4504 123.633 80.2 124.128C80.0391 124.456 79.7709 124.713 79.4968 124.957C79.306 125.125 79.0557 125.298 78.8173 125.202C78.567 125.095 78.5253 124.761 78.5253 124.486C78.5312 124.062 78.5491 123.645 78.5789 123.221C78.6028 122.875 78.5551 122.314 78.6921 121.998C78.8233 121.7 79.1093 121.813 79.4193 121.95C79.6994 122.087 79.9438 122.29 80.1106 122.541Z" fill="#E6E6E6"/>
<g opacity="0.2">
<path d="M75.9625 125.154C75.5334 125.214 75.0745 124.999 74.842 124.629C74.6751 124.355 74.5381 123.603 74.9016 123.436C75.1937 124.074 75.4499 124.653 75.9625 125.154Z" fill="#FAFAFA"/>
</g>
<g opacity="0.2">
<path d="M78.8472 124.6C79.2286 124.409 79.5087 124.015 79.5564 123.591C79.5862 123.359 79.2882 122.237 79.0379 122.774C78.9544 122.953 79.0677 123.448 79.0498 123.657C79.02 123.979 78.9485 124.295 78.8472 124.6Z" fill="#FAFAFA"/>
</g>
<g opacity="0.2">
<path d="M77.4287 125.584C77.7922 125.793 78.2929 125.715 78.573 125.405C78.573 125.632 77.9114 125.942 77.7088 126.043C77.1784 126.312 76.8446 126.115 76.2605 125.99C76.2546 125.99 77.1366 125.966 77.4287 125.584Z" fill="#FAFAFA"/>
</g>
<path d="M80.6231 148.622L77.5895 131.676L77.5179 126.372L77.8577 126.366L77.9292 131.652L81.0105 148.884L80.6231 148.622Z" fill="#E0E0E0"/>
<path d="M77.8756 131.539L77.6491 131.79C77.3213 131.491 76.9995 131.085 76.624 130.608C76.0459 129.88 75.3962 129.051 74.5082 128.371L74.7168 128.102C75.6346 128.806 76.3021 129.653 76.8922 130.399C77.2498 130.865 77.5657 131.258 77.8756 131.539Z" fill="#E0E0E0"/>
<path d="M77.661 129.23C78.0901 129.027 78.4417 128.669 78.6325 128.233C78.847 127.738 78.853 127.183 78.853 126.646C78.2987 126.927 77.6193 126.76 77.0292 126.939C76.5584 127.082 76.1591 127.458 75.9922 127.923C75.7776 128.526 75.7597 129.17 76.0816 129.367C76.3557 129.534 77.0888 129.498 77.661 129.23Z" fill="#E6E6E6"/>
<path d="M75.1996 128.472C74.7228 128.914 74.0433 129.128 73.3996 129.039C72.756 128.949 72.4103 128.072 72.0706 127.517C72.601 127.302 74.0135 127.129 74.3354 127.1C74.6572 127.076 75.0029 127.159 75.2234 127.398C75.4439 127.637 75.4856 128.042 75.2592 128.281C75.2472 128.269 75.1996 128.472 75.1996 128.472Z" fill="#E6E6E6"/>
<path d="M72.607 129.97C72.8931 129.45 73.7513 128.961 74.3414 128.961C74.9314 128.961 75.4916 129.265 75.7837 129.701C75.7002 130.095 75.3307 130.375 74.9433 130.471C74.5559 130.572 74.1447 130.524 73.7513 130.477C73.352 130.429 72.9467 130.387 72.5593 130.483L72.607 129.97Z" fill="#E6E6E6"/>
<path d="M81.8687 138.228H78.3047C78.0365 138.222 77.7981 138.395 77.7206 138.651C77.4285 139.576 76.8027 142.011 76.8027 145.847C76.8027 150.06 77.8994 155.651 78.2451 157.303C78.3047 157.584 78.549 157.781 78.8291 157.787H81.3085C81.5946 157.787 81.833 157.584 81.8926 157.303C82.2383 155.651 83.3349 150.06 83.3349 145.847C83.3349 142.011 82.7091 139.582 82.4171 138.651C82.3515 138.407 82.125 138.234 81.8687 138.228Z" fill="#F0F0F0"/>
<path d="M180 256C243.821 256 295.559 252.976 295.559 249.246C295.559 245.515 243.821 242.491 180 242.491C116.179 242.491 64.4418 245.515 64.4418 249.246C64.4418 252.976 116.179 256 180 256Z" fill="#F5F5F5"/>
<path d="M102.985 226.023C102.783 226.011 102.622 225.838 102.628 225.635C103.069 208.099 103.975 179.333 104.022 179.172C104.082 178.969 104.296 178.861 104.493 178.915C104.696 178.975 104.809 179.19 104.749 179.386C104.737 179.422 103.826 208.29 103.39 225.647C103.385 225.856 103.212 226.023 103.003 226.017C102.997 226.023 102.991 226.023 102.985 226.023Z" fill="#263238"/>
<path d="M100.631 167.465C100.78 168.813 102.395 173.497 103.742 173.354C105.089 173.205 105.661 168.288 105.518 166.934C105.369 165.585 104.159 164.607 102.812 164.756C101.459 164.899 100.488 166.116 100.631 167.465Z" fill="#407BFF"/>
<path d="M107.181 182.233C107.032 180.884 105.417 176.2 104.07 176.349C102.723 176.499 102.151 181.415 102.294 182.77C102.443 184.118 103.653 185.097 105 184.948C106.353 184.798 107.33 183.587 107.181 182.233Z" fill="#407BFF"/>
<path d="M96.5305 178.128C97.8775 177.978 102.556 176.361 102.407 175.013C102.258 173.664 97.347 173.092 95.9941 173.235C94.6472 173.384 93.6697 174.595 93.8187 175.944C93.9677 177.298 95.1836 178.277 96.5305 178.128Z" fill="#407BFF"/>
<path d="M111.281 171.57C109.935 171.719 105.256 173.336 105.399 174.685C105.548 176.033 110.459 176.606 111.812 176.463C113.159 176.314 114.136 175.102 113.987 173.754C113.844 172.4 112.634 171.427 111.281 171.57Z" fill="#407BFF"/>
<path d="M96.3756 171.946C97.4364 172.799 101.883 174.965 102.735 173.903C103.587 172.841 100.512 168.956 99.4569 168.109C98.402 167.256 96.8524 167.429 96.0001 168.485C95.1478 169.547 95.3206 171.093 96.3756 171.946Z" fill="#407BFF"/>
<path d="M111.436 177.752C110.382 176.898 105.929 174.732 105.077 175.795C104.225 176.851 107.3 180.735 108.355 181.588C109.41 182.442 110.96 182.268 111.812 181.212C112.664 180.156 112.497 178.605 111.436 177.752Z" fill="#407BFF"/>
<path d="M101.006 182.388C101.859 181.332 104.022 176.875 102.961 176.021C101.906 175.168 98.0264 178.247 97.1741 179.303C96.3219 180.359 96.4947 181.911 97.5496 182.764C98.6105 183.617 100.154 183.45 101.006 182.388Z" fill="#407BFF"/>
<path d="M106.806 167.31C105.953 168.366 103.79 172.823 104.851 173.676C105.906 174.53 109.786 171.451 110.638 170.395C111.49 169.338 111.317 167.787 110.262 166.934C109.207 166.081 107.658 166.248 106.806 167.31Z" fill="#407BFF"/>
<g opacity="0.6">
<path d="M100.631 167.465C100.78 168.813 102.395 173.497 103.742 173.354C105.089 173.205 105.661 168.288 105.518 166.934C105.369 165.585 104.159 164.607 102.812 164.756C101.459 164.899 100.488 166.116 100.631 167.465Z" fill="white"/>
<path d="M107.181 182.233C107.032 180.884 105.417 176.2 104.07 176.349C102.723 176.499 102.151 181.415 102.294 182.77C102.443 184.118 103.653 185.097 105 184.948C106.353 184.798 107.33 183.587 107.181 182.233Z" fill="white"/>
<path d="M96.5305 178.128C97.8775 177.978 102.556 176.361 102.407 175.013C102.258 173.664 97.347 173.092 95.9941 173.235C94.6472 173.384 93.6697 174.595 93.8187 175.944C93.9677 177.298 95.1836 178.277 96.5305 178.128Z" fill="white"/>
<path d="M111.281 171.57C109.935 171.719 105.256 173.336 105.399 174.685C105.548 176.033 110.459 176.606 111.812 176.463C113.159 176.314 114.136 175.102 113.987 173.754C113.844 172.4 112.634 171.427 111.281 171.57Z" fill="white"/>
<path d="M96.3756 171.946C97.4364 172.799 101.883 174.965 102.735 173.903C103.587 172.841 100.512 168.956 99.4569 168.109C98.402 167.256 96.8524 167.429 96.0001 168.485C95.1478 169.547 95.3206 171.093 96.3756 171.946Z" fill="white"/>
<path d="M111.436 177.752C110.382 176.898 105.929 174.732 105.077 175.795C104.225 176.851 107.3 180.735 108.355 181.588C109.41 182.442 110.96 182.268 111.812 181.212C112.664 180.156 112.497 178.605 111.436 177.752Z" fill="white"/>
<path d="M101.006 182.388C101.859 181.332 104.022 176.875 102.961 176.021C101.906 175.168 98.0264 178.247 97.1741 179.303C96.3219 180.359 96.4947 181.911 97.5496 182.764C98.6105 183.617 100.154 183.45 101.006 182.388Z" fill="white"/>
<path d="M106.806 167.31C105.953 168.366 103.79 172.823 104.851 173.676C105.906 174.53 109.786 171.451 110.638 170.395C111.49 169.338 111.317 167.787 110.262 166.934C109.207 166.081 107.658 166.248 106.806 167.31Z" fill="white"/>
</g>
<path d="M101.012 175.162C101.185 176.761 102.622 177.919 104.219 177.746C105.816 177.573 106.972 176.135 106.8 174.536C106.627 172.936 105.19 171.779 103.593 171.952C101.996 172.125 100.84 173.563 101.012 175.162Z" fill="#407BFF"/>
<path d="M101.298 213.177C97.943 213.248 92.1976 210.145 89.9328 207.114C87.6382 204.041 94.075 205.933 93.4074 203.516C92.7399 201.1 84.8191 202.908 83.347 199.447C81.8748 195.986 87.5964 196.762 87.364 194.996C87.1316 193.224 81.2073 193.6 79.2942 189.924C77.381 186.242 82.596 188.295 81.7735 186.768C80.951 185.24 74.401 178.832 77.1307 177.483C79.8604 176.135 85.9992 182.812 88.0554 183.551C90.1116 184.291 90.5764 179.667 93.2525 181.869C95.9285 184.071 93.9558 193.749 97.1026 195.014C99.4449 195.956 98.4377 191.535 101.138 192.645C105.864 194.584 102.663 213.147 101.298 213.177Z" fill="#407BFF"/>
<g opacity="0.2">
<path d="M101.298 213.177C97.943 213.248 92.1976 210.145 89.9328 207.114C87.6382 204.041 94.075 205.933 93.4074 203.516C92.7399 201.1 84.8191 202.908 83.347 199.447C81.8748 195.986 87.5964 196.762 87.364 194.996C87.1316 193.224 81.2073 193.6 79.2942 189.924C77.381 186.242 82.596 188.295 81.7735 186.768C80.951 185.24 74.401 178.832 77.1307 177.483C79.8604 176.135 85.9992 182.812 88.0554 183.551C90.1116 184.291 90.5764 179.667 93.2525 181.869C95.9285 184.071 93.9558 193.749 97.1026 195.014C99.4449 195.956 98.4377 191.535 101.138 192.645C105.864 194.584 102.663 213.147 101.298 213.177Z" fill="white"/>
</g>
<path d="M106.126 208.91C106.18 209.006 105.679 209.483 107.336 209.549C111.419 209.716 118.636 209.441 121.348 205.724C125.216 200.42 116.294 200.903 117.158 197.979C118.028 195.055 127.618 197.442 129.489 193.265C131.361 189.089 124.388 189.906 124.709 187.752C125.031 185.604 132.35 188.391 134.764 183.957C137.178 179.524 130.783 181.899 131.82 180.061C132.857 178.223 140.974 170.58 137.684 168.879C134.394 167.179 126.772 175.156 124.256 176.009C121.741 176.863 121.157 169.04 117.855 171.654C114.548 174.273 116.717 186.087 112.861 187.549C109.988 188.641 111.556 184.411 108.01 184.572C103.2 184.798 101.614 201.356 106.126 208.91Z" fill="#407BFF"/>
<g opacity="0.3">
<path d="M106.126 208.91C106.18 209.006 105.679 209.483 107.336 209.549C111.419 209.716 118.636 209.441 121.348 205.724C125.216 200.42 116.294 200.903 117.158 197.979C118.028 195.055 127.618 197.442 129.489 193.265C131.361 189.089 124.388 189.906 124.709 187.752C125.031 185.604 132.35 188.391 134.764 183.957C137.178 179.524 130.783 181.899 131.82 180.061C132.857 178.223 140.974 170.58 137.684 168.879C134.394 167.179 126.772 175.156 124.256 176.009C121.741 176.863 121.157 169.04 117.855 171.654C114.548 174.273 116.717 186.087 112.861 187.549C109.988 188.641 111.556 184.411 108.01 184.572C103.2 184.798 101.614 201.356 106.126 208.91Z" fill="white"/>
</g>
<path d="M103.069 223.374C103.063 223.374 103.057 223.374 103.045 223.374C102.902 223.356 102.794 223.225 102.812 223.075C106.162 195.616 121.962 184.458 122.123 184.351C122.242 184.268 122.409 184.297 122.492 184.423C122.576 184.542 122.546 184.709 122.427 184.793C122.272 184.9 106.663 195.939 103.343 223.147C103.325 223.278 103.2 223.38 103.069 223.374Z" fill="#263238"/>
<path d="M118.523 188.164C118.416 188.158 118.314 188.086 118.279 187.979C118.231 187.842 118.308 187.686 118.451 187.645C118.547 187.615 120.901 186.869 124.757 187.686C124.9 187.716 124.99 187.86 124.96 188.003C124.93 188.146 124.787 188.241 124.644 188.206C120.937 187.418 118.636 188.14 118.612 188.146C118.589 188.164 118.559 188.164 118.523 188.164Z" fill="#263238"/>
<path d="M115.609 191.499C115.466 191.493 115.358 191.38 115.352 191.237C115.269 182.931 120.073 176.445 120.12 176.379C120.21 176.26 120.377 176.236 120.49 176.326C120.609 176.415 120.633 176.582 120.543 176.696C120.496 176.761 115.799 183.11 115.883 191.225C115.883 191.374 115.764 191.493 115.62 191.493C115.615 191.499 115.609 191.499 115.609 191.499Z" fill="#263238"/>
<path d="M110.9 198.528C110.835 198.528 110.769 198.498 110.715 198.444C110.614 198.337 110.62 198.17 110.727 198.069C110.763 198.033 114.315 194.745 118.97 196.416C119.107 196.464 119.179 196.619 119.131 196.756C119.083 196.893 118.928 196.965 118.791 196.917C114.44 195.354 111.121 198.427 111.091 198.456C111.037 198.504 110.972 198.528 110.9 198.528Z" fill="#263238"/>
<path d="M108.439 203.427C108.337 203.421 108.248 203.361 108.206 203.266C108.129 203.093 106.388 198.916 107.348 192.967C107.372 192.824 107.503 192.722 107.652 192.746C107.795 192.77 107.896 192.907 107.872 193.05C106.937 198.838 108.677 203.015 108.695 203.057C108.754 203.194 108.689 203.349 108.552 203.403C108.516 203.427 108.48 203.433 108.439 203.427Z" fill="#263238"/>
<path d="M103.17 233.183C103.033 233.177 102.92 233.064 102.914 232.927L102.568 225.653C101.549 201.476 84.986 185.025 84.8191 184.864C84.7119 184.763 84.7119 184.596 84.8132 184.488C84.9145 184.381 85.0814 184.381 85.1887 184.482C85.3555 184.649 102.073 201.231 103.098 225.635L103.444 232.909C103.45 233.058 103.331 233.177 103.188 233.183C103.188 233.183 103.176 233.183 103.17 233.183Z" fill="#263238"/>
<path d="M91.6552 193.946C91.6433 193.946 91.6254 193.946 91.6135 193.94C91.5897 193.934 91.5599 193.922 91.536 193.91L91.4526 193.874C89.2831 192.973 86.8574 192.502 84.6284 192.555C84.4794 192.561 84.3602 192.442 84.3542 192.293C84.3483 192.144 84.4675 192.024 84.6165 192.018C86.917 191.971 89.4202 192.448 91.6552 193.379L91.7446 193.415C91.7625 193.421 91.7744 193.427 91.7923 193.438C91.8936 193.492 91.9592 193.612 91.9294 193.731C91.8996 193.862 91.7804 193.952 91.6552 193.946Z" fill="#263238"/>
<path d="M93.9975 197.06C93.9915 197.06 93.9916 197.06 93.9856 197.06C93.8366 197.048 93.7293 196.917 93.7472 196.774C94.3909 189.638 90.6957 183.766 90.6599 183.707C90.5824 183.581 90.6182 183.42 90.7433 183.337C90.8685 183.259 91.0294 183.295 91.1129 183.42C91.1486 183.48 94.9392 189.5 94.2836 196.822C94.2598 196.959 94.1405 197.066 93.9975 197.06Z" fill="#263238"/>
<path d="M96.4173 201.195C96.3517 201.195 96.2862 201.165 96.2385 201.118C96.2087 201.088 93.5207 198.433 89.5812 199.483C89.4381 199.524 89.2951 199.435 89.2534 199.292C89.2176 199.149 89.3011 199.005 89.4441 198.964C93.6876 197.83 96.4948 200.622 96.614 200.742C96.7153 200.849 96.7153 201.016 96.614 201.118C96.5603 201.171 96.4888 201.195 96.4173 201.195Z" fill="#263238"/>
<path d="M99.4867 208.009C99.4509 208.009 99.4092 207.998 99.3734 207.98C99.2423 207.914 99.1946 207.753 99.2602 207.622C99.2781 207.586 101.102 204.018 100.685 198.868C100.673 198.719 100.78 198.594 100.929 198.582C101.078 198.564 101.203 198.677 101.215 198.827C101.644 204.137 99.8085 207.717 99.731 207.866C99.6834 207.962 99.582 208.009 99.4867 208.009Z" fill="#263238"/>
<path d="M118.112 234.329C118.112 242.808 114.303 249.687 102.765 249.687C91.7505 249.687 87.4176 242.808 87.4176 234.329C87.4176 231.131 88.401 228.153 90.0698 225.695H115.465C117.128 228.153 118.112 231.125 118.112 234.329Z" fill="#407BFF"/>
<path opacity="0.7" d="M118.112 234.329C118.112 242.808 114.303 249.687 102.765 249.687C91.7505 249.687 87.4176 242.808 87.4176 234.329C87.4176 231.131 88.401 228.153 90.0698 225.695H115.465C117.128 228.153 118.112 231.125 118.112 234.329Z" fill="white"/>
<path d="M206.284 242.187L212.22 241.322L210.724 227.413L204.782 228.284L206.284 242.187Z" fill="#E8BFBF"/>
<path d="M216.785 241.531C217.304 241.495 217.787 241.28 218.168 240.928C218.329 240.725 218.383 240.451 218.305 240.2C218.269 240.045 218.156 239.914 218.007 239.866C217.214 239.58 215.045 241.185 214.801 241.364C214.753 241.399 214.735 241.465 214.747 241.525C214.765 241.578 214.819 241.62 214.878 241.62C215.516 241.644 216.154 241.614 216.785 241.531ZM217.62 240.134C217.709 240.111 217.804 240.117 217.888 240.14C217.948 240.158 217.995 240.212 218.013 240.278C218.061 240.445 218.031 240.624 217.924 240.755C217.62 241.137 216.648 241.352 215.295 241.352C215.999 240.815 216.791 240.397 217.632 240.123L217.62 240.134Z" fill="#407BFF"/>
<path d="M214.914 241.62L214.962 241.596C215.623 241.161 216.809 239.651 216.583 238.995C216.517 238.846 216.392 238.661 215.993 238.684C215.707 238.69 215.432 238.816 215.242 239.037C214.598 239.776 214.729 241.405 214.729 241.471C214.729 241.519 214.747 241.566 214.789 241.596C214.824 241.626 214.872 241.632 214.914 241.62ZM215.909 238.983L215.987 238.947C216.249 238.935 216.279 239.031 216.285 239.066C216.422 239.46 215.635 240.624 214.979 241.161C214.92 240.474 215.075 239.788 215.432 239.204C215.558 239.072 215.73 238.989 215.915 238.977L215.909 238.983Z" fill="#407BFF"/>
<path d="M211.612 238.857L206.349 240.116C206.111 240.164 205.95 240.385 205.974 240.629L206.147 248.255C206.218 248.792 206.713 249.162 207.243 249.09C207.279 249.084 207.315 249.078 207.351 249.067C209.633 248.5 210.706 248.112 213.609 247.444C215.385 247.032 221.017 246.608 223.323 245.582C225.63 244.556 224.73 242.211 223.681 242.437C220.296 243.165 215.951 241.715 213.483 239.508C213.15 239.335 211.976 238.762 211.612 238.857Z" fill="#263238"/>
<path opacity="0.2" d="M210.724 227.413L211.493 234.585L205.557 235.456L204.782 228.29L210.724 227.413Z" fill="black"/>
<path d="M213.895 231.632L202.91 233.684C202.91 233.684 197.576 226.059 196.569 220.647C195.52 215.008 196.641 195.819 196.569 195.562C193.464 185.061 185.019 157.852 180.948 147.84C178.689 142.291 177.104 138.556 177.104 138.556L178.242 138.299L187.206 134.624L193.738 135.859C193.738 135.859 213.591 176.051 215.677 191.171C217.232 202.46 213.895 231.632 213.895 231.632Z" fill="#407BFF"/>
<path opacity="0.3" d="M213.895 231.632L202.91 233.684C202.91 233.684 197.576 226.059 196.569 220.647C195.52 215.008 196.641 195.819 196.569 195.562C193.464 185.061 185.019 157.852 180.948 147.84C178.689 142.291 177.104 138.556 177.104 138.556L178.242 138.299L187.206 134.624L193.738 135.859C193.738 135.859 213.591 176.051 215.677 191.171C217.232 202.46 213.895 231.632 213.895 231.632Z" fill="white"/>
<path opacity="0.2" d="M193.982 186.475C190.877 175.973 184.607 160.048 180.531 150.036L177.831 140.495L177.312 138.657L178.26 140.394L188.898 163.992C193.595 173.02 194.054 186.726 193.982 186.475Z" fill="black"/>
<path d="M145.772 238.911L151.064 241.143L156.709 229.018L151.422 226.787L145.772 238.911Z" fill="#E8BFBF"/>
<path d="M154.509 243.685C154.926 243.947 155.427 244.061 155.916 244.001C156.154 243.935 156.351 243.756 156.428 243.518C156.488 243.381 156.476 243.213 156.387 243.088C155.934 242.42 153.353 242.426 153.067 242.432C153.007 242.432 152.96 242.474 152.936 242.521C152.918 242.575 152.942 242.635 152.983 242.67C153.466 243.058 153.973 243.392 154.509 243.685ZM155.94 243.082C156.023 243.118 156.095 243.172 156.142 243.243C156.178 243.291 156.184 243.363 156.16 243.416C156.107 243.571 155.981 243.691 155.82 243.739C155.367 243.858 154.503 243.476 153.454 242.712C154.301 242.694 155.147 242.82 155.952 243.088L155.94 243.082Z" fill="#407BFF"/>
<path d="M153.013 242.7L153.061 242.712C153.812 242.748 155.588 242.253 155.785 241.62C155.814 241.471 155.826 241.256 155.505 241.047C155.278 240.886 154.998 240.833 154.73 240.892C153.818 241.101 152.995 242.426 152.96 242.479C152.93 242.515 152.918 242.569 152.936 242.611C152.942 242.647 152.972 242.682 153.013 242.7ZM155.272 241.226L155.356 241.244C155.564 241.382 155.534 241.477 155.522 241.507C155.409 241.889 154.146 242.342 153.335 242.39C153.675 241.829 154.187 241.388 154.789 241.137C154.962 241.107 155.141 241.143 155.29 241.238L155.272 241.226Z" fill="#407BFF"/>
<path d="M152.024 238.696L147.25 236.686C147.041 236.59 146.791 236.668 146.672 236.871L142.5 242.855C142.256 243.309 142.422 243.876 142.875 244.12C142.905 244.138 142.941 244.15 142.971 244.168C145.051 245.021 146.1 245.331 148.722 246.453C150.325 247.145 154.915 249.997 157.275 250.511C159.635 251.024 160.261 248.709 159.325 248.279C156.303 246.925 153.764 243.35 153.103 240.248C152.942 239.932 152.358 238.828 152.024 238.696Z" fill="#263238"/>
<path opacity="0.2" d="M156.941 229.162L153.878 235.337L148.645 232.986L151.696 226.805L156.941 229.162Z" fill="black"/>
<path d="M158.044 235.892L147.506 230.271C147.506 230.271 145.486 222.759 147.506 217.968C151.392 208.749 161.512 195.193 161.578 194.936C164.278 184.321 169.01 155.263 170.631 144.571C171.531 138.646 172.055 137.369 172.055 137.369L173.17 137.733L189.292 137.762C189.292 137.762 192.331 162.208 180.674 200.056C177.771 209.471 172.914 217.3 164.915 227.897C161.882 231.918 158.044 235.892 158.044 235.892Z" fill="#407BFF"/>
<path opacity="0.3" d="M158.044 235.892L147.506 230.271C147.506 230.271 145.486 222.759 147.506 217.968C151.392 208.749 161.512 195.193 161.578 194.936C164.278 184.321 169.01 155.263 170.631 144.571C171.531 138.646 172.055 137.369 172.055 137.369L173.17 137.733L189.292 137.762C189.292 137.762 192.331 162.208 180.674 200.056C177.771 209.471 172.914 217.3 164.915 227.897C161.882 231.918 158.044 235.892 158.044 235.892Z" fill="white"/>
<path d="M203.578 117.792C203.697 115.978 204.895 113.645 205.932 112.565C206.266 112.219 207.524 111.694 208.233 111.228C211.731 108.931 218.74 106.061 218.74 106.061L220.904 107.947C220.904 107.947 216.636 112.076 214.097 114.057C213.597 114.444 213.019 114.916 212.411 115.417C211.308 116.342 206.105 119.773 205.116 120.632L203.578 117.792Z" fill="#E8BFBF"/>
<path d="M224.903 104.999L220.904 107.958L218.663 106.306C218.663 106.306 219.581 105.136 220.516 104.235C220.928 103.835 221.154 103.292 221.16 102.72C221.166 101.836 221.303 100.816 221.78 100.064C221.792 100.046 221.798 100.029 221.81 100.017C222.674 98.7099 224.706 99.1037 225.111 100.613L225.69 102.749C225.916 103.585 225.606 104.48 224.903 104.999Z" fill="#E8BFBF"/>
<path d="M204.853 118.591L203.799 119.558C203.471 119.295 202.946 118.872 202.291 118.329C197.153 114.056 184.274 103.704 189.411 100.745C193.81 98.2087 198.488 105.966 200.819 108.293C201.295 108.776 202.595 110.274 203.644 112.159C204.74 114.134 205.551 116.527 204.853 118.591Z" fill="#263238"/>
<path d="M203.638 111.234C201.814 112.571 200.258 114.265 199.084 116.198C199.93 119.003 202.058 121.437 204.74 122.607C206.212 119.194 206.892 115.518 206.606 111.813C205.676 111.61 204.567 111.431 203.638 111.234Z" fill="#263238"/>
<path d="M175.357 100.142C173.522 100.733 171.418 100.261 170.238 101.789C169.058 103.316 168.706 105.339 168.706 107.272C168.706 109.957 169.32 112.607 169.934 115.22C170.673 118.394 171.412 121.569 172.157 124.743C172.663 126.915 172.133 136.999 172.669 137.172C172.669 137.172 189.518 136.844 193.744 136.247C193.744 136.247 194.114 125.877 194.447 122.344C194.525 121.563 195.711 118.233 195.848 117.398C196.503 113.46 195.216 110.679 193.851 106.926C193.851 106.926 190.865 100.912 189.411 100.751C186.818 100.458 180.477 98.4951 175.357 100.142Z" fill="#263238"/>
<path d="M174.648 105.118C174.589 104.766 171.597 98.7217 168.73 102.946C164.743 108.829 164.474 116.216 164.474 116.216C164.474 116.216 162.025 123.4 163.729 124.97C165.44 126.539 167.282 127.547 168.474 126.658C169.666 125.769 170.44 123.991 170.44 123.991C170.44 123.991 175.697 111.276 174.648 105.118Z" fill="#263238"/>
<path d="M174.451 97.8982C173.194 98.8827 173.361 101.156 174.743 101.95C174.398 103.167 174.803 104.575 175.751 105.416C176.698 106.258 178.141 106.496 179.309 106.007C178.802 106.914 179.374 108.107 180.245 108.668C181.115 109.229 182.193 109.331 183.219 109.468C184.244 109.605 185.328 109.826 186.079 110.548C187.14 109.02 188.201 107.487 189.268 105.959C189.679 105.363 190.108 104.724 190.144 104.002C190.174 103.28 189.626 102.481 188.904 102.534C189.637 101.771 189.655 100.422 188.934 99.6405C188.219 98.8589 186.878 98.7574 186.05 99.4257C186.199 98.8111 185.841 98.1608 185.322 97.8027C184.804 97.4447 184.16 97.3194 183.534 97.2598L174.451 97.8982Z" fill="#263238"/>
<path d="M176.365 90.1116C177.193 93.1546 178.2 98.7694 176.186 100.989C176.186 100.989 181.878 103.268 185.918 107.851C187.802 106.019 187.605 103.96 187.027 102.457C186.58 101.293 185.62 100.428 184.47 99.9389C182.253 98.9961 182.235 96.8123 182.605 94.7239L176.365 90.1116Z" fill="#E8BFBF"/>
<path opacity="0.2" d="M177.604 95.2969L179.696 95.8637C180.59 96.1084 181.532 96.1621 182.45 96.0248C182.444 96.4783 182.36 97.433 182.646 97.9402C181.442 98.5189 179.41 98.1251 178.516 97.063C178.141 96.6513 177.807 95.816 177.604 95.2969Z" fill="black"/>
<path d="M172.306 87.5221C174.523 92.2 175.357 94.2287 178.772 95.7204C183.91 97.9699 189.155 94.2108 188.374 88.966C187.677 84.2463 184.166 77.3845 178.713 77.3607C174.815 77.3249 171.626 80.4514 171.585 84.3537C171.579 85.4456 171.823 86.5316 172.306 87.5221Z" fill="#E8BFBF"/>
<path d="M174.737 78.5839C173.122 77.8321 171.12 78.4467 169.773 79.6281C168.408 80.8334 167.574 82.516 166.775 84.1569C166.34 85.046 165.905 85.9529 165.702 86.9195C165.499 87.8921 165.559 88.9542 166.072 89.8015C166.572 90.6309 167.508 91.1798 168.474 91.2335C169.028 91.2633 169.677 91.6691 169.862 92.1942C170.029 92.6834 169.952 93.2145 169.874 93.7217C169.797 94.2169 169.725 94.73 169.88 95.2014C170.136 95.989 170.977 96.4664 171.805 96.5499C172.628 96.6275 173.444 96.3888 174.243 96.1561C174.743 96.0069 175.25 96.0905 175.643 96.4425C175.739 96.532 175.822 96.6335 175.882 96.7528C176.126 97.2242 176.841 97.1466 177.05 96.6573C177.771 94.9389 176.722 92.2001 175.161 90.1058C174.332 88.996 174.374 89.2764 174.052 87.9279C173.778 86.8062 174.189 85.6367 174.696 84.5985C175.363 83.2142 176.227 81.8597 175.959 80.2069C175.834 79.5088 175.381 78.8823 174.737 78.5839Z" fill="#263238"/>
<path d="M172.443 92.3074C173.176 93.089 174.195 93.5485 175.268 93.5843C176.692 93.6141 177.05 92.2537 176.365 91.0961C175.745 90.0519 174.255 88.781 172.967 89.2822C171.68 89.7894 171.549 91.3348 172.443 92.3074Z" fill="#E8BFBF"/>
<path d="M181.21 86.6869C181.377 87.0986 181.699 87.3134 181.955 87.206C182.211 87.0986 182.277 86.7108 182.134 86.311C181.991 85.9112 181.645 85.6904 181.389 85.7919C181.132 85.8993 181.055 86.2991 181.21 86.6869Z" fill="#263238"/>
<path d="M185.573 84.8073C185.734 85.219 186.061 85.4338 186.318 85.3323C186.568 85.2309 186.64 84.8371 186.497 84.4373C186.354 84.0375 186.008 83.8168 185.752 83.9122C185.495 84.0077 185.418 84.4194 185.573 84.8073Z" fill="#263238"/>
<path d="M185.638 83.9897L186.467 83.3394C186.467 83.3394 186.288 84.2642 185.638 83.9897Z" fill="#263238"/>
<path d="M184.44 85.6843C185.454 86.6867 186.216 86.8657 187.313 87.5579C187.283 88.5305 186.365 88.7572 186.365 88.7572L184.44 85.6843Z" fill="#ED847E"/>
<path d="M185.901 90.6665C186.091 90.5949 186.27 90.5114 186.449 90.41C186.509 90.3801 186.526 90.3085 186.497 90.2489C186.497 90.2489 186.497 90.2429 186.491 90.2429C186.455 90.1832 186.383 90.1653 186.324 90.1892C185.4 90.7262 184.274 90.7859 183.296 90.3503C183.236 90.3205 183.159 90.3384 183.129 90.404C183.099 90.4637 183.117 90.5412 183.183 90.5711C184.041 90.9649 185.019 91.0007 185.901 90.6665Z" fill="#263238"/>
<path d="M181.049 83.4409C181.043 83.5543 180.966 83.6498 180.858 83.6796C179.714 84.0197 179.207 85.4697 179.207 85.4816C179.16 85.6188 179.017 85.6904 178.88 85.6427C178.743 85.595 178.671 85.4518 178.719 85.3145C178.76 85.2608 179.315 83.5961 180.709 83.1784C180.846 83.1426 180.989 83.2202 181.031 83.3514C181.043 83.3813 181.049 83.4111 181.049 83.4409Z" fill="#263238"/>
<path d="M186.324 82.7368C186.228 82.7965 186.109 82.7845 186.02 82.7129C185.09 81.9671 183.606 82.3788 183.6 82.3788C183.463 82.4206 183.32 82.343 183.278 82.2058C183.236 82.0685 183.314 81.9253 183.451 81.8835C183.522 81.8895 185.203 81.3943 186.342 82.3012C186.449 82.3907 186.467 82.5518 186.383 82.6652C186.365 82.695 186.348 82.7189 186.324 82.7368Z" fill="#263238"/>
<path d="M181.287 85.8634L182.116 85.219C182.116 85.219 181.925 86.1438 181.287 85.8634Z" fill="#263238"/>
<path d="M175.095 77.8022C173.796 77.9037 172.556 78.6495 171.853 79.7474C171.382 80.4873 171.215 81.609 171.912 82.1341C172.24 82.3787 172.675 82.4265 173.081 82.4623C174.893 82.6234 177.133 81.2212 177.133 81.2212C176.436 78.2557 182.646 75.9585 185.71 80.5529C186.61 81.9014 186.366 82.8799 187.861 83.5065C188.565 83.7988 189.495 83.7213 189.947 84.3358C190.698 85.3562 189.256 87.0865 190.174 87.9636C190.8 88.5663 192.218 88.3336 192.302 89.1988C192.343 89.6045 192.075 90.1893 192.469 90.3086C192.683 90.3742 192.88 90.1773 193.023 89.9983C193.363 89.5687 193.708 89.1212 193.821 88.5902C193.935 88.0591 193.75 87.4147 193.249 87.188C192.868 87.0149 191.861 87.2059 191.932 87.6235C192.016 88.1188 191.586 85.6784 191.777 84.7595C191.944 83.9599 192.707 83.2618 192.474 82.4742C192.224 81.6329 191.229 81.2988 190.365 81.1734C189.5 81.0481 188.517 80.9407 187.987 80.2486C187.397 79.4729 187.665 78.3631 187.474 77.4084C187.23 76.1912 186.216 75.2425 185.078 74.7472C181.627 73.2436 176.281 73.4524 175.095 77.8022Z" fill="#263238"/>
<path d="M184.911 93.7217L172.997 99.7124C169.081 101.681 167.305 106.318 168.909 110.405L174.654 125.077C176.257 129.164 180.703 131.36 184.917 130.143L197.731 126.444C202.535 125.059 205.104 119.838 203.28 115.178L196.635 98.2088C194.805 93.5606 189.375 91.4782 184.911 93.7217ZM182.938 118.925C180.28 119.97 177.282 118.657 176.239 115.996C175.196 113.335 176.508 110.333 179.166 109.295C181.824 108.251 184.822 109.564 185.865 112.225C186.908 114.88 185.597 117.881 182.938 118.925Z" fill="#407BFF"/>
<path d="M184.911 93.7217L172.997 99.7124C169.081 101.681 167.305 106.318 168.909 110.405L174.654 125.077C176.257 129.164 180.703 131.36 184.917 130.143L197.731 126.444C202.535 125.059 205.104 119.838 203.28 115.178L196.635 98.2088C194.805 93.5606 189.375 91.4782 184.911 93.7217ZM182.938 118.925C180.28 119.97 177.282 118.657 176.239 115.996C175.196 113.335 176.508 110.333 179.166 109.295C181.824 108.251 184.822 109.564 185.865 112.225C186.908 114.88 185.597 117.881 182.938 118.925Z" fill="#407BFF"/>
<path opacity="0.1" d="M203.274 115.19L196.623 98.2207C194.799 93.5606 189.369 91.4782 184.905 93.7217L181.443 95.464L179.118 96.6335L172.991 99.7183C169.07 101.687 167.299 106.324 168.897 110.411L174.642 125.083C176.245 129.17 180.692 131.366 184.905 130.149L197.725 126.45C198.774 126.145 199.716 125.656 200.532 125.029C201.164 124.546 201.718 123.985 202.177 123.359C203.864 121.091 204.389 118.036 203.274 115.19ZM182.939 118.925C180.286 119.97 177.282 118.657 176.245 115.996C175.202 113.341 176.514 110.333 179.172 109.295C181.824 108.251 184.828 109.564 185.865 112.219C186.902 114.88 185.597 117.881 182.939 118.925Z" fill="white"/>
<path d="M185.031 94.8375L173.856 100.458C170.178 102.308 168.521 106.652 170.017 110.482L175.405 124.242C176.907 128.072 181.079 130.137 185.031 128.991L197.052 125.519C201.558 124.218 203.965 119.325 202.255 114.957L196.021 99.0441C194.316 94.6883 189.22 92.7312 185.031 94.8375ZM176.24 115.996C175.197 113.334 176.508 110.333 179.166 109.295C181.824 108.251 184.822 109.563 185.865 112.225C186.908 114.886 185.597 117.887 182.939 118.925C180.28 119.964 177.283 118.651 176.24 115.996Z" fill="#407BFF"/>
<path opacity="0.1" d="M185.031 94.8375L173.856 100.458C170.178 102.308 168.521 106.652 170.017 110.482L175.405 124.242C176.907 128.072 181.079 130.137 185.031 128.991L197.052 125.519C201.558 124.218 203.965 119.325 202.255 114.957L196.021 99.0441C194.316 94.6883 189.22 92.7312 185.031 94.8375ZM176.24 115.996C175.197 113.334 176.508 110.333 179.166 109.295C181.824 108.251 184.822 109.563 185.865 112.225C186.908 114.886 185.597 117.887 182.939 118.925C180.28 119.964 177.283 118.651 176.24 115.996Z" fill="#407BFF"/>
<path d="M240.566 89.5329L240.226 90.1595L240.035 90.5055L239.499 91.49L239.725 94.014C239.737 94.1214 239.725 94.2288 239.69 94.3302C239.618 94.551 239.451 94.73 239.231 94.8195L234.522 96.6632C234.302 96.7527 234.057 96.7289 233.855 96.6155C233.789 96.5797 233.73 96.532 233.676 96.4783L231.012 93.7694L231.006 93.7634L227.221 95.2491L227.77 96.6513L223.985 98.137L224.891 100.446L222.102 101.538C221.875 101.628 221.619 101.61 221.41 101.502C221.339 101.467 221.279 101.419 221.22 101.365L219.61 99.8495L215.826 101.335L216.732 103.644L212.75 105.208L213.656 107.523C213.805 107.899 213.621 108.328 213.239 108.477L202.332 112.75L197.6 100.667L237.049 85.207L237.669 85.5233L239.672 86.5496C240.739 87.1045 241.156 88.4589 240.566 89.5329Z" fill="#407BFF"/>
<g opacity="0.1">
<path d="M240.566 89.5329L240.226 90.1595L240.035 90.5055L239.499 91.49L239.725 94.014C239.737 94.1214 239.725 94.2288 239.69 94.3302C239.618 94.551 239.451 94.73 239.231 94.8195L234.522 96.6632C234.302 96.7527 234.057 96.7289 233.855 96.6155C233.789 96.5797 233.73 96.532 233.676 96.4783L231.012 93.7694L231.006 93.7634L227.221 95.2491L227.77 96.6513L223.985 98.137L224.891 100.446L222.102 101.538C221.875 101.628 221.619 101.61 221.41 101.502C221.339 101.467 221.279 101.419 221.22 101.365L219.61 99.8495L215.826 101.335L216.732 103.644L212.75 105.208L213.656 107.523C213.805 107.899 213.621 108.328 213.239 108.477L202.332 112.75L197.6 100.667L237.049 85.207L237.669 85.5233L239.672 86.5496C240.739 87.1045 241.156 88.4589 240.566 89.5329Z" fill="white"/>
</g>
<path d="M240.411 88.1547L198.238 104.683L197.01 101.58L237.216 85.8276L239.219 86.8539C239.982 87.2418 240.417 87.6057 240.411 88.1547Z" fill="#407BFF"/>
<path opacity="0.1" d="M240.411 88.1547L198.238 104.683L197.01 101.58L237.216 85.8276L239.219 86.8539C239.982 87.2418 240.417 87.6057 240.411 88.1547Z" fill="black"/>
<path d="M239.576 90.4876L239.171 91.4065C239.165 91.4244 239.159 91.4364 239.165 91.4543L239.392 93.9543C239.398 94.0438 239.392 94.1333 239.368 94.2229C239.362 94.2527 239.338 94.2766 239.308 94.2885L234.189 96.3053C234.159 96.3172 234.129 96.3172 234.105 96.2993C234.057 96.2695 234.01 96.2337 233.968 96.1859L231.036 93.2383C231.006 93.2085 230.97 93.2025 230.934 93.2145L226.774 94.8553C226.727 94.8732 226.703 94.9329 226.721 94.9806L227.215 96.2337C227.233 96.2814 227.209 96.3411 227.162 96.359L223.615 97.7552C223.568 97.7731 223.544 97.8328 223.562 97.8805L224.414 100.046C224.432 100.094 224.408 100.154 224.36 100.172L221.762 101.198C221.738 101.21 221.702 101.21 221.678 101.192C221.625 101.162 221.571 101.12 221.524 101.079L219.622 99.3244C219.592 99.3006 219.557 99.2946 219.521 99.3065L215.391 100.935C215.343 100.953 215.319 101.013 215.337 101.061L216.213 103.28C216.231 103.328 216.207 103.388 216.16 103.406L200.3 109.653C200.252 109.671 200.193 109.647 200.175 109.599L198.589 105.625C198.572 105.578 198.595 105.518 198.643 105.5L239.97 89.2167C240.047 89.1869 240.131 89.2645 240.095 89.348L239.576 90.4876Z" fill="#407BFF"/>
<path opacity="0.1" d="M239.576 90.4876L239.171 91.4065C239.165 91.4244 239.159 91.4364 239.165 91.4543L239.392 93.9543C239.398 94.0438 239.392 94.1333 239.368 94.2229C239.362 94.2527 239.338 94.2766 239.308 94.2885L234.189 96.3053C234.159 96.3172 234.129 96.3172 234.105 96.2993C234.057 96.2695 234.01 96.2337 233.968 96.1859L231.036 93.2383C231.006 93.2085 230.97 93.2025 230.934 93.2145L226.774 94.8553C226.727 94.8732 226.703 94.9329 226.721 94.9806L227.215 96.2337C227.233 96.2814 227.209 96.3411 227.162 96.359L223.615 97.7552C223.568 97.7731 223.544 97.8328 223.562 97.8805L224.414 100.046C224.432 100.094 224.408 100.154 224.36 100.172L221.762 101.198C221.738 101.21 221.702 101.21 221.678 101.192C221.625 101.162 221.571 101.12 221.524 101.079L219.622 99.3244C219.592 99.3006 219.557 99.2946 219.521 99.3065L215.391 100.935C215.343 100.953 215.319 101.013 215.337 101.061L216.213 103.28C216.231 103.328 216.207 103.388 216.16 103.406L200.3 109.653C200.252 109.671 200.193 109.647 200.175 109.599L198.589 105.625C198.572 105.578 198.595 105.518 198.643 105.5L239.97 89.2167C240.047 89.1869 240.131 89.2645 240.095 89.348L239.576 90.4876Z" fill="black"/>
<path opacity="0.3" d="M178.85 108C175.518 109.307 173.873 113.072 175.179 116.407C176.484 119.743 180.245 121.39 183.582 120.083C186.914 118.776 188.559 115.011 187.254 111.676C185.948 108.34 182.188 106.693 178.85 108ZM182.938 118.925C180.28 119.969 177.282 118.657 176.239 115.996C175.196 113.334 176.508 110.333 179.166 109.295C181.824 108.251 184.822 109.563 185.865 112.225C186.908 114.88 185.597 117.881 182.938 118.925Z" fill="white"/>
<path opacity="0.1" d="M202.177 123.352C201.713 123.979 201.164 124.546 200.533 125.023L179.118 96.6273L179.1 96.6034C179.1 96.6034 180.984 95.6547 181.413 95.3743C181.413 95.3981 181.425 95.428 181.443 95.4638C182.384 97.4686 199.215 119.343 202.177 123.352Z" fill="white"/>
<path opacity="0.1" d="M199.084 125.918C198.947 125.984 192.713 127.881 192.713 127.881L185.758 118.663C187.558 116.896 188.231 114.164 187.254 111.67C185.948 108.334 182.188 106.687 178.85 107.994C178.558 108.107 178.284 108.239 178.016 108.394L171.865 100.237C171.865 100.237 177.271 97.6596 177.873 97.2837C178.033 98.4233 199.084 125.68 199.084 125.918Z" fill="white"/>
<path d="M173.557 81.1318C172.86 81.9611 172.574 83.1247 172.812 84.1808C173.045 85.2369 173.796 86.1677 174.779 86.6272C175.286 86.8658 175.846 86.9792 176.353 87.2238C176.853 87.4744 177.324 87.91 177.378 88.4709C177.437 89.0914 176.984 89.6643 177.026 90.2848C177.068 90.8516 177.509 91.2992 177.956 91.6512C178.403 92.0032 178.904 92.3314 179.148 92.8445C179.392 93.3577 179.237 94.1155 178.689 94.2646C178.576 94.4436 178.528 94.8673 178.677 95.0165C178.826 95.1656 179.082 95.2014 179.261 95.0881C180.101 94.5689 180.68 93.5964 180.686 92.6059C180.692 91.6154 180.072 90.6547 179.172 90.249C179.011 89.9208 179.136 89.5031 179.273 89.163C179.547 88.4828 179.821 87.7966 180.09 87.1164C180.197 86.8479 180.101 86.3587 179.917 86.1379C179.732 85.9171 179.458 85.7918 179.19 85.6784L177.431 84.9266C176.77 84.6402 174.797 82.0029 177.133 81.2332C176.829 80.553 176.299 80.3441 175.572 80.2069C174.845 80.0697 174.034 80.5589 173.557 81.1318Z" fill="#263238"/>
<path d="M176.746 78.2914C176.686 78.9836 176.627 79.6817 176.573 80.3738C177.157 79.4191 178.236 77.5635 178.194 77.6351C177.735 77.8797 177.205 78.0408 176.746 78.2914Z" fill="#263238"/>
<path d="M177.533 79.4311C178.349 78.6793 179.16 77.9215 179.976 77.1697C179.351 76.937 178.588 77.11 178.129 77.5993C178.141 77.5456 177.759 78.7032 177.533 79.4311Z" fill="#263238"/>
<path d="M172.568 135.883C169.391 139.833 170.446 142.858 166.06 149.851C171.591 153.956 177.658 154.636 185.203 154.052C186.097 152.47 186.544 150.824 187.438 149.242C188.714 150.83 189.745 152.166 191.02 153.753C194.972 153.133 199.668 152.023 202.791 150.006C200.032 146.838 198.315 142.882 196.551 139.385C195.723 137.75 196.068 137.058 193.869 134.91C186.866 135.232 179.923 135.405 172.92 135.728C173.11 135.734 172.383 135.871 172.568 135.883Z" fill="#263238"/>
<path d="M173.438 135.221L172.997 137.065C172.932 137.208 173.104 137.345 173.343 137.333L192.641 136.48C192.826 136.486 192.975 136.372 192.981 136.259L193.082 134.427C193.082 134.302 192.921 134.2 192.719 134.212L173.754 135.048C173.635 135.048 173.51 135.113 173.438 135.221Z" fill="#407BFF"/>
<path d="M173.438 135.221L172.997 137.065C172.932 137.208 173.104 137.345 173.343 137.333L192.641 136.48C192.826 136.486 192.975 136.372 192.981 136.259L193.082 134.427C193.082 134.302 192.921 134.2 192.719 134.212L173.754 135.048C173.635 135.048 173.51 135.113 173.438 135.221Z" fill="#407BFF"/>
<path d="M177.694 137.339L177.133 137.363C177.026 137.363 176.937 137.315 176.943 137.249L177.092 134.869C177.092 134.803 177.187 134.743 177.3 134.737L177.861 134.708C177.968 134.708 178.057 134.755 178.051 134.827L177.902 137.202C177.896 137.267 177.801 137.333 177.694 137.339Z" fill="#263238"/>
<path d="M191.628 136.736L191.068 136.76C190.961 136.76 190.871 136.712 190.877 136.647L191.026 134.272C191.026 134.2 191.121 134.141 191.229 134.135L191.789 134.111C191.896 134.111 191.986 134.159 191.98 134.224L191.831 136.599C191.831 136.671 191.741 136.73 191.628 136.736Z" fill="#263238"/>
<path d="M180.185 125.751C180.221 125.924 181.723 128.317 182.897 128.15C182.909 128.15 182.915 128.15 182.927 128.144C183.266 128.096 183.612 128.233 183.821 128.508C184.291 129.122 184.577 129.474 184.893 129.88C185.412 130.537 186.312 130.745 187.063 130.393C187.289 130.292 187.51 130.173 187.73 130.059C188.457 129.671 188.827 128.836 188.63 128.037C188.416 127.159 188.076 126.312 187.629 125.524C187.474 125.256 187.301 124.987 187.033 124.832C186.765 124.677 184.178 123.896 183.177 123.925C182.134 123.955 181.144 125.328 180.185 125.751Z" fill="#E8BFBF"/>
<path d="M183.207 123.848C183.207 123.848 167.365 119.045 163.944 122.243C161.935 124.122 162.883 125.9 164.009 127.04C164.844 127.893 166.668 127.684 167.854 127.625L180.334 126.402L183.207 123.848Z" fill="#E8BFBF"/>
<path d="M174.1 121.652C174.016 120.793 173.349 120.083 172.58 119.695C171.811 119.313 170.935 119.194 170.083 119.086C168.092 118.836 166.101 118.579 164.111 118.329C163.098 119.606 162.371 121.366 162.406 123.001C162.436 124.63 163.05 126.247 164.111 127.488C165.064 125.644 166.322 123.746 168.182 122.828C170.035 121.909 172.061 121.282 174.1 121.652Z" fill="#263238"/>
<path opacity="0.1" d="M170.017 92.684C169.999 92.6479 169.999 92.6298 170.017 92.6238C170.143 92.5877 170.125 92.6117 170.017 92.684Z" fill="white"/>
<path d="M227.244 63.1045L213.94 74.4136L210.067 67.2276L211.895 66.356L214.278 71.0073L214.533 71.5044L214.999 71.1965L227.244 63.1045Z" fill="#407BFF" stroke="white"/>
<path d="M237.794 67.0441C237.794 74.3474 230.136 80.2664 220.695 80.2664C217.071 80.2664 213.71 79.4013 210.945 77.9036L200.902 82.2713L207.237 75.2066C204.955 72.9691 203.59 70.1348 203.59 67.05C203.59 59.7467 211.249 53.8276 220.689 53.8276C230.136 53.8217 237.794 59.7407 237.794 67.0441Z" stroke="white" stroke-width="1.3" stroke-miterlimit="10"/>
</g>
<defs>
<linearGradient id="paint0_linear_34_3165" x1="360" y1="180" x2="589" y2="180" gradientUnits="userSpaceOnUse">
<stop stop-color="#6134C0"/>
<stop offset="1" stop-color="#373BC8" stop-opacity="0.2"/>
</linearGradient>
<clipPath id="clip0_34_3165">
<rect width="298" height="222" fill="white" transform="translate(31.0002 34)"/>
</clipPath>
</defs>
</svg>
