<svg width="25" height="16" viewBox="0 0 25 16" fill="none" xmlns="http://www.w3.org/2000/svg">
<g clip-path="url(#clip0_34_1492)">
<path d="M0 0.280492C0.137262 0.0895188 0.3163 0 0.560985 0C3.9806 0.00596792 7.40022 0.00596792 10.8198 0.00596792C10.8855 0.00596792 10.9452 0.0119358 11.0108 0.0119358C11.2615 0.0954868 11.3629 0.268556 11.357 0.531145C11.351 0.763894 11.3629 1.00261 11.3629 1.23536C11.345 1.64715 11.345 2.05893 11.3629 2.47072C11.345 2.88251 11.3391 3.28833 11.3629 3.70011C11.3391 4.1119 11.3391 4.51772 11.3629 4.9295C11.3391 5.33532 11.345 5.74114 11.3629 6.14696C11.3391 6.55875 11.345 6.97053 11.3629 7.38232C11.357 7.61507 11.345 7.85379 11.357 8.08653C11.3689 8.33719 11.2674 8.51026 11.0466 8.61171C10.9511 8.61768 10.8557 8.61768 10.7602 8.61768C7.37635 8.61768 3.99254 8.61768 0.608728 8.62365C0.34614 8.62365 0.149198 8.558 0.00596792 8.33122C0 5.65162 0 2.96606 0 0.280492ZM0.638568 1.24133C0.883253 1.49795 0.883253 1.49795 0.871317 1.86199C1.05632 1.65311 1.24133 1.66505 1.42633 1.86199C1.39649 1.50988 1.39649 1.50988 1.62924 1.25923C1.37262 1.28907 1.19358 1.21149 1.14584 0.936964C1.08019 1.19358 0.936964 1.30101 0.638568 1.24133ZM6.33793 6.38568C6.60649 6.51697 6.60649 6.70198 6.52294 6.94666C6.71988 6.73778 6.90489 6.77956 7.09586 6.9586C7.06005 6.62439 7.06005 6.62439 7.32264 6.31406C6.98844 6.44536 6.89295 6.26035 6.79746 6.03954C6.76762 6.31406 6.59455 6.38568 6.33793 6.38568ZM5.395 1.82022C5.57404 1.70086 5.72921 1.62924 5.89631 1.80828C5.93212 1.84409 5.97986 1.79634 5.96196 1.75457C5.84856 1.53972 5.96792 1.40843 6.15293 1.27714C5.90228 1.2831 5.72921 1.20552 5.67549 0.930996C5.59791 1.13391 5.53823 1.29504 5.29952 1.25326C5.22193 1.24133 5.21 1.33085 5.26968 1.36069C5.49646 1.46214 5.43081 1.63521 5.395 1.82022ZM8.22976 1.86199C8.19993 1.52779 8.19993 1.52779 8.42074 1.2473C8.15218 1.30101 8.00299 1.18762 7.94331 0.91906C7.91943 1.22939 7.70459 1.25923 7.47184 1.2652C7.69862 1.49198 7.69862 1.49198 7.67475 1.86199C7.85379 1.65311 8.03879 1.66505 8.22976 1.86199ZM2.26781 6.03954C2.25587 6.34987 2.02313 6.34987 1.77844 6.40955C2.12458 6.49907 2.02909 6.71988 1.99925 6.94666C2.19023 6.74375 2.37523 6.77956 2.57814 6.93473C2.48862 6.71988 2.48862 6.55875 2.69153 6.44536C2.74524 6.41552 2.7154 6.33793 2.66169 6.34987C2.41701 6.40358 2.35733 6.23648 2.26781 6.03954ZM1.77247 1.96345C2.02313 2.2141 2.02313 2.2141 1.99925 2.58411C2.18426 2.37523 2.36927 2.38717 2.57814 2.56024C2.45878 2.30959 2.51846 2.14248 2.75718 1.99925C2.47669 2.02313 2.33346 1.90377 2.27378 1.64715C2.232 1.93361 2.05893 2.00522 1.77247 1.96345ZM6.33197 2.00522C6.58859 2.13055 6.61246 2.31555 6.52891 2.56621C6.73182 2.35733 6.91085 2.39314 7.07199 2.56621C7.13764 2.42894 7.02425 2.33943 7.04812 2.23797C7.07796 2.13055 7.23312 2.13055 7.26296 1.96345C7.00037 2.04103 6.88102 1.89183 6.79746 1.64715C6.77956 1.96345 6.57068 1.98135 6.33197 2.00522ZM7.44797 5.63372C7.69265 5.8784 7.69265 5.8784 7.67475 6.24841C7.85975 6.03357 8.04476 6.05147 8.24767 6.21857C8.16412 6.00373 8.15218 5.83663 8.36106 5.72921C8.4088 5.70533 8.3909 5.62178 8.33719 5.63372C8.0746 5.69937 8.04476 5.47855 7.91347 5.25177C7.9075 5.60388 7.72846 5.66356 7.44797 5.63372ZM5.72324 5.28161C5.57404 5.44275 5.60985 5.68146 5.37113 5.63372C5.32936 5.62775 5.26371 5.61581 5.2458 5.66953C5.22193 5.74114 5.29355 5.76501 5.33532 5.78888C5.44871 5.85453 5.46065 5.93808 5.41291 6.05147C5.395 6.09922 5.35919 6.15293 5.43678 6.21261C5.59194 6.02163 5.77098 6.05744 5.95599 6.23648C5.93212 5.90824 5.93212 5.90824 6.15293 5.63969C5.91421 5.65759 5.7113 5.62178 5.72324 5.28161ZM1.116 5.32935C1.12197 5.63969 0.895188 5.63969 0.662439 5.66953C0.913092 5.79485 0.954868 5.96792 0.853413 6.23648C1.05035 5.97389 1.24133 6.09922 1.44424 6.20664C1.30698 5.95599 1.42037 5.80679 1.62924 5.68146C1.29504 5.59194 1.29504 5.59194 1.116 5.32935ZM3.70608 6.21261C3.62253 5.99776 3.60463 5.8426 3.8135 5.74114C3.84334 5.72921 3.86125 5.6934 3.84334 5.66356C3.81947 5.61581 3.77173 5.62178 3.74189 5.63372C3.56285 5.66953 3.50317 5.56807 3.47333 5.42484C3.46736 5.38903 3.44946 5.34726 3.35994 5.35323C3.40172 5.65162 3.16897 5.63372 2.93622 5.66953C3.15703 5.80082 3.24655 5.96195 3.10929 6.22454C3.31817 6.03954 3.50317 6.03954 3.70608 6.21261ZM9.36964 2.56024C9.23834 2.29765 9.3398 2.13652 9.55464 1.98732C9.28012 2.01716 9.13092 1.90377 9.07124 1.64118C9.0414 1.93957 8.84446 1.98732 8.60574 2.00522C8.8564 2.13055 8.8743 2.31555 8.79075 2.5483C8.98172 2.41104 9.16076 2.33346 9.36964 2.56024ZM9.36964 6.92876C9.31593 6.71988 9.26222 6.55278 9.48303 6.46326C9.51287 6.45132 9.53077 6.42148 9.51884 6.38568C9.50093 6.33793 9.45319 6.3439 9.41738 6.34987C9.24431 6.38568 9.17867 6.29616 9.14286 6.14099C9.13689 6.09922 9.11899 6.03954 9.03543 6.08728C9.0414 6.34987 8.83849 6.3618 8.59978 6.38568C8.8743 6.49907 8.86833 6.69601 8.79672 6.93473C8.98769 6.76166 9.1727 6.75569 9.36964 6.92876ZM10.5214 3.28833C10.3364 3.01977 10.5274 2.88251 10.6945 2.70347C10.3603 2.84073 10.3066 2.60798 10.1932 2.3812C10.1872 2.70347 9.98433 2.73928 9.71578 2.75121C10.056 2.85267 9.9724 3.07348 9.92466 3.30026C10.1276 3.10929 10.3066 3.13316 10.5214 3.28833ZM4.83999 6.93473C4.72659 6.6781 4.79821 6.511 5.01902 6.40358C4.89966 6.30213 4.78031 6.37971 4.69079 6.326C4.60127 6.26632 4.64304 6.11712 4.51772 6.04551C4.46401 6.24245 4.39239 6.39761 4.15964 6.35584C4.09996 6.3439 4.07609 6.42745 4.1298 6.44536C4.37449 6.54681 4.29094 6.73778 4.2611 6.94666C4.45207 6.74375 4.63708 6.76762 4.83999 6.93473ZM10.6826 7.11376C10.3961 7.17941 10.2887 7.02424 10.2111 6.77359C10.1634 7.04812 10.0022 7.1436 9.73965 7.1257C9.99627 7.25699 10.0142 7.442 9.92466 7.68668C10.1276 7.47781 10.3126 7.51361 10.5274 7.68072C10.3603 7.4241 10.4797 7.26893 10.6826 7.11376ZM10.1992 0.91906C10.1335 1.13391 10.0739 1.30101 9.82917 1.25326C9.76949 1.24133 9.73965 1.31891 9.79336 1.34278C10.0261 1.45021 9.96643 1.62924 9.92466 1.84409C10.1156 1.65311 10.3006 1.66505 10.5035 1.83812C10.3961 1.58747 10.4558 1.4144 10.7005 1.30101C10.3543 1.19955 10.3543 1.19955 10.1992 0.91906ZM4.05819 1.99925C4.33271 2.11861 4.33271 2.31555 4.22529 2.54233C4.52965 2.42894 4.52965 2.42894 4.88773 2.54233C4.67885 2.28571 4.82208 2.14248 5.01902 1.98732C4.75047 2.01716 4.60724 1.90377 4.54159 1.64715C4.48788 1.92167 4.33271 2.00522 4.05819 1.99925ZM2.94815 2.70944C2.94815 2.73331 2.95412 2.75121 2.95412 2.77508C3.0317 2.84073 3.13316 2.89444 3.17494 2.97799C3.21671 3.06751 3.08542 3.16897 3.15703 3.31816C3.3301 3.09138 3.51511 3.16897 3.72995 3.29429C3.54495 3.0317 3.72995 2.88847 3.87915 2.72137C3.58075 2.81089 3.49123 2.61992 3.40768 2.3991C3.35397 2.66169 3.21074 2.76912 2.94815 2.70944ZM9.92466 6.22454C10.1216 6.02163 10.3066 6.05744 10.5155 6.24841C10.4558 5.92615 10.4558 5.92615 10.7244 5.60388C10.4021 5.71727 10.2827 5.57404 10.2111 5.31145C10.1634 5.55614 10.056 5.66953 9.81723 5.64565C9.75159 5.63969 9.76352 5.72324 9.8053 5.74114C10.038 5.83663 9.96643 6.01567 9.92466 6.22454ZM1.61731 7.1078C1.28907 7.22715 1.23536 6.97053 1.12197 6.77956C1.10407 7.08392 0.907124 7.11376 0.674375 7.1078C0.877285 7.34054 0.877285 7.34054 0.865349 7.70459C1.04439 7.48377 1.22939 7.51958 1.4323 7.66878C1.33681 7.43006 1.37859 7.26296 1.61731 7.1078ZM4.57143 3.12122C4.45207 3.21074 4.48191 3.348 4.40433 3.40768C4.32078 3.47333 4.18948 3.38381 4.09996 3.46736C4.30287 3.68818 4.30287 3.68818 4.26707 4.04028C4.45804 3.83737 4.64304 3.82544 4.85789 4.01641C4.68482 3.74189 4.83999 3.59269 5.02499 3.42559C4.72659 3.50914 4.6132 3.35397 4.57143 3.12122ZM2.94219 1.28907C3.1809 1.42037 3.20477 1.5994 3.11526 1.84409C3.3122 1.64118 3.50317 1.68295 3.70608 1.83215C3.57479 1.5815 3.67027 1.42633 3.89109 1.2652C3.56882 1.36069 3.48527 1.16374 3.39575 0.936964C3.35994 1.21149 3.19881 1.28907 2.94219 1.28907ZM8.22976 3.30026C8.13428 3.06154 8.18799 2.88251 8.42074 2.73928C8.14025 2.77508 8.00895 2.64379 7.96121 2.35733C7.88363 2.51846 7.85975 2.63782 7.78814 2.69153C7.71652 2.73928 7.59717 2.72137 7.50168 2.72734C7.71652 2.87057 7.75233 3.05558 7.65685 3.29429C7.85379 3.15106 8.02089 3.09138 8.22976 3.30026ZM9.07124 3.11526C9.0235 3.38978 8.8564 3.47333 8.59381 3.46139C8.85043 3.59269 8.89817 3.77173 8.77882 4.02835C8.98769 3.82544 9.1727 3.85528 9.39351 4.02238C9.19657 3.74786 9.37561 3.61059 9.53674 3.44946C9.28012 3.48527 9.14286 3.37188 9.07124 3.11526ZM2.58411 4.01044C2.48266 3.7956 2.49459 3.6285 2.6975 3.52107C2.73331 3.50317 2.7154 3.43156 2.67363 3.43752C2.42298 3.4972 2.3633 3.3122 2.26781 3.11526C2.232 3.39575 2.05893 3.47333 1.79634 3.46139C2.05297 3.58672 2.07087 3.77769 1.99925 4.03432C2.1962 3.75979 2.37523 3.89705 2.58411 4.01044ZM1.12197 2.38717C1.12794 2.7154 0.913092 2.73331 0.674375 2.75718C0.9489 2.87654 0.930996 3.07348 0.865349 3.30026C1.06229 3.10332 1.24133 3.13316 1.46214 3.30623C1.25923 3.0317 1.46214 2.89444 1.60537 2.70944C1.29504 2.82283 1.23536 2.60201 1.12197 2.38717ZM3.91496 7.06602C3.58672 7.17344 3.48527 7.01231 3.43752 6.77956C3.22865 7.06602 3.22865 7.06602 2.90041 7.13763C3.19881 7.24506 3.21074 7.43603 3.12122 7.68668C3.32413 7.46587 3.50914 7.53749 3.70608 7.69862C3.65237 7.37635 3.65237 7.37635 3.91496 7.06602ZM7.93734 6.77956C7.90153 7.06602 7.72249 7.13763 7.442 7.13763C7.78814 7.23312 7.69265 7.46587 7.66878 7.68072C7.86572 7.46587 8.04476 7.53749 8.24767 7.68072C8.10444 7.4241 8.2238 7.26893 8.4088 7.1078C8.11637 7.17941 8.02686 7.00634 7.93734 6.77956ZM6.34987 3.48527C6.60649 3.59269 6.60052 3.78366 6.52891 4.01641C6.73182 3.81947 6.90489 3.84931 7.13167 4.02238C6.91682 3.74189 7.13167 3.61059 7.26893 3.42559C6.96457 3.52704 6.89892 3.30623 6.81537 3.09735C6.66617 3.40172 6.66617 3.40172 6.34987 3.48527ZM4.07012 4.94144C4.33868 5.05483 4.33271 5.2458 4.24916 5.50242C4.45207 5.25177 4.63708 5.33532 4.84595 5.47855C4.71466 5.23387 4.79224 5.0608 5.01902 4.91757C4.73853 4.95934 4.60127 4.83402 4.56546 4.56546C4.36255 4.88176 4.36255 4.88176 4.07012 4.94144ZM8.77882 5.48452C8.98769 5.29355 9.1727 5.29951 9.38157 5.48452C9.26222 5.23387 9.30996 5.05483 9.56061 4.9116C9.26818 4.95338 9.14286 4.81015 9.07124 4.55352C9.04737 4.85789 8.86833 4.92354 8.60574 4.9295C8.85043 5.0608 8.89817 5.23387 8.77882 5.48452ZM3.71802 4.7624C3.55688 4.49981 3.69414 4.34465 3.88512 4.18948C3.57479 4.26706 3.4972 4.07609 3.40768 3.84334C3.37188 4.1298 3.21074 4.21932 2.94219 4.20739C3.15703 4.34465 3.25252 4.50578 3.10929 4.76837C3.31817 4.58933 3.50317 4.5774 3.71802 4.7624ZM5.96792 3.29429C5.81276 3.02574 5.98583 2.88251 6.15293 2.7154C5.8426 2.81686 5.76501 2.61992 5.66953 2.40507C5.61582 2.62589 5.52033 2.76912 5.28161 2.72137C5.23387 2.7154 5.22193 2.78702 5.25774 2.80492C5.48452 2.91235 5.43678 3.09138 5.395 3.30623C5.58598 3.13913 5.75905 3.09735 5.96792 3.29429ZM1.80828 4.94741C2.0649 5.05483 2.07087 5.2458 1.99329 5.49646C2.19023 5.2279 2.37523 5.35919 2.59008 5.47258C2.43491 5.22193 2.56024 5.06677 2.74524 4.90563C2.42298 5.00112 2.36927 4.77434 2.29168 4.57143C2.11861 4.86982 2.11861 4.86982 1.80828 4.94741ZM6.16486 7.13167C5.89034 7.16151 5.74114 7.03618 5.67549 6.78553C5.62178 7.05408 5.46662 7.1436 5.21 7.13167C5.45468 7.26296 5.48452 7.44797 5.395 7.70459C5.59194 7.4599 5.77098 7.53749 5.97389 7.67475C5.8784 7.442 5.89631 7.25699 6.16486 7.13167ZM7.65685 4.78031C7.85975 4.51772 8.04476 4.63111 8.25364 4.75643C8.12234 4.51175 8.19993 4.34465 8.42074 4.18948C8.11638 4.2611 8.03282 4.07609 7.93734 3.84931C7.9075 4.14174 7.73443 4.21335 7.47184 4.21335C7.72249 4.33868 7.7404 4.52368 7.65685 4.78031ZM7.11973 5.48452C6.93473 5.21596 7.10183 5.07273 7.28683 4.89966C6.97053 5.00709 6.90489 4.78627 6.79746 4.58933C6.76166 4.86386 6.60052 4.94144 6.33793 4.9295C6.58859 5.0608 6.60649 5.25177 6.52891 5.48452C6.72585 5.30548 6.89295 5.28758 7.11973 5.48452ZM5.395 4.81015C5.59194 4.55949 5.77098 4.60127 5.97389 4.7624C5.85453 4.51175 5.93808 4.34465 6.15293 4.19545C5.85453 4.26706 5.75308 4.08803 5.66356 3.86721C5.61582 4.13577 5.46662 4.22529 5.21596 4.19545C5.41887 4.44013 5.41887 4.44013 5.395 4.81015ZM10.2171 3.85528C10.1634 4.1298 10.0022 4.21932 9.73965 4.21932C10.0261 4.34465 9.99627 4.53562 9.92466 4.77434C10.1276 4.58336 10.3126 4.58336 10.5214 4.76837C10.4081 4.51772 10.4618 4.33868 10.7005 4.20142C10.42 4.23126 10.2708 4.13577 10.2171 3.85528ZM1.42633 4.78627C1.40246 4.44013 1.40246 4.44013 1.64118 4.14771C1.31294 4.279 1.22939 4.08206 1.13391 3.86125C1.11003 4.15964 0.91906 4.20739 0.668407 4.21335C0.9489 4.32674 0.913092 4.53562 0.871317 4.7624C1.06229 4.57143 1.23536 4.58933 1.42633 4.78627Z" fill="#42489B"/>
<path d="M0 12.2939C0.101455 12.2999 0.208877 12.3059 0.310332 12.3059C8.2417 12.3059 16.179 12.3059 24.1104 12.2999C24.3611 12.2999 24.4207 12.3656 24.4028 12.6043C24.379 12.8669 24.3909 13.1295 24.4028 13.392C24.4028 13.5054 24.373 13.5591 24.2536 13.5412C24.2238 13.5353 24.188 13.5412 24.1581 13.5412C16.1432 13.5412 8.13428 13.5412 0.119358 13.5412C0.077583 13.5412 0.0417755 13.5412 0 13.5412C0 13.1175 0 12.7057 0 12.2939Z" fill="#F04F59"/>
<path d="M24.3969 14.7766C24.3969 15.0213 24.4028 15.266 24.3969 15.5166C24.3909 15.8269 24.2357 15.9821 23.9314 16C23.8657 16.006 23.8061 16 23.7404 16C16.0418 16 8.34914 16 0.650517 16C0.370025 16 0.12534 15.9642 0.00598145 15.6718C0.00598145 15.3674 0.00598145 15.069 0.00598145 14.7646C8.09848 14.7646 16.191 14.7646 24.2835 14.7646C24.3133 14.7706 24.3551 14.7706 24.3969 14.7766Z" fill="#F04F59"/>
<path d="M0 9.8591C0.0895188 9.8591 0.17307 9.85314 0.262589 9.85314C8.21186 9.85314 16.1552 9.85314 24.1044 9.84717C24.3372 9.84717 24.4327 9.88894 24.4028 10.1396C24.379 10.3843 24.3849 10.629 24.4028 10.8796C24.4148 11.0467 24.3491 11.0945 24.1999 11.0706C24.1522 11.0646 24.1044 11.0706 24.0567 11.0706C16.1432 11.0706 8.2238 11.0706 0.310332 11.0706C0.208877 11.0706 0.107423 11.0587 0.00596792 11.0527C0 10.6528 0 10.259 0 9.8591Z" fill="#F04F59"/>
<path d="M11.0406 8.61183C11.2674 8.51037 11.3629 8.3373 11.351 8.08665C11.339 7.8539 11.3569 7.61518 11.3569 7.38243C15.6121 7.38243 19.8672 7.38243 24.1283 7.37646C24.3431 7.37646 24.4148 7.43018 24.3969 7.65099C24.379 7.91955 24.3849 8.1881 24.3969 8.46263C24.4028 8.58795 24.3611 8.64166 24.2357 8.62376C24.2119 8.61779 24.188 8.62376 24.1641 8.62376C19.8612 8.62376 15.5584 8.62376 11.2495 8.62376C11.1839 8.61779 11.1123 8.61779 11.0406 8.61183Z" fill="#F04F59"/>
<path d="M11.3629 3.7002C11.339 3.28842 11.345 2.8826 11.3629 2.47081C15.6419 2.47081 19.9149 2.47081 24.1939 2.46484C24.361 2.46484 24.4088 2.51259 24.4028 2.67969C24.3909 2.94825 24.3849 3.22277 24.4028 3.49133C24.4148 3.6823 24.3372 3.71214 24.1701 3.70617C22.5826 3.7002 20.9951 3.7002 19.4077 3.7002C16.7281 3.70617 14.0425 3.7002 11.3629 3.7002Z" fill="#F04F59"/>
<path d="M11.3629 1.23525C11.3569 1.0025 11.345 0.763785 11.3569 0.531036C11.3629 0.268448 11.2615 0.0953782 11.0108 0.0118273C11.2256 0.0118273 11.4405 0.00585938 11.6553 0.00585938C15.6837 0.00585938 19.718 0.00585938 23.7463 0.00585938C24.2894 0.00585938 24.4028 0.125218 24.4028 0.662331C24.4028 0.853304 24.4028 1.04428 24.4028 1.23525C24.361 1.23525 24.3252 1.24122 24.2835 1.24122C19.9687 1.23525 15.6658 1.23525 11.3629 1.23525Z" fill="#F04F59"/>
<path d="M11.3629 6.153C11.345 5.74718 11.339 5.34137 11.3629 4.93555C15.5942 4.93555 19.8254 4.93555 24.0567 4.93555C24.3969 4.93555 24.3969 4.93555 24.3969 5.26975C24.3969 5.49056 24.3849 5.71734 24.4028 5.93816C24.4207 6.12913 24.3431 6.18284 24.176 6.153C24.1581 6.153 24.1462 6.153 24.1283 6.153C19.8732 6.153 15.618 6.153 11.3629 6.153Z" fill="#F04F59"/>
</g>
<defs>
<clipPath id="clip0_34_1492">
<rect width="24.4088" height="16" fill="white"/>
</clipPath>
</defs>
</svg>
