<svg width="361" height="617" viewBox="0 0 361 617" fill="none" xmlns="http://www.w3.org/2000/svg">
<g opacity="0.05">
<path d="M145.798 303.462C203.025 302.396 208.123 108.95 208.123 22.1715C208.123 -64.6072 162.552 137.249 106.091 137.249C49.6297 137.249 0.318387 69.1412 0.500503 156.246C0.500503 243.024 89.337 303.462 145.798 303.462Z" stroke="white"/>
<path d="M147.726 306.977C206.077 304.344 209.476 113.413 209.476 26.6341C209.476 -60.1446 164.729 138.875 108.268 138.875C51.8073 138.875 2.62084 72.0014 3.07044 159.585C3.07044 246.363 91.265 306.977 147.726 306.977Z" stroke="white"/>
<path d="M150.274 311.62C210.108 306.921 211.265 119.307 211.265 32.5285C211.265 -54.2502 167.606 141.027 111.145 141.027C54.6842 141.027 5.66234 75.782 6.46479 163.997C6.46479 250.775 93.8125 311.62 150.274 311.62Z" stroke="white"/>
<path d="M153.442 317.401C215.119 310.136 213.491 126.642 213.491 39.863C213.491 -46.9157 171.184 143.714 114.723 143.714C58.2619 143.714 9.44459 80.4913 10.6853 169.49C10.6853 256.269 96.9813 317.401 153.442 317.401Z" stroke="white"/>
<path d="M157.235 324.328C221.113 313.997 216.159 135.425 216.159 48.646C216.159 -38.1327 175.465 146.945 119.004 146.945C62.5433 146.945 13.9703 86.1376 15.7346 176.074C15.7346 262.852 100.774 324.328 157.235 324.328Z" stroke="white"/>
<path d="M161.657 332.415C228.096 318.517 219.271 145.67 219.271 58.8911C219.271 -27.8876 180.456 150.732 123.995 150.732C67.5337 150.732 19.2449 92.7347 21.6181 183.761C21.6181 270.539 105.196 332.415 161.657 332.415Z" stroke="white"/>
<path d="M166.711 341.677C236.069 323.714 222.833 157.394 222.833 70.6152C222.833 -16.1635 186.158 155.093 129.697 155.093C73.236 155.093 25.2712 100.299 28.3387 192.568C28.3387 279.347 110.25 341.677 166.711 341.677Z" stroke="white"/>
<path d="M172.404 352.138C245.04 329.608 226.849 170.618 226.849 83.8397C226.849 -2.93902 192.578 160.049 136.117 160.049C79.6564 160.049 32.0554 108.853 35.9026 202.517C35.9026 289.296 115.943 352.138 172.404 352.138Z" stroke="white"/>
<path d="M178.74 363.825C255.012 336.23 231.325 185.372 231.325 98.5935C231.325 11.8148 199.721 165.628 143.26 165.628C86.7992 165.628 39.6019 118.425 44.3142 213.637C44.3142 300.415 122.279 363.825 178.74 363.825Z" stroke="white"/>
<path d="M185.723 376.778C265.992 343.617 236.265 201.694 236.265 114.916C236.265 28.1371 207.592 171.872 151.131 171.872C94.6701 171.872 47.9164 129.053 53.5791 225.966C53.5791 312.745 129.262 376.778 185.723 376.778Z" stroke="white"/>
<path d="M193.362 391.049C277.985 351.822 241.677 219.637 241.677 132.859C241.677 46.0799 216.197 178.83 159.736 178.83C103.275 178.83 57.0047 140.791 63.7032 239.558C63.7032 326.336 136.901 391.049 193.362 391.049Z" stroke="white"/>
<path d="M201.662 406.709C290.998 360.917 247.566 239.272 247.566 152.493C247.566 65.7148 225.543 186.575 169.082 186.575C112.621 186.575 66.8743 153.709 74.6939 254.482C74.6939 341.261 145.201 406.709 201.662 406.709Z" stroke="white"/>
<path d="M210.628 423.861C305.037 371.003 253.938 260.701 253.938 173.922C253.938 87.1432 235.636 195.208 179.175 195.208C122.714 195.208 77.5294 167.91 86.5556 270.842C86.5556 357.621 154.167 423.861 210.628 423.861Z" stroke="white"/>
<path d="M220.268 442.652C320.109 382.229 260.801 284.071 260.801 197.293C260.801 110.514 246.482 204.879 190.021 204.879C133.56 204.879 88.9784 183.541 99.2964 288.786C99.2964 375.564 163.807 442.652 220.268 442.652Z" stroke="white"/>
<path d="M230.589 463.304C336.22 394.816 268.161 309.606 268.161 222.828C268.161 136.049 258.088 215.808 201.627 215.808C145.166 215.808 101.227 200.825 112.923 308.535C112.923 395.314 174.128 463.304 230.589 463.304Z" stroke="white"/>
<path d="M241.599 486.167C353.379 409.113 276.026 337.654 276.026 250.875C276.026 164.096 270.463 228.344 214.002 228.344C157.541 228.344 114.285 220.111 127.443 330.438C127.443 417.216 185.138 486.167 241.599 486.167Z" stroke="white"/>
<path d="M265.706 541.187C390.861 445.503 293.293 403.952 293.293 317.173C293.293 230.394 297.539 260.904 241.078 260.904C184.617 260.904 142.846 267.35 159.185 383.371C159.185 470.149 209.245 541.187 265.706 541.187Z" stroke="white"/>
<path d="M278.817 575.865C411.199 470.117 302.709 444.723 302.709 357.945C302.709 271.166 312.255 283.448 255.794 283.448C199.333 283.448 158.363 297.825 176.421 416.922C176.421 503.701 222.356 575.865 278.817 575.865Z" stroke="white"/>
<path d="M292.644 616.5C432.61 500.187 312.657 491.754 312.657 404.975C312.657 318.196 327.765 311.346 271.304 311.346C214.843 311.346 174.715 334.048 194.577 456.373C194.577 543.152 236.183 616.5 292.644 616.5Z" stroke="white"/>
</g>
</svg>
