<svg width="18" height="18" viewBox="0 0 18 18" fill="none" xmlns="http://www.w3.org/2000/svg">
<mask id="mask0_18_60" style="mask-type:alpha" maskUnits="userSpaceOnUse" x="-3" y="-3" width="24" height="24">
<rect x="-3" y="-3" width="24" height="24" fill="#D9D9D9"/>
</mask>
<g mask="url(#mask0_18_60)">
<path d="M11.9605 2.09615C11.7394 2.09615 11.5529 2.01983 11.401 1.86718C11.249 1.71454 11.1731 1.52768 11.1731 1.3066C11.1731 1.08553 11.2494 0.899033 11.402 0.747099C11.5547 0.595183 11.7416 0.519225 11.9626 0.519225C12.1837 0.519225 12.3702 0.595549 12.5221 0.748199C12.674 0.900833 12.75 1.08769 12.75 1.30878C12.75 1.52984 12.6737 1.71634 12.521 1.86828C12.3684 2.02019 12.1815 2.09615 11.9605 2.09615ZM11.9028 17.4808C11.6817 17.4808 11.4952 17.4045 11.3433 17.2518C11.1913 17.0992 11.1154 16.9123 11.1154 16.6912C11.1154 16.4702 11.1917 16.2837 11.3443 16.1317C11.497 15.9798 11.6839 15.9038 11.9049 15.9038C12.126 15.9038 12.3125 15.9802 12.4644 16.1328C12.6164 16.2855 12.6923 16.4723 12.6923 16.6934C12.6923 16.9145 12.616 17.101 12.4634 17.2529C12.3107 17.4048 12.1238 17.4808 11.9028 17.4808ZM15.9028 5.36538C15.6817 5.36538 15.4952 5.28906 15.3433 5.13642C15.1913 4.98377 15.1154 4.79692 15.1154 4.57585C15.1154 4.35477 15.1917 4.16827 15.3443 4.01635C15.497 3.86442 15.6839 3.78845 15.9049 3.78845C16.126 3.78845 16.3125 3.86478 16.4644 4.01743C16.6164 4.17008 16.6923 4.35693 16.6923 4.578C16.6923 4.79908 16.616 4.98558 16.4634 5.1375C16.3107 5.28942 16.1238 5.36538 15.9028 5.36538ZM15.8451 14.2692C15.624 14.2692 15.4375 14.1929 15.2856 14.0403C15.1337 13.8876 15.0577 13.7008 15.0577 13.4797C15.0577 13.2586 15.134 13.0721 15.2867 12.9202C15.4393 12.7683 15.6262 12.6923 15.8473 12.6923C16.0683 12.6923 16.2548 12.7686 16.4067 12.9213C16.5587 13.0739 16.6346 13.2608 16.6346 13.4818C16.6346 13.7029 16.5583 13.8894 16.4057 14.0414C16.253 14.1933 16.0661 14.2692 15.8451 14.2692ZM17.2105 9.78848C16.9894 9.78848 16.8029 9.71215 16.651 9.5595C16.499 9.40685 16.4231 9.21999 16.4231 8.99893C16.4231 8.77784 16.4994 8.59134 16.6521 8.43943C16.8047 8.28749 16.9916 8.21152 17.2126 8.21152C17.4337 8.21152 17.6202 8.28785 17.7721 8.4405C17.924 8.59315 18 8.78001 18 9.00107C18 9.22216 17.9237 9.40866 17.771 9.56058C17.6184 9.71251 17.4315 9.78848 17.2105 9.78848ZM9 18C7.75768 18 6.58872 17.7638 5.4931 17.2915C4.39748 16.8192 3.44444 16.1782 2.63397 15.3685C1.82352 14.5588 1.18192 13.6066 0.70915 12.512C0.236383 11.4174 0 10.2479 0 9.00335C0 7.7588 0.23625 6.58872 0.70875 5.4931C1.18125 4.39748 1.8225 3.44444 2.6325 2.63398C3.4425 1.82353 4.395 1.18192 5.49 0.709151C6.585 0.236384 7.755 0 9 0V1C6.76667 1 4.875 1.775 3.325 3.325C1.775 4.875 1 6.76667 1 9C1 11.2333 1.775 13.125 3.325 14.675C4.875 16.225 6.76667 17 9 17V18ZM9 10.5C8.5782 10.5 8.22275 10.3554 7.93365 10.0663C7.64455 9.77725 7.5 9.4218 7.5 9C7.5 8.8782 7.51058 8.76506 7.53173 8.66057C7.55288 8.55609 7.59294 8.45578 7.65193 8.35963L5.71152 6.4L6.4 5.71152L8.35963 7.65193C8.43911 7.60961 8.65257 7.55897 9 7.5C9.4218 7.5 9.77725 7.64455 10.0663 7.93365C10.3554 8.22275 10.5 8.5782 10.5 9C10.5 9.4218 10.3554 9.77725 10.0663 10.0663C9.77725 10.3554 9.4218 10.5 9 10.5Z" fill="white"/>
</g>
</svg>
