<svg width="309" height="183" viewBox="0 0 309 183" fill="none" xmlns="http://www.w3.org/2000/svg">
<path d="M104.32 166.799C104.32 166.799 111.995 166.029 111.995 160.469H97.157C97.157 160.469 96.8066 166.799 104.32 166.799Z" fill="#D9DADB"/>
<path d="M104.321 166.799C104.321 166.799 178.77 166.799 187.404 166.799C196.038 166.799 195.653 160.469 195.653 160.469H111.995C111.995 166.035 104.321 166.799 104.321 166.799Z" fill="#F3F4F4"/>
<path d="M104.826 52.9208C104.826 52.9208 97.151 53.6906 97.151 59.2509H111.989C111.989 59.2567 112.34 52.9208 104.826 52.9208Z" fill="#D9DADB"/>
<path d="M104.826 52.9208C104.826 52.9208 30.377 52.9208 21.743 52.9208C13.109 52.9208 13.4939 59.2509 13.4939 59.2509H97.1513C97.1513 53.6906 104.826 52.9208 104.826 52.9208Z" fill="#F3F4F4"/>
<path d="M203.327 27.2273C203.327 27.2273 195.652 27.997 195.652 33.5574H210.49C210.49 33.5574 210.841 27.2273 203.327 27.2273Z" fill="#D9DADB"/>
<path d="M203.327 27.2273C203.327 27.2273 128.878 27.2273 120.244 27.2273C111.61 27.2273 111.995 33.5574 111.995 33.5574H195.652C195.652 27.9913 203.327 27.2273 203.327 27.2273Z" fill="#F3F4F4"/>
<path d="M111.989 59.2567H97.151V160.474H111.989V59.2567Z" fill="#D9DADB"/>
<path d="M195.658 33.5573H111.995V160.469H195.658V33.5573Z" fill="#FAFAFA"/>
<path d="M180.579 152.611H187.415C187.788 152.611 188.098 152.915 188.098 153.294C188.098 153.674 187.794 153.978 187.415 153.978H180.579C180.2 153.978 179.895 153.674 179.895 153.294C179.895 152.915 180.2 152.611 180.579 152.611Z" fill="#D1D3D3"/>
<path d="M149.599 152.611H177.018C177.397 152.611 177.701 152.915 177.701 153.294C177.701 153.674 177.397 153.978 177.018 153.978H149.599C149.22 153.978 148.915 153.674 148.915 153.294C148.91 152.915 149.22 152.611 149.599 152.611Z" fill="#D1D3D3"/>
<path d="M121.525 152.611H144.544C144.923 152.611 145.227 152.915 145.227 153.294C145.227 153.674 144.923 153.978 144.544 153.978H121.525C121.146 153.978 120.842 153.674 120.842 153.294C120.842 152.915 121.152 152.611 121.525 152.611Z" fill="#D1D3D3"/>
<path d="M134.25 143.07H187.415C187.788 143.07 188.099 143.374 188.099 143.753C188.099 144.132 187.794 144.437 187.415 144.437H134.25C133.87 144.437 133.566 144.132 133.566 143.753C133.566 143.374 133.87 143.07 134.25 143.07Z" fill="#D1D3D3"/>
<path d="M121.525 143.07H130.131C130.51 143.07 130.814 143.374 130.814 143.753C130.814 144.132 130.51 144.437 130.131 144.437H121.525C121.146 144.437 120.842 144.132 120.842 143.753C120.842 143.374 121.152 143.07 121.525 143.07Z" fill="#D1D3D3"/>
<path d="M171.192 86.5703H187.306C187.685 86.5703 187.989 86.8747 187.989 87.2538C187.989 87.6329 187.685 87.9374 187.306 87.9374H171.192C170.813 87.9374 170.503 87.6329 170.503 87.2538C170.509 86.8804 170.813 86.5703 171.192 86.5703Z" fill="#D1D3D3"/>
<path d="M136.386 86.5703H166.706C167.085 86.5703 167.39 86.8747 167.39 87.2538C167.39 87.6329 167.085 87.9374 166.706 87.9374H136.386C136.007 87.9374 135.703 87.6329 135.703 87.2538C135.697 86.8804 136.007 86.5703 136.386 86.5703Z" fill="#D1D3D3"/>
<path d="M126.839 86.5703H132.641C133.02 86.5703 133.324 86.8747 133.324 87.2538C133.324 87.6329 133.02 87.9374 132.641 87.9374H126.839C126.46 87.9374 126.155 87.6329 126.155 87.2538C126.155 86.8804 126.46 86.5703 126.839 86.5703Z" fill="#D1D3D3"/>
<path d="M183.738 77.592H187.306C187.685 77.592 187.989 77.8965 187.989 78.2756C187.989 78.6547 187.685 78.9592 187.306 78.9592H183.738C183.359 78.9592 183.055 78.6547 183.055 78.2756C183.055 77.8965 183.359 77.592 183.738 77.592Z" fill="#D1D3D3"/>
<path d="M143.682 77.592H179.246C179.62 77.592 179.93 77.8965 179.93 78.2756C179.93 78.6547 179.625 78.9592 179.246 78.9592H143.682C143.303 78.9592 142.998 78.6547 142.998 78.2756C142.998 77.8965 143.303 77.592 143.682 77.592Z" fill="#D1D3D3"/>
<path d="M120.664 77.592H139.379C139.758 77.592 140.063 77.8965 140.063 78.2756C140.063 78.6547 139.758 78.9592 139.379 78.9592H120.664C120.285 78.9592 119.98 78.6547 119.98 78.2756C119.98 77.8965 120.285 77.592 120.664 77.592Z" fill="#D1D3D3"/>
<path d="M172.221 67.2986H181.59C181.969 67.2986 182.274 67.603 182.274 67.9821C182.274 68.3612 181.969 68.6657 181.59 68.6657H172.221C171.842 68.6657 171.537 68.3612 171.537 67.9821C171.537 67.603 171.847 67.2986 172.221 67.2986Z" fill="#D1D3D3"/>
<path d="M125.719 67.2986H168.2C168.579 67.2986 168.883 67.603 168.883 67.9821C168.883 68.3612 168.573 68.6657 168.2 68.6657H125.719C125.34 68.6657 125.035 68.3612 125.035 67.9821C125.035 67.603 125.34 67.2986 125.719 67.2986Z" fill="#D1D3D3"/>
<path d="M175.421 133.155H187.415C187.789 133.155 188.099 133.46 188.099 133.839C188.099 134.218 187.794 134.522 187.415 134.522H175.421C175.041 134.522 174.737 134.218 174.737 133.839C174.737 133.46 175.041 133.155 175.421 133.155Z" fill="#D1D3D3"/>
<path d="M121.525 133.155H171.302C171.681 133.155 171.985 133.46 171.985 133.839C171.985 134.218 171.675 134.522 171.302 134.522H121.525C121.146 134.522 120.842 134.218 120.842 133.839C120.842 133.46 121.152 133.155 121.525 133.155Z" fill="#D1D3D3"/>
<path d="M150.719 123.798H187.415C187.789 123.798 188.099 124.103 188.099 124.482C188.099 124.861 187.794 125.165 187.415 125.165H150.719C150.34 125.165 150.036 124.861 150.036 124.482C150.036 124.103 150.34 123.798 150.719 123.798Z" fill="#D1D3D3"/>
<path d="M139.489 123.798H145.474C145.854 123.798 146.158 124.103 146.158 124.482C146.158 124.861 145.854 125.165 145.474 125.165H139.489C139.11 125.165 138.805 124.861 138.805 124.482C138.805 124.103 139.11 123.798 139.489 123.798Z" fill="#D1D3D3"/>
<path d="M183.848 115.176H187.415C187.788 115.176 188.099 115.48 188.099 115.86C188.099 116.239 187.794 116.543 187.415 116.543H183.848C183.469 116.543 183.164 116.239 183.164 115.86C183.164 115.48 183.469 115.176 183.848 115.176Z" fill="#D1D3D3"/>
<path d="M143.791 115.176H179.355C179.735 115.176 180.039 115.48 180.039 115.86C180.039 116.239 179.735 116.543 179.355 116.543H143.791C143.412 116.543 143.108 116.239 143.108 115.86C143.108 115.48 143.418 115.176 143.791 115.176Z" fill="#D1D3D3"/>
<path d="M120.778 115.176H139.494C139.873 115.176 140.178 115.48 140.178 115.86C140.178 116.239 139.873 116.543 139.494 116.543H120.778C120.399 116.543 120.095 116.239 120.095 115.86C120.089 115.48 120.399 115.176 120.778 115.176Z" fill="#D1D3D3"/>
<path d="M172.335 104.877H181.705C182.084 104.877 182.388 105.181 182.388 105.56C182.388 105.94 182.084 106.244 181.705 106.244H172.335C171.956 106.244 171.646 105.94 171.646 105.56C171.646 105.187 171.956 104.877 172.335 104.877Z" fill="#D1D3D3"/>
<path d="M125.828 104.877H168.309C168.688 104.877 168.992 105.181 168.992 105.56C168.992 105.94 168.688 106.244 168.309 106.244H125.828C125.449 106.244 125.144 105.94 125.144 105.56C125.144 105.187 125.449 104.877 125.828 104.877Z" fill="#D1D3D3"/>
<path d="M180.579 96.4559H187.415C187.788 96.4559 188.098 96.7661 188.098 97.1395C188.098 97.5186 187.794 97.823 187.415 97.823H180.579C180.2 97.823 179.895 97.5186 179.895 97.1395C179.895 96.7661 180.2 96.4559 180.579 96.4559Z" fill="#D1D3D3"/>
<path d="M149.599 96.4559H177.017C177.396 96.4559 177.701 96.7661 177.701 97.1395C177.701 97.5186 177.396 97.823 177.017 97.823H149.599C149.219 97.823 148.915 97.5186 148.915 97.1395C148.909 96.7661 149.219 96.4559 149.599 96.4559Z" fill="#D1D3D3"/>
<path d="M121.525 96.4559H144.544C144.923 96.4559 145.227 96.7661 145.227 97.1395C145.227 97.5186 144.923 97.823 144.544 97.823H121.525C121.146 97.823 120.842 97.5186 120.842 97.1395C120.842 96.7661 121.152 96.4559 121.525 96.4559Z" fill="#D1D3D3"/>
<path d="M210.491 33.5573H195.653V142.662H210.491V33.5573Z" fill="#D9DADB"/>
<path d="M202.828 148.992C202.828 148.992 210.502 148.222 210.502 142.662H195.664C195.664 142.662 195.308 148.992 202.828 148.992Z" fill="#D9DADB"/>
<path d="M202.828 148.992C202.828 148.992 277.277 148.992 285.911 148.992C294.545 148.992 294.165 142.662 294.165 142.662H210.502C210.502 148.222 202.828 148.992 202.828 148.992Z" fill="#F3F4F4"/>
<path d="M294.165 6.33001H210.491V142.656H294.165V6.33001Z" fill="#FAFAFA"/>
<path d="M301.834 0C301.834 0 294.159 0.769717 294.159 6.33006H308.997C308.997 6.33006 309.348 0 301.834 0Z" fill="#D9DADB"/>
<path d="M301.834 0C301.834 0 227.385 0 218.751 0C210.117 0 210.502 6.33006 210.502 6.33006H294.159C294.154 0.769717 301.834 0 301.834 0Z" fill="#F3F4F4"/>
<path d="M109.611 109.593L64.1377 142.955L109.68 181.849C110.214 181.355 110.553 180.648 110.553 179.867V111.626C110.548 110.816 110.18 110.093 109.611 109.593Z" fill="#FDCA60"/>
<path d="M0.936356 109.593C0.367649 110.093 0 110.816 0 111.626V179.867C0 180.648 0.338926 181.349 0.867422 181.843L46.1917 142.788L0.936356 109.593Z" fill="#FDCA60"/>
<path d="M55.2739 149.451L46.1918 142.794L0.867547 181.848C1.35583 182.308 2.00496 182.595 2.72303 182.595H107.825C108.543 182.595 109.192 182.308 109.68 181.854L64.1376 142.961L55.2739 149.451Z" fill="#FBBA5E"/>
<path d="M107.824 108.903H2.72267C2.03907 108.903 1.41292 109.168 0.936128 109.593L46.1972 142.794L55.2793 149.451L64.1431 142.955L109.617 109.593C109.134 109.168 108.508 108.903 107.824 108.903Z" fill="#FBBF5E"/>
<path d="M55.3714 153.536L64.2352 147.033L66.8087 145.149L64.2352 142.955L55.3714 149.451L46.295 142.794L43.733 145L46.295 146.878L55.3714 153.536Z" fill="#F9B25D"/>
<path d="M64.7408 70.274L55.3658 62.0656L46.209 70.0787L1.05712 109.593H109.674L64.7408 70.274Z" fill="#FBBF5E"/>
<path d="M97.151 59.2567V118.801L55.3711 149.451L13.4879 118.801V59.2567H97.151Z" fill="#FAFAFA"/>
<path d="M268.505 52.8346H284.618C284.991 52.8346 285.302 53.1391 285.302 53.5182C285.302 53.8973 284.991 54.2017 284.618 54.2017H268.505C268.125 54.2017 267.815 53.8973 267.815 53.5182C267.821 53.1391 268.125 52.8346 268.505 52.8346Z" fill="#D1D3D3"/>
<path d="M233.693 52.8346H264.012C264.391 52.8346 264.696 53.1391 264.696 53.5182C264.696 53.8973 264.391 54.2017 264.012 54.2017H233.693C233.314 54.2017 233.009 53.8973 233.009 53.5182C233.009 53.1391 233.319 52.8346 233.693 52.8346Z" fill="#D1D3D3"/>
<path d="M224.151 52.8346H229.953C230.332 52.8346 230.637 53.1391 230.637 53.5182C230.637 53.8973 230.332 54.2017 229.953 54.2017H224.151C223.772 54.2017 223.468 53.8973 223.468 53.5182C223.468 53.1391 223.772 52.8346 224.151 52.8346Z" fill="#D1D3D3"/>
<path d="M281.051 43.8508H284.618C284.991 43.8508 285.302 44.1552 285.302 44.5343C285.302 44.9135 284.991 45.2179 284.618 45.2179H281.051C280.671 45.2179 280.367 44.9135 280.367 44.5343C280.367 44.1552 280.671 43.8508 281.051 43.8508Z" fill="#D1D3D3"/>
<path d="M240.994 43.8508H276.558C276.932 43.8508 277.242 44.1552 277.242 44.5343C277.242 44.9135 276.938 45.2179 276.558 45.2179H240.994C240.615 45.2179 240.31 44.9135 240.31 44.5343C240.31 44.1552 240.615 43.8508 240.994 43.8508Z" fill="#D1D3D3"/>
<path d="M217.976 43.8508H236.692C237.071 43.8508 237.375 44.1552 237.375 44.5343C237.375 44.9135 237.071 45.2179 236.692 45.2179H217.976C217.597 45.2179 217.292 44.9135 217.292 44.5343C217.292 44.1552 217.597 43.8508 217.976 43.8508Z" fill="#D1D3D3"/>
<path d="M269.533 33.5573H278.902C279.281 33.5573 279.586 33.8618 279.586 34.2409C279.586 34.62 279.281 34.9244 278.902 34.9244H269.533C269.154 34.9244 268.849 34.62 268.849 34.2409C268.849 33.8618 269.154 33.5573 269.533 33.5573Z" fill="#D1D3D3"/>
<path d="M223.031 33.5573H265.512C265.891 33.5573 266.195 33.8618 266.195 34.2409C266.195 34.62 265.891 34.9244 265.512 34.9244H223.031C222.652 34.9244 222.347 34.62 222.347 34.2409C222.342 33.8618 222.652 33.5573 223.031 33.5573Z" fill="#D1D3D3"/>
<path d="M248.031 90.0568H284.727C285.101 90.0568 285.411 90.3613 285.411 90.7404C285.411 91.1195 285.107 91.424 284.727 91.424H248.031C247.652 91.424 247.348 91.1195 247.348 90.7404C247.348 90.3613 247.652 90.0568 248.031 90.0568Z" fill="#D1D3D3"/>
<path d="M236.801 90.0568H242.787C243.166 90.0568 243.47 90.3613 243.47 90.7404C243.47 91.1195 243.166 91.424 242.787 91.424H236.801C236.422 91.424 236.117 91.1195 236.117 90.7404C236.117 90.3613 236.422 90.0568 236.801 90.0568Z" fill="#D1D3D3"/>
<path d="M281.16 81.4348H284.727C285.101 81.4348 285.411 81.7392 285.411 82.1183C285.411 82.4974 285.106 82.8019 284.727 82.8019H281.16C280.781 82.8019 280.476 82.4974 280.476 82.1183C280.482 81.7392 280.781 81.4348 281.16 81.4348Z" fill="#D1D3D3"/>
<path d="M241.103 81.4348H276.668C277.047 81.4348 277.351 81.7392 277.351 82.1183C277.351 82.4974 277.047 82.8019 276.668 82.8019H241.103C240.724 82.8019 240.42 82.4974 240.42 82.1183C240.42 81.7392 240.724 81.4348 241.103 81.4348Z" fill="#D1D3D3"/>
<path d="M218.085 81.4348H236.801C237.18 81.4348 237.484 81.7392 237.484 82.1183C237.484 82.4974 237.18 82.8019 236.801 82.8019H218.085C217.706 82.8019 217.402 82.4974 217.402 82.1183C217.402 81.7392 217.706 81.4348 218.085 81.4348Z" fill="#D1D3D3"/>
<path d="M269.648 71.1413H279.017C279.396 71.1413 279.701 71.4457 279.701 71.8248C279.701 72.204 279.396 72.5084 279.017 72.5084H269.648C269.269 72.5084 268.959 72.204 268.959 71.8248C268.959 71.4457 269.269 71.1413 269.648 71.1413Z" fill="#D1D3D3"/>
<path d="M223.141 71.1413H265.621C266 71.1413 266.305 71.4457 266.305 71.8248C266.305 72.204 266 72.5084 265.621 72.5084H223.141C222.761 72.5084 222.457 72.204 222.457 71.8248C222.457 71.4457 222.761 71.1413 223.141 71.1413Z" fill="#D1D3D3"/>
<path d="M277.892 62.7203H284.727C285.101 62.7203 285.411 63.0305 285.411 63.4039C285.411 63.783 285.107 64.0874 284.727 64.0874H277.892C277.512 64.0874 277.208 63.783 277.208 63.4039C277.208 63.0247 277.512 62.7203 277.892 62.7203Z" fill="#D1D3D3"/>
<path d="M246.905 62.7203H274.324C274.703 62.7203 275.007 63.0305 275.007 63.4039C275.007 63.783 274.703 64.0874 274.324 64.0874H246.905C246.526 64.0874 246.222 63.783 246.222 63.4039C246.222 63.0247 246.532 62.7203 246.905 62.7203Z" fill="#D1D3D3"/>
<path d="M218.838 62.7203H241.856C242.235 62.7203 242.539 63.0305 242.539 63.4039C242.539 63.783 242.235 64.0874 241.856 64.0874H218.838C218.458 64.0874 218.154 63.783 218.154 63.4039C218.154 63.0247 218.458 62.7203 218.838 62.7203Z" fill="#D1D3D3"/>
<path d="M81.6927 115.745H88.5287C88.902 115.745 89.2123 116.049 89.2123 116.428C89.2123 116.807 88.9078 117.112 88.5287 117.112H81.6927C81.3135 117.112 81.0091 116.807 81.0091 116.428C81.0091 116.049 81.3193 115.745 81.6927 115.745Z" fill="#D1D3D3"/>
<path d="M50.7129 115.745H78.1372C78.5163 115.745 78.8208 116.049 78.8208 116.428C78.8208 116.807 78.5163 117.112 78.1372 117.112H50.7129C50.3337 117.112 50.0293 116.807 50.0293 116.428C50.0235 116.049 50.3337 115.745 50.7129 115.745Z" fill="#D1D3D3"/>
<path d="M22.6392 115.745H45.6575C46.0367 115.745 46.3411 116.049 46.3411 116.428C46.3411 116.807 46.0367 117.112 45.6575 117.112H22.6392C22.2601 117.112 21.9556 116.807 21.9556 116.428C21.9556 116.049 22.2658 115.745 22.6392 115.745Z" fill="#D1D3D3"/>
<path d="M35.3634 106.204H88.5289C88.9023 106.204 89.2125 106.508 89.2125 106.887C89.2125 107.266 88.9081 107.571 88.5289 107.571H35.3634C34.9843 107.571 34.6798 107.266 34.6798 106.887C34.6798 106.508 34.9843 106.204 35.3634 106.204Z" fill="#D1D3D3"/>
<path d="M22.6392 106.204H31.2503C31.6294 106.204 31.9339 106.508 31.9339 106.887C31.9339 107.266 31.6294 107.571 31.2503 107.571H22.6392C22.2601 107.571 21.9556 107.266 21.9556 106.887C21.9556 106.508 22.2658 106.204 22.6392 106.204Z" fill="#D1D3D3"/>
<path d="M76.5344 96.2835H88.529C88.9024 96.2835 89.2126 96.5879 89.2126 96.967C89.2126 97.3462 88.9081 97.6506 88.529 97.6506H76.5344C76.1553 97.6506 75.8508 97.3462 75.8508 96.967C75.8508 96.5937 76.1553 96.2835 76.5344 96.2835Z" fill="#D1D3D3"/>
<path d="M22.6392 96.2835H72.4155C72.7946 96.2835 73.0991 96.5879 73.0991 96.967C73.0991 97.3462 72.7889 97.6506 72.4155 97.6506H22.6392C22.2601 97.6506 21.9556 97.3462 21.9556 96.967C21.9556 96.5937 22.2658 96.2835 22.6392 96.2835Z" fill="#D1D3D3"/>
<path d="M51.8331 86.9264H88.5291C88.9025 86.9264 89.2127 87.2308 89.2127 87.6099C89.2127 87.9891 88.9082 88.2935 88.5291 88.2935H51.8331C51.454 88.2935 51.1495 87.9891 51.1495 87.6099C51.1495 87.2366 51.454 86.9264 51.8331 86.9264Z" fill="#D1D3D3"/>
<path d="M40.6025 86.9264H46.5883C46.9674 86.9264 47.2719 87.2308 47.2719 87.6099C47.2719 87.9891 46.9674 88.2935 46.5883 88.2935H40.6025C40.2234 88.2935 39.9189 87.9891 39.9189 87.6099C39.9189 87.2366 40.2291 86.9264 40.6025 86.9264Z" fill="#D1D3D3"/>
<path d="M43.6299 125.022H80.3258C80.6992 125.022 81.0094 125.326 81.0094 125.705C81.0094 126.084 80.705 126.389 80.3258 126.389H43.6299C43.2507 126.389 42.9463 126.084 42.9463 125.705C42.9463 125.326 43.2565 125.022 43.6299 125.022Z" fill="#D1D3D3"/>
<path d="M32.4051 125.022H38.3909C38.7701 125.022 39.0745 125.326 39.0745 125.705C39.0745 126.084 38.7701 126.389 38.3909 126.389H32.4051C32.026 126.389 31.7215 126.084 31.7215 125.705C31.7215 125.326 32.026 125.022 32.4051 125.022Z" fill="#D1D3D3"/>
<path d="M49.3686 133.621H61.3689C61.7423 133.621 62.0525 133.925 62.0525 134.304C62.0525 134.683 61.7423 134.988 61.3689 134.988H49.3686C48.9895 134.988 48.685 134.683 48.685 134.304C48.685 133.925 48.9895 133.621 49.3686 133.621Z" fill="#D1D3D3"/>
<path d="M89.2125 68.367C89.2125 69.263 88.483 69.9926 87.5868 69.9926H64.9018C63.9999 69.9926 63.2761 69.263 63.2761 68.367V65.6213C63.2761 64.7194 64.0056 63.9957 64.9018 63.9957H87.5868C88.483 63.9957 89.2125 64.7252 89.2125 65.6213V68.367Z" fill="#FF876C"/>
<path d="M78.6428 67.6776H85.7775C86.1509 67.6776 86.4611 67.3732 86.4611 66.9941C86.4611 66.6149 86.1566 66.3105 85.7775 66.3105H78.6428C78.2637 66.3105 77.9592 66.6149 77.9592 66.9941C77.9592 67.3732 78.2637 67.6776 78.6428 67.6776Z" fill="white"/>
<path d="M66.6593 67.6776H74.7131C75.0922 67.6776 75.3967 67.3732 75.3967 66.9941C75.3967 66.6149 75.0922 66.3105 74.7131 66.3105H66.6593C66.2801 66.3105 65.9757 66.6149 65.9757 66.9941C65.9757 67.3732 66.2801 67.6776 66.6593 67.6776Z" fill="white"/>
<path d="M61.0126 75.0243H88.3738C88.7472 75.0243 89.0574 74.7199 89.0574 74.3408C89.0574 73.9617 88.7529 73.6572 88.3738 73.6572H61.0126C60.6335 73.6572 60.329 73.9674 60.329 74.3408C60.329 74.7199 60.6335 75.0243 61.0126 75.0243Z" fill="#D1D3D3"/>
<path d="M74.6901 81.0156H88.3735C88.7469 81.0156 89.0571 80.7112 89.0571 80.332C89.0571 79.9529 88.7527 79.6485 88.3735 79.6485H74.6901C74.311 79.6485 74.0065 79.9529 74.0065 80.332C74.0065 80.7112 74.311 81.0156 74.6901 81.0156Z" fill="#D1D3D3"/>
<path d="M66.4413 81.0156H70.5601C70.9393 81.0156 71.2437 80.7112 71.2437 80.332C71.2437 79.9529 70.9393 79.6485 70.5601 79.6485H66.4413C66.0622 79.6485 65.7577 79.9529 65.7577 80.332C65.7577 80.7112 66.0622 81.0156 66.4413 81.0156Z" fill="#D1D3D3"/>
<path d="M149.989 45.8441C149.989 46.7459 149.26 47.4697 148.364 47.4697H125.679C124.777 47.4697 124.053 46.7401 124.053 45.8441V43.0984C124.053 42.2023 124.782 41.4728 125.679 41.4728H148.364C149.26 41.4728 149.989 42.2023 149.989 43.0984V45.8441Z" fill="#19B2B8"/>
<path d="M139.42 45.1547H146.554C146.928 45.1547 147.238 44.8503 147.238 44.4712C147.238 44.092 146.933 43.7876 146.554 43.7876H139.42C139.04 43.7876 138.736 44.092 138.736 44.4712C138.736 44.8503 139.04 45.1547 139.42 45.1547Z" fill="white"/>
<path d="M127.437 45.1547H135.49C135.87 45.1547 136.174 44.8503 136.174 44.4712C136.174 44.092 135.87 43.7876 135.49 43.7876H127.437C127.057 43.7876 126.753 44.092 126.753 44.4712C126.753 44.8503 127.057 45.1547 127.437 45.1547Z" fill="white"/>
<path d="M121.789 52.5014H149.151C149.524 52.5014 149.834 52.197 149.834 51.8179C149.834 51.4388 149.53 51.1343 149.151 51.1343H121.789C121.41 51.1343 121.106 51.4388 121.106 51.8179C121.1 52.197 121.41 52.5014 121.789 52.5014Z" fill="#D1D3D3"/>
<path d="M135.467 58.4927H149.145C149.518 58.4927 149.829 58.1883 149.829 57.8091C149.829 57.43 149.524 57.1256 149.145 57.1256H135.467C135.088 57.1256 134.784 57.43 134.784 57.8091C134.784 58.1883 135.088 58.4927 135.467 58.4927Z" fill="#D1D3D3"/>
<path d="M127.218 58.4927H131.337C131.716 58.4927 132.02 58.1883 132.02 57.8091C132.02 57.43 131.716 57.1256 131.337 57.1256H127.218C126.839 57.1256 126.534 57.43 126.534 57.8091C126.534 58.1883 126.839 58.4927 127.218 58.4927Z" fill="#D1D3D3"/>
<path d="M286.945 14.3547C286.945 15.2565 286.215 15.9803 285.319 15.9803H262.634C261.738 15.9803 261.008 15.2508 261.008 14.3547V11.609C261.008 10.7129 261.738 9.9834 262.634 9.9834H285.319C286.215 9.9834 286.945 10.7129 286.945 11.609V14.3547Z" fill="#5B6D83"/>
<path d="M276.374 13.6654H283.509C283.888 13.6654 284.193 13.3609 284.193 12.9818C284.193 12.6027 283.888 12.2982 283.509 12.2982H276.374C275.995 12.2982 275.691 12.6027 275.691 12.9818C275.691 13.3609 275.995 13.6654 276.374 13.6654Z" fill="white"/>
<path d="M264.386 13.6654H272.439C272.818 13.6654 273.123 13.3609 273.123 12.9818C273.123 12.6027 272.818 12.2982 272.439 12.2982H264.386C264.012 12.2982 263.702 12.6027 263.702 12.9818C263.702 13.3609 264.012 13.6654 264.386 13.6654Z" fill="white"/>
<path d="M258.739 21.0121H286.1C286.473 21.0121 286.784 20.7076 286.784 20.3285C286.784 19.9494 286.479 19.645 286.1 19.645H258.739C258.365 19.645 258.055 19.9551 258.055 20.3285C258.055 20.7076 258.365 21.0121 258.739 21.0121Z" fill="#D1D3D3"/>
<path d="M272.422 27.0033H286.106C286.479 27.0033 286.789 26.6989 286.789 26.3198C286.789 25.9407 286.485 25.6362 286.106 25.6362H272.422C272.043 25.6362 271.739 25.9407 271.739 26.3198C271.739 26.6989 272.043 27.0033 272.422 27.0033Z" fill="#D1D3D3"/>
<path d="M264.173 27.0033H268.292C268.671 27.0033 268.976 26.6989 268.976 26.3198C268.976 25.9407 268.671 25.6362 268.292 25.6362H264.173C263.794 25.6362 263.49 25.9407 263.49 26.3198C263.49 26.6989 263.794 27.0033 264.173 27.0033Z" fill="#D1D3D3"/>
<path d="M217.476 104.48C217.476 105.376 218.206 106.106 219.102 106.106H241.787C242.689 106.106 243.413 105.376 243.413 104.48V101.735C243.413 100.833 242.683 100.109 241.787 100.109H219.102C218.206 100.109 217.476 100.839 217.476 101.735V104.48Z" fill="#FF876C"/>
<path d="M228.046 103.791H220.911C220.538 103.791 220.228 103.487 220.228 103.107C220.228 102.728 220.532 102.424 220.911 102.424H228.046C228.425 102.424 228.729 102.728 228.729 103.107C228.729 103.481 228.425 103.791 228.046 103.791Z" fill="white"/>
<path d="M240.029 103.791H231.975C231.596 103.791 231.292 103.487 231.292 103.107C231.292 102.728 231.596 102.424 231.975 102.424H240.029C240.408 102.424 240.713 102.728 240.713 103.107C240.713 103.481 240.408 103.791 240.029 103.791Z" fill="white"/>
<path d="M245.676 111.138H218.315C217.942 111.138 217.631 110.833 217.631 110.454C217.631 110.075 217.936 109.771 218.315 109.771H245.676C246.055 109.771 246.36 110.081 246.36 110.454C246.36 110.828 246.055 111.138 245.676 111.138Z" fill="#D1D3D3"/>
<path d="M231.998 117.129H218.315C217.942 117.129 217.631 116.825 217.631 116.445C217.631 116.066 217.936 115.762 218.315 115.762H231.998C232.377 115.762 232.682 116.066 232.682 116.445C232.682 116.819 232.377 117.129 231.998 117.129Z" fill="#D1D3D3"/>
<path d="M240.248 117.129H236.129C235.75 117.129 235.445 116.825 235.445 116.445C235.445 116.066 235.75 115.762 236.129 115.762H240.248C240.627 115.762 240.931 116.066 240.931 116.445C240.931 116.819 240.627 117.129 240.248 117.129Z" fill="#D1D3D3"/>
<path d="M235.118 135.373H219.004C218.631 135.373 218.321 135.677 218.321 136.056C218.321 136.435 218.625 136.74 219.004 136.74H235.118C235.497 136.74 235.801 136.435 235.801 136.056C235.807 135.677 235.497 135.373 235.118 135.373Z" fill="#D1D3D3"/>
<path d="M269.929 135.373H239.61C239.231 135.373 238.926 135.677 238.926 136.056C238.926 136.435 239.231 136.74 239.61 136.74H269.929C270.308 136.74 270.613 136.435 270.613 136.056C270.613 135.677 270.308 135.373 269.929 135.373Z" fill="#D1D3D3"/>
<path d="M279.471 135.373H273.669C273.29 135.373 272.985 135.677 272.985 136.056C272.985 136.435 273.29 136.74 273.669 136.74H279.471C279.85 136.74 280.154 136.435 280.154 136.056C280.154 135.677 279.85 135.373 279.471 135.373Z" fill="#D1D3D3"/>
<path d="M222.571 126.389H219.004C218.631 126.389 218.321 126.693 218.321 127.072C218.321 127.451 218.625 127.756 219.004 127.756H222.571C222.951 127.756 223.255 127.451 223.255 127.072C223.255 126.693 222.951 126.389 222.571 126.389Z" fill="#D1D3D3"/>
<path d="M262.628 126.389H227.064C226.685 126.389 226.38 126.693 226.38 127.072C226.38 127.451 226.685 127.756 227.064 127.756H262.628C263.007 127.756 263.312 127.451 263.312 127.072C263.317 126.693 263.007 126.389 262.628 126.389Z" fill="#D1D3D3"/>
<path d="M285.646 126.389H266.931C266.552 126.389 266.247 126.693 266.247 127.072C266.247 127.451 266.552 127.756 266.931 127.756H285.646C286.026 127.756 286.33 127.451 286.33 127.072C286.33 126.693 286.026 126.389 285.646 126.389Z" fill="#D1D3D3"/>
<g opacity="0.6">
<mask id="mask0_43_666" style="mask-type:luminance" maskUnits="userSpaceOnUse" x="161" y="39" width="23" height="23">
<path d="M183.457 50.4108C183.457 56.4422 178.568 61.3247 172.542 61.3247C166.511 61.3247 161.628 56.4364 161.628 50.4108C161.628 44.3794 166.516 39.4969 172.542 39.4969C178.568 39.4969 183.457 44.3852 183.457 50.4108Z" fill="white"/>
</mask>
<g mask="url(#mask0_43_666)">
<path d="M183.463 50.4108C183.463 56.4422 178.574 61.3247 172.548 61.3247C166.522 61.3247 161.634 56.4364 161.634 50.4108C161.634 44.3794 166.522 39.4969 172.548 39.4969C178.574 39.4969 183.463 44.3852 183.463 50.4108Z" fill="#E6E7E8"/>
</g>
<mask id="mask1_43_666" style="mask-type:luminance" maskUnits="userSpaceOnUse" x="161" y="39" width="23" height="23">
<path d="M183.457 50.4108C183.457 56.4422 178.568 61.3247 172.542 61.3247C166.511 61.3247 161.628 56.4364 161.628 50.4108C161.628 44.3794 166.516 39.4969 172.542 39.4969C178.568 39.4969 183.457 44.3852 183.457 50.4108Z" fill="white"/>
</mask>
<g mask="url(#mask1_43_666)">
<path d="M174.231 61.3131C174.231 61.8818 173.772 62.3413 173.203 62.3413H171.985C171.416 62.3413 170.957 61.8818 170.957 61.3131V59.0902C170.957 58.5215 171.416 58.062 171.985 58.062H173.203C173.772 58.062 174.231 58.5215 174.231 59.0902V61.3131Z" fill="#F1B48D"/>
<path d="M167.32 56.6891C167.32 58.6306 168.894 60.2045 170.836 60.2045H173.955C175.897 60.2045 177.471 58.6306 177.471 56.6891V47.958C177.471 46.0164 175.897 44.4425 173.955 44.4425H170.836C168.894 44.4425 167.32 46.0164 167.32 47.958V56.6891Z" fill="#F3BB8F"/>
<path d="M168.349 56.5857V45.4708C167.711 46.1084 167.32 46.9872 167.32 47.958V56.6891C167.32 58.6306 168.894 60.2045 170.836 60.2045H172.289C168.349 60.1988 168.349 56.5857 168.349 56.5857Z" fill="#F1B48D"/>
<path d="M172.542 49.1356C172.542 49.3539 172.37 49.5262 172.152 49.5262H170.066C169.848 49.5262 169.676 49.3539 169.676 49.1356C169.676 48.9173 169.848 48.745 170.066 48.745H172.152C172.37 48.745 172.542 48.9231 172.542 49.1356Z" fill="#956C51"/>
<path d="M176.489 49.1356C176.489 49.3539 176.316 49.5262 176.098 49.5262H174.013C173.794 49.5262 173.622 49.3539 173.622 49.1356C173.622 48.9173 173.8 48.745 174.013 48.745H176.098C176.316 48.745 176.489 48.9231 176.489 49.1356Z" fill="#956C51"/>
<path d="M174.587 55.4083C174.587 55.7989 174.271 56.1148 173.88 56.1148C173.49 56.1148 173.174 55.7989 173.174 55.4083V53.438C173.174 53.0474 173.49 52.7315 173.88 52.7315C174.271 52.7315 174.587 53.0474 174.587 53.438V55.4083Z" fill="#E99B7D"/>
<path d="M166.533 45.287C166.533 46.7345 169.428 47.9006 173.007 47.9006C176.58 47.9006 180.82 45.8327 179.481 45.287C177.879 44.6322 176.58 42.6734 173.007 42.6734C169.428 42.6734 166.533 43.8395 166.533 45.287Z" fill="#956C51"/>
<path d="M165.367 49.5204C165.367 51.6228 166.16 53.3288 167.137 53.3288C168.113 53.3288 168.906 51.6228 168.906 49.5204C168.906 47.418 168.113 45.712 167.137 45.712C166.16 45.712 165.367 47.418 165.367 49.5204Z" fill="#956C51"/>
<path d="M166.832 45.9533C166.832 46.1429 166.884 46.3267 166.981 46.5048C166.223 46.9413 165.672 48.4233 165.672 50.1868C165.672 51.0714 165.81 51.8813 166.045 52.5246C165.631 51.8296 165.361 50.7439 165.361 49.5204C165.361 47.757 165.919 46.275 166.677 45.8384C166.579 45.6604 166.533 45.4766 166.533 45.287C166.533 43.8395 169.429 42.6734 173.002 42.6734C176.575 42.6734 177.873 44.6379 179.476 45.287C179.786 45.4134 179.792 45.6202 179.591 45.8614C178.074 45.1376 176.741 43.334 173.318 43.334C169.733 43.334 166.832 44.5058 166.832 45.9533Z" fill="#8A654B"/>
<path d="M169.216 51.7549C169.216 52.8003 168.366 53.6562 167.315 53.6562C166.264 53.6562 165.413 52.8061 165.413 51.7549C165.413 50.7037 166.264 49.8536 167.315 49.8536C168.366 49.8593 169.216 50.7094 169.216 51.7549Z" fill="#F1B48D"/>
<path d="M168.251 51.6572C168.251 52.1741 167.832 52.5935 167.315 52.5935C166.798 52.5935 166.378 52.1741 166.378 51.6572C166.378 51.1402 166.798 50.7209 167.315 50.7209C167.832 50.7209 168.251 51.1402 168.251 51.6572Z" fill="#E99B7D"/>
</g>
</g>
<g opacity="0.6">
<mask id="mask2_43_666" style="mask-type:luminance" maskUnits="userSpaceOnUse" x="264" y="97" width="22" height="23">
<path d="M285.927 108.645C285.927 114.671 281.039 119.559 275.013 119.559C268.987 119.559 264.098 114.671 264.098 108.645C264.098 102.614 268.987 97.731 275.013 97.731C281.039 97.731 285.927 102.614 285.927 108.645Z" fill="white"/>
</mask>
<g mask="url(#mask2_43_666)">
<path d="M285.991 108.645C285.991 114.671 281.102 119.559 275.076 119.559C269.05 119.559 264.161 114.671 264.161 108.645C264.161 102.614 269.05 97.731 275.076 97.731C281.108 97.731 285.991 102.614 285.991 108.645Z" fill="#E6E7E8"/>
</g>
<mask id="mask3_43_666" style="mask-type:luminance" maskUnits="userSpaceOnUse" x="264" y="97" width="22" height="23">
<path d="M285.927 108.645C285.927 114.671 281.039 119.559 275.013 119.559C268.987 119.559 264.098 114.671 264.098 108.645C264.098 102.614 268.987 97.731 275.013 97.731C281.039 97.731 285.927 102.614 285.927 108.645Z" fill="white"/>
</mask>
<g mask="url(#mask3_43_666)">
<path d="M273.313 119.404C273.313 119.927 273.738 120.352 274.26 120.352H275.392C275.915 120.352 276.34 119.927 276.34 119.404V117.347C276.34 116.825 275.915 116.4 275.392 116.4H274.26C273.738 116.4 273.313 116.825 273.313 117.347V119.404Z" fill="#F1B48D"/>
<path d="M279.706 115.124C279.706 116.917 278.253 118.376 276.455 118.376H273.571C271.779 118.376 270.319 116.922 270.319 115.124V107.048C270.319 105.25 271.773 103.797 273.571 103.797H276.455C278.253 103.797 279.706 105.25 279.706 107.048V115.124Z" fill="#F3BB8F"/>
<path d="M278.752 115.033V104.751C279.344 105.336 279.706 106.152 279.706 107.054V115.13C279.706 116.922 278.253 118.381 276.455 118.381H275.11C278.752 118.376 278.752 115.033 278.752 115.033Z" fill="#F1B48D"/>
<path d="M268.981 105.48C268.981 106.003 269.406 106.428 269.929 106.428H280.091C280.614 106.428 281.039 106.003 281.039 105.48V102.975C281.039 102.453 280.614 102.028 280.091 102.028H269.929C269.406 102.028 268.981 102.453 268.981 102.975V105.48Z" fill="#956C51"/>
<path d="M278.931 104.222C278.546 104.222 278.236 104.446 278.236 104.716V109.978C278.236 110.248 278.546 110.472 278.931 110.472H280.763C281.148 110.472 281.458 110.253 281.458 109.978V104.716C281.458 104.446 281.148 104.222 280.763 104.222H278.931Z" fill="#956C51"/>
<path d="M274.869 108.14C274.869 108.341 275.03 108.501 275.231 108.501H277.161C277.362 108.501 277.523 108.341 277.523 108.14C277.523 107.938 277.362 107.778 277.161 107.778H275.231C275.03 107.778 274.869 107.938 274.869 108.14Z" fill="#956C51"/>
<path d="M271.221 108.14C271.221 108.341 271.382 108.501 271.583 108.501H273.513C273.714 108.501 273.875 108.341 273.875 108.14C273.875 107.938 273.714 107.778 273.513 107.778H271.583C271.382 107.778 271.221 107.938 271.221 108.14Z" fill="#956C51"/>
<path d="M269.929 102.022H280.091C280.614 102.022 281.039 102.447 281.039 102.97V104.262C281.286 104.337 281.458 104.509 281.458 104.716V109.978C281.458 110.248 281.148 110.472 280.763 110.472H280.614V106.267V104.745L280.137 104.308V104.222V102.74H269.004C269.113 102.332 269.487 102.022 269.929 102.022Z" fill="#8A654B"/>
<path d="M277.949 110.564C277.949 111.534 278.736 112.321 279.706 112.321C280.677 112.321 281.464 111.534 281.464 110.564C281.464 109.593 280.677 108.806 279.706 108.806C278.736 108.806 277.949 109.593 277.949 110.564Z" fill="#F1B48D"/>
<path d="M278.839 110.472C278.839 110.948 279.224 111.339 279.7 111.339C280.177 111.339 280.568 110.954 280.568 110.472C280.568 109.995 280.177 109.604 279.7 109.604C279.229 109.604 278.839 109.995 278.839 110.472Z" fill="#E99B7D"/>
<path d="M272.974 113.941C272.974 114.303 273.266 114.596 273.628 114.596C273.99 114.596 274.283 114.303 274.283 113.941V112.12C274.283 111.758 273.99 111.465 273.628 111.465C273.266 111.465 272.974 111.758 272.974 112.12V113.941Z" fill="#E99B7D"/>
</g>
</g>
</svg>
