<svg width="240" height="38" viewBox="0 0 240 38" fill="none" xmlns="http://www.w3.org/2000/svg">
<path d="M86.0175 14.1846C85.3978 14.1846 84.8979 14.4621 84.8979 14.8037V26.0683C84.8979 26.411 85.3997 26.6874 86.0175 26.6874C86.6371 26.6874 87.137 26.4099 87.137 26.0683V14.8037C87.137 14.4621 86.6352 14.1846 86.0175 14.1846Z" fill="white"/>
<path d="M89.6366 15.0654C89.017 15.0654 88.5171 15.3429 88.5171 15.6845V21.3079C88.5171 21.6506 89.0189 21.927 89.6366 21.927C90.2563 21.927 90.7562 21.6495 90.7562 21.3079V15.6845C90.7581 15.3429 90.2563 15.0654 89.6366 15.0654Z" fill="white"/>
<path d="M75.1586 14.1216C74.539 14.1216 74.0391 14.3991 74.0391 14.7407V20.3C74.0391 20.5964 74.4724 20.836 75.0084 20.836H75.3107C75.8467 20.836 76.28 20.5964 76.28 20.3V14.7407C76.2781 14.3991 75.7763 14.1216 75.1586 14.1216Z" fill="white"/>
<path d="M122.215 7.44482C121.596 7.44482 121.096 7.72231 121.096 8.06392V17.7288C121.096 18.0715 121.597 18.3479 122.215 18.3479C122.833 18.3479 123.335 18.0704 123.335 17.7288V8.06497C123.335 7.72232 122.833 7.44482 122.215 7.44482Z" fill="white"/>
<path d="M122.215 4.05615C121.596 4.05615 121.096 4.33364 121.096 4.67525V6.11736C121.096 6.46002 121.597 6.73646 122.215 6.73646C122.835 6.73646 123.335 6.45897 123.335 6.11736V4.6763C123.335 4.33364 122.833 4.05615 122.215 4.05615Z" fill="white"/>
<path d="M122.215 18.6655C121.596 18.6655 121.096 18.943 121.096 19.2846V31.922C121.096 32.2647 121.597 32.5411 122.215 32.5411C122.833 32.5411 123.335 32.2636 123.335 31.922V19.2846C123.335 18.943 122.833 18.6655 122.215 18.6655Z" fill="white"/>
<path d="M125.834 10.5771C125.215 10.5771 124.715 10.8546 124.715 11.1962V25.7971C124.715 26.1397 125.217 26.4162 125.834 26.4162C126.452 26.4162 126.954 26.1387 126.954 25.7971V11.1962C126.956 10.8546 126.454 10.5771 125.834 10.5771Z" fill="white"/>
<path d="M118.594 5.94922C117.975 5.94922 117.475 6.22671 117.475 6.56832V12.8571C117.475 13.1997 117.976 13.4762 118.594 13.4762C119.214 13.4762 119.714 13.1987 119.714 12.8571V6.56832C119.716 6.22671 119.214 5.94922 118.594 5.94922Z" fill="white"/>
<path d="M118.594 13.9429C117.975 13.9429 117.475 14.2204 117.475 14.562V34.1177C117.475 34.4604 117.976 34.7368 118.594 34.7368C119.214 34.7368 119.714 34.4593 119.714 34.1177V14.562C119.716 14.2204 119.214 13.9429 118.594 13.9429Z" fill="white"/>
<path d="M78.7777 14.009C78.1581 14.009 77.6582 14.2865 77.6582 14.6281V22.8236C77.6582 23.12 78.0916 23.3596 78.6276 23.3596H78.9298C79.4658 23.3596 79.8992 23.12 79.8992 22.8236V14.6281C79.8973 14.2865 79.3955 14.009 78.7777 14.009Z" fill="white"/>
<path d="M78.7777 10.9924C78.1581 10.9924 77.6582 11.2699 77.6582 11.6115V13.0221C77.6582 13.3185 78.0916 13.5582 78.6276 13.5582H78.9298C79.4658 13.5582 79.8992 13.3185 79.8992 13.0221V11.6115C79.8973 11.2699 79.3955 10.9924 78.7777 10.9924Z" fill="white"/>
<path d="M111.356 0C110.737 0 110.237 0.277491 110.237 0.619098V31.2682C110.237 31.6108 110.739 31.8873 111.356 31.8873C111.976 31.8873 112.476 31.6098 112.476 31.2682V0.619098C112.476 0.277491 111.974 0 111.356 0Z" fill="white"/>
<path d="M111.356 32.4539C110.737 32.4539 110.237 32.7313 110.237 33.073V36.3829C110.237 36.7255 110.739 37.002 111.356 37.002C111.976 37.002 112.476 36.7245 112.476 36.3829V33.073C112.476 32.7303 111.974 32.4539 111.356 32.4539Z" fill="white"/>
<path d="M100.496 2.49219C99.8759 2.49219 99.376 2.76968 99.376 3.11129V33.8812C99.376 34.2239 99.8778 34.5003 100.496 34.5003C101.115 34.5003 101.615 34.2228 101.615 33.8812V3.11129C101.617 2.76968 101.115 2.49219 100.496 2.49219Z" fill="white"/>
<path d="M104.117 6.56519C103.497 6.56519 102.997 6.84268 102.997 7.18428V22.0752C102.997 22.4179 103.499 22.6943 104.117 22.6943C104.736 22.6943 105.238 22.4168 105.238 22.0752V7.18428C105.236 6.84268 104.734 6.56519 104.117 6.56519Z" fill="white"/>
<path d="M104.117 23.0107C103.497 23.0107 102.997 23.2882 102.997 23.6298V30.2696C102.997 30.6123 103.499 30.8887 104.117 30.8887C104.736 30.8887 105.238 30.6113 105.238 30.2696V23.6298C105.236 23.2882 104.734 23.0107 104.117 23.0107Z" fill="white"/>
<path d="M107.735 11.3267C107.116 11.3267 106.616 11.6042 106.616 11.9458V33.5301C106.616 33.8728 107.118 34.1492 107.735 34.1492C108.355 34.1492 108.855 33.8717 108.855 33.5301V11.9458C108.857 11.6042 108.355 11.3267 107.735 11.3267Z" fill="white"/>
<path d="M107.735 10.7875C108.355 10.7875 108.857 10.51 108.857 10.1684V5.83467C108.857 5.49202 108.355 5.21558 107.735 5.21558C107.116 5.21558 106.616 5.49307 106.616 5.83467V10.1684C106.616 10.51 107.118 10.7875 107.735 10.7875Z" fill="white"/>
<path d="M107.735 4.67643C108.355 4.67643 108.855 4.39894 108.855 4.05734V2.70772C108.855 2.36506 108.353 2.08862 107.735 2.08862C107.116 2.08862 106.616 2.36611 106.616 2.70772V4.05628C106.616 4.39894 107.118 4.67643 107.735 4.67643Z" fill="white"/>
<path d="M96.8764 9.07324C96.2567 9.07324 95.7568 9.35073 95.7568 9.69234V27.3004C95.7568 27.643 96.2586 27.9195 96.8764 27.9195C97.496 27.9195 97.9959 27.642 97.9959 27.3004V9.69234C97.9959 9.35073 97.496 9.07324 96.8764 9.07324Z" fill="white"/>
<path d="M114.975 7.32202C114.356 7.32202 113.856 7.59951 113.856 7.94112V29.0504C113.856 29.393 114.358 29.6695 114.975 29.6695C115.593 29.6695 116.095 29.392 116.095 29.0504V7.94217C116.095 7.59951 115.595 7.32202 114.975 7.32202Z" fill="white"/>
<path d="M93.2572 12.8855C92.6376 12.8855 92.1377 13.163 92.1377 13.5046V23.4869C92.1377 23.8296 92.6395 24.106 93.2572 24.106C93.8769 24.106 94.3768 23.8285 94.3768 23.4869V13.5046C94.3768 13.163 93.875 12.8855 93.2572 12.8855Z" fill="white"/>
<path d="M71.2851 16.002C70.336 16.002 69.5673 16.2694 69.5673 16.5987V16.9857H0.882184C0.395964 16.9857 0 17.1235 0 17.2927C0 17.4619 0.395964 17.5997 0.882184 17.5997H69.5703V18.4052C69.5703 18.7355 70.3389 19.002 71.2851 19.002C72.2343 19.002 73 18.7345 73 18.4052V16.5987C73.0029 16.2694 72.2343 16.002 71.2851 16.002Z" fill="white"/>
<path d="M82.3964 8.20483C81.7768 8.20483 81.2769 8.48232 81.2769 8.82393V19.6429C81.2769 19.9393 81.7102 20.179 82.2462 20.179H82.5485C83.0845 20.179 83.5178 19.9393 83.5178 19.6429V8.82393C83.5178 8.48127 83.016 8.20483 82.3964 8.20483Z" fill="white"/>
<path d="M82.3964 20.8372C81.7768 20.8372 81.2769 21.1146 81.2769 21.4563V26.9998C81.2769 27.2962 81.7102 27.5358 82.2462 27.5358H82.5485C83.0845 27.5358 83.5178 27.2962 83.5178 26.9998V21.4563C83.5178 21.1146 83.016 20.8372 82.3964 20.8372Z" fill="white"/>
<path d="M158.413 4.4187C157.793 4.4187 157.293 4.69619 157.293 5.0378V32.4841C157.293 32.8268 157.795 33.1032 158.413 33.1032C159.031 33.1032 159.533 32.8258 159.533 32.4841V5.0378C159.533 4.69619 159.031 4.4187 158.413 4.4187Z" fill="white"/>
<path d="M140.314 16.292C139.694 16.292 139.192 16.5695 139.192 16.9111V30.5912C139.192 30.9338 139.694 31.2103 140.314 31.2103C140.933 31.2103 141.433 30.9328 141.433 30.5912V16.9111C141.433 16.5695 140.932 16.292 140.314 16.292Z" fill="white"/>
<path d="M162.032 8.65063C161.412 8.65063 160.912 8.92813 160.912 9.26973V22.0921C160.912 22.4348 161.414 22.7112 162.032 22.7112C162.651 22.7112 163.153 22.4337 163.153 22.0921V9.27078C163.153 8.92812 162.651 8.65063 162.032 8.65063Z" fill="white"/>
<path d="M162.032 23.2251C161.412 23.2251 160.912 23.5026 160.912 23.8442V27.7806C160.912 28.1232 161.414 28.3997 162.032 28.3997C162.651 28.3997 163.153 28.1222 163.153 27.7806V23.8442C163.153 23.5026 162.651 23.2251 162.032 23.2251Z" fill="white"/>
<path d="M154.792 12.3188C154.172 12.3188 153.672 12.5963 153.672 12.9379V15.0864C153.672 15.4291 154.174 15.7055 154.792 15.7055C155.412 15.7055 155.913 15.428 155.913 15.0864V12.9379C155.913 12.5953 155.412 12.3188 154.792 12.3188Z" fill="white"/>
<path d="M154.792 16.5276C154.172 16.5276 153.672 16.8051 153.672 17.1467V35.6618C153.672 36.0045 154.174 36.2809 154.792 36.2809C155.412 36.2809 155.913 36.0034 155.913 35.6618V17.1467C155.913 16.8051 155.412 16.5276 154.792 16.5276Z" fill="white"/>
<path d="M151.173 16.0735C150.553 16.0735 150.053 16.351 150.053 16.6926V30.8099C150.053 31.1526 150.555 31.429 151.173 31.429C151.792 31.429 152.294 31.1515 152.294 30.8099V16.6926C152.292 16.3499 151.792 16.0735 151.173 16.0735Z" fill="white"/>
<path d="M165.653 16.292C165.033 16.292 164.531 16.5695 164.531 16.9111V28.5131C164.531 28.8558 165.033 29.1322 165.653 29.1322C166.272 29.1322 166.772 28.8548 166.772 28.5131V16.9111C166.772 16.5695 166.27 16.292 165.653 16.292Z" fill="white"/>
<path d="M143.933 14.999C143.313 14.999 142.812 15.2765 142.812 15.6181V23.7484C142.812 24.091 143.313 24.3675 143.933 24.3675C144.553 24.3675 145.052 24.09 145.052 23.7484V15.6181C145.054 15.2755 144.553 14.999 143.933 14.999Z" fill="white"/>
<path d="M143.933 24.7324C143.313 24.7324 142.812 25.0099 142.812 25.3515V33.9338C142.812 34.2764 143.313 34.5529 143.933 34.5529C144.553 34.5529 145.052 34.2754 145.052 33.9338V25.3515C145.054 25.0099 144.553 24.7324 143.933 24.7324Z" fill="white"/>
<path d="M133.074 13.7673C132.454 13.7673 131.955 14.0448 131.955 14.3864V22.605C131.955 22.9476 132.456 23.2241 133.074 23.2241C133.694 23.2241 134.194 22.9466 134.194 22.605V14.3864C134.194 14.0448 133.694 13.7673 133.074 13.7673Z" fill="white"/>
<path d="M129.455 11.0376C128.835 11.0376 128.335 11.3151 128.335 11.6567V25.3368C128.335 25.6794 128.837 25.9559 129.455 25.9559C130.075 25.9559 130.575 25.6784 130.575 25.3368V11.6567C130.575 11.3151 130.073 11.0376 129.455 11.0376Z" fill="white"/>
<path d="M136.693 18.1189C136.074 18.1189 135.574 18.3964 135.574 18.738V28.7634C135.574 29.1061 136.076 29.3825 136.693 29.3825C137.313 29.3825 137.813 29.105 137.813 28.7634V18.738C137.815 18.3964 137.313 18.1189 136.693 18.1189Z" fill="white"/>
<path d="M147.554 18.2209C146.934 18.2209 146.435 18.4984 146.435 18.84V28.6615C146.435 29.0042 146.936 29.2806 147.554 29.2806C148.172 29.2806 148.676 29.0031 148.676 28.6615V18.84C148.674 18.4984 148.172 18.2209 147.554 18.2209Z" fill="white"/>
<path d="M172.891 13.948C172.271 13.948 171.771 14.2255 171.771 14.5671V19.9582C171.771 20.3009 172.273 20.5773 172.891 20.5773C173.509 20.5773 174.011 20.2998 174.011 19.9582V14.5671C174.012 14.2244 173.511 13.948 172.891 13.948Z" fill="white"/>
<path d="M169.272 12.9253C168.652 12.9253 168.15 13.2028 168.15 13.5444V18.4856C168.15 18.8283 168.652 19.1047 169.272 19.1047C169.891 19.1047 170.391 18.8272 170.391 18.4856V13.5444C170.391 13.2017 169.891 12.9253 169.272 12.9253Z" fill="white"/>
<path d="M169.272 19.4663C168.652 19.4663 168.15 19.7438 168.15 20.0854V21.9364C168.15 22.2791 168.652 22.5555 169.272 22.5555C169.891 22.5555 170.391 22.278 170.391 21.9364V20.0865C170.391 19.7438 169.891 19.4663 169.272 19.4663Z" fill="white"/>
<path d="M239.215 17.1955H178.056V16.5987C178.056 16.2684 177.372 16.002 176.529 16.002C175.684 16.002 175 16.2694 175 16.5987V18.4052C175 18.7355 175.684 19.002 176.529 19.002C177.375 19.002 178.056 18.7345 178.056 18.4052V17.8084H239.215C239.647 17.8084 240 17.6706 240 17.5014C240 17.3322 239.647 17.1955 239.215 17.1955Z" fill="white"/>
</svg>
