<svg width="290" height="255" viewBox="0 0 290 255" fill="none" xmlns="http://www.w3.org/2000/svg">
<path opacity="0.2" d="M198.129 204.289L80.6982 168.661C41.346 156.725 18.9842 115.104 31.0645 75.798C32.0592 72.5557 33.7227 69.3811 34.6201 65.796C51.4073 -1.14987 114.031 -25.9794 179.39 34.05C200.469 53.4108 231.022 54.5537 255.847 66.6594C300.808 88.5811 295.203 142.464 271.267 178.375C255.373 202.219 225.553 212.61 198.129 204.289Z" fill="#7EC3CF"/>
<path opacity="0.3" d="M170.344 252.166L52.9141 216.538C13.5619 204.602 -8.8042 162.981 3.28042 123.675C4.27512 120.433 5.93861 117.258 6.83596 113.673C23.6274 46.7271 86.2474 21.8976 151.606 81.927C172.685 101.288 203.237 102.431 228.063 114.536C273.023 136.458 267.419 190.342 243.483 226.253C227.589 250.096 197.769 260.483 170.344 252.166Z" fill="#7EC3CF"/>
<path d="M135.521 82.8202L98.6749 93.7493L104.652 109.559L142.967 87.6371L135.521 82.8202Z" fill="url(#paint0_linear_43_1325)"/>
<path d="M125.71 97.0383C116.097 101.669 106.252 101.161 106.252 101.161C106.252 101.161 111.987 93.1399 121.6 88.5092C131.213 83.8786 139.924 82.0331 141.058 84.3865C142.197 86.7399 135.323 92.4076 125.71 97.0383Z" fill="url(#paint1_linear_43_1325)"/>
<path d="M131.331 75.489L131.022 78.6678L134.023 85.8551L136.33 87.4593L131.331 75.489Z" fill="#015D9A"/>
<path d="M157.447 49.1185C160.127 49.965 163.187 53.3682 165.384 55.4338C166.412 56.3989 167.25 57.0761 167.779 57.0634C169.434 57.0211 172.753 58.1216 171.619 58.9386C170.48 59.7555 169.244 59.3026 167.034 57.9058C164.829 56.5089 156.563 54.2529 154.751 50.2698C154.429 49.5629 156.728 48.8899 157.447 49.1185Z" fill="#EA8C70"/>
<path d="M153.096 43.8106L152.711 41.4149C152.711 41.4149 159.166 49.8297 160.139 50.3249C161.113 50.8201 165.769 55.2603 165.769 55.2603L165.054 57.5376C165.054 57.5376 158.459 54.3799 155.382 50.5111C154.281 49.127 153.096 43.8106 153.096 43.8106Z" fill="#384760"/>
<path opacity="0.4" d="M154.929 46.3376C154.463 44.89 152.711 41.4149 152.711 41.4149C152.711 41.4149 159.166 49.8297 160.139 50.3249C161.113 50.8201 165.769 55.2603 165.769 55.2603L165.054 57.5376C165.054 57.5376 159.915 55.7767 156.838 51.9037C155.737 50.5196 155.657 48.5979 154.929 46.3376Z" fill="#384760"/>
<path d="M138.671 94.3376C146.171 94.6889 156.893 92.1027 167.869 86.8159C185.972 78.0921 195.758 60.8774 194.505 58.2827C193.147 55.4636 173.693 52.6192 155.589 61.343C144.614 66.634 135.911 73.4107 131.513 79.4932L138.671 94.3376Z" fill="#C9F9EF"/>
<path d="M149.108 64.7885C141.21 69.398 135.005 74.6636 131.517 79.4932L138.67 94.3376C144.516 94.6127 152.321 93.1016 160.672 89.9185C157.345 87.0572 154.501 83.4212 152.431 79.1292C150.179 74.4562 149.113 69.5461 149.108 64.7885Z" fill="#15B6DA"/>
<path d="M185.096 62.8203C186.285 65.288 187.691 67.4806 189.185 69.3007C193.227 63.9928 195.098 59.5103 194.51 58.287C193.871 56.9579 189.206 55.6246 182.556 55.4976C183.047 57.8214 183.89 60.3187 185.096 62.8203Z" fill="#15B6DA"/>
<path d="M174.297 73.7606C175.725 70.1396 173.947 66.0469 170.326 64.6192C166.705 63.1915 162.612 64.9695 161.185 68.5905C159.757 72.2115 161.535 76.3043 165.156 77.7319C168.777 79.1596 172.87 77.3816 174.297 73.7606Z" fill="#15B6DA"/>
<path d="M170.45 76.7927C167.352 78.2869 163.627 76.9832 162.133 73.8848C160.638 70.7864 161.942 67.0615 165.04 65.5673C168.139 64.0732 171.864 65.3769 173.358 68.4753C174.852 71.5737 173.548 75.2985 170.45 76.7927Z" fill="#015D9A"/>
<path opacity="0.21" d="M194.306 60.4455C188.588 66.7524 179.965 74.0709 169.066 79.3195C156.723 85.2666 144.825 88.7206 136.241 89.292L138.67 94.3332C146.171 94.6846 156.892 92.0983 167.868 86.8116C183.174 79.438 192.533 65.9905 194.306 60.4455Z" fill="#15B6DA"/>
<path opacity="0.43" d="M192.664 57.0426C184.169 57.5886 173.071 59.7727 162.176 65.0214C149.833 70.9685 139.716 78.1261 133.922 84.4838L131.492 79.4425C135.89 73.3558 144.593 66.5791 155.568 61.2923C170.874 53.9188 187.225 54.9728 192.664 57.0426Z" fill="#15B6DA"/>
<path d="M132.423 90.164C127.771 92.4032 123.009 92.1577 123.009 92.1577C123.009 92.1577 125.786 88.2762 130.438 86.037C135.089 83.7937 139.305 82.9006 139.851 84.0434C140.397 85.182 137.07 87.9206 132.423 90.164Z" fill="#015D9A"/>
<path opacity="0.5" d="M173.422 73.7449C172.85 74.4729 172.109 75.0867 171.221 75.5142C168.122 77.0084 164.397 75.7047 162.903 72.6063C162.069 70.8793 162.107 68.9576 162.84 67.3365C161.426 69.1481 161.066 71.6751 162.133 73.8846C163.627 76.983 167.352 78.2867 170.45 76.7925C171.822 76.1322 172.842 75.0317 173.422 73.7449Z" fill="#384760"/>
<path d="M137.621 74.2656C137.621 74.2656 123.869 67.1714 118.396 81.2708C118.396 81.2708 128.533 77.5163 132.775 80.9618L137.621 74.2656Z" fill="#015D9A"/>
<g opacity="0.5">
<path d="M133.778 79.5735C129.524 76.6063 120.855 79.7978 118.624 80.6994C118.544 80.8856 118.468 81.0761 118.391 81.2708C118.391 81.2708 128.529 77.5163 132.77 80.9618L133.778 79.5735Z" fill="#015D9A"/>
</g>
<path d="M146.645 92.9915C146.645 92.9915 143.627 108.17 129.185 103.667C129.185 103.667 138.438 98.0751 138.387 92.6105L146.645 92.9915Z" fill="#015D9A"/>
<g opacity="0.5">
<path d="M140.118 92.7249C139.788 97.9016 131.89 102.693 129.799 103.874C129.604 103.819 129.405 103.76 129.206 103.701C129.206 103.701 138.459 98.109 138.408 92.6445L140.118 92.7249Z" fill="#015D9A"/>
</g>
<path opacity="0.5" d="M124.732 91.3238C124.732 91.3238 127.238 87.8233 131.479 85.5503C131.132 85.7026 130.785 85.8635 130.434 86.0328C125.782 88.2719 123.005 92.1534 123.005 92.1534C123.005 92.1534 127.771 92.3989 132.419 90.1598C132.77 89.9905 133.113 89.8169 133.452 89.6434C129.033 91.5481 124.732 91.3238 124.732 91.3238Z" fill="#015D9A"/>
<path d="M153.515 42.2488L152.394 40.4287L151.352 40.6022L152.267 41.4869L153.515 42.2488Z" fill="#69B4BC"/>
<path d="M149.092 36.928C149.092 36.928 149.591 38.3164 148.376 40.128C147.394 41.5968 152.313 42.2613 152.313 42.2613C152.313 42.2613 152.029 39.0613 152.656 37.6772L149.092 36.928Z" fill="#F9A386"/>
<path d="M171.691 72.4456C170.751 75.1758 162.899 74.5282 156.364 71.9843C149.828 69.4404 144.364 63.9758 145.409 61.2838C146.455 58.5917 154.302 58.4224 160.127 62.0795C167.949 66.998 172.215 70.9303 171.691 72.4456Z" fill="#384760"/>
<path d="M167.894 72.4372C167.894 72.4372 164.724 73.6096 163.466 77.2837C162.205 80.9578 161.976 94.9006 161.287 96.7122C161.223 96.8815 161.155 97.0424 161.092 97.1905C160.465 98.6339 159.919 99.1757 161.033 99.8995C162.26 100.699 165.574 102.947 166.239 102.494C166.819 102.101 164.859 99.4593 164.004 97.8043C163.877 97.5588 163.775 97.3344 163.708 97.144C163.195 95.6667 172.774 74.8879 171.67 72.4118C170.561 69.9356 167.894 72.4372 167.894 72.4372Z" fill="#F9A386"/>
<path d="M155.733 49.6223C155.733 49.6223 157.667 58.4943 157.836 61.4488L153.553 60.6699C153.553 60.6699 153.667 51.9207 153.604 51.544C153.544 51.1715 155.733 49.6223 155.733 49.6223Z" fill="#384760"/>
<path d="M154.73 47.8743C154.26 45.0426 152.897 41.7791 152.393 41.1273C151.098 39.468 148.089 40.0056 146.929 41.9738C144.186 46.6384 145.342 61.5801 145.342 61.5801L156.677 60.323C156.677 60.323 155.246 51.0024 154.73 47.8743Z" fill="#7EC3CF"/>
<path opacity="0.5" d="M147.898 41.254C148.414 41.2752 149.697 39.6921 150.967 42.0921C152.783 45.5122 155.568 58.8497 156.334 63.074C156.334 63.074 150.074 64.4455 146.971 64.619C146.374 64.6529 145.837 64.2508 145.701 63.6666C145.269 61.8211 144.753 58.1132 144.681 53.4318C144.639 50.6169 147.822 41.254 147.898 41.254Z" fill="#384760"/>
<path d="M151.775 40.632L152.533 40.6574C152.533 40.6574 152.944 41.432 152.88 41.8595L152.368 41.8849L151.775 40.632Z" fill="#F05E36"/>
<path d="M149.104 40.4245C149.18 40.4203 149.257 40.4245 149.333 40.4372C149.845 40.5091 151.276 39.0615 152.304 41.5758C153.773 45.161 155.195 58.1514 155.538 62.4308C155.538 62.4308 147.894 65.1271 145.396 64.2382C145.396 64.2382 144.423 58.3334 144.931 52.2424C145.168 49.4319 145.396 40.5642 149.104 40.4245Z" fill="#384760"/>
<path d="M147.123 45.0721C147.292 44.4415 147.673 43.8743 148.215 43.5102C148.977 42.9981 150.124 42.6425 151.204 43.9124C153.324 46.4055 158.141 54.3843 157.29 55.1758C156.461 55.9504 151.225 51.616 148.355 49.1229C147.199 48.1197 146.721 46.5452 147.123 45.0721Z" fill="#F9A386"/>
<path d="M156.042 51.5481C159.991 52.7375 164.825 59.4211 166.48 59.3534C168.135 59.2857 171.47 60.3439 170.34 61.1777C169.214 62.0116 167.97 61.5756 165.743 60.2084C163.521 58.8412 155.225 56.6952 153.358 52.7375C153.032 52.0349 155.318 51.3322 156.042 51.5481Z" fill="#F9A386"/>
<path d="M165.447 72.5979C165.447 72.5979 161.409 76.3778 161.663 87.8698L160.888 95.6878L164.258 96.6698C164.258 96.6698 169.396 84.1365 171.094 77.2159C171.475 75.654 173.092 72.5979 169.959 69.4148" fill="#384760"/>
<path d="M155.771 32.5388C156.986 35.1716 156.321 38.0668 154.285 39.0065C152.249 39.9462 149.612 38.5748 148.398 35.9377C147.183 33.3049 147.847 30.4097 149.883 29.47C151.919 28.5304 154.556 29.9018 155.771 32.5388Z" fill="#F9A386"/>
<path d="M148.647 39.1249L148.05 40.581L152.173 42.9302L152.393 40.4286L148.647 39.1249Z" fill="#7EC3CF"/>
<path d="M150.942 30.7695C150.942 30.7695 154.277 32.7589 156.211 31.633C158.146 30.5071 157.287 28.687 155.983 28.6446C154.675 28.6023 153.833 28.8097 152.965 27.9378C152.097 27.0658 150.188 27.1632 149.257 27.8912C148.326 28.6193 148.186 30.27 147.255 30.5917C146.328 30.9134 145.172 32.0478 145.625 33.542C146.078 35.0362 147.513 35.2647 146.789 36.8309C146.065 38.397 148.495 39.3409 149.587 38.4351C150.679 37.5335 149.938 36.0817 149.651 34.6425C149.507 33.9229 149.49 33.6817 150.057 33.1991C150.62 32.7124 150.95 32.1155 150.942 30.7695Z" fill="#1E2B3F"/>
<path d="M150.476 33.5971C150.476 33.5971 150.04 32.6532 149.477 32.5347C149.024 32.4373 148.181 32.6701 148.224 33.6902C148.266 34.7104 149.269 35.3537 149.866 34.8881" fill="#F9A386"/>
<path opacity="0.5" d="M147.995 46.4564L147.263 47.9887L155.03 57.2669L154.615 53.013L147.995 46.4564Z" fill="#384760"/>
<path opacity="0.5" d="M154.848 46.0117C154.848 46.0117 155.754 49.2455 155.881 50.2276L156.833 50.6847L154.848 46.0117Z" fill="#384760"/>
<path opacity="0.31" d="M153.883 44.4582C153.883 44.4582 154.814 47.3111 154.933 49.0846C155.047 50.8539 156.177 57.0761 156.177 57.0761L156.677 60.3227L157.346 60.6063L155.953 52.1618C155.953 52.1618 155.496 50.3417 155.263 48.9407C155.026 47.5481 153.883 44.4582 153.883 44.4582Z" fill="#384760"/>
<path d="M156.042 51.5481C159.991 52.7375 164.825 59.4211 166.48 59.3534C168.135 59.2857 171.47 60.3439 170.34 61.1777C169.214 62.0116 167.97 61.5756 165.743 60.2084C163.521 58.8412 155.225 56.6952 153.358 52.7375C153.032 52.0349 155.318 51.3322 156.042 51.5481Z" fill="#F9A386"/>
<path d="M146.899 44.9239C147.077 44.2678 147.47 43.6795 148.033 43.3028C148.825 42.7694 150.014 42.4012 151.136 43.7218C151.648 44.3229 152.309 45.2287 153.011 46.2784C155.339 49.7535 158.137 54.7863 157.46 55.4212C156.601 56.2255 151.161 51.7218 148.177 49.1313C146.984 48.09 146.484 46.4562 146.899 44.9239Z" fill="#384760"/>
<path d="M152.347 47.4255L153.405 46.9768C153.405 46.9768 157.553 51.8869 159.953 53.8551C162.273 55.7599 163.801 57.5165 163.801 57.5165L162.946 60.3398C162.946 60.3398 154.383 56.3482 149.782 49.7239C146.895 45.5673 153.303 49.8297 153.303 49.8297L152.347 47.4255Z" fill="#384760"/>
<path opacity="0.49" d="M148.647 39.1249L148.05 40.581L152.173 42.9302L152.393 40.4286L148.647 39.1249Z" fill="#7EC3CF"/>
<path d="M161.134 96.8729C161.134 96.8729 162.763 98.1258 164.19 98.1554C164.19 98.1554 166.687 101.656 166.882 102.841C167.076 104.026 160.262 99.8781 160.194 99.4803C160.042 98.5617 161.134 96.8729 161.134 96.8729Z" fill="#1E2B3F"/>
<path d="M152.791 41.7959L152.512 41.8678C152.512 41.8678 151.818 44.1662 149.308 43.98C146.861 43.798 145.837 40.4668 140.389 39.8615C134.942 39.2604 131.902 41.9059 131.902 41.9059L130.874 44.6361L133.689 46.1176C133.689 46.1176 137.219 43.4551 140.863 44.0943C145.439 44.8943 147.246 47.108 149.9 46.3504C153.481 45.3303 152.791 41.7959 152.791 41.7959Z" fill="#F05E36"/>
<path d="M96.4795 78.6249C98.2099 71.3666 93.7287 64.0799 86.4705 62.3494C79.2122 60.619 71.9255 65.1002 70.195 72.3584C68.4646 79.6167 72.9458 86.9034 80.204 88.6339C87.4623 90.3643 94.749 85.8831 96.4795 78.6249Z" fill="white"/>
<path d="M107.866 121.325C112.498 120.786 115.816 116.593 115.277 111.96C114.737 107.328 110.544 104.01 105.912 104.549C101.279 105.089 97.9615 109.282 98.5011 113.914C99.0406 118.547 103.233 121.865 107.866 121.325Z" fill="white"/>
<path d="M93.7257 116.35C101.917 114.194 106.809 105.807 104.654 97.616C102.498 89.4251 94.1108 84.5325 85.9199 86.6879C77.7291 88.8434 72.8364 97.2308 74.9919 105.422C77.1474 113.613 85.5348 118.505 93.7257 116.35Z" fill="white"/>
<path d="M116.512 163.65C129.432 163.65 139.906 153.176 139.906 140.255C139.906 127.335 129.432 116.861 116.512 116.861C103.591 116.861 93.1171 127.335 93.1171 140.255C93.1171 153.176 103.591 163.65 116.512 163.65Z" fill="white"/>
<path d="M106.177 132.903C109.004 123.586 103.742 113.742 94.4253 110.915C85.1084 108.089 75.2642 113.35 72.4377 122.667C69.6112 131.984 74.8727 141.828 84.1896 144.655C93.5065 147.481 103.351 142.22 106.177 132.903Z" fill="white"/>
<path d="M151.058 145.388C159.118 137.328 159.118 124.26 151.058 116.2C142.998 108.14 129.93 108.14 121.87 116.2C113.81 124.26 113.81 137.328 121.87 145.388C129.93 153.448 142.998 153.448 151.058 145.388Z" fill="white"/>
<path d="M190.087 170.959C200.868 160.179 200.868 142.699 190.087 131.919C179.307 121.138 161.827 121.138 151.047 131.919C140.266 142.699 140.266 160.179 151.047 170.959C161.827 181.74 179.307 181.74 190.087 170.959Z" fill="white"/>
<path d="M217.05 149.32C222.517 140.238 219.587 128.443 210.504 122.976C201.422 117.509 189.627 120.439 184.16 129.521C178.693 138.604 181.624 150.398 190.706 155.866C199.788 161.333 211.583 158.402 217.05 149.32Z" fill="white"/>
<path d="M106.182 57.6557C109.009 48.3388 103.747 38.4947 94.4302 35.6681C85.1133 32.8416 75.2691 38.1031 72.4426 47.42C69.6161 56.7369 74.8776 66.5811 84.1945 69.4076C93.5114 72.2341 103.356 66.9726 106.182 57.6557Z" fill="white"/>
<path d="M106.204 99.7788C112.329 94.799 113.258 85.7965 108.278 79.6712C103.298 73.5459 94.296 72.6173 88.1707 77.5971C82.0454 82.577 81.1168 91.5794 86.0966 97.7047C91.0764 103.83 100.079 104.759 106.204 99.7788Z" fill="white"/>
<path opacity="0.15" d="M126.45 126.181C133.688 124.983 140.529 129.885 141.722 137.123C141.76 137.356 141.794 137.588 141.82 137.821C141.951 136.64 141.925 135.421 141.722 134.194C140.524 126.956 133.688 122.054 126.45 123.252C119.445 124.408 114.628 130.85 115.411 137.83C116.05 132.056 120.444 127.176 126.45 126.181Z" fill="#15B6DA"/>
<path opacity="0.15" d="M104.694 122.486C110.539 126.646 111.907 134.761 107.742 140.606C107.606 140.797 107.471 140.979 107.327 141.156C108.233 140.428 109.054 139.565 109.761 138.574C113.921 132.729 112.558 124.615 106.713 120.454C101.054 116.424 93.2739 117.576 89.0072 122.951C93.4305 119.387 99.8432 119.032 104.694 122.486Z" fill="#15B6DA"/>
<path opacity="0.15" d="M97.0366 80.3947C98.3149 82.7312 97.4557 85.6561 95.1192 86.9344C95.043 86.9767 94.9668 87.0148 94.8906 87.0529C95.3096 86.9555 95.7245 86.8032 96.1223 86.5873C98.4588 85.309 99.3139 82.3841 98.0398 80.0476C96.8038 77.7873 94.0229 76.9111 91.7287 78.0159C93.7816 77.5376 95.9784 78.4561 97.0366 80.3947Z" fill="#15B6DA"/>
<path opacity="0.15" d="M147.602 125.601C152.359 126.05 155.856 130.274 155.403 135.032C155.39 135.184 155.369 135.336 155.348 135.489C155.627 134.765 155.813 133.995 155.89 133.186C156.338 128.428 152.846 124.204 148.089 123.755C143.483 123.319 139.377 126.579 138.713 131.104C140.072 127.573 143.648 125.228 147.602 125.601Z" fill="#15B6DA"/>
<path opacity="0.15" d="M98.2641 58.0583C96.8419 63.3324 91.4155 66.4519 86.1414 65.0297C85.9721 64.9832 85.8028 64.9324 85.6377 64.8816C86.3996 65.3345 87.2293 65.6943 88.1266 65.9355C93.4007 67.3577 98.8271 64.2382 100.249 58.9641C101.625 53.8636 98.7467 48.6149 93.7816 46.9896C97.4938 49.1991 99.4451 53.6816 98.2641 58.0583Z" fill="#15B6DA"/>
<path opacity="0.15" d="M135.796 114.49C139.216 114.041 142.353 116.45 142.802 119.874C142.814 119.984 142.827 120.094 142.836 120.204C142.916 119.65 142.924 119.078 142.848 118.498C142.4 115.078 139.263 112.666 135.843 113.114C132.533 113.55 130.167 116.5 130.425 119.789C130.814 117.089 132.956 114.862 135.796 114.49Z" fill="#15B6DA"/>
<path opacity="0.15" d="M99.4879 101.059C100.711 104.285 99.09 107.895 95.8646 109.119C95.7588 109.157 95.6572 109.195 95.5514 109.229C96.1101 109.178 96.6689 109.055 97.2149 108.848C100.44 107.625 102.066 104.014 100.838 100.789C99.653 97.6648 96.2371 96.0479 93.0921 97.0553C95.8096 96.8098 98.4678 98.3844 99.4879 101.059Z" fill="#15B6DA"/>
<path opacity="0.15" d="M104.249 83.7345C107.136 85.6223 107.949 89.4953 106.061 92.3821C106.002 92.4752 105.938 92.5641 105.87 92.653C106.29 92.2848 106.67 91.8572 106.992 91.3662C108.88 88.4795 108.067 84.6065 105.181 82.7186C102.387 80.8901 98.6705 81.5927 96.7192 84.2594C98.7805 82.4647 101.854 82.1684 104.249 83.7345Z" fill="#15B6DA"/>
<path opacity="0.15" d="M198.501 129.559C203.936 130.071 207.927 134.896 207.415 140.335C207.398 140.509 207.377 140.683 207.352 140.856C207.669 140.031 207.885 139.15 207.97 138.227C208.482 132.793 204.495 127.967 199.056 127.451C193.794 126.951 189.108 130.676 188.342 135.844C189.9 131.811 193.989 129.131 198.501 129.559Z" fill="#15B6DA"/>
<defs>
<linearGradient id="paint0_linear_43_1325" x1="100.617" y1="102.067" x2="142.216" y2="85.7221" gradientUnits="userSpaceOnUse">
<stop stop-color="white"/>
<stop offset="0.8719" stop-color="#FEF5F2" stop-opacity="0"/>
</linearGradient>
<linearGradient id="paint1_linear_43_1325" x1="140.083" y1="84.8732" x2="104.316" y2="102.075" gradientUnits="userSpaceOnUse">
<stop offset="0.3096" stop-color="#F05E36"/>
<stop offset="0.8719" stop-color="#FEF5F2" stop-opacity="0"/>
</linearGradient>
</defs>
</svg>
