<svg width="17" height="15" viewBox="0 0 17 15" fill="none" xmlns="http://www.w3.org/2000/svg">
<mask id="mask0_44_763" style="mask-type:alpha" maskUnits="userSpaceOnUse" x="-4" y="-5" width="25" height="25">
<rect x="-3.5" y="-4.94238" width="24" height="24" fill="#D9D9D9"/>
</mask>
<g mask="url(#mask0_44_763)">
<path d="M14.0577 14.1154C13.2339 14.1154 12.5375 13.831 11.9686 13.2621C11.3998 12.6933 11.1154 11.9969 11.1154 11.1731C11.1154 10.3492 11.3998 9.6529 11.9686 9.08405C12.5375 8.5152 13.2339 8.23077 14.0577 8.23077C14.8815 8.23077 15.5779 8.5152 16.1467 9.08405C16.7156 9.6529 17 10.3492 17 11.1731C17 11.9969 16.7156 12.6933 16.1467 13.2621C15.5779 13.831 14.8815 14.1154 14.0577 14.1154ZM14.0557 13.1154C14.5917 13.1154 15.0497 12.926 15.4298 12.5471C15.8099 12.1683 16 11.7109 16 11.175C16 10.6391 15.8106 10.1811 15.4318 9.80097C15.0529 9.42084 14.5955 9.23077 14.0596 9.23077C13.5237 9.23077 13.0657 9.42019 12.6856 9.79903C12.3054 10.1779 12.1154 10.6352 12.1154 11.1711C12.1154 11.707 12.3048 12.1651 12.6836 12.5452C13.0625 12.9253 13.5198 13.1154 14.0557 13.1154ZM1.5 11.6731V10.6731H8.73077V11.6731H1.5ZM2.9423 5.88463C2.11845 5.88463 1.42211 5.6002 0.853275 5.03135C0.284425 4.4625 0 3.76616 0 2.94232C0 2.11847 0.284425 1.42212 0.853275 0.853275C1.42211 0.284425 2.11845 0 2.9423 0C3.76615 0 4.4625 0.284425 5.03135 0.853275C5.6002 1.42212 5.88463 2.11847 5.88463 2.94232C5.88463 3.76616 5.6002 4.4625 5.03135 5.03135C4.4625 5.6002 3.76615 5.88463 2.9423 5.88463ZM2.94037 4.88463C3.47627 4.88463 3.93429 4.69521 4.31442 4.31637C4.69456 3.93754 4.88463 3.48017 4.88463 2.94425C4.88463 2.40835 4.69521 1.95033 4.31638 1.5702C3.93754 1.19007 3.48017 1 2.94425 1C2.40833 1 1.95032 1.18942 1.5702 1.56825C1.19007 1.94708 1 2.40446 1 2.94037C1 3.47627 1.18942 3.93429 1.56825 4.31442C1.94708 4.69456 2.40446 4.88463 2.94037 4.88463ZM8.26923 3.44232V2.4423H15.5V3.44232H8.26923Z" fill="white"/>
</g>
</svg>
