<svg width="360" height="56" viewBox="0 0 360 56" fill="none" xmlns="http://www.w3.org/2000/svg">
<rect width="360" height="56" fill="#373BC8"/>
<path d="M71 19H64V26H71V19Z" stroke="white" stroke-width="2" stroke-linecap="round" stroke-linejoin="round"/>
<path d="M82 19H75V26H82V19Z" stroke="white" stroke-width="2" stroke-linecap="round" stroke-linejoin="round"/>
<path d="M82 30H75V37H82V30Z" stroke="white" stroke-width="2" stroke-linecap="round" stroke-linejoin="round"/>
<path d="M71 30H64V37H71V30Z" stroke="white" stroke-width="2" stroke-linecap="round" stroke-linejoin="round"/>
<g clip-path="url(#clip0_29_106)">
<path d="M180 31C181.657 31 183 29.6569 183 28C183 26.3431 181.657 25 180 25C178.343 25 177 26.3431 177 28C177 29.6569 178.343 31 180 31Z" stroke="white" stroke-width="2" stroke-linecap="round" stroke-linejoin="round"/>
<path d="M187.4 31C187.267 31.3016 187.227 31.6362 187.286 31.9606C187.345 32.285 187.499 32.5843 187.73 32.82L187.79 32.88C187.976 33.0657 188.123 33.2863 188.224 33.5291C188.325 33.7719 188.377 34.0322 188.377 34.295C188.377 34.5578 188.325 34.8181 188.224 35.0609C188.123 35.3037 187.976 35.5243 187.79 35.71C187.604 35.896 187.384 36.0435 187.141 36.1441C186.898 36.2448 186.638 36.2966 186.375 36.2966C186.112 36.2966 185.852 36.2448 185.609 36.1441C185.366 36.0435 185.146 35.896 184.96 35.71L184.9 35.65C184.664 35.4195 184.365 35.2648 184.041 35.206C183.716 35.1472 183.382 35.1869 183.08 35.32C182.784 35.4468 182.532 35.6572 182.354 35.9255C182.177 36.1938 182.081 36.5082 182.08 36.83V37C182.08 37.5304 181.869 38.0391 181.494 38.4142C181.119 38.7893 180.61 39 180.08 39C179.55 39 179.041 38.7893 178.666 38.4142C178.291 38.0391 178.08 37.5304 178.08 37V36.91C178.072 36.579 177.965 36.258 177.773 35.9887C177.58 35.7194 177.311 35.5143 177 35.4C176.698 35.2669 176.364 35.2272 176.039 35.286C175.715 35.3448 175.416 35.4995 175.18 35.73L175.12 35.79C174.934 35.976 174.714 36.1235 174.471 36.2241C174.228 36.3248 173.968 36.3766 173.705 36.3766C173.442 36.3766 173.182 36.3248 172.939 36.2241C172.696 36.1235 172.476 35.976 172.29 35.79C172.104 35.6043 171.957 35.3837 171.856 35.1409C171.755 34.8981 171.703 34.6378 171.703 34.375C171.703 34.1122 171.755 33.8519 171.856 33.6091C171.957 33.3663 172.104 33.1457 172.29 32.96L172.35 32.9C172.581 32.6643 172.735 32.365 172.794 32.0406C172.853 31.7162 172.813 31.3816 172.68 31.08C172.553 30.7842 172.343 30.532 172.074 30.3543C171.806 30.1766 171.492 30.0813 171.17 30.08H171C170.47 30.08 169.961 29.8693 169.586 29.4942C169.211 29.1191 169 28.6104 169 28.08C169 27.5496 169.211 27.0409 169.586 26.6658C169.961 26.2907 170.47 26.08 171 26.08H171.09C171.421 26.0723 171.742 25.9651 172.011 25.7725C172.281 25.5799 172.486 25.3107 172.6 25C172.733 24.6984 172.773 24.3638 172.714 24.0394C172.655 23.715 172.501 23.4157 172.27 23.18L172.21 23.12C172.024 22.9343 171.877 22.7137 171.776 22.4709C171.675 22.2281 171.623 21.9678 171.623 21.705C171.623 21.4422 171.675 21.1819 171.776 20.9391C171.877 20.6963 172.024 20.4757 172.21 20.29C172.396 20.104 172.616 19.9565 172.859 19.8559C173.102 19.7552 173.362 19.7034 173.625 19.7034C173.888 19.7034 174.148 19.7552 174.391 19.8559C174.634 19.9565 174.854 20.104 175.04 20.29L175.1 20.35C175.336 20.5805 175.635 20.7352 175.959 20.794C176.284 20.8528 176.618 20.8131 176.92 20.68H177C177.296 20.5532 177.548 20.3428 177.726 20.0745C177.903 19.8062 177.999 19.4918 178 19.17V19C178 18.4696 178.211 17.9609 178.586 17.5858C178.961 17.2107 179.47 17 180 17C180.53 17 181.039 17.2107 181.414 17.5858C181.789 17.9609 182 18.4696 182 19V19.09C182.001 19.4118 182.097 19.7262 182.274 19.9945C182.452 20.2628 182.704 20.4732 183 20.6C183.302 20.7331 183.636 20.7728 183.961 20.714C184.285 20.6552 184.584 20.5005 184.82 20.27L184.88 20.21C185.066 20.024 185.286 19.8765 185.529 19.7759C185.772 19.6752 186.032 19.6234 186.295 19.6234C186.558 19.6234 186.818 19.6752 187.061 19.7759C187.304 19.8765 187.524 20.024 187.71 20.21C187.896 20.3957 188.043 20.6163 188.144 20.8591C188.245 21.1019 188.297 21.3622 188.297 21.625C188.297 21.8878 188.245 22.1481 188.144 22.3909C188.043 22.6337 187.896 22.8543 187.71 23.04L187.65 23.1C187.419 23.3357 187.265 23.635 187.206 23.9594C187.147 24.2838 187.187 24.6184 187.32 24.92V25C187.447 25.2958 187.657 25.548 187.926 25.7257C188.194 25.9034 188.508 25.9987 188.83 26H189C189.53 26 190.039 26.2107 190.414 26.5858C190.789 26.9609 191 27.4696 191 28C191 28.5304 190.789 29.0391 190.414 29.4142C190.039 29.7893 189.53 30 189 30H188.91C188.588 30.0013 188.274 30.0966 188.006 30.2743C187.737 30.452 187.527 30.7042 187.4 31Z" stroke="white" stroke-width="2" stroke-linecap="round" stroke-linejoin="round"/>
</g>
<mask id="mask0_29_106" style="mask-type:alpha" maskUnits="userSpaceOnUse" x="273" y="12" width="32" height="32">
<rect x="273" y="12" width="32" height="32" fill="#D9D9D9"/>
</mask>
<g mask="url(#mask0_29_106)">
<path d="M297 41.3334C295.889 41.3334 294.944 40.9445 294.167 40.1667C293.389 39.389 293 38.4445 293 37.3334C293 37.1779 293.011 37.0167 293.033 36.8501C293.056 36.6834 293.089 36.5334 293.133 36.4001L283.733 30.9334C283.356 31.2667 282.933 31.5279 282.467 31.7167C282 31.9056 281.511 32.0001 281 32.0001C279.889 32.0001 278.944 31.6112 278.167 30.8334C277.389 30.0556 277 29.1112 277 28.0001C277 26.889 277.389 25.9445 278.167 25.1667C278.944 24.389 279.889 24.0001 281 24.0001C281.511 24.0001 282 24.0945 282.467 24.2834C282.933 24.4723 283.356 24.7334 283.733 25.0667L293.133 19.6001C293.089 19.4667 293.056 19.3167 293.033 19.1501C293.011 18.9834 293 18.8223 293 18.6667C293 17.5556 293.389 16.6112 294.167 15.8334C294.944 15.0556 295.889 14.6667 297 14.6667C298.111 14.6667 299.056 15.0556 299.833 15.8334C300.611 16.6112 301 17.5556 301 18.6667C301 19.7779 300.611 20.7223 299.833 21.5001C299.056 22.2779 298.111 22.6667 297 22.6667C296.489 22.6667 296 22.5723 295.533 22.3834C295.067 22.1945 294.644 21.9334 294.267 21.6001L284.867 27.0667C284.911 27.2001 284.944 27.3501 284.967 27.5167C284.989 27.6834 285 27.8445 285 28.0001C285 28.1556 284.989 28.3167 284.967 28.4834C284.944 28.6501 284.911 28.8001 284.867 28.9334L294.267 34.4001C294.644 34.0667 295.067 33.8056 295.533 33.6167C296 33.4279 296.489 33.3334 297 33.3334C298.111 33.3334 299.056 33.7223 299.833 34.5001C300.611 35.2779 301 36.2223 301 37.3334C301 38.4445 300.611 39.389 299.833 40.1667C299.056 40.9445 298.111 41.3334 297 41.3334ZM297 20.0001C297.378 20.0001 297.694 19.8723 297.95 19.6167C298.206 19.3612 298.333 19.0445 298.333 18.6667C298.333 18.289 298.206 17.9723 297.95 17.7167C297.694 17.4612 297.378 17.3334 297 17.3334C296.622 17.3334 296.306 17.4612 296.05 17.7167C295.794 17.9723 295.667 18.289 295.667 18.6667C295.667 19.0445 295.794 19.3612 296.05 19.6167C296.306 19.8723 296.622 20.0001 297 20.0001ZM281 29.3334C281.378 29.3334 281.694 29.2056 281.95 28.9501C282.206 28.6945 282.333 28.3779 282.333 28.0001C282.333 27.6223 282.206 27.3056 281.95 27.0501C281.694 26.7945 281.378 26.6667 281 26.6667C280.622 26.6667 280.306 26.7945 280.05 27.0501C279.794 27.3056 279.667 27.6223 279.667 28.0001C279.667 28.3779 279.794 28.6945 280.05 28.9501C280.306 29.2056 280.622 29.3334 281 29.3334ZM297 38.6667C297.378 38.6667 297.694 38.539 297.95 38.2834C298.206 38.0279 298.333 37.7112 298.333 37.3334C298.333 36.9556 298.206 36.639 297.95 36.3834C297.694 36.1279 297.378 36.0001 297 36.0001C296.622 36.0001 296.306 36.1279 296.05 36.3834C295.794 36.639 295.667 36.9556 295.667 37.3334C295.667 37.7112 295.794 38.0279 296.05 38.2834C296.306 38.539 296.622 38.6667 297 38.6667Z" fill="white"/>
</g>
<defs>
<clipPath id="clip0_29_106">
<rect width="24" height="24" fill="white" transform="translate(168 16)"/>
</clipPath>
</defs>
</svg>
